<svg width="133" height="99" viewBox="0 0 133 99" fill="none" xmlns="http://www.w3.org/2000/svg">
<g clip-path="url(#clip0_52_1391)">
<path d="M98.458 62.568C100.427 62.568 102.101 61.0094 102.126 59.0378C102.126 59.0231 102.126 59.0083 102.126 58.9936V21.7499C102.126 20.2749 101.34 18.913 100.064 18.1755L67.859 -0.443946C66.5824 -1.18145 65.0112 -1.18145 63.7346 -0.443946L31.5251 18.1755C30.2485 18.913 29.4629 20.2749 29.4629 21.7499V58.9887C29.4629 58.9887 29.4629 59.0182 29.4629 59.0329C29.4825 61.0045 31.1568 62.5631 33.1306 62.5631H98.4629L98.458 62.568Z" fill="#009DDA"/>
<path d="M14.748 87.0427C14.4583 87.146 14.1784 87.1657 13.9034 87.1067C13.6285 87.0427 13.4419 86.8559 13.3388 86.5363C13.2553 86.2757 13.27 86.0397 13.383 85.8234C13.4959 85.6071 13.6923 85.4497 13.9722 85.3612C15.1555 84.9384 16.0295 84.3533 16.5843 83.606C17.1391 82.8587 17.4632 81.9048 17.5565 80.7494H13.8642C13.6285 80.7494 13.4223 80.6658 13.2553 80.4937C13.0835 80.3217 13 80.1201 13 79.8841C13 79.6481 13.0835 79.4465 13.2553 79.2793C13.4272 79.1122 13.6285 79.0335 13.8642 79.0335H19.2897V77.1307H16.3241C16.0786 77.5339 15.8478 77.8781 15.6416 78.1682C15.4746 78.3943 15.2635 78.5467 14.9984 78.6156C14.7332 78.6893 14.473 78.6402 14.2177 78.4779C14.0115 78.3452 13.8789 78.1534 13.8249 77.9125C13.766 77.6716 13.8101 77.4503 13.9574 77.2537C14.1833 76.9537 14.419 76.5899 14.6694 76.1523C14.9149 75.7197 15.1506 75.287 15.3666 74.8543C15.5827 74.4217 15.7496 74.048 15.8625 73.7382C15.9656 73.4924 16.1375 73.3253 16.3781 73.2368C16.6187 73.1483 16.8592 73.1483 17.0949 73.2269C17.365 73.3302 17.5417 73.4924 17.6301 73.7137C17.7185 73.9349 17.7185 74.166 17.6399 74.402C17.5368 74.7216 17.3993 75.0608 17.2226 75.4247H19.2946V73.7382C19.2946 73.4383 19.3879 73.1974 19.5794 73.0204C19.7709 72.8385 20.0065 72.75 20.2815 72.75C20.5565 72.75 20.7823 72.8385 20.9787 73.0204C21.1751 73.2023 21.2733 73.4432 21.2733 73.7382V75.4247H24.9853C25.2209 75.4247 25.4223 75.5082 25.5892 75.6705C25.7561 75.8377 25.8347 76.0343 25.8347 76.2752C25.8347 76.5162 25.7512 76.703 25.5892 76.8702C25.4223 77.0422 25.2209 77.1258 24.9853 77.1258H21.2733V79.0286H26.3601C26.5957 79.0286 26.7971 79.1122 26.964 79.2744C27.1309 79.4416 27.2095 79.6382 27.2095 79.8792C27.2095 80.1201 27.126 80.3217 26.964 80.4888C26.7971 80.6609 26.5957 80.7445 26.3601 80.7445H22.5106V84.2747C22.5106 84.6582 22.6088 84.9138 22.8052 85.0417C23.0016 85.1695 23.3993 85.2334 23.9935 85.2334C24.3421 85.2334 24.6121 85.2088 24.7987 85.1547C24.9853 85.1007 25.1326 85.0023 25.2406 84.845C25.3486 84.6926 25.4419 84.4664 25.5254 84.1812C25.6088 83.9256 25.766 83.7437 25.9967 83.6404C26.2275 83.5372 26.4877 83.5322 26.7774 83.6257C27.0327 83.7191 27.2095 83.8666 27.3028 84.0731C27.3961 84.2796 27.4059 84.5205 27.3322 84.8007C27.1555 85.5972 26.8167 86.1676 26.3061 86.5117C25.7954 86.8559 25.0098 87.028 23.9493 87.028C23.1244 87.028 22.4714 86.9592 21.9951 86.8264C21.5139 86.6937 21.18 86.4478 20.9836 86.0987C20.7872 85.7497 20.689 85.2531 20.689 84.6139V80.7445H19.4075C19.2848 82.3031 18.8576 83.6109 18.1309 84.668C17.4043 85.7251 16.2799 86.5167 14.7529 87.0427H14.748Z" fill="#333333"/>
<path d="M37.8252 86.9151C36.3915 86.9151 35.2082 86.8167 34.2704 86.6201C33.3326 86.4234 32.5814 86.0792 32.0118 85.5827C31.8694 85.6761 31.6926 85.7892 31.4963 85.9317C31.2949 86.0694 31.1035 86.2071 30.9169 86.3349C30.7303 86.4627 30.5928 86.5611 30.4995 86.6201C30.2933 86.7528 30.0576 86.7971 29.7974 86.7528C29.5372 86.7086 29.3408 86.5709 29.218 86.3447C29.0953 86.1284 29.0609 85.8973 29.1247 85.6564C29.1886 85.4155 29.3309 85.2434 29.5568 85.1402C29.7139 85.0566 29.93 84.9435 30.2049 84.8009C30.4848 84.6583 30.7352 84.5256 30.9611 84.4125V80.9315C30.9611 80.6857 30.9218 80.5185 30.8432 80.43C30.7647 80.3415 30.6026 80.2972 30.3571 80.2972H29.8023C29.5568 80.2972 29.3604 80.2186 29.2131 80.0563C29.0707 79.8941 28.9971 79.7023 28.9971 79.4762C28.9971 79.25 29.0707 79.073 29.2131 78.9107C29.3555 78.7485 29.5519 78.6698 29.8023 78.6698H31.0396C32.1198 78.6698 32.6648 79.2107 32.6648 80.2972V84.1667C32.9447 84.4469 33.2933 84.6682 33.7156 84.8402C34.1378 85.0123 34.6828 85.1352 35.3555 85.2139C36.0282 85.2926 36.8481 85.3319 37.8301 85.3319C38.6943 85.3319 39.5339 85.3172 40.349 85.2877C41.164 85.2582 41.8514 85.2188 42.421 85.1795C42.7205 85.1598 42.966 85.2237 43.1624 85.3811C43.3588 85.5384 43.457 85.7449 43.457 86.0153C43.457 86.2857 43.3784 86.5021 43.2164 86.6643C43.0544 86.8315 42.8039 86.9102 42.4504 86.9102C42.1215 86.9102 41.7434 86.9102 41.3211 86.92C40.8989 86.9249 40.4668 86.9298 40.0298 86.9298H37.8252V86.9151ZM31.3931 76.2508C31.1771 76.0247 30.9218 75.7739 30.6272 75.4986C30.3326 75.2232 30.0625 74.9922 29.817 74.7955C29.6501 74.6529 29.5666 74.4661 29.5617 74.2448C29.5568 74.0236 29.6206 73.8318 29.7532 73.6647C29.8956 73.4877 30.0822 73.3844 30.308 73.35C30.5339 73.3156 30.745 73.3746 30.9414 73.527C31.2213 73.7335 31.511 73.9695 31.8154 74.2399C32.1198 74.5103 32.3751 74.7414 32.5814 74.9381C32.7581 75.1151 32.8465 75.3216 32.8514 75.5576C32.8563 75.7936 32.7728 76.005 32.5961 76.1918C32.4291 76.3688 32.2327 76.4622 31.9922 76.477C31.7565 76.4917 31.5552 76.418 31.3882 76.2508H31.3931ZM37.2508 84.442C36.4897 84.442 35.8858 84.3633 35.4488 84.2011C35.0118 84.0388 34.6976 83.7782 34.5159 83.4095C34.3293 83.0457 34.236 82.554 34.236 81.9492V77.7996C34.0396 78.0454 33.8285 78.2912 33.6026 78.5272C33.4357 78.7141 33.2344 78.8272 32.9938 78.8763C32.7532 78.9206 32.5224 78.8567 32.3064 78.6846C32.1198 78.5322 32.0265 78.3306 32.0216 78.0798C32.0167 77.834 32.0953 77.6324 32.2622 77.4751C32.817 76.9392 33.3375 76.3197 33.8236 75.6166C34.3097 74.9135 34.727 74.1907 35.0756 73.4483C35.1886 73.2123 35.3555 73.0501 35.5715 72.9665C35.7876 72.8829 36.0085 72.8977 36.2344 73.0107C36.4406 73.114 36.583 73.2664 36.6665 73.468C36.7499 73.6696 36.7352 73.8859 36.6223 74.1268C36.5093 74.3628 36.3866 74.6037 36.2589 74.8397C36.1313 75.0757 35.9938 75.3167 35.8514 75.5527H37.7859C37.889 75.3363 37.9971 75.0954 38.11 74.8348C38.2229 74.5693 38.3359 74.3137 38.4439 74.0629C38.5519 73.8122 38.6354 73.6007 38.6992 73.4385C38.8023 73.2025 38.9692 73.0402 39.1951 72.9567C39.421 72.8731 39.6468 72.878 39.8776 72.9714C40.1329 73.0747 40.2949 73.2369 40.3637 73.4582C40.4324 73.6794 40.4079 73.9007 40.2949 74.117C40.1918 74.3137 40.074 74.5447 39.9463 74.8053C39.8187 75.0659 39.691 75.3167 39.5683 75.5576H42.0576C42.2737 75.5576 42.4553 75.6362 42.6075 75.7887C42.7548 75.946 42.8334 76.123 42.8334 76.3295C42.8334 76.5458 42.7598 76.7277 42.6075 76.8802C42.4602 77.0326 42.2737 77.1063 42.0576 77.1063H39.6763V78.0651H41.6845C41.8809 78.0651 42.0429 78.1339 42.1804 78.2667C42.3129 78.3994 42.3817 78.5666 42.3817 78.7632C42.3817 78.9599 42.3129 79.1271 42.1804 79.2647C42.0478 79.4024 41.8809 79.4712 41.6845 79.4712H39.6763V80.43H41.6845C41.8809 80.43 42.0429 80.4988 42.1804 80.6365C42.3179 80.7742 42.3817 80.9413 42.3817 81.138C42.3817 81.3347 42.3129 81.5018 42.1804 81.6346C42.0478 81.7673 41.8809 81.8362 41.6845 81.8362H39.6763V82.8736H42.2098C42.4161 82.8736 42.5977 82.9522 42.7499 83.1047C42.9021 83.2571 42.9807 83.4439 42.9807 83.6602C42.9807 83.8766 42.9021 84.0487 42.7499 84.2011C42.5928 84.3535 42.4161 84.4322 42.2098 84.4322H37.2655L37.2508 84.442ZM36.0331 78.0651H37.9676V77.1063H36.0331V78.0651ZM36.0331 80.43H37.9676V79.4712H36.0331V80.43ZM37.2851 82.8785H37.9676V81.8411H36.0331C36.0331 82.2737 36.1165 82.554 36.2884 82.6867C36.4602 82.8195 36.7892 82.8785 37.2851 82.8785Z" fill="#333333"/>
<path d="M48.4747 85.9267C47.7333 85.9267 47.1539 85.853 46.7414 85.7104C46.329 85.5678 46.0442 85.322 45.8822 84.9729C45.7202 84.6287 45.6416 84.1616 45.6416 83.5716V78.0306C45.6416 77.3275 45.7545 76.8014 45.9755 76.4425C46.1964 76.0885 46.6236 75.8574 47.2521 75.7541C47.3159 75.4739 47.3846 75.1396 47.4681 74.7462C47.5516 74.3529 47.6105 74.0333 47.6547 73.7875C47.7038 73.4974 47.8315 73.2909 48.0278 73.168C48.2242 73.0451 48.4599 73.0106 48.7398 73.0598C49.0197 73.109 49.221 73.2417 49.3437 73.4482C49.4665 73.6547 49.4959 73.8907 49.437 74.1611C49.3977 74.3578 49.3339 74.6036 49.2504 74.9036C49.167 75.2035 49.0982 75.4641 49.0344 75.6951C49.6432 75.7246 50.1097 75.823 50.4387 75.9901C50.7676 76.1573 50.9935 76.4031 51.1211 76.7326C51.2488 77.062 51.3077 77.4946 51.3077 78.0306V83.5716C51.3077 84.1616 51.2292 84.6287 51.0671 84.9729C50.9051 85.3171 50.6252 85.5629 50.2177 85.7104C49.8102 85.853 49.2308 85.9267 48.4796 85.9267H48.4747ZM47.4534 79.953H49.4959V78.2174C49.4959 77.8683 49.4272 77.6274 49.2946 77.4996C49.1621 77.3717 48.8871 77.3078 48.4747 77.3078C48.0622 77.3078 47.7873 77.3717 47.6547 77.4996C47.5221 77.6274 47.4534 77.8683 47.4534 78.2174V79.953ZM48.4747 84.2993C48.8871 84.2993 49.1621 84.2354 49.2946 84.1076C49.4272 83.9797 49.4959 83.7388 49.4959 83.3897V81.5312H47.4534V83.3897C47.4534 83.7388 47.5221 83.9797 47.6547 84.1076C47.7873 84.2354 48.0622 84.2993 48.4747 84.2993ZM55.1964 87.0871C54.9166 87.0969 54.6809 87.0379 54.4796 86.9101C54.2783 86.7822 54.1506 86.561 54.1015 86.2512C54.072 85.9808 54.1359 85.7546 54.3028 85.5629C54.4698 85.3711 54.6907 85.2679 54.9657 85.2433C55.4419 85.204 55.7954 85.1499 56.0311 85.0811C56.2668 85.0122 56.4387 84.8942 56.5418 84.7172C56.6449 84.5402 56.7283 84.2747 56.7873 83.9109C56.9002 83.2521 56.9738 82.5096 57.0033 81.6836C57.0328 80.8576 57.0475 79.8153 57.0475 78.5566C57.0475 78.0404 56.964 77.7061 56.802 77.5487C56.6351 77.3963 56.3061 77.3176 55.8151 77.3176H53.9591C53.8265 77.6372 53.6792 77.9371 53.527 78.2174C53.3699 78.4976 53.2226 78.7533 53.0802 78.9893C52.9477 79.2155 52.7611 79.3679 52.5254 79.4466C52.2897 79.5252 52.054 79.5006 51.8282 79.3777C51.622 79.2646 51.4796 79.0926 51.401 78.8664C51.3225 78.6402 51.347 78.4239 51.4697 78.2174C51.7152 77.8142 51.9657 77.357 52.2112 76.8456C52.4567 76.3343 52.6874 75.8082 52.8936 75.2576C53.0999 74.7118 53.2668 74.1906 53.3896 73.6941C53.4534 73.4236 53.586 73.227 53.7971 73.0893C54.0082 72.9566 54.2439 72.9172 54.4992 72.9811C54.7349 73.0352 54.9215 73.1581 55.054 73.3548C55.1866 73.5515 55.2259 73.7826 55.1621 74.053C55.0295 74.5791 54.8576 75.1199 54.6514 75.6804H55.982C56.6743 75.6804 57.2243 75.7541 57.6367 75.8967C58.0491 76.0393 58.3486 76.3196 58.5352 76.7227C58.7218 77.1259 58.8151 77.7208 58.8151 78.4927C58.8151 79.3679 58.8053 80.1447 58.7905 80.8134C58.7758 81.487 58.7463 82.0868 58.7071 82.6227C58.6678 83.1586 58.6089 83.6749 58.5352 84.1715C58.4223 84.9335 58.2406 85.5236 57.9853 85.9366C57.7349 86.3496 57.3814 86.6347 56.9346 86.797C56.4878 86.9543 55.9084 87.0526 55.1964 87.0821V87.0871ZM55.6629 82.7997C55.4567 82.9423 55.2357 83.0013 55 82.9718C54.7643 82.9423 54.5729 82.8145 54.4305 82.5981C54.3077 82.4015 54.1555 82.1753 53.9738 81.9147C53.7922 81.6591 53.6105 81.4034 53.4337 81.1576C53.2521 80.9117 53.095 80.7101 52.9624 80.5528C52.8298 80.3758 52.7758 80.1742 52.8004 79.9431C52.8249 79.7121 52.9329 79.5301 53.1195 79.3925C53.3061 79.2401 53.5172 79.1712 53.7529 79.2007C53.9886 79.2302 54.185 79.3335 54.3421 79.5203C54.4943 79.6973 54.6711 79.9038 54.8576 80.1398C55.0491 80.3758 55.2308 80.6216 55.4076 80.8675C55.5843 81.1133 55.7316 81.3395 55.8544 81.5312C55.9968 81.7574 56.0508 81.9885 56.0164 82.2294C55.982 82.4654 55.8642 82.6571 55.6678 82.7997H55.6629Z" fill="#333333"/>
<path d="M61.8595 86.5311C61.6631 86.4082 61.5354 86.2361 61.4716 86.0197C61.4078 85.8034 61.4569 85.5969 61.6091 85.4002C61.7515 85.2134 61.9135 84.9872 62.0952 84.7119C62.2769 84.4366 62.4536 84.1563 62.6304 83.8662C62.8071 83.5762 62.9446 83.3303 63.0477 83.1238C63.1607 82.8878 63.3276 82.7256 63.5485 82.642C63.7695 82.5584 63.9904 82.5732 64.2065 82.6862C64.4225 82.7895 64.5698 82.9468 64.6533 83.1681C64.7368 83.3844 64.722 83.6106 64.6091 83.8515C64.4962 84.0875 64.3489 84.3579 64.177 84.6578C64.0003 84.9577 63.8235 85.2478 63.6369 85.533C63.4503 85.8182 63.2736 86.0689 63.1116 86.2852C62.9593 86.4917 62.7629 86.6196 62.5322 86.6638C62.3014 86.713 62.0755 86.6638 61.8595 86.5311ZM62.8955 82.1356C62.6255 82.1454 62.4094 82.0815 62.2474 81.9438C62.0805 81.8062 61.9921 81.6046 61.9675 81.3489C61.9479 81.1129 62.0166 80.9113 62.1737 80.754C62.3358 80.5917 62.5224 80.5131 62.7384 80.5131C63.0968 80.4934 63.524 80.4737 64.015 80.4492C64.506 80.4295 65.0314 80.4049 65.6009 80.3705C65.7237 80.1443 65.8661 79.8739 66.0281 79.5592C66.1901 79.2446 66.3374 78.9397 66.4847 78.6398C66.6271 78.3399 66.7302 78.1137 66.794 77.9613C66.907 77.7155 67.069 77.5434 67.2801 77.45C67.4913 77.3566 67.7171 77.3517 67.9528 77.4352C68.1885 77.5188 68.3554 77.6614 68.4536 77.863C68.5518 78.0646 68.5469 78.2858 68.4438 78.5218C68.3701 78.689 68.2474 78.9447 68.0657 79.2888C67.8841 79.633 67.7122 79.9624 67.5502 80.2722C68.2081 80.223 68.8513 80.1787 69.4847 80.1394C70.1132 80.105 70.6827 80.0657 71.1983 80.0214C71.1246 79.9477 71.0559 79.8837 70.9921 79.8297C70.9233 79.7756 70.8644 79.7264 70.8153 79.6822C70.6827 79.5691 70.6042 79.4265 70.5845 79.2495C70.5649 79.0725 70.5944 78.9152 70.6778 78.7677C70.069 78.6841 69.6517 78.5071 69.4258 78.2268C69.1999 77.9466 69.087 77.5336 69.087 76.9878V75.5817H67.231C67.3538 75.7144 67.4225 75.8717 67.4373 76.0438C67.452 76.2159 67.4029 76.388 67.2899 76.5552C66.8382 77.1845 66.2932 77.745 65.6598 78.2416C65.0264 78.7382 64.3489 79.1315 63.6271 79.4167C63.3718 79.5199 63.1263 79.5347 62.9004 79.456C62.6746 79.3773 62.5076 79.2249 62.4045 78.9987C62.321 78.7922 62.3161 78.5857 62.3898 78.3792C62.4634 78.1727 62.6206 78.0302 62.871 77.9466C63.4798 77.7401 64.0444 77.4352 64.5649 77.0272C65.0854 76.6191 65.5518 76.1471 65.9643 75.6112L65.9937 75.5817H64.4618C64.123 75.5817 63.8775 75.6456 63.7253 75.7685C63.578 75.8914 63.4994 76.1127 63.4994 76.4323V76.7125C63.4994 77.0026 63.416 77.214 63.2441 77.3468C63.0723 77.4795 62.871 77.5483 62.6353 77.5483C62.3996 77.5483 62.2081 77.4795 62.0412 77.3468C61.8693 77.214 61.7859 77.0026 61.7859 76.7125V76.2798C61.7859 75.5079 61.9724 74.9523 62.3407 74.6229C62.7138 74.2935 63.3325 74.1263 64.2114 74.1263H67.6582V73.6002C67.6582 73.3003 67.7515 73.0692 67.943 72.9021C68.1345 72.7349 68.3603 72.6562 68.6304 72.6562C68.9004 72.6562 69.1263 72.7398 69.3129 72.9021C69.4994 73.0692 69.5927 73.3003 69.5927 73.6002V74.1263H73.0543C73.9282 74.1263 74.5518 74.2935 74.925 74.6229C75.2981 74.9523 75.4798 75.503 75.4798 76.2798V76.7125C75.4798 76.9927 75.3963 77.1992 75.2343 77.3369C75.0674 77.4746 74.8661 77.5434 74.6304 77.5434C74.5567 77.5434 74.5076 77.5434 74.4782 77.5287C74.3112 77.9515 74.0755 78.2612 73.7613 78.4579C73.4471 78.6546 72.9659 78.7726 72.3178 78.8119C72.5338 78.9889 72.7695 79.1905 73.0297 79.4167C73.285 79.6428 73.5354 79.8641 73.7809 80.0804C74.0264 80.2967 74.2228 80.4836 74.3751 80.636C74.5616 80.8228 74.65 81.0293 74.6451 81.2604C74.6402 81.4915 74.5322 81.7029 74.326 81.8848C74.159 82.0274 73.9626 82.1061 73.7318 82.111C73.5011 82.1159 73.2949 82.0274 73.123 81.8406C73.0494 81.7668 72.9757 81.6882 72.8922 81.5997C72.8088 81.5112 72.7204 81.4276 72.6271 81.344C72.1656 81.3932 71.6009 81.4522 70.9332 81.5161C70.2703 81.58 69.5584 81.639 68.8022 81.7029C68.0461 81.7668 67.2949 81.8258 66.5535 81.8799C65.812 81.9389 65.1246 81.9881 64.4913 82.0372C63.8579 82.0864 63.3276 82.1159 62.9053 82.1356H62.8955ZM68.9692 87.1014C68.0706 87.1014 67.3734 87.0277 66.8677 86.8752C66.362 86.7228 66.0084 86.4672 65.8022 86.0935C65.596 85.7198 65.4929 85.2183 65.4929 84.5742V83.1976C65.4929 82.9272 65.5813 82.7157 65.758 82.5535C65.9348 82.3912 66.141 82.3126 66.3767 82.3126C66.6124 82.3126 66.8186 82.3912 66.9855 82.5535C67.1525 82.7157 67.2409 82.9272 67.2409 83.1976V84.4218C67.2409 84.7217 67.285 84.9528 67.3734 85.1102C67.4618 85.2724 67.6336 85.3806 67.889 85.4445C68.1443 85.5084 68.5224 85.5379 69.0183 85.5379C69.5142 85.5379 69.8579 85.5133 70.1083 85.4691C70.3587 85.4248 70.5502 85.3314 70.6729 85.1987C70.7957 85.0659 70.8988 84.8791 70.9823 84.6431C71.0657 84.4169 71.2179 84.2645 71.4438 84.1858C71.6697 84.1072 71.8906 84.1121 72.1066 84.1957C72.3423 84.2792 72.5093 84.4169 72.6026 84.6136C72.6958 84.8102 72.7057 85.0266 72.632 85.2626C72.4994 85.7149 72.303 86.0787 72.0428 86.3442C71.7875 86.6147 71.4094 86.8064 70.9233 86.9244C70.4323 87.0424 69.7842 87.1014 68.9692 87.1014ZM70.2212 84.5005C70.0543 84.6529 69.8628 84.7316 69.6418 84.7316C69.4209 84.7316 69.2196 84.6431 69.0477 84.4661C68.871 84.2891 68.6746 84.0924 68.4536 83.8712C68.2327 83.6499 68.0264 83.4582 67.8448 83.291C67.7024 83.1582 67.6287 82.9862 67.6386 82.7747C67.6435 82.5633 67.7122 82.3863 67.8448 82.2388C68.0117 82.0717 68.1934 81.9832 68.3947 81.9684C68.596 81.9537 68.7826 82.0176 68.9593 82.1602C69.0625 82.2339 69.1901 82.3372 69.3472 82.4699C69.4994 82.6027 69.6566 82.7452 69.8186 82.8878C69.9757 83.0304 70.1083 83.1632 70.2114 83.2762C70.398 83.4532 70.4913 83.6499 70.4962 83.8712C70.5011 84.0924 70.4127 84.3038 70.2261 84.4956L70.2212 84.5005ZM71.7188 77.2582C72.1116 77.2582 72.3816 77.2238 72.5387 77.1501C72.6909 77.0763 72.8235 76.9288 72.9266 76.7027C73.0003 76.5601 73.1132 76.4568 73.2752 76.4027C73.4373 76.3437 73.5993 76.329 73.7613 76.3487C73.7515 76.0586 73.668 75.857 73.5158 75.7439C73.3636 75.6308 73.1181 75.5718 72.7891 75.5718H70.7318V76.5011C70.7318 76.8207 70.7957 77.0272 70.9233 77.1206C71.051 77.214 71.3161 77.2582 71.7188 77.2582ZM75.4749 86.0492C75.2981 86.1918 75.0919 86.2607 74.8562 86.2508C74.6206 86.241 74.4291 86.1377 74.2867 85.9411C74.1541 85.7444 73.9724 85.5084 73.7515 85.238C73.5305 84.9627 73.3047 84.6972 73.0788 84.4317C72.853 84.1711 72.6517 83.9547 72.4749 83.7876C72.3178 83.6352 72.2589 83.4385 72.2883 83.2074C72.3178 82.9763 72.416 82.7944 72.5829 82.6567C72.7597 82.5142 72.961 82.4453 73.1868 82.4552C73.4127 82.465 73.6091 82.5584 73.776 82.7354C73.9724 82.9222 74.1836 83.1386 74.4192 83.3942C74.6549 83.6499 74.871 83.9007 75.0821 84.1514C75.2932 84.4071 75.47 84.6234 75.6173 84.8102C75.7744 85.0167 75.8382 85.2331 75.8186 85.4592C75.799 85.6854 75.686 85.8821 75.4798 86.0492H75.4749Z" fill="#333333"/>
<path d="M80.8409 81.4083C80.5856 81.3886 80.3745 81.2805 80.2174 81.0838C80.0553 80.8871 79.9817 80.6511 79.9915 80.3709C80.0111 80.1005 80.016 79.7465 80.0062 79.2941C79.9964 78.8467 79.9817 78.3698 79.962 77.8683C79.9424 77.3668 79.9129 76.8899 79.8786 76.4277C79.8442 75.9705 79.8049 75.5968 79.7607 75.3067C79.7214 75.0265 79.7804 74.7855 79.9473 74.579C80.1143 74.3725 80.3254 74.2545 80.5807 74.225C80.8507 74.1955 81.0864 74.2545 81.2926 74.402C81.4989 74.5495 81.6167 74.761 81.6462 75.0265C81.6756 75.3165 81.71 75.705 81.7444 76.1966C81.7787 76.6883 81.8131 77.2045 81.8377 77.7503C81.8622 78.296 81.8818 78.8221 81.9015 79.3236C81.9211 79.8251 81.9162 80.2283 81.8917 80.538C81.8818 80.8183 81.7689 81.0346 81.5578 81.187C81.3467 81.3395 81.1061 81.4132 80.8409 81.4034V81.4083ZM82.3876 86.5315C82.1617 86.6642 81.9162 86.6937 81.6511 86.6101C81.3859 86.5265 81.1944 86.3741 81.0717 86.148C80.9489 85.912 80.9195 85.6661 80.9882 85.4203C81.057 85.1745 81.2043 84.9827 81.4301 84.85C82.0684 84.5009 82.6036 84.1075 83.0357 83.6798C83.4678 83.252 83.8164 82.7555 84.0815 82.1851C84.3467 81.6197 84.5332 80.9461 84.6511 80.1742C84.7689 79.4023 84.8278 78.4878 84.8278 77.4356C84.8278 77.003 84.8131 76.5359 84.7886 76.0442C84.764 75.5476 84.7247 75.1395 84.6707 74.82C84.6413 74.5495 84.71 74.3135 84.8769 74.107C85.0439 73.9005 85.2599 73.7825 85.5201 73.753C85.7902 73.7235 86.021 73.7875 86.2223 73.9546C86.4236 74.1218 86.5414 74.3381 86.5709 74.6036C86.6102 74.8495 86.6396 75.1494 86.6543 75.4935C86.6691 75.8377 86.6789 76.1819 86.6838 76.5211C86.6887 76.8604 86.6936 77.1652 86.6936 77.4356C86.6936 78.9205 86.5709 80.2283 86.3205 81.3591C86.075 82.49 85.638 83.4733 85.0144 84.314C84.3908 85.1548 83.512 85.8972 82.3778 86.5364L82.3876 86.5315Z" fill="#333333"/>
<path d="M92.2765 85.2777C92.0506 85.4104 91.81 85.4498 91.5596 85.3957C91.3092 85.3367 91.1079 85.199 90.9655 84.9679C90.8329 84.7418 90.7937 84.5008 90.8477 84.2403C90.9017 83.9846 91.0441 83.7879 91.2748 83.6503C92.0703 83.1881 92.846 82.6374 93.6022 82.0032C94.3583 81.3689 95.0752 80.6855 95.7527 79.9578C96.4254 79.2302 97.0293 78.4878 97.5596 77.7355C98.0899 76.9833 98.5171 76.2507 98.8362 75.5378C98.9491 75.3018 99.1308 75.1346 99.3763 75.0363C99.6218 74.9379 99.8673 74.9478 100.103 75.0608C100.339 75.1641 100.506 75.3411 100.604 75.5869C100.702 75.8328 100.692 76.0786 100.579 76.3146C100.196 77.1209 99.72 77.9322 99.1505 78.7533C98.5809 79.5743 97.9328 80.3807 97.2159 81.1673C96.4991 81.9589 95.7233 82.7013 94.8886 83.3946C94.0539 84.0928 93.1848 84.7172 92.2765 85.2777Z" fill="#333333"/>
<path d="M116.311 84.1169C116.002 83.817 115.614 83.463 115.142 83.0549C114.671 82.6468 114.175 82.224 113.65 81.7864C113.124 81.3488 112.609 80.926 112.103 80.5228C111.597 80.1197 111.155 79.7755 110.772 79.4854C110.483 79.2691 110.223 79.1216 109.982 79.0429C109.746 78.9643 109.501 78.9544 109.245 79.0134C108.995 79.0724 108.696 79.1953 108.357 79.392C108.067 79.5592 107.738 79.7509 107.37 79.982C107.002 80.2131 106.638 80.4294 106.295 80.6458C105.951 80.8621 105.666 81.0391 105.45 81.1718C105.224 81.3046 104.979 81.3439 104.723 81.28C104.468 81.2161 104.267 81.0735 104.119 80.8473C103.987 80.6212 103.948 80.3803 104.011 80.1197C104.075 79.864 104.218 79.6673 104.443 79.5297C104.659 79.3969 104.949 79.2199 105.308 79.0036C105.666 78.7873 106.049 78.566 106.442 78.3448C106.84 78.1235 107.183 77.9318 107.468 77.7646C108.087 77.4352 108.627 77.2188 109.083 77.1156C109.54 77.0123 109.982 77.0271 110.404 77.1598C110.826 77.2926 111.303 77.5532 111.828 77.9318C112.108 78.1284 112.442 78.3792 112.84 78.684C113.237 78.9888 113.659 79.3183 114.106 79.6772C114.553 80.0312 115 80.395 115.442 80.7687C115.884 81.1423 116.301 81.4914 116.684 81.8307C117.072 82.165 117.396 82.4551 117.666 82.7058C117.872 82.8927 117.975 83.1188 117.975 83.3892C117.975 83.6597 117.877 83.8957 117.681 84.1022C117.494 84.289 117.263 84.3824 116.984 84.3873C116.704 84.3922 116.473 84.3037 116.286 84.1169H116.311ZM115.093 78.1235C114.98 78.2464 114.828 78.3103 114.637 78.3103C114.445 78.3103 114.288 78.2415 114.165 78.1088C114.092 78.0252 113.988 77.917 113.846 77.7744C113.709 77.6368 113.561 77.4893 113.414 77.3418C113.267 77.1943 113.139 77.0664 113.036 76.9632C112.943 76.8698 112.898 76.7419 112.898 76.5846C112.898 76.4273 112.952 76.2798 113.07 76.1421C113.173 76.029 113.301 75.9651 113.448 75.9503C113.596 75.9356 113.738 75.9749 113.876 76.0683C114.052 76.1913 114.268 76.3683 114.524 76.5944C114.779 76.8206 114.98 77.0222 115.128 77.1992C115.241 77.3319 115.299 77.4843 115.299 77.6564C115.299 77.8285 115.231 77.9858 115.098 78.1284L115.093 78.1235ZM115.54 76.6682C115.457 76.5846 115.344 76.4813 115.191 76.3584C115.044 76.2355 114.887 76.1077 114.73 75.97C114.568 75.8373 114.435 75.7242 114.322 75.6308C114.219 75.5472 114.16 75.4243 114.146 75.2571C114.131 75.0899 114.175 74.9424 114.278 74.8097C114.362 74.6966 114.479 74.6228 114.632 74.5835C114.784 74.5491 114.931 74.5688 115.064 74.6523C115.26 74.7556 115.491 74.9129 115.761 75.1145C116.031 75.321 116.247 75.5029 116.409 75.6553C116.542 75.7783 116.615 75.9307 116.625 76.1028C116.635 76.2798 116.586 76.4371 116.468 76.5846C116.365 76.7173 116.223 76.796 116.036 76.8157C115.849 76.8353 115.687 76.7862 115.54 76.6633V76.6682Z" fill="#333333"/>
<path d="M47.5913 98.5966C47.1838 98.5966 46.9775 98.4835 46.9775 98.2524C46.9775 97.7509 47.1052 97.2641 47.3703 96.7921C47.6306 96.3202 48.0676 95.7892 48.6764 95.209C48.8924 95.0025 49.0987 94.7911 49.2901 94.5797C49.4865 94.3682 49.6437 94.1617 49.7713 93.9552C49.8941 93.7487 49.9628 93.5521 49.9677 93.3652C49.9726 93.0063 49.8941 92.7359 49.7222 92.5638C49.5504 92.3917 49.3098 92.3032 49.0005 92.3032C48.5782 92.3032 48.3081 92.5196 48.1903 92.9473C48.1363 93.1342 48.0626 93.2817 47.9792 93.38C47.8908 93.4832 47.7582 93.5324 47.5766 93.5324C47.3949 93.5324 47.2623 93.4734 47.1592 93.3554C47.0561 93.2374 47.0266 93.0752 47.0757 92.8736C47.1887 92.3573 47.4145 91.9591 47.7533 91.669C48.0921 91.3789 48.5095 91.2363 49.0005 91.2363C49.4031 91.2363 49.7615 91.3199 50.0757 91.4871C50.39 91.6542 50.6404 91.8952 50.8221 92.2147C51.0037 92.5343 51.0872 92.9277 51.0725 93.3947C51.0676 93.7192 50.989 94.0241 50.8417 94.2994C50.6944 94.5797 50.5029 94.8452 50.2623 95.1057C50.0217 95.3663 49.7517 95.6417 49.4473 95.9317C49.1281 96.2464 48.8433 96.5414 48.5978 96.8266C48.3523 97.1117 48.2099 97.3576 48.1658 97.569H50.3311C50.7386 97.569 50.9448 97.7411 50.9448 98.0803C50.9448 98.4196 50.7386 98.5916 50.3311 98.5916H47.5913V98.5966Z" fill="#333333"/>
<path d="M53.9836 98.7051C53.4288 98.7051 52.9967 98.5674 52.6825 98.2872C52.3682 98.0069 52.1522 97.5939 52.0196 97.0383C51.892 96.4827 51.8281 95.7895 51.8281 94.9537C51.8281 94.1178 51.892 93.4246 52.0196 92.8641C52.1473 92.3036 52.3682 91.8857 52.6825 91.6054C52.9967 91.3252 53.4288 91.1875 53.9836 91.1875C54.5384 91.1875 54.9705 91.3252 55.2798 91.6054C55.5892 91.8857 55.8052 92.3036 55.9378 92.8641C56.0703 93.4246 56.1293 94.1178 56.1293 94.9537C56.1293 95.7895 56.0654 96.4827 55.9378 97.0383C55.8101 97.5939 55.5892 98.0118 55.2798 98.2872C54.9705 98.5674 54.5384 98.7051 53.9836 98.7051ZM53.9836 97.6382C54.2389 97.6382 54.4451 97.5546 54.5924 97.3923C54.7397 97.2301 54.8527 96.9547 54.9214 96.5614C54.9902 96.1681 55.0245 95.6322 55.0245 94.9438C55.0245 94.2555 54.9902 93.7048 54.9214 93.3164C54.8527 92.928 54.7447 92.6527 54.5924 92.4855C54.4451 92.3232 54.2389 92.2397 53.9836 92.2397C53.7283 92.2397 53.5221 92.3232 53.3699 92.4855C53.2177 92.6477 53.1096 92.9231 53.0409 93.3164C52.9771 93.7048 52.9427 94.2457 52.9427 94.9438C52.9427 95.642 52.9771 96.1681 53.0409 96.5614C53.1047 96.9498 53.2177 97.2252 53.3699 97.3923C53.5221 97.5595 53.7283 97.6382 53.9836 97.6382Z" fill="#333333"/>
<path d="M57.4946 98.5966C57.0871 98.5966 56.8809 98.4835 56.8809 98.2524C56.8809 97.7509 57.0085 97.2641 57.2737 96.7921C57.5339 96.3202 57.9709 95.7892 58.5797 95.209C58.7958 95.0025 59.002 94.7911 59.1935 94.5797C59.3899 94.3682 59.547 94.1617 59.6746 93.9552C59.7974 93.7487 59.8661 93.5521 59.871 93.3652C59.8759 93.0063 59.7974 92.7359 59.6255 92.5638C59.4537 92.3917 59.2131 92.3032 58.9038 92.3032C58.4815 92.3032 58.2115 92.5196 58.0936 92.9473C58.0396 93.1342 57.966 93.2817 57.8825 93.38C57.7941 93.4832 57.6615 93.5324 57.4799 93.5324C57.2982 93.5324 57.1656 93.4734 57.0625 93.3554C56.9594 93.2374 56.93 93.0752 56.9791 92.8736C57.092 92.3573 57.3178 91.9591 57.6566 91.669C57.9954 91.3789 58.4128 91.2363 58.9038 91.2363C59.3064 91.2363 59.6648 91.3199 59.9791 91.4871C60.2933 91.6542 60.5437 91.8952 60.7254 92.2147C60.907 92.5343 60.9905 92.9277 60.9758 93.3947C60.9709 93.7192 60.8923 94.0241 60.745 94.2994C60.5977 94.5797 60.4062 94.8452 60.1656 95.1057C59.925 95.3663 59.655 95.6417 59.3506 95.9317C59.0314 96.2464 58.7467 96.5414 58.5012 96.8266C58.2557 97.1117 58.1133 97.3576 58.0691 97.569H60.2344C60.6419 97.569 60.8481 97.7411 60.8481 98.0803C60.8481 98.4196 60.6419 98.5916 60.2344 98.5916H57.4946V98.5966Z" fill="#333333"/>
<path d="M63.573 98.661C62.915 98.661 62.3504 98.4299 61.8741 97.9726C61.7219 97.8251 61.6532 97.6776 61.6777 97.5301C61.6974 97.3826 61.7857 97.2597 61.9379 97.1712C62.0951 97.0729 62.2375 97.0434 62.3651 97.0729C62.4879 97.1024 62.6303 97.1761 62.7825 97.299C62.8954 97.3875 63.0132 97.4613 63.1458 97.5203C63.2784 97.5744 63.4208 97.6039 63.573 97.6039C63.9609 97.6039 64.2555 97.4859 64.4519 97.2548C64.6483 97.0237 64.7465 96.6992 64.7465 96.2813C64.7465 95.829 64.663 95.4995 64.4911 95.298C64.3193 95.0915 64.0836 94.9882 63.7792 94.9882C63.6761 94.9882 63.5779 95.003 63.4846 95.0374C63.3913 95.0669 63.3078 95.1111 63.2293 95.1554C63.0918 95.234 62.969 95.3078 62.8659 95.3815C62.7628 95.4553 62.6303 95.4897 62.4682 95.4897C62.0852 95.4897 61.8938 95.2832 61.8938 94.8751V91.9251C61.8938 91.517 62.1 91.3105 62.5173 91.3105H64.9821C65.3897 91.3105 65.5959 91.4826 65.5959 91.8219C65.5959 92.1611 65.3897 92.3332 64.9821 92.3332H63.0034V94.2507C63.1213 94.1671 63.2489 94.0983 63.3864 94.0491C63.5239 93.995 63.6663 93.9705 63.8037 93.9705C64.1916 93.9705 64.5402 94.059 64.8496 94.231C65.1589 94.4031 65.4044 94.6637 65.591 95.003C65.7726 95.3422 65.8659 95.77 65.8659 96.2862C65.8659 97.0434 65.6548 97.6285 65.2325 98.0464C64.8103 98.4643 64.2555 98.6708 63.5681 98.6708L63.573 98.661Z" fill="#333333"/>
<path d="M70.3143 99.0002C69.9264 99.0002 69.7152 98.833 69.6809 98.4987C69.6612 98.3414 69.7054 98.2086 69.8085 98.1005C69.9116 97.9923 70.054 97.9284 70.2455 97.9185C70.4763 97.8989 70.6187 97.8645 70.6825 97.8153C70.7414 97.7661 70.7709 97.6481 70.7709 97.476V97.3482H68.095C67.9869 97.3482 67.8936 97.3089 67.82 97.2351C67.7463 97.1614 67.7071 97.068 67.7071 96.9598C67.7071 96.8516 67.7463 96.7582 67.82 96.6845C67.8936 96.6107 67.9869 96.5714 68.095 96.5714H70.7709V96.2075H67.3683C67.2701 96.2075 67.1866 96.1731 67.108 96.0994C67.0344 96.0256 66.9951 95.9371 66.9951 95.8339C66.9951 95.7306 67.0344 95.6421 67.108 95.5684C67.1817 95.4946 67.2701 95.4602 67.3683 95.4602H70.7709V95.1062H68.1195C68.0066 95.1062 67.9084 95.0718 67.8298 95.003C67.7513 94.9341 67.712 94.8456 67.712 94.7375C67.712 94.6244 67.7513 94.531 67.8298 94.4621C67.9084 94.3933 68.0066 94.3589 68.1195 94.3589H70.7709V94.0393H69.6465C69.185 94.0393 68.8707 93.9705 68.694 93.8377C68.5172 93.705 68.4288 93.4739 68.4288 93.1395C68.4288 92.8052 68.5172 92.5741 68.694 92.4463C68.8707 92.3185 69.185 92.2496 69.6465 92.2496H70.7709V91.9399H67.6481C67.5401 91.9399 67.4468 91.9005 67.3732 91.8219C67.2995 91.7432 67.2603 91.6498 67.2603 91.5416C67.2603 91.4335 67.2995 91.34 67.3732 91.2614C67.4468 91.1827 67.5401 91.1434 67.6481 91.1434H70.7709V90.8631C70.7709 90.696 70.8249 90.5583 70.928 90.4649C71.036 90.3666 71.1637 90.3174 71.3159 90.3174C71.4681 90.3174 71.5958 90.3666 71.7038 90.4649C71.8118 90.5632 71.8609 90.696 71.8609 90.8631V91.1434H74.964C75.072 91.1434 75.1653 91.1827 75.239 91.2614C75.3126 91.34 75.3519 91.4335 75.3519 91.5416C75.3519 91.6498 75.3126 91.7432 75.239 91.8219C75.1653 91.9005 75.072 91.9399 74.964 91.9399H71.8609V92.2496H72.9607C73.4272 92.2496 73.7463 92.3135 73.9231 92.4463C74.0999 92.5741 74.1882 92.8101 74.1882 93.1395C74.1882 93.469 74.0999 93.705 73.9231 93.8377C73.7463 93.9705 73.4272 94.0393 72.9607 94.0393H71.8609V94.3589H72.9411C73.3683 94.3589 73.7071 94.3933 73.9526 94.4572C74.1981 94.526 74.3748 94.6391 74.4779 94.7965C74.5859 94.9587 74.6449 95.18 74.6645 95.4651H75.2292C75.3323 95.4651 75.4206 95.4995 75.4943 95.5733C75.5679 95.647 75.6023 95.7356 75.6023 95.8388C75.6023 95.9421 75.5679 96.0305 75.4943 96.1043C75.4206 96.178 75.3323 96.2125 75.2292 96.2125H74.6645C74.6449 96.4976 74.5859 96.7238 74.4779 96.8959C74.3699 97.063 74.1981 97.186 73.9575 97.2548C73.7169 97.3236 73.3781 97.358 72.9411 97.358H71.8609V97.6137C71.8609 98.1103 71.7382 98.4692 71.4976 98.6855C71.257 98.9019 70.8642 99.015 70.3192 99.015L70.3143 99.0002ZM69.6416 93.3116H70.766V92.9576H69.6416C69.5581 92.9576 69.4992 92.9675 69.4648 92.992C69.4305 93.0166 69.4157 93.0658 69.4157 93.1395C69.4157 93.2084 69.4305 93.2526 69.4648 93.2772C69.4992 93.3018 69.5581 93.3116 69.6416 93.3116ZM71.856 93.3116H72.9558C73.0393 93.3116 73.0982 93.3018 73.1326 93.2772C73.167 93.2526 73.1817 93.2084 73.1817 93.1395C73.1817 93.0658 73.167 93.0166 73.1326 92.992C73.0982 92.9675 73.0393 92.9576 72.9558 92.9576H71.856V93.3116ZM71.856 95.4553H73.6089C73.5843 95.298 73.5254 95.1996 73.4321 95.1603C73.3388 95.121 73.1719 95.1013 72.9362 95.1013H71.856V95.4553ZM71.856 96.5665H72.9362C73.1719 96.5665 73.3388 96.5419 73.437 96.4976C73.5352 96.4534 73.5892 96.355 73.6089 96.2026H71.856V96.5665Z" fill="#333333"/>
<path d="M80.3648 98.9606C80.2322 98.9606 80.1143 98.9114 80.0162 98.818C79.918 98.7246 79.8688 98.6017 79.8688 98.4492V97.0136C79.6184 97.2152 79.3435 97.4167 79.0342 97.6282C78.7248 97.8347 78.4106 98.0313 78.0865 98.2034C77.7625 98.3804 77.458 98.523 77.1733 98.641C77.0407 98.7 76.9032 98.7196 76.7657 98.6901C76.6283 98.6656 76.5252 98.582 76.4564 98.4492C76.3975 98.3263 76.3877 98.1985 76.4269 98.0608C76.4711 97.9231 76.5595 97.8297 76.697 97.7756C76.9376 97.6773 77.2027 97.5593 77.4924 97.4167C77.7772 97.2742 78.0669 97.1217 78.3517 96.9546C78.6364 96.7874 78.8918 96.6252 79.1225 96.4678H76.6381C76.5251 96.4678 76.4269 96.4285 76.3435 96.3449C76.26 96.2613 76.2207 96.163 76.2207 96.0499C76.2207 95.9368 76.26 95.8385 76.3435 95.7549C76.4269 95.6713 76.5251 95.632 76.6381 95.632H79.8688V95.2337H77.5661C77.4531 95.2337 77.3549 95.1944 77.2764 95.1207C77.1978 95.0469 77.1585 94.9486 77.1585 94.8355C77.1585 94.7224 77.1978 94.6241 77.2764 94.5503C77.3549 94.4766 77.4531 94.4372 77.5661 94.4372H79.8688V94.0537H77.1634C77.0505 94.0537 76.9523 94.0144 76.8738 93.9308C76.7952 93.8472 76.7559 93.7489 76.7559 93.6358C76.7559 93.5227 76.7952 93.4244 76.8738 93.3457C76.9523 93.2671 77.0505 93.2277 77.1634 93.2277H78.5039C78.4597 93.1245 78.4155 93.0212 78.3664 92.918C78.3173 92.8147 78.278 92.7312 78.2486 92.6623H76.6332C76.5202 92.6623 76.422 92.623 76.3386 92.5394C76.2551 92.4558 76.2158 92.3575 76.2158 92.2444C76.2158 92.1313 76.2551 92.033 76.3386 91.9494C76.422 91.8658 76.5202 91.8265 76.6332 91.8265H77.7035C77.7035 91.8265 77.679 91.797 77.6692 91.7724C77.625 91.6888 77.571 91.5807 77.5071 91.4528C77.4384 91.325 77.3844 91.2217 77.3451 91.1431C77.2862 91.0202 77.2813 90.9022 77.3304 90.7792C77.3795 90.6563 77.4728 90.5727 77.6004 90.5137C77.7232 90.4646 77.8459 90.4597 77.9736 90.4892C78.1013 90.5187 78.1945 90.5973 78.2535 90.7202C78.278 90.7645 78.3124 90.8284 78.3517 90.9169C78.3909 91.0054 78.44 91.0939 78.4842 91.1873C78.5284 91.2807 78.5628 91.3545 78.5873 91.4086C78.6561 91.561 78.6413 91.6987 78.553 91.8167H79.0342V90.8628C79.0342 90.7055 79.0832 90.5826 79.1814 90.4941C79.2796 90.4056 79.3975 90.3613 79.5301 90.3613C79.6626 90.3613 79.7854 90.4056 79.8787 90.4941C79.972 90.5826 80.0211 90.7055 80.0211 90.8628V91.8167H80.6446V90.8628C80.6446 90.7055 80.6937 90.5826 80.7968 90.4941C80.895 90.4056 81.0129 90.3613 81.1454 90.3613C81.278 90.3613 81.4008 90.4056 81.499 90.4941C81.5972 90.5826 81.6463 90.7055 81.6463 90.8628V91.8167H82.1078C82.0243 91.6937 82.0194 91.5561 82.098 91.3987C82.1471 91.3152 82.206 91.1972 82.2797 91.0546L82.4417 90.7252C82.5104 90.6121 82.6037 90.5334 82.7314 90.4941C82.859 90.4547 82.9818 90.4646 83.0947 90.5187C83.2273 90.5777 83.3206 90.6711 83.3697 90.7891C83.4188 90.912 83.4139 91.03 83.3451 91.1529C83.3009 91.2316 83.242 91.3348 83.1634 91.4577C83.0849 91.5807 83.0162 91.6888 82.9621 91.7822C82.9572 91.7872 82.9523 91.7921 82.9474 91.8019C82.9425 91.8117 82.9376 91.8117 82.9327 91.8216H84.0865C84.1995 91.8216 84.2977 91.8609 84.3811 91.9445C84.4646 92.0281 84.5039 92.1264 84.5039 92.2395C84.5039 92.3526 84.4646 92.4509 84.3811 92.5345C84.2977 92.6181 84.1995 92.6574 84.0865 92.6574H82.4613C82.4319 92.7262 82.3926 92.8098 82.3484 92.9131C82.3042 93.0163 82.2551 93.1196 82.206 93.2228H83.4679C83.5808 93.2228 83.679 93.2622 83.7625 93.3408C83.8459 93.4195 83.8852 93.5178 83.8852 93.6309C83.8852 93.744 83.8459 93.8423 83.7625 93.9259C83.679 94.0095 83.5808 94.0488 83.4679 94.0488H80.8656V94.4323H83.1143C83.2273 94.4323 83.3255 94.4717 83.404 94.5454C83.4826 94.6192 83.5219 94.7175 83.5219 94.8306C83.5219 94.9437 83.4826 95.042 83.404 95.1157C83.3255 95.1895 83.2273 95.2288 83.1143 95.2288H80.8656V95.6271H84.0865C84.1995 95.6271 84.2977 95.6664 84.3811 95.75C84.4646 95.8336 84.5039 95.9319 84.5039 96.045C84.5039 96.1581 84.4646 96.2564 84.3811 96.34C84.2977 96.4236 84.1995 96.4629 84.0865 96.4629H81.5628C81.7936 96.6202 82.0489 96.7825 82.3287 96.9447C82.6086 97.107 82.8934 97.2643 83.188 97.4069C83.4777 97.5544 83.7477 97.6724 83.9932 97.7707C84.1307 97.8248 84.224 97.9232 84.2633 98.0559C84.3075 98.1936 84.2927 98.3214 84.2289 98.4443C84.1602 98.5771 84.062 98.6557 83.9294 98.6852C83.7968 98.7147 83.6594 98.7 83.5219 98.6459C83.2567 98.5377 82.9621 98.3952 82.643 98.2182C82.3238 98.0412 82.0096 97.8494 81.7003 97.6429C81.3909 97.4364 81.1111 97.2348 80.8656 97.0381V98.4443C80.8656 98.5967 80.8165 98.7196 80.7134 98.8131C80.6152 98.9065 80.4924 98.9557 80.3549 98.9557L80.3648 98.9606ZM79.6234 93.2277H81.1111C81.1356 93.1589 81.17 93.0753 81.2142 92.977C81.2584 92.8787 81.3026 92.7705 81.3468 92.6623H79.3779C79.427 92.7705 79.4711 92.8737 79.5202 92.977C79.5693 93.0802 79.5988 93.1589 79.6234 93.2277Z" fill="#333333"/>
<path d="M82.5058 61.093C81.5631 61.093 81.0967 60.8275 81.0967 60.3014C81.0967 59.1509 81.3962 58.0348 81.9952 56.9483C82.5942 55.8617 83.5959 54.6473 84.9952 53.305C85.4911 52.8281 85.9625 52.3413 86.4044 51.8546C86.8512 51.3678 87.2194 50.886 87.5042 50.4189C87.789 49.9469 87.9412 49.4946 87.9608 49.0669C87.9756 48.2359 87.789 47.6214 87.3962 47.2231C87.0034 46.8249 86.4535 46.6233 85.7317 46.6233C84.7595 46.6233 84.136 47.1199 83.8659 48.1081C83.7383 48.5408 83.5762 48.8702 83.3749 49.1013C83.1736 49.3324 82.8692 49.4504 82.4518 49.4504C82.0345 49.4504 81.735 49.3127 81.4944 49.0423C81.2538 48.7719 81.19 48.4031 81.3029 47.9409C81.5582 46.7609 82.0787 45.8366 82.8594 45.1729C83.64 44.5091 84.5975 44.1797 85.7317 44.1797C86.6548 44.1797 87.4797 44.3714 88.2063 44.7549C88.933 45.1384 89.5026 45.6989 89.915 46.4315C90.3274 47.1641 90.5189 48.0688 90.4895 49.1406C90.4748 49.8929 90.298 50.5861 89.9641 51.2253C89.6302 51.8644 89.1883 52.4839 88.6384 53.0838C88.0885 53.6836 87.46 54.3178 86.7628 54.9865C86.0312 55.7043 85.3782 56.3927 84.8135 57.0466C84.2489 57.7005 83.915 58.2659 83.8217 58.7478H88.7955C89.7382 58.7478 90.2047 59.1411 90.2047 59.9228C90.2047 60.7046 89.7333 61.0979 88.7955 61.0979H82.5058V61.093Z" fill="white"/>
<path d="M95.9984 61.2405C94.4812 61.2405 93.1849 60.7144 92.0998 59.6573C91.7512 59.323 91.599 58.9838 91.6432 58.6396C91.6923 58.2954 91.8887 58.0201 92.2422 57.8136C92.6105 57.5923 92.9345 57.5137 93.2242 57.5874C93.509 57.6612 93.8281 57.8333 94.1817 58.1037C94.437 58.3102 94.7169 58.4773 95.0213 58.6052C95.3257 58.733 95.6497 58.7969 96.0033 58.7969C96.8969 58.7969 97.5696 58.5314 98.0262 57.9955C98.4828 57.4596 98.7087 56.7123 98.7087 55.7535C98.7087 54.7161 98.5123 53.9589 98.1244 53.4869C97.7316 53.0149 97.1866 52.7789 96.4844 52.7789C96.2439 52.7789 96.018 52.8133 95.802 52.8871C95.5859 52.9608 95.3895 53.0493 95.2177 53.1624C94.8985 53.3394 94.6187 53.5115 94.3781 53.6787C94.1375 53.8458 93.838 53.9294 93.4697 53.9294C92.5908 53.9294 92.1538 53.4574 92.1538 52.5183V45.7383C92.1538 44.7943 92.6301 44.3223 93.5876 44.3223H99.2586C100.201 44.3223 100.668 44.7156 100.668 45.4973C100.668 46.2791 100.196 46.6724 99.2586 46.6724H94.7119V51.0827C94.982 50.8909 95.2766 50.7336 95.5957 50.6156C95.9149 50.4976 96.234 50.4337 96.5532 50.4337C97.4468 50.4337 98.2471 50.6353 98.9591 51.0335C99.6661 51.4318 100.236 52.0218 100.658 52.8084C101.08 53.5902 101.291 54.5735 101.291 55.7535C101.291 57.494 100.805 58.8461 99.8331 59.7999C98.8609 60.7587 97.5843 61.2356 96.0033 61.2356L95.9984 61.2405Z" fill="white"/>
<path d="M78.3277 49.3613H78.1706C77.4881 49.3613 77.4145 48.963 77.4145 48.7909C77.4145 48.6189 77.4881 48.4763 77.5716 48.3337C77.7974 47.9305 77.9693 47.5028 78.0331 47.2815C77.385 47.0898 76.9873 46.5784 76.9873 45.9393C76.9873 45.0346 77.6354 44.4053 78.5683 44.4053C79.2754 44.4053 80.0364 44.9166 80.0364 46.0425C80.0364 47.1684 79.4914 48.3681 79.3245 48.7221C79.0986 49.199 78.8482 49.3613 78.3277 49.3613Z" fill="white"/>
<path d="M39.4502 27.4873H47.5762V53.8111H39.4502C38.7677 53.8111 38.2129 53.2555 38.2129 52.5721V28.7263C38.2129 28.0429 38.7677 27.4873 39.4502 27.4873Z" fill="white"/>
<path d="M51.376 27.4873H59.502C60.1845 27.4873 60.7393 28.0429 60.7393 28.7263V52.5721C60.7393 53.2555 60.1845 53.8111 59.502 53.8111H51.376V27.4873Z" fill="white"/>
<path d="M63.8773 39.2383H35.0557V42.0899H63.8773V39.2383Z" fill="#009DDA"/>
</g>
<defs>
<clipPath id="clip0_52_1391">
<rect width="132.59" height="98.9478" fill="white"/>
</clipPath>
</defs>
</svg>
