<svg width="163" height="116" viewBox="0 0 163 116" fill="none" xmlns="http://www.w3.org/2000/svg">
<g clip-path="url(#clip0_75_675)">
<path d="M3.50885 92.7487C3.24683 92.7487 3.02468 92.6689 2.8481 92.515C2.67152 92.3611 2.58038 92.1331 2.58038 91.831V90.0012C2.42659 90.1551 2.26709 90.3033 2.1133 90.4401C1.9595 90.5769 1.81141 90.7023 1.66331 90.8106C1.43546 90.9759 1.17914 91.0614 0.900027 91.0614C0.620917 91.0614 0.387377 90.9588 0.210797 90.7593C0.0570021 90.5826 -0.0113513 90.3546 0.00573708 90.0867C0.0228254 89.8188 0.14814 89.6079 0.375985 89.4483C0.73484 89.1746 1.11648 88.8383 1.5266 88.4336C1.93102 88.0346 2.31836 87.6128 2.68291 87.1796C3.04746 86.7406 3.34366 86.3473 3.5715 85.9882C3.7253 85.7488 3.93036 85.5949 4.19238 85.5322C4.44871 85.4695 4.69934 85.5037 4.93857 85.6519C5.17781 85.783 5.31452 85.9825 5.343 86.2447C5.37148 86.5069 5.32021 86.7463 5.1892 86.963C4.98414 87.3107 4.73921 87.6584 4.4544 88.0061V91.8481C4.4544 92.1502 4.36326 92.3725 4.18669 92.5321C4.01011 92.686 3.78796 92.7658 3.52594 92.7658L3.50885 92.7487ZM2.18165 102.314C1.85697 102.388 1.58356 102.365 1.35572 102.251C1.12787 102.137 0.985469 101.955 0.922812 101.704C0.860154 101.453 0.894331 101.214 1.01965 100.997C1.14496 100.775 1.35572 100.644 1.65761 100.592C1.98229 100.535 2.35823 100.45 2.78544 100.341C3.21265 100.233 3.65125 100.113 4.08416 99.9709C4.52276 99.8341 4.9044 99.6973 5.24047 99.5662C4.39175 99.5092 3.80505 99.2983 3.47467 98.9392C3.1443 98.5801 2.97911 97.9644 2.97911 97.0923V95.12C2.97911 94.4759 3.06455 93.9743 3.24113 93.6151C3.41201 93.256 3.70821 92.9995 4.11833 92.8513C4.52845 92.7031 5.09806 92.629 5.81008 92.629H10.7771C11.4948 92.629 12.0587 92.7031 12.4688 92.8513C12.879 92.9995 13.1752 93.256 13.346 93.6151C13.5169 93.9743 13.6081 94.4759 13.6081 95.12V97.0923C13.6081 97.9644 13.4486 98.5801 13.1239 98.9392C12.7992 99.2983 12.2125 99.5092 11.3638 99.5662C11.7113 99.6973 12.1043 99.8341 12.5372 99.9709C12.9758 100.108 13.403 100.233 13.8302 100.341C14.2517 100.45 14.6277 100.535 14.9523 100.592C15.2656 100.638 15.4764 100.775 15.596 100.997C15.7156 101.219 15.7441 101.453 15.6871 101.704C15.6245 101.966 15.4821 102.154 15.2542 102.262C15.0264 102.371 14.7473 102.388 14.4112 102.314C14.0182 102.217 13.5625 102.091 13.0498 101.938C12.5372 101.784 12.0359 101.613 11.5518 101.436C11.0676 101.253 10.6575 101.094 10.3214 100.951C10.0594 100.843 9.89419 100.689 9.83723 100.484C9.78027 100.279 9.79166 100.068 9.87141 99.8398C9.89419 99.7942 9.92267 99.7486 9.95115 99.703C9.97963 99.6631 10.0195 99.6232 10.0651 99.5833H6.5164C6.60184 99.6688 6.6588 99.7486 6.69867 99.8341C6.79551 100.062 6.81259 100.279 6.74994 100.478C6.68728 100.683 6.52209 100.843 6.24868 100.963C5.91261 101.105 5.50249 101.271 5.01832 101.447C4.53415 101.624 4.03859 101.789 3.53163 101.943C3.02468 102.091 2.56329 102.217 2.15887 102.308L2.18165 102.314ZM6.27146 92.0647C6.08919 92.0647 5.93539 91.9963 5.80438 91.8595C5.67337 91.7227 5.60502 91.5574 5.60502 91.3635C5.60502 91.1868 5.67337 91.0215 5.80438 90.879C5.93539 90.7365 6.08919 90.6624 6.27146 90.6624H9.35306V89.9271H5.4797C5.30312 89.9271 5.14363 89.853 5.01262 89.7105C4.88161 89.568 4.81326 89.4084 4.81326 89.226C4.81326 89.0321 4.88161 88.8725 5.01262 88.73C5.14363 88.5932 5.29743 88.5248 5.4797 88.5248H9.35306V87.7553C8.40751 87.8294 7.50752 87.8636 6.64741 87.8636C6.38539 87.875 6.16893 87.8237 6.00375 87.704C5.83856 87.5843 5.74172 87.3905 5.71894 87.1283C5.70755 86.9117 5.77021 86.7235 5.9183 86.5639C6.0664 86.4043 6.26007 86.3302 6.5107 86.3416C7.30246 86.3416 8.1284 86.3188 9.0056 86.2675C9.8828 86.2162 10.7201 86.1478 11.5233 86.0509C12.3321 85.954 13.0271 85.8457 13.6138 85.726C13.8872 85.669 14.1264 85.6918 14.3315 85.8058C14.5365 85.9198 14.6618 86.0851 14.7074 86.3017C14.753 86.5297 14.7245 86.7292 14.6106 86.9002C14.4967 87.0713 14.2973 87.191 14.0125 87.248C13.6422 87.3107 13.2321 87.3677 12.7764 87.4247C12.3207 87.4874 11.848 87.5387 11.3581 87.5843V88.5191H15.465C15.6587 88.5191 15.8125 88.5875 15.9378 88.7243C16.0631 88.8611 16.1257 89.0264 16.1257 89.2203C16.1257 89.4027 16.0631 89.5623 15.9378 89.7048C15.8125 89.8473 15.653 89.9214 15.465 89.9214H11.3581V90.6567H14.7473C14.9239 90.6567 15.0834 90.7308 15.2144 90.8733C15.3454 91.0158 15.4137 91.1811 15.4137 91.3578C15.4137 91.5517 15.3454 91.7113 15.2144 91.8538C15.0834 91.9906 14.9296 92.059 14.7473 92.059H6.28285L6.27146 92.0647ZM5.05249 96.4083H11.5632V95.7242H5.05249V96.4083ZM5.06958 94.6526H11.5404C11.5176 94.379 11.4207 94.2023 11.2556 94.1225C11.0904 94.0427 10.7885 94.0085 10.3613 94.0085H6.25437C5.82147 94.0085 5.52527 94.0484 5.36008 94.1225C5.1949 94.2023 5.09806 94.379 5.07528 94.6526H5.06958ZM6.25437 98.2038H10.3613C10.8056 98.2038 11.1075 98.1639 11.267 98.0784C11.4264 97.9929 11.5233 97.8048 11.5461 97.5027H5.07528C5.09806 97.8048 5.1892 97.9929 5.35439 98.0784C5.51958 98.1639 5.81577 98.2038 6.26007 98.2038H6.25437Z" fill="#333333"/>
<path d="M20.4719 102.222C20.1757 102.308 19.9137 102.308 19.6915 102.222C19.4694 102.137 19.3099 101.972 19.2187 101.721C19.1219 101.481 19.1219 101.248 19.2074 101.02C19.2985 100.792 19.4808 100.643 19.7542 100.569C20.2327 100.438 20.7909 100.256 21.4231 100.034C22.0554 99.8112 22.6193 99.5775 23.1092 99.3495C22.4257 99.2526 21.9529 99.0189 21.6852 98.6427C21.4174 98.2665 21.2807 97.6794 21.2807 96.8756V94.51C21.2807 93.541 21.4915 92.8683 21.9073 92.4978H21.856C21.5826 92.5092 21.3434 92.4237 21.1497 92.2356C20.9504 92.0532 20.8535 91.8081 20.8535 91.5117V89.8757C20.6997 90.0068 20.5402 90.1322 20.3865 90.2519C20.2327 90.3716 20.0789 90.4856 19.9365 90.5939C19.6972 90.7479 19.4295 90.8163 19.139 90.7992C18.8485 90.7821 18.6093 90.6623 18.4327 90.4514C18.2789 90.2462 18.2162 90.0125 18.2447 89.7503C18.2732 89.4881 18.3928 89.2943 18.5922 89.1746C18.9738 88.9352 19.3839 88.6274 19.8225 88.2512C20.2611 87.8749 20.6713 87.4816 21.0586 87.0655C21.4459 86.6551 21.7592 86.2846 21.9985 85.9597C22.1522 85.7316 22.3687 85.6062 22.6364 85.5834C22.9041 85.5606 23.1491 85.629 23.3655 85.8C23.5934 85.954 23.7187 86.1649 23.7415 86.4271C23.7642 86.6893 23.6959 86.9287 23.525 87.1453C23.3313 87.4075 23.1092 87.6925 22.8415 87.9889V91.506C22.8415 91.7568 22.7731 91.9677 22.6421 92.133C23.0351 92.0247 23.5364 91.9734 24.1459 91.9734H29.0388C29.3749 91.9734 29.6711 91.9905 29.9331 92.0304C29.073 91.4091 28.3154 90.611 27.6547 89.642L23.9978 89.8586C23.7699 89.87 23.5706 89.8016 23.4054 89.642C23.2402 89.4881 23.1434 89.2943 23.1206 89.0663C23.1092 88.8383 23.1775 88.6445 23.3256 88.4735C23.4737 88.3082 23.6617 88.2169 23.8896 88.2055L26.7205 88.0459C26.6009 87.8065 26.4927 87.5671 26.3902 87.3277C26.2876 87.0883 26.1908 86.8375 26.094 86.5753C25.9857 86.3131 25.9971 86.0794 26.1224 85.8741C26.2478 85.6689 26.4414 85.5321 26.7034 85.4637C26.9655 85.3896 27.2161 85.4124 27.4553 85.5264C27.6946 85.6404 27.8541 85.8285 27.9395 86.0908C28.1673 86.7349 28.4465 87.3448 28.7825 87.9205L30.8787 87.8122C30.7135 87.6925 30.5141 87.5671 30.2977 87.436C30.0755 87.3049 29.8933 87.1966 29.7509 87.1111C29.5743 87.0028 29.4547 86.8375 29.4034 86.6095C29.3521 86.3815 29.3749 86.1763 29.4831 85.9995C29.6142 85.8057 29.8021 85.686 30.0414 85.629C30.2806 85.5777 30.5028 85.6062 30.7021 85.7259C30.8673 85.8228 31.0951 85.9596 31.3856 86.1364C31.6761 86.3131 31.8926 86.4556 32.0464 86.5468C32.2401 86.6665 32.3483 86.8432 32.3768 87.0826C32.4053 87.322 32.354 87.5329 32.223 87.7096L33.6242 87.6355C33.8521 87.6127 34.0514 87.6754 34.2223 87.835C34.3932 87.9889 34.49 88.1827 34.5014 88.4108C34.5128 88.6388 34.4445 88.8326 34.2964 89.0036C34.1483 89.1689 33.9603 89.2658 33.7324 89.2886L29.9673 89.5052C30.2806 89.8415 30.611 90.1436 30.9641 90.4115C31.3173 90.6795 31.6818 90.9075 32.0692 91.0842C32.2628 91.1697 32.4166 91.2096 32.542 91.1982C32.6673 91.1982 32.7698 91.0956 32.8552 90.9018C32.9008 90.8049 32.9407 90.7137 32.9692 90.6224C32.9976 90.5312 33.0375 90.4286 33.0831 90.3089C33.1799 90.0581 33.3451 89.8985 33.5843 89.8244C33.8236 89.7503 34.0571 89.7674 34.285 89.8586C34.5242 89.9441 34.6837 90.098 34.7691 90.326C34.8546 90.5541 34.8489 90.8049 34.7521 91.0785C34.7065 91.2324 34.6381 91.4034 34.5527 91.5915C34.4672 91.7796 34.3932 91.9449 34.3191 92.1045C34.0457 92.6916 33.6812 93.0394 33.2369 93.1477C32.7869 93.256 32.2515 93.1876 31.6306 92.9481C31.7274 93.142 31.7958 93.3586 31.8356 93.6094C31.8755 93.8602 31.8983 94.1566 31.8983 94.4872V96.8528C31.8983 97.6566 31.7616 98.2437 31.4939 98.6199C31.2262 98.9961 30.7363 99.2355 30.03 99.3267C30.5198 99.5547 31.0781 99.777 31.6989 99.9993C32.3198 100.222 32.8666 100.398 33.328 100.529C33.6014 100.604 33.7951 100.752 33.9033 100.985C34.0116 101.219 34.0173 101.453 33.9204 101.692C33.8236 101.943 33.6641 102.108 33.4363 102.194C33.2084 102.279 32.9464 102.279 32.6445 102.194C31.9894 102 31.3002 101.755 30.5825 101.459C29.8648 101.162 29.2382 100.86 28.6971 100.564C28.4578 100.433 28.3154 100.262 28.2642 100.045C28.2186 99.8283 28.2528 99.6288 28.3724 99.435L28.3895 99.378H24.6984L24.7326 99.435C24.8522 99.6288 24.8864 99.8283 24.8294 100.045C24.7782 100.262 24.6301 100.433 24.3908 100.564C23.8668 100.86 23.2402 101.162 22.5168 101.459C21.7934 101.755 21.1042 102 20.4434 102.194L20.4719 102.222ZM23.3769 96.0149H29.8135V95.3138H23.3769V96.0149ZM23.394 94.0939H29.7964C29.7623 93.8089 29.6597 93.6265 29.5002 93.5581C29.3407 93.484 29.0388 93.4498 28.5946 93.4498H24.5959C24.1516 93.4498 23.8497 93.484 23.6788 93.5581C23.5136 93.6322 23.4168 93.8089 23.394 94.0939ZM24.5959 97.953H28.5946C29.0502 97.953 29.3578 97.9131 29.5173 97.8276C29.6768 97.7421 29.7736 97.5482 29.7964 97.2347H23.394C23.4168 97.5482 23.5136 97.7421 23.6788 97.8276C23.844 97.9131 24.1516 97.953 24.5959 97.953Z" fill="#333333"/>
<path d="M45.6315 102.422C45.3467 102.422 45.0961 102.325 44.8853 102.137C44.6746 101.943 44.572 101.692 44.572 101.385V98.8024C44.0708 99.1843 43.4784 99.5719 42.7948 99.9709C42.1113 100.364 41.4164 100.729 40.7044 101.065C39.9924 101.402 39.3373 101.675 38.7392 101.892C38.4544 102 38.1924 102.012 37.9588 101.926C37.7253 101.841 37.5487 101.67 37.4291 101.407C37.3323 101.168 37.3323 100.94 37.4177 100.723C37.5089 100.507 37.6797 100.359 37.9304 100.273C38.4202 100.119 38.9443 99.9253 39.4968 99.6916C40.055 99.4579 40.6075 99.2071 41.1658 98.9392C41.724 98.6713 42.2366 98.4034 42.7151 98.1412H38.124C37.919 98.1412 37.7481 98.0671 37.6057 97.9188C37.4633 97.7706 37.3892 97.5939 37.3892 97.3887C37.3892 97.1835 37.4633 97.0125 37.6057 96.87C37.7481 96.7275 37.9247 96.6534 38.124 96.6534H44.5606V95.7927H42.6411C41.5873 95.7927 40.8582 95.6159 40.4424 95.2568C40.0322 94.8977 39.8215 94.265 39.8215 93.353V90.4971C39.6278 90.7023 39.4455 90.9018 39.2633 91.0956C39.0867 91.2952 38.9044 91.4776 38.7278 91.6429C38.5342 91.8367 38.3006 91.945 38.0215 91.9678C37.7424 91.9906 37.4918 91.9108 37.2753 91.717C37.093 91.5517 37.0019 91.3351 36.9905 91.0785C36.9791 90.822 37.0646 90.6168 37.2411 90.4572C37.657 90.0639 38.0842 89.6136 38.5228 89.112C38.9614 88.6103 39.3772 88.0859 39.7702 87.5444C40.1632 87.0029 40.4936 86.4842 40.7556 85.9939C40.8867 85.7545 41.0803 85.5949 41.3366 85.5094C41.593 85.4239 41.8493 85.4524 42.0999 85.5835C42.3506 85.6918 42.51 85.8685 42.5841 86.1193C42.6581 86.3701 42.624 86.6153 42.493 86.8547C42.4189 86.9744 42.3449 87.0998 42.2708 87.2309C42.1911 87.362 42.1056 87.4931 42.0088 87.6242H44.7543C44.8398 87.419 44.9366 87.1796 45.0505 86.9003C45.1644 86.621 45.2556 86.3873 45.3296 86.2105C45.4606 85.897 45.6657 85.6918 45.9391 85.5892C46.2125 85.4866 46.4916 85.4866 46.765 85.5778C47.0385 85.6747 47.2321 85.8343 47.346 86.0509C47.46 86.2732 47.4543 86.5127 47.3346 86.7749C47.272 86.8946 47.2093 87.0314 47.1353 87.1796C47.0612 87.3278 46.9929 87.476 46.9188 87.6185H51.7093C51.9143 87.6185 52.0852 87.6869 52.2276 87.8237C52.37 87.9605 52.4441 88.1486 52.4441 88.388C52.4441 88.6274 52.37 88.7984 52.2276 88.9467C52.0852 89.0949 51.9086 89.1633 51.7093 89.1633H46.6511V89.9157H50.7922C51.02 89.9157 51.1909 89.9898 51.3048 90.1323C51.4188 90.2748 51.4757 90.4458 51.4757 90.6339C51.4757 90.822 51.4188 90.993 51.3048 91.1298C51.1909 91.2667 51.02 91.3351 50.7922 91.3351H46.6511V92.0875H50.7922C51.02 92.0875 51.1909 92.1616 51.3048 92.3041C51.4188 92.4466 51.4757 92.6176 51.4757 92.8057C51.4757 92.9938 51.4188 93.1591 51.3048 93.3016C51.1909 93.4384 51.02 93.5069 50.7922 93.5069H46.6511V94.2593H51.9257C52.1308 94.2593 52.3017 94.3277 52.4441 94.4588C52.5865 94.5899 52.6605 94.7723 52.6605 94.9946C52.6605 95.2169 52.5865 95.4107 52.4441 95.5589C52.3017 95.7071 52.1251 95.7813 51.9257 95.7813H46.6511V96.642H53.0194C53.2244 96.642 53.3953 96.7161 53.5377 96.8586C53.6801 97.0011 53.7542 97.1778 53.7542 97.3773C53.7542 97.5768 53.6801 97.7592 53.5377 97.9074C53.3953 98.0556 53.2187 98.1298 53.0194 98.1298H48.4853C49.2144 98.5231 50.0118 98.905 50.8719 99.2755C51.732 99.646 52.5295 99.9538 53.2586 100.193C53.5092 100.279 53.6744 100.433 53.7599 100.666C53.8453 100.9 53.8396 101.134 53.7428 101.373C53.6346 101.624 53.4637 101.795 53.2244 101.886C52.9852 101.977 52.7232 101.972 52.4327 101.875C51.846 101.658 51.2023 101.39 50.5074 101.06C49.8068 100.729 49.1175 100.37 48.4454 99.9766C47.7676 99.5833 47.1752 99.2014 46.6625 98.8309V101.379C46.6625 101.692 46.56 101.943 46.3549 102.131C46.1499 102.325 45.9049 102.416 45.6201 102.416L45.6315 102.422ZM41.8436 89.9157H44.5663V89.1633H41.8436V89.9157ZM41.8436 92.0875H44.5663V91.3351H41.8436V92.0875ZM43.0113 94.2536H44.572V93.5012H41.8664C41.8892 93.7976 41.986 94.0028 42.1512 94.0997C42.3164 94.2023 42.6069 94.2536 43.0113 94.2536Z" fill="#333333"/>
<path d="M56.5852 93.6436C56.2833 93.8374 55.9814 93.9115 55.6681 93.8773C55.3548 93.8431 55.1099 93.6835 54.9333 93.4099C54.7568 93.1363 54.7112 92.857 54.808 92.5777C54.9049 92.2984 55.0814 92.076 55.3435 91.9221C56.0612 91.506 56.8017 91.0044 57.5649 90.423C58.3282 89.8416 59.063 89.243 59.7636 88.6217C60.4643 88.0004 61.0624 87.4189 61.5636 86.8831C62.2073 86.1763 62.8395 85.8229 63.4547 85.8229C64.0699 85.8229 64.7306 86.1649 65.437 86.8432C65.9496 87.3448 66.5477 87.8807 67.2199 88.4393C67.8977 89.0036 68.6097 89.5508 69.373 90.0924C70.1306 90.6282 70.8938 91.1127 71.6571 91.5459C71.9191 91.6998 72.0957 91.9335 72.1869 92.2471C72.278 92.5606 72.2324 92.8513 72.0502 93.1249C71.8565 93.4213 71.6002 93.598 71.2812 93.6436C70.9565 93.6892 70.6432 93.6151 70.3299 93.4099C69.6008 92.9311 68.8489 92.401 68.0686 91.8138C67.2939 91.2267 66.5477 90.6225 65.8471 90.0012C65.1408 89.3798 64.5199 88.787 63.9845 88.2227C63.8193 88.0289 63.6541 87.932 63.5003 87.9263C63.3465 87.9206 63.1756 88.0118 62.999 88.2056C62.4978 88.7585 61.9225 89.3285 61.2788 89.9271C60.6351 90.5256 59.963 91.107 59.2681 91.6656C59.3763 91.62 59.513 91.5915 59.6782 91.5915H67.2825C67.5787 91.5915 67.8179 91.6884 67.9888 91.8765C68.1597 92.0703 68.2508 92.2984 68.2508 92.5777C68.2508 92.857 68.1654 93.0679 67.9888 93.2617C67.8179 93.4555 67.5787 93.5467 67.2825 93.5467H59.6782C59.382 93.5467 59.1428 93.4498 58.9719 93.2617C58.801 93.0679 58.7099 92.8399 58.7099 92.5777C58.7099 92.3383 58.7725 92.1387 58.8921 91.9848C58.4991 92.2813 58.1061 92.572 57.7187 92.857C57.3314 93.1363 56.9498 93.3985 56.5795 93.6379L56.5852 93.6436ZM62.1617 101.955C61.1934 101.955 60.4187 101.846 59.8377 101.63C59.2567 101.413 58.8409 101.054 58.5902 100.552C58.3396 100.051 58.2143 99.3667 58.2143 98.5059C58.2143 97.6452 58.3396 96.9498 58.5902 96.4481C58.8409 95.9522 59.2567 95.5988 59.8377 95.3822C60.4187 95.1656 61.1934 95.0573 62.1617 95.0573H64.8332C65.8129 95.0573 66.5933 95.1656 67.1629 95.3822C67.7325 95.5988 68.154 95.9522 68.4103 96.4481C68.6667 96.9441 68.7977 97.6281 68.7977 98.5059C68.7977 99.3838 68.6667 100.051 68.4103 100.552C68.154 101.054 67.7382 101.413 67.1629 101.63C66.5876 101.846 65.8129 101.955 64.8332 101.955H62.1617ZM62.1788 100.034H64.8332C65.5053 100.034 65.961 99.9367 66.2059 99.7372C66.4509 99.5377 66.5762 99.1329 66.5762 98.5059C66.5762 97.8789 66.4509 97.4685 66.2059 97.269C65.961 97.0695 65.5053 96.9612 64.8332 96.9612H62.1788C61.5067 96.9612 61.051 97.0638 60.806 97.269C60.5611 97.4742 60.4358 97.8846 60.4358 98.5059C60.4358 99.1272 60.5554 99.5377 60.806 99.7372C61.051 99.9367 61.5067 100.034 62.1788 100.034Z" fill="#333333"/>
<path d="M77.581 102.297C77.319 102.297 77.0969 102.211 76.9203 102.046C76.7437 101.88 76.6526 101.652 76.6526 101.362V94.6868C76.2823 94.7324 75.9292 94.778 75.5874 94.8236C75.2456 94.8635 74.9494 94.8977 74.6988 94.9205C74.4368 94.9433 74.2089 94.8806 74.0153 94.7324C73.8216 94.5842 73.7191 94.379 73.6906 94.1111C73.6792 93.8603 73.7532 93.6379 73.9127 93.4498C74.0722 93.256 74.2716 93.1591 74.5108 93.1477C74.6077 93.1477 74.7102 93.1477 74.8127 93.1363C74.921 93.1306 75.0349 93.1192 75.1545 93.1078C75.2741 92.9311 75.445 92.6689 75.6671 92.3269C75.8893 91.9849 76.1285 91.6144 76.3962 91.2039C76.2026 91.0728 75.9633 90.9075 75.6671 90.7023C75.3766 90.4971 75.0861 90.3033 74.807 90.1209C74.5279 89.9385 74.3115 89.796 74.1691 89.6991C73.9754 89.568 73.8501 89.3856 73.7931 89.1632C73.7305 88.9352 73.7646 88.7186 73.8843 88.5191C74.0153 88.3025 74.2146 88.1714 74.4767 88.1144C74.7387 88.0631 74.9722 88.0973 75.1773 88.2341L75.3197 88.3424C75.4393 88.1372 75.576 87.8921 75.7298 87.6071C75.8836 87.3221 76.0374 87.0371 76.1855 86.7634C76.3336 86.4898 76.4475 86.2789 76.5159 86.1364C76.6241 85.897 76.795 85.7431 77.0285 85.669C77.2621 85.5949 77.4899 85.6177 77.7177 85.7203C77.9456 85.8229 78.0994 85.9939 78.1734 86.2219C78.2532 86.4499 78.2304 86.6722 78.1108 86.8831C78.0139 87.077 77.8829 87.3164 77.7177 87.6014C77.5526 87.8864 77.3817 88.1828 77.2051 88.4792C77.0342 88.7813 76.8747 89.0435 76.7323 89.2716L77.376 89.7048C77.6608 89.2487 77.9114 88.8554 78.1279 88.5191C78.3443 88.1828 78.4753 87.9776 78.5209 87.8921C78.6519 87.6755 78.8342 87.5387 79.0677 87.4703C79.3013 87.4019 79.5291 87.4304 79.757 87.5501C79.9962 87.6698 80.1443 87.8522 80.1956 88.0973C80.2468 88.3424 80.2126 88.5647 80.0816 88.7699C80.019 88.8668 79.8937 89.0606 79.6943 89.3628C79.4949 89.6649 79.2614 90.0126 78.988 90.423C78.7146 90.8277 78.4241 91.2552 78.1279 91.6942C77.826 92.1388 77.5469 92.5492 77.2848 92.9311C77.5583 92.9083 77.8374 92.8798 78.1108 92.8513C78.3842 92.8228 78.6405 92.8 78.8798 92.7886C78.8456 92.6917 78.8057 92.6062 78.7715 92.5264C78.7373 92.4466 78.7032 92.3782 78.6804 92.3212C78.5836 92.116 78.5836 91.9108 78.669 91.6942C78.7601 91.4775 78.9082 91.3293 79.1247 91.2438C79.3297 91.1583 79.5405 91.1583 79.7683 91.2324C79.9962 91.3122 80.1614 91.449 80.2696 91.6543C80.2924 91.6999 80.3209 91.7569 80.3494 91.8253C80.3778 91.8937 80.412 91.9621 80.4462 92.0305C80.469 91.8253 80.5544 91.6429 80.6968 91.4718C81.0671 91.0671 81.4544 90.594 81.8531 90.0525C82.2519 89.5167 82.6392 88.9751 83.0094 88.4279C83.3797 87.8864 83.693 87.4019 83.9436 86.9858C84.3252 86.353 84.8037 86.0338 85.3676 86.0338C85.9315 86.0338 86.4385 86.353 86.8828 86.9858C87.2075 87.4418 87.572 87.9263 87.9878 88.4507C88.398 88.9694 88.8195 89.4711 89.241 89.9499C89.6625 90.4287 90.0555 90.8448 90.4144 91.2039C90.6194 91.3977 90.7334 91.6258 90.7562 91.8937C90.7789 92.1616 90.7049 92.401 90.5226 92.6005C90.3176 92.8285 90.0726 92.9539 89.7878 92.9881C89.503 93.0166 89.2524 92.9254 89.0359 92.7088C88.7853 92.4466 88.5062 92.1331 88.2043 91.774C87.8967 91.4148 87.5948 91.0386 87.2872 90.6453C86.9796 90.252 86.6948 89.8701 86.4271 89.5053C86.1594 89.1405 85.9315 88.8269 85.755 88.5647C85.6353 88.3823 85.5157 88.2968 85.3847 88.2968C85.2537 88.2968 85.1455 88.3937 85.0373 88.5818C84.8436 88.9295 84.5816 89.3628 84.2455 89.8758C83.9094 90.3888 83.5506 90.9075 83.1689 91.4205C82.7873 91.9336 82.4284 92.3725 82.0924 92.7316C81.9272 92.9083 81.7221 93.0109 81.4943 93.0394C81.2607 93.0622 81.0443 93.0166 80.8392 92.8969C80.9361 93.1135 81.0329 93.3187 81.124 93.5182C81.2209 93.7177 81.2892 93.8773 81.3405 94.0142C81.4373 94.2536 81.4373 94.493 81.3519 94.7324C81.2607 94.9718 81.0898 95.1371 80.8392 95.234C80.6114 95.3195 80.3835 95.3195 80.1557 95.234C79.9278 95.1485 79.774 94.9946 79.6886 94.7666C79.6658 94.6583 79.6089 94.5101 79.5291 94.3163C79.3753 94.3277 79.2101 94.3505 79.0335 94.379C78.857 94.4075 78.6804 94.436 78.4867 94.4588V101.367C78.4867 101.652 78.3956 101.88 78.219 102.052C78.0424 102.217 77.8203 102.302 77.5583 102.302L77.581 102.297ZM74.3399 100.176C74.1235 100.119 73.964 99.9823 73.8672 99.7828C73.7646 99.5776 73.7533 99.3781 73.8216 99.1729C73.9184 98.9335 74.0267 98.6257 74.152 98.2494C74.2773 97.8732 74.3969 97.4913 74.5108 97.1037C74.6248 96.7161 74.7102 96.3912 74.7729 96.1233C74.8184 95.9066 74.9437 95.7413 75.1488 95.6273C75.3539 95.5133 75.5589 95.4848 75.7754 95.5475C76.0032 95.5931 76.1684 95.7071 76.2709 95.8781C76.3735 96.0548 76.4019 96.2544 76.3507 96.4767C76.2937 96.7503 76.2083 97.0923 76.1001 97.4913C75.9918 97.8903 75.8779 98.2893 75.7583 98.677C75.6387 99.0646 75.5304 99.3838 75.4336 99.6346C75.3482 99.8626 75.2058 100.028 75.0007 100.131C74.7956 100.233 74.5735 100.245 74.3399 100.176ZM80.7196 99.5491C80.4918 99.6346 80.2696 99.6232 80.0475 99.5206C79.8253 99.418 79.6886 99.2527 79.6259 99.0247C79.5519 98.7967 79.4665 98.5174 79.3639 98.181C79.2614 97.8447 79.1589 97.5084 79.0563 97.1664C78.9538 96.8244 78.8741 96.5394 78.8171 96.3171C78.7715 96.089 78.8057 95.8838 78.9253 95.6957C79.0449 95.5076 79.2158 95.3936 79.4437 95.348C79.6601 95.291 79.8652 95.3138 80.0645 95.4221C80.2639 95.5304 80.3892 95.69 80.4519 95.9066C80.5088 96.1232 80.5943 96.3855 80.6911 96.7047C80.7937 97.0239 80.8962 97.3431 81.0044 97.6623C81.1126 97.9872 81.2038 98.2494 81.2721 98.449C81.3576 98.677 81.3462 98.8936 81.2436 99.0931C81.1411 99.2983 80.9645 99.4465 80.7139 99.5434L80.7196 99.5491ZM85.6695 101.67C84.7354 101.67 84.012 101.578 83.4879 101.39C82.9696 101.202 82.605 100.877 82.3943 100.41C82.1835 99.9424 82.081 99.2812 82.081 98.4204C82.081 97.5597 82.1835 96.8928 82.3943 96.4311C82.605 95.9693 82.9696 95.6387 83.4879 95.462C84.0063 95.2853 84.7354 95.1941 85.6695 95.1941C86.6037 95.1941 87.3271 95.2853 87.8397 95.462C88.3524 95.6387 88.7169 95.9636 88.922 96.4311C89.1328 96.8985 89.2353 97.5597 89.2353 98.4204C89.2353 99.2812 89.1328 99.9481 88.922 100.41C88.7112 100.877 88.3524 101.202 87.8397 101.39C87.3271 101.573 86.6037 101.67 85.6695 101.67ZM83.374 93.7006C83.1006 93.7006 82.8784 93.6151 82.7189 93.4384C82.5594 93.2674 82.4797 93.0565 82.4797 92.8171C82.4797 92.5663 82.5594 92.3554 82.7189 92.1787C82.8784 92.002 83.1006 91.9165 83.374 91.9165H87.6973C87.9708 91.9165 88.1872 92.002 88.341 92.1787C88.4948 92.3497 88.5745 92.5663 88.5745 92.8171C88.5745 93.0679 88.4948 93.2617 88.341 93.4384C88.1872 93.6094 87.9708 93.7006 87.6973 93.7006H83.374ZM85.6695 99.8911C86.3018 99.8911 86.7233 99.7942 86.9227 99.6061C87.122 99.418 87.2303 99.019 87.2303 98.4204C87.2303 97.8219 87.1277 97.4286 86.9227 97.2348C86.7176 97.041 86.3018 96.9498 85.6695 96.9498C85.0373 96.9498 84.6328 97.041 84.4221 97.2291C84.2113 97.4172 84.1088 97.8048 84.1088 98.4033C84.1088 99.0019 84.2113 99.4009 84.4221 99.5947C84.6328 99.7885 85.0486 99.8911 85.6695 99.8911Z" fill="#333333"/>
<path d="M92.8068 101.487C92.5448 101.379 92.3682 101.196 92.2885 100.929C92.2031 100.666 92.2372 100.404 92.3796 100.142C92.5961 99.76 92.8296 99.2983 93.0859 98.7624C93.3423 98.2266 93.5929 97.6794 93.8321 97.1322C94.0714 96.5792 94.2537 96.1004 94.3904 95.6957C94.4872 95.4221 94.6581 95.2283 94.903 95.12C95.1479 95.0117 95.4157 95.0117 95.7005 95.12C95.9511 95.2169 96.1334 95.3765 96.2359 95.6045C96.3441 95.8325 96.3441 96.1004 96.2359 96.4139C96.1277 96.699 95.991 97.0467 95.8258 97.4571C95.6606 97.8618 95.4783 98.2893 95.2903 98.7396C95.0967 99.19 94.9087 99.6175 94.7264 100.022C94.5385 100.427 94.3847 100.769 94.2537 101.043C94.134 101.305 93.9347 101.476 93.6556 101.556C93.3764 101.635 93.0973 101.613 92.8239 101.493L92.8068 101.487ZM94.6524 93.2332C94.5328 93.1363 94.3562 93.0166 94.1226 92.8627C93.8891 92.7145 93.6556 92.5663 93.422 92.4124C93.1885 92.2642 93.0062 92.1502 92.8752 92.0818C92.6473 91.9506 92.5049 91.7568 92.4423 91.5003C92.3796 91.2438 92.4195 90.9987 92.5505 90.7764C92.6929 90.5256 92.898 90.366 93.16 90.2919C93.422 90.2178 93.6726 90.252 93.9119 90.3831C94.0543 90.4572 94.2423 90.5655 94.4758 90.7137C94.7093 90.8619 94.9429 91.0158 95.1821 91.164C95.4214 91.3122 95.6036 91.4376 95.7403 91.5345C95.9796 91.6884 96.1334 91.9108 96.196 92.1958C96.2644 92.4808 96.2131 92.7487 96.0422 92.9881C95.8884 93.2161 95.672 93.3529 95.3986 93.3985C95.1252 93.4441 94.8745 93.3985 94.6467 93.2389L94.6524 93.2332ZM95.746 89.1803C95.6264 89.0834 95.4555 88.958 95.2277 88.8041C94.9998 88.6502 94.772 88.4963 94.5442 88.3481C94.3163 88.1999 94.1397 88.0859 94.0087 88.0175C93.7809 87.8864 93.6499 87.6926 93.6043 87.4418C93.5644 87.1909 93.6043 86.9515 93.741 86.7235C93.8834 86.4841 94.0885 86.3359 94.3505 86.2732C94.6125 86.2162 94.8631 86.2561 95.1024 86.3986C95.2448 86.4727 95.4327 86.581 95.6663 86.7292C95.8998 86.8774 96.1334 87.0256 96.3726 87.1795C96.6118 87.3278 96.7884 87.4532 96.908 87.5444C97.1473 87.6983 97.2897 87.9206 97.3296 88.1999C97.3694 88.4792 97.3068 88.7414 97.1416 88.9808C96.9878 89.1974 96.7713 89.3228 96.4979 89.357C96.2245 89.3912 95.9739 89.3342 95.746 89.1803ZM104.484 102.114C104.199 102.114 103.954 102.046 103.755 101.909C103.555 101.772 103.441 101.55 103.407 101.253C103.385 100.98 103.453 100.74 103.624 100.535C103.789 100.33 104.005 100.222 104.267 100.21C104.672 100.188 104.951 100.136 105.099 100.068C105.247 99.9937 105.367 99.817 105.447 99.532C105.521 99.304 105.589 99.019 105.663 98.6712C105.737 98.3235 105.794 97.9644 105.845 97.5939C105.891 97.2462 105.868 97.0011 105.771 96.8586C105.674 96.7161 105.492 96.6306 105.213 96.6078C104.78 97.6737 104.205 98.6541 103.481 99.5605C102.758 100.461 101.898 101.282 100.907 102.012C100.69 102.165 100.451 102.24 100.178 102.234C99.9099 102.228 99.6877 102.108 99.5226 101.886C99.3802 101.709 99.3232 101.499 99.3517 101.265C99.3802 101.031 99.4998 100.843 99.6991 100.701C100.536 100.136 101.271 99.5092 101.904 98.808C102.536 98.1069 103.066 97.3773 103.481 96.6078H102.587C102.228 97.2063 101.784 97.7991 101.248 98.3862C100.719 98.9734 100.138 99.5092 99.5112 99.9994C98.8846 100.49 98.2409 100.9 97.5859 101.236C97.358 101.356 97.1245 101.39 96.8853 101.333C96.646 101.282 96.458 101.134 96.327 100.894C96.2188 100.689 96.196 100.484 96.2644 100.267C96.3327 100.051 96.4751 99.8968 96.703 99.7999C97.4777 99.418 98.2352 98.9335 98.9643 98.3577C99.6934 97.7763 100.297 97.1949 100.776 96.6078H99.7903C99.3972 97.0011 98.9814 97.3716 98.5542 97.7193C98.127 98.067 97.6884 98.3748 97.2441 98.6541C97.0277 98.7853 96.7884 98.8365 96.5264 98.808C96.2644 98.7795 96.065 98.6484 95.934 98.4204C95.8144 98.2152 95.7859 97.9986 95.8429 97.7649C95.8998 97.5312 96.0479 97.3545 96.2758 97.2348C96.6688 97.0182 97.0732 96.7503 97.4833 96.4253C97.8935 96.1004 98.2865 95.7584 98.6567 95.3936C99.027 95.0288 99.3574 94.6754 99.6422 94.3277H97.0789C96.8511 94.3277 96.6688 94.2479 96.5321 94.0882C96.3954 93.9286 96.327 93.7405 96.327 93.5239C96.327 93.3187 96.3954 93.1363 96.5321 92.9653C96.6688 92.8 96.8511 92.7145 97.0789 92.7145H107.981C108.221 92.7145 108.408 92.8 108.545 92.9653C108.682 93.1306 108.75 93.3187 108.75 93.5239C108.75 93.7405 108.682 93.9286 108.545 94.0882C108.408 94.2479 108.221 94.3277 107.981 94.3277H101.596C101.511 94.4474 101.431 94.5671 101.345 94.6982C101.26 94.8236 101.174 94.9547 101.078 95.0858H105.418C106.267 95.0858 106.888 95.2739 107.281 95.6444C107.674 96.0149 107.822 96.6363 107.731 97.5084C107.685 98.0214 107.622 98.5116 107.543 98.9791C107.463 99.4465 107.372 99.8911 107.264 100.307C107.087 101.003 106.768 101.476 106.324 101.732C105.874 101.989 105.259 102.12 104.467 102.12L104.484 102.114ZM101.613 92.0875C100.81 92.0875 100.183 92.002 99.7276 91.8252C99.2719 91.6542 98.9529 91.3464 98.7707 90.9075C98.5827 90.4686 98.4916 89.8587 98.4916 89.0663C98.4916 88.274 98.5827 87.647 98.7707 87.2194C98.9586 86.7862 99.2776 86.4841 99.7276 86.3131C100.183 86.1421 100.81 86.0509 101.613 86.0509H103.55C104.353 86.0509 104.979 86.1364 105.435 86.3131C105.891 86.4841 106.21 86.7862 106.403 87.2194C106.597 87.6527 106.688 88.2683 106.688 89.0663C106.688 89.8644 106.591 90.4686 106.403 90.9075C106.21 91.3464 105.891 91.6485 105.435 91.8252C104.979 91.9963 104.353 92.0875 103.55 92.0875H101.613ZM101.864 90.5427H103.333C103.812 90.5427 104.148 90.4971 104.336 90.4002C104.529 90.3033 104.649 90.0753 104.695 89.7162H100.48C100.525 90.0753 100.65 90.3033 100.85 90.4002C101.049 90.4971 101.385 90.5427 101.864 90.5427ZM100.502 88.3709H104.683C104.638 88.0232 104.518 87.8066 104.324 87.7154C104.131 87.6242 103.806 87.5786 103.339 87.5786H101.869C101.391 87.5786 101.055 87.6242 100.867 87.7154C100.673 87.8066 100.554 88.0232 100.508 88.3709H100.502Z" fill="#333333"/>
<path d="M118.126 102.205C117.203 102.205 116.474 102.114 115.939 101.926C115.403 101.738 115.016 101.425 114.794 100.986C114.566 100.541 114.452 99.9482 114.452 99.2071V96.0663C114.452 95.6331 114.486 95.2569 114.56 94.9376C114.167 95.0573 113.769 95.1714 113.37 95.2854C112.971 95.3994 112.567 95.502 112.157 95.5989C111.752 95.6958 111.422 95.6844 111.177 95.5704C110.932 95.4564 110.761 95.2569 110.664 94.9718C110.579 94.6469 110.619 94.3676 110.778 94.1168C110.938 93.8717 111.2 93.7121 111.558 93.6437C112.572 93.4385 113.552 93.1934 114.492 92.897C115.432 92.6005 116.32 92.2642 117.152 91.8823C116.879 91.8595 116.651 91.7626 116.469 91.5973C116.292 91.432 116.189 91.204 116.167 90.9133C116.155 90.6169 116.241 90.3546 116.417 90.1437C116.594 89.9271 116.856 89.8074 117.186 89.7846C117.556 89.7618 117.784 89.6991 117.875 89.5965C117.967 89.4939 118.012 89.2773 118.012 88.941V86.6096C118.012 86.2619 118.12 85.994 118.343 85.8001C118.565 85.6063 118.821 85.5151 119.123 85.5151C119.425 85.5151 119.681 85.612 119.892 85.8001C120.103 85.9883 120.217 86.2619 120.217 86.6096V89.1063C120.217 89.5395 120.177 89.8986 120.091 90.1836C120.558 89.8473 120.991 89.4825 121.401 89.0892C121.629 88.8726 121.88 88.7529 122.153 88.7301C122.427 88.7073 122.677 88.8156 122.905 89.055C123.099 89.2374 123.196 89.4654 123.213 89.7561C123.23 90.0468 123.11 90.2862 122.871 90.4914C122.347 90.9703 121.766 91.4206 121.139 91.8367C120.513 92.2585 119.852 92.6575 119.157 93.0395H120.951C121.886 93.0395 122.615 93.1364 123.15 93.3245C123.68 93.5183 124.061 93.8318 124.289 94.2764C124.517 94.721 124.631 95.3196 124.631 96.072V99.2128C124.631 99.9539 124.517 100.547 124.289 100.991C124.061 101.436 123.68 101.749 123.15 101.932C122.62 102.12 121.886 102.211 120.951 102.211H118.12L118.126 102.205ZM113.125 91.0615C112.874 91.2553 112.601 91.3408 112.299 91.3294C112.003 91.318 111.746 91.1926 111.547 90.9532C111.353 90.7366 111.274 90.4858 111.296 90.2007C111.319 89.9157 111.445 89.6877 111.672 89.5167C111.946 89.3115 112.253 89.0607 112.595 88.7529C112.937 88.4451 113.273 88.1315 113.609 87.8123C113.945 87.4874 114.219 87.1967 114.435 86.9345C114.64 86.6951 114.891 86.5754 115.187 86.564C115.483 86.5526 115.728 86.6438 115.922 86.8262C116.138 87.02 116.258 87.248 116.292 87.5159C116.326 87.7838 116.241 88.0346 116.053 88.2627C115.825 88.5477 115.54 88.8612 115.198 89.2032C114.857 89.5452 114.509 89.8815 114.15 90.2064C113.791 90.5371 113.45 90.8221 113.131 91.0615H113.125ZM116.691 98.1127H122.392V97.1436H116.691V98.1127ZM116.708 95.673H122.375C122.364 95.2683 122.256 95.0003 122.051 94.8749C121.846 94.7495 121.481 94.6868 120.957 94.6868H118.126C117.613 94.6868 117.255 94.7495 117.05 94.8749C116.844 95.0003 116.731 95.2683 116.708 95.673ZM118.126 100.552H120.957C121.47 100.552 121.829 100.49 122.034 100.364C122.239 100.239 122.353 99.971 122.375 99.5662H116.708C116.731 99.971 116.844 100.239 117.05 100.364C117.255 100.49 117.613 100.552 118.126 100.552ZM125.189 90.5085C124.939 90.2691 124.631 90.0012 124.272 89.6991C123.913 89.4027 123.549 89.1063 123.179 88.8213C122.808 88.5363 122.467 88.2912 122.159 88.0859C121.954 87.9548 121.817 87.7553 121.749 87.4874C121.68 87.2195 121.726 86.9687 121.891 86.7407C122.056 86.5127 122.273 86.3759 122.535 86.3303C122.797 86.2847 123.042 86.336 123.27 86.4899C123.583 86.6837 123.942 86.9288 124.352 87.2366C124.762 87.5387 125.166 87.8465 125.565 88.1543C125.958 88.4565 126.283 88.7187 126.534 88.9353C126.773 89.1291 126.909 89.3514 126.938 89.6193C126.966 89.8872 126.887 90.1323 126.699 90.3717C126.505 90.6112 126.26 90.7423 125.953 90.7651C125.645 90.7879 125.394 90.7081 125.189 90.5142V90.5085Z" fill="#333333"/>
<path d="M129.997 98.4889C129.701 98.4889 129.439 98.3806 129.228 98.1583C129.011 97.936 128.903 97.6795 128.903 97.3773C128.903 97.0752 129.011 96.8016 129.228 96.585C129.444 96.3684 129.701 96.2601 129.997 96.2601H135.573V92.0989H132.133C131.819 92.0989 131.557 91.9906 131.341 91.7683C131.125 91.546 131.016 91.2895 131.016 90.9874C131.016 90.6852 131.125 90.4116 131.341 90.195C131.557 89.9784 131.819 89.8701 132.133 89.8701H141.224C141.537 89.8701 141.799 89.9784 142.016 90.195C142.232 90.4116 142.34 90.6738 142.34 90.9874C142.34 91.3009 142.232 91.546 142.016 91.7683C141.799 91.9906 141.537 92.0989 141.224 92.0989H137.8V96.2601H143.451C143.764 96.2601 144.021 96.3684 144.231 96.585C144.442 96.8016 144.545 97.0638 144.545 97.3773C144.545 97.6909 144.442 97.936 144.231 98.1583C144.021 98.3806 143.764 98.4889 143.451 98.4889H130.002H129.997Z" fill="#333333"/>
<path d="M155.122 102.08C154.82 102.08 154.564 101.972 154.353 101.755C154.137 101.538 154.029 101.282 154.029 100.985V95.8154C153.169 96.3284 152.24 96.8186 151.238 97.286C150.241 97.7535 149.278 98.1354 148.361 98.4318C148.076 98.5287 147.797 98.5059 147.529 98.3577C147.262 98.2152 147.085 97.9986 147 97.7135C146.914 97.4285 146.943 97.1435 147.079 96.8699C147.216 96.5963 147.427 96.4139 147.717 96.3341C148.327 96.1403 148.982 95.8952 149.688 95.5988C150.395 95.3023 151.095 94.9717 151.784 94.6183C152.479 94.2649 153.106 93.9172 153.676 93.5695C154.245 93.2218 154.689 92.9139 155.014 92.6346C155.253 92.4294 155.333 92.247 155.259 92.0874C155.179 91.9278 154.997 91.848 154.712 91.848H150.446C150.15 91.848 149.893 91.7454 149.683 91.5402C149.472 91.335 149.369 91.0842 149.369 90.7878C149.369 90.4913 149.472 90.2348 149.683 90.0353C149.893 89.8301 150.144 89.7275 150.446 89.7275H155.003C155.72 89.7275 156.296 89.8643 156.723 90.1379C157.156 90.4115 157.441 90.765 157.594 91.1982C157.748 91.6314 157.748 92.0817 157.612 92.5605C157.475 93.0394 157.184 93.484 156.74 93.8887C156.655 93.9628 156.575 94.0312 156.489 94.1053C156.404 94.1794 156.319 94.2535 156.222 94.339V100.98C156.222 101.276 156.113 101.538 155.897 101.749C155.681 101.966 155.424 102.074 155.128 102.074L155.122 102.08ZM156.518 88.9067C156.074 88.8611 155.584 88.7984 155.037 88.7186C154.49 88.6388 153.96 88.5533 153.431 88.4563C152.907 88.3594 152.428 88.2625 151.995 88.1713C151.699 88.0972 151.471 87.9376 151.312 87.6868C151.158 87.436 151.112 87.1624 151.186 86.8603C151.243 86.5639 151.403 86.3359 151.659 86.1877C151.915 86.0394 152.195 85.9938 152.491 86.0509C152.907 86.1478 153.368 86.239 153.863 86.3302C154.359 86.4214 154.855 86.5012 155.344 86.5696C155.834 86.6437 156.284 86.7007 156.689 86.752C157.002 86.7862 157.253 86.9173 157.441 87.1396C157.634 87.3619 157.714 87.6298 157.691 87.9376C157.668 88.2397 157.537 88.4792 157.304 88.673C157.07 88.8668 156.803 88.9409 156.506 88.9067H156.518ZM161.377 98.2551C161.103 98.1126 160.756 97.9359 160.334 97.725C159.913 97.514 159.491 97.3088 159.064 97.0979C158.631 96.887 158.249 96.716 157.913 96.5849C157.64 96.4652 157.446 96.2657 157.332 95.9864C157.218 95.7071 157.224 95.4277 157.344 95.1541C157.463 94.8805 157.663 94.6867 157.942 94.5727C158.221 94.4587 158.5 94.4644 158.774 94.5841C159.11 94.7152 159.503 94.8805 159.958 95.0857C160.414 95.2909 160.858 95.4962 161.303 95.7071C161.747 95.918 162.117 96.1118 162.413 96.2885C162.675 96.4424 162.852 96.6647 162.943 96.944C163.034 97.2233 163.006 97.5026 162.863 97.7763C162.732 98.0385 162.522 98.2209 162.225 98.3235C161.929 98.4261 161.65 98.4033 161.371 98.2608L161.377 98.2551Z" fill="#333333"/>
<path d="M60.4984 115.533C60.0256 115.533 59.7864 115.401 59.7864 115.134C59.7864 114.552 59.9345 113.988 60.2421 113.441C60.544 112.893 61.0509 112.278 61.7572 111.605C62.0079 111.366 62.2471 111.121 62.4692 110.875C62.6971 110.63 62.8794 110.391 63.0275 110.152C63.1699 109.912 63.2496 109.684 63.2553 109.467C63.261 109.051 63.1699 108.738 62.9705 108.538C62.7711 108.339 62.492 108.236 62.1332 108.236C61.6433 108.236 61.33 108.487 61.1933 108.983C61.1307 109.2 61.0452 109.371 60.9484 109.485C60.8459 109.604 60.6921 109.661 60.4813 109.661C60.2705 109.661 60.1168 109.593 59.9971 109.456C59.8775 109.319 59.8433 109.131 59.9003 108.897C60.0313 108.299 60.2933 107.837 60.6864 107.501C61.0794 107.165 61.5636 106.999 62.1332 106.999C62.6003 106.999 63.0161 107.096 63.3806 107.29C63.7452 107.484 64.0357 107.763 64.2464 108.134C64.4572 108.504 64.554 108.96 64.5369 109.502C64.5312 109.878 64.4401 110.231 64.2692 110.551C64.0983 110.875 63.8762 111.183 63.5971 111.485C63.318 111.787 63.0047 112.107 62.6515 112.443C62.2813 112.808 61.9509 113.15 61.6661 113.48C61.3813 113.811 61.2161 114.096 61.1648 114.341H63.6768C64.1496 114.341 64.3888 114.541 64.3888 114.934C64.3888 115.327 64.1496 115.527 63.6768 115.527H60.4984V115.533Z" fill="#333333"/>
<path d="M67.9148 115.658C67.2711 115.658 66.7699 115.498 66.4053 115.173C66.0408 114.849 65.7901 114.37 65.6363 113.726C65.4882 113.081 65.4142 112.278 65.4142 111.309C65.4142 110.34 65.4882 109.536 65.6363 108.886C65.7844 108.236 66.0408 107.752 66.4053 107.427C66.7699 107.102 67.2711 106.942 67.9148 106.942C68.5584 106.942 69.0597 107.102 69.4186 107.427C69.7774 107.752 70.028 108.236 70.1818 108.886C70.3356 109.536 70.404 110.34 70.404 111.309C70.404 112.278 70.3299 113.081 70.1818 113.726C70.0337 114.37 69.7774 114.854 69.4186 115.173C69.0597 115.498 68.5584 115.658 67.9148 115.658ZM67.9148 114.421C68.211 114.421 68.4502 114.324 68.6211 114.136C68.792 113.948 68.923 113.629 69.0027 113.173C69.0825 112.717 69.1224 112.095 69.1224 111.297C69.1224 110.499 69.0825 109.861 69.0027 109.41C68.923 108.96 68.7977 108.641 68.6211 108.447C68.4502 108.259 68.211 108.162 67.9148 108.162C67.6186 108.162 67.3793 108.259 67.2028 108.447C67.0262 108.635 66.9009 108.954 66.8211 109.41C66.7471 109.861 66.7072 110.488 66.7072 111.297C66.7072 112.107 66.7471 112.717 66.8211 113.173C66.8952 113.623 67.0262 113.942 67.2028 114.136C67.3793 114.33 67.6186 114.421 67.9148 114.421Z" fill="#333333"/>
<path d="M71.9875 115.533C71.5147 115.533 71.2755 115.401 71.2755 115.134C71.2755 114.552 71.4236 113.988 71.7312 113.441C72.0331 112.893 72.54 112.278 73.2464 111.605C73.497 111.366 73.7362 111.121 73.9584 110.875C74.1862 110.63 74.3685 110.391 74.5166 110.152C74.659 109.912 74.7388 109.684 74.7444 109.467C74.7501 109.051 74.659 108.738 74.4596 108.538C74.2603 108.339 73.9812 108.236 73.6223 108.236C73.1324 108.236 72.8192 108.487 72.6825 108.983C72.6198 109.2 72.5344 109.371 72.4375 109.485C72.335 109.604 72.1812 109.661 71.9704 109.661C71.7597 109.661 71.6059 109.593 71.4863 109.456C71.3667 109.319 71.3325 109.131 71.3894 108.897C71.5204 108.299 71.7825 107.837 72.1755 107.501C72.5685 107.165 73.0527 106.999 73.6223 106.999C74.0894 106.999 74.5052 107.096 74.8698 107.29C75.2343 107.484 75.5248 107.763 75.7356 108.134C75.9463 108.504 76.0432 108.96 76.0261 109.502C76.0204 109.878 75.9292 110.231 75.7584 110.551C75.5875 110.875 75.3653 111.183 75.0862 111.485C74.8071 111.787 74.4938 112.107 74.1407 112.443C73.7704 112.808 73.44 113.15 73.1552 113.48C72.8704 113.811 72.7052 114.096 72.654 114.341H75.166C75.6387 114.341 75.878 114.541 75.878 114.934C75.878 115.327 75.6387 115.527 75.166 115.527H71.9875V115.533Z" fill="#333333"/>
<path d="M79.0393 115.607C78.276 115.607 77.621 115.339 77.0685 114.809C76.8919 114.638 76.8121 114.467 76.8406 114.296C76.8634 114.125 76.9659 113.982 77.1425 113.88C77.3248 113.766 77.49 113.731 77.6381 113.766C77.7805 113.8 77.9457 113.885 78.1222 114.028C78.2532 114.13 78.39 114.216 78.5437 114.284C78.6975 114.347 78.8627 114.381 79.0393 114.381C79.4893 114.381 79.8311 114.244 80.0589 113.976C80.2868 113.709 80.4007 113.332 80.4007 112.848C80.4007 112.323 80.3039 111.941 80.1045 111.708C79.9051 111.468 79.6317 111.349 79.2785 111.349C79.1589 111.349 79.045 111.366 78.9368 111.406C78.8286 111.44 78.7317 111.491 78.6406 111.542C78.4811 111.634 78.3387 111.719 78.2191 111.805C78.0995 111.89 77.9457 111.93 77.7577 111.93C77.3134 111.93 77.0912 111.691 77.0912 111.218V107.797C77.0912 107.324 77.3305 107.085 77.8146 107.085H80.6741C81.1469 107.085 81.3861 107.284 81.3861 107.678C81.3861 108.071 81.1469 108.27 80.6741 108.27H78.3786V110.494C78.5153 110.397 78.6634 110.317 78.8229 110.26C78.9824 110.197 79.1475 110.169 79.307 110.169C79.757 110.169 80.1614 110.271 80.5203 110.471C80.8792 110.67 81.164 110.972 81.3804 111.366C81.5912 111.759 81.6994 112.255 81.6994 112.853C81.6994 113.731 81.4545 114.41 80.9646 114.894C80.4747 115.379 79.8311 115.618 79.0336 115.618L79.0393 115.607Z" fill="#333333"/>
<path d="M86.8601 116C86.4101 116 86.1652 115.806 86.1253 115.419C86.1025 115.236 86.1538 115.082 86.2734 114.957C86.393 114.831 86.5582 114.757 86.7804 114.746C87.0481 114.723 87.2133 114.683 87.2873 114.626C87.3557 114.564 87.3898 114.432 87.3898 114.233V114.085H84.2855C84.1601 114.085 84.0519 114.039 83.9665 113.954C83.881 113.868 83.8355 113.76 83.8355 113.634C83.8355 113.509 83.881 113.401 83.9665 113.315C84.0519 113.23 84.1601 113.184 84.2855 113.184H87.3898V112.762H83.4424C83.3285 112.762 83.2317 112.722 83.1405 112.637C83.0551 112.551 83.0095 112.449 83.0095 112.329C83.0095 112.209 83.0551 112.107 83.1405 112.021C83.226 111.936 83.3285 111.896 83.4424 111.896H87.3898V111.485H84.3139C84.1829 111.485 84.069 111.445 83.9779 111.366C83.8867 111.286 83.8412 111.183 83.8412 111.058C83.8412 110.927 83.8867 110.818 83.9779 110.739C84.069 110.659 84.1829 110.619 84.3139 110.619H87.3898V110.248H86.0854C85.55 110.248 85.1854 110.169 84.9804 110.015C84.7753 109.861 84.6728 109.593 84.6728 109.205C84.6728 108.818 84.7753 108.55 84.9804 108.402C85.1854 108.253 85.55 108.174 86.0854 108.174H87.3898V107.814H83.7671C83.6418 107.814 83.5336 107.769 83.4481 107.678C83.3627 107.586 83.3171 107.478 83.3171 107.353C83.3171 107.227 83.3627 107.119 83.4481 107.028C83.5336 106.937 83.6418 106.891 83.7671 106.891H87.3898V106.566C87.3898 106.372 87.4525 106.213 87.5721 106.104C87.6974 105.99 87.8455 105.933 88.0221 105.933C88.1987 105.933 88.3468 105.99 88.4721 106.104C88.5974 106.218 88.6544 106.372 88.6544 106.566V106.891H92.2543C92.3796 106.891 92.4879 106.937 92.5733 107.028C92.6587 107.119 92.7043 107.227 92.7043 107.353C92.7043 107.478 92.6587 107.586 92.5733 107.678C92.4879 107.769 92.3796 107.814 92.2543 107.814H88.6544V108.174H89.9303C90.4714 108.174 90.8417 108.248 91.0467 108.402C91.2518 108.55 91.3543 108.823 91.3543 109.205C91.3543 109.587 91.2518 109.861 91.0467 110.015C90.8417 110.169 90.4714 110.248 89.9303 110.248H88.6544V110.619H89.9075C90.4031 110.619 90.7961 110.659 91.0809 110.733C91.3657 110.813 91.5708 110.944 91.6904 111.126C91.8157 111.314 91.8841 111.571 91.9069 111.902H92.5619C92.6815 111.902 92.7841 111.941 92.8695 112.027C92.9549 112.112 92.9948 112.215 92.9948 112.335C92.9948 112.454 92.9549 112.557 92.8695 112.643C92.7841 112.728 92.6815 112.768 92.5619 112.768H91.9069C91.8841 113.099 91.8157 113.361 91.6904 113.56C91.5651 113.754 91.3657 113.897 91.0866 113.976C90.8075 114.056 90.4145 114.096 89.9075 114.096H88.6544V114.393C88.6544 114.968 88.512 115.384 88.2329 115.635C87.9537 115.886 87.4981 116.017 86.8658 116.017L86.8601 116ZM86.0797 109.405H87.3841V108.994H86.0797C85.9829 108.994 85.9145 109.006 85.8747 109.034C85.8348 109.063 85.8177 109.12 85.8177 109.205C85.8177 109.285 85.8348 109.336 85.8747 109.365C85.9145 109.393 85.9829 109.405 86.0797 109.405ZM88.6487 109.405H89.9246C90.0214 109.405 90.0898 109.393 90.1297 109.365C90.1695 109.336 90.1866 109.285 90.1866 109.205C90.1866 109.12 90.1695 109.063 90.1297 109.034C90.0898 109.006 90.0214 108.994 89.9246 108.994H88.6487V109.405ZM88.6487 111.89H90.6822C90.6537 111.708 90.5854 111.594 90.4771 111.548C90.3689 111.502 90.1752 111.48 89.9018 111.48H88.6487V111.89ZM88.6487 113.173H89.9018C90.1752 113.173 90.3689 113.144 90.4828 113.093C90.5968 113.042 90.6594 112.928 90.6822 112.751H88.6487V113.173Z" fill="#333333"/>
<path d="M98.52 115.954C98.3662 115.954 98.2295 115.897 98.1156 115.789C98.0017 115.681 97.9447 115.538 97.9447 115.362V113.697C97.6542 113.931 97.3352 114.164 96.9764 114.41C96.6175 114.649 96.253 114.877 95.877 115.077C95.5011 115.282 95.1479 115.447 94.8175 115.584C94.6637 115.652 94.5042 115.675 94.3448 115.641C94.1853 115.612 94.0656 115.515 93.9859 115.362C93.9175 115.219 93.9062 115.071 93.9517 114.911C94.003 114.752 94.1055 114.643 94.265 114.581C94.5441 114.467 94.8517 114.33 95.1878 114.164C95.5182 113.999 95.8542 113.822 96.1846 113.629C96.515 113.435 96.8112 113.247 97.0789 113.064H94.1967C94.0656 113.064 93.9517 113.019 93.8549 112.922C93.7581 112.825 93.7125 112.711 93.7125 112.58C93.7125 112.449 93.7581 112.335 93.8549 112.238C93.9517 112.141 94.0656 112.095 94.1967 112.095H97.9447V111.634H95.2732C95.1422 111.634 95.0283 111.588 94.9371 111.502C94.846 111.417 94.8004 111.303 94.8004 111.172C94.8004 111.041 94.846 110.927 94.9371 110.841C95.0283 110.756 95.1422 110.71 95.2732 110.71H97.9447V110.266H94.8061C94.6751 110.266 94.5612 110.22 94.4701 110.123C94.3789 110.026 94.3334 109.912 94.3334 109.781C94.3334 109.65 94.3789 109.536 94.4701 109.445C94.5612 109.353 94.6751 109.308 94.8061 109.308H96.3612C96.3099 109.188 96.2586 109.068 96.2017 108.949C96.1447 108.829 96.0992 108.732 96.065 108.652H94.191C94.0599 108.652 93.946 108.607 93.8492 108.51C93.7524 108.413 93.7068 108.299 93.7068 108.168C93.7068 108.037 93.7524 107.923 93.8492 107.826C93.946 107.729 94.0599 107.683 94.191 107.683H95.4327C95.4327 107.683 95.4042 107.649 95.3928 107.621C95.3416 107.524 95.2789 107.398 95.2049 107.25C95.1251 107.102 95.0625 106.982 95.0169 106.891C94.9485 106.748 94.9428 106.612 94.9998 106.469C95.0568 106.327 95.165 106.23 95.3131 106.161C95.4555 106.104 95.5979 106.099 95.746 106.133C95.8941 106.167 96.0023 106.258 96.0707 106.401C96.0992 106.452 96.139 106.526 96.1846 106.629C96.2302 106.731 96.2871 106.834 96.3384 106.942C96.3897 107.051 96.4295 107.136 96.458 107.199C96.5378 107.375 96.5207 107.535 96.4181 107.672H96.9764V106.566C96.9764 106.384 97.0333 106.241 97.1472 106.139C97.2612 106.036 97.3979 105.985 97.5517 105.985C97.7055 105.985 97.8479 106.036 97.9561 106.139C98.0643 106.241 98.1213 106.384 98.1213 106.566V107.672H98.8447V106.566C98.8447 106.384 98.9016 106.241 99.0213 106.139C99.1352 106.036 99.2719 105.985 99.4257 105.985C99.5795 105.985 99.7219 106.036 99.8358 106.139C99.9497 106.241 100.007 106.384 100.007 106.566V107.672H100.542C100.445 107.529 100.44 107.37 100.531 107.187C100.588 107.09 100.656 106.954 100.741 106.788L100.929 106.406C101.009 106.275 101.117 106.184 101.266 106.139C101.414 106.093 101.556 106.104 101.687 106.167C101.841 106.235 101.949 106.344 102.006 106.481C102.063 106.623 102.057 106.76 101.978 106.902C101.926 106.994 101.858 107.113 101.767 107.256C101.676 107.398 101.596 107.524 101.533 107.632C101.528 107.638 101.522 107.643 101.516 107.655C101.51 107.666 101.505 107.666 101.499 107.678H102.838C102.969 107.678 103.083 107.723 103.179 107.82C103.276 107.917 103.322 108.031 103.322 108.162C103.322 108.293 103.276 108.407 103.179 108.504C103.083 108.601 102.969 108.647 102.838 108.647H100.952C100.918 108.726 100.873 108.823 100.821 108.943C100.77 109.063 100.713 109.182 100.656 109.302H102.12C102.251 109.302 102.365 109.348 102.462 109.439C102.559 109.53 102.604 109.644 102.604 109.775C102.604 109.906 102.559 110.02 102.462 110.117C102.365 110.214 102.251 110.26 102.12 110.26H99.101V110.704H101.71C101.841 110.704 101.955 110.75 102.046 110.836C102.137 110.921 102.183 111.035 102.183 111.166C102.183 111.297 102.137 111.411 102.046 111.497C101.955 111.582 101.841 111.628 101.71 111.628H99.101V112.09H102.838C102.969 112.09 103.083 112.135 103.179 112.232C103.276 112.329 103.322 112.443 103.322 112.574C103.322 112.705 103.276 112.819 103.179 112.916C103.083 113.013 102.969 113.059 102.838 113.059H99.9099C100.178 113.241 100.474 113.429 100.798 113.617C101.123 113.805 101.459 113.988 101.795 114.153C102.131 114.324 102.445 114.461 102.729 114.575C102.889 114.638 102.997 114.752 103.043 114.906C103.094 115.065 103.077 115.213 103.003 115.356C102.923 115.51 102.809 115.601 102.655 115.635C102.502 115.669 102.342 115.652 102.183 115.59C101.875 115.464 101.533 115.299 101.163 115.094C100.793 114.888 100.428 114.666 100.069 114.427C99.7105 114.187 99.3858 113.954 99.101 113.726V115.356C99.101 115.533 99.044 115.675 98.9244 115.783C98.8105 115.892 98.6681 115.949 98.5086 115.949L98.52 115.954ZM97.6599 109.308H99.3858C99.4143 109.228 99.4542 109.131 99.5054 109.017C99.5567 108.903 99.608 108.778 99.6592 108.652H97.3751C97.432 108.778 97.4833 108.897 97.5403 109.017C97.5972 109.137 97.6314 109.228 97.6599 109.308Z" fill="#333333"/>
<path d="M119.516 73.6984C121.8 73.6984 123.742 71.8915 123.771 69.6057C123.771 69.5886 123.771 69.5715 123.771 69.5544V26.375C123.771 24.6649 122.859 23.086 121.378 22.2309L84.012 0.644085C82.531 -0.210952 80.7082 -0.210952 79.2273 0.644085L41.8607 22.2309C40.3798 23.086 39.4684 24.6649 39.4684 26.375V69.5487C39.4684 69.5487 39.4684 69.5829 39.4684 69.6C39.4912 71.8858 41.4335 73.6927 43.7234 73.6927H119.516V73.6984Z" fill="#915DA3"/>
<path d="M73.9869 32.8619H54.5118C52.2846 32.8619 50.479 34.6688 50.479 36.8977V60.0008C50.479 62.2297 52.2846 64.0366 54.5118 64.0366H73.9869C76.2141 64.0366 78.0197 62.2297 78.0197 60.0008V36.8977C78.0197 34.6688 76.2141 32.8619 73.9869 32.8619Z" fill="white"/>
<path d="M72.2495 40.1924H56.2491C55.0883 40.1924 54.1472 41.1341 54.1472 42.2958V42.3015C54.1472 43.4631 55.0883 44.4049 56.2491 44.4049H72.2495C73.4103 44.4049 74.3513 43.4631 74.3513 42.3015V42.2958C74.3513 41.1341 73.4103 40.1924 72.2495 40.1924Z" fill="#915DA3"/>
<path d="M101.003 71.9884C99.9098 71.9884 99.3687 71.6805 99.3687 71.0706C99.3687 69.7368 99.7161 68.4428 100.411 67.1831C101.106 65.9233 102.268 64.5153 103.891 62.9592C104.467 62.4062 105.013 61.8419 105.526 61.2776C106.044 60.7133 106.472 60.1547 106.802 59.6131C107.132 59.0659 107.309 58.5415 107.332 58.0456C107.349 57.0822 107.132 56.3697 106.677 55.908C106.221 55.4463 105.583 55.2125 104.746 55.2125C103.618 55.2125 102.895 55.7883 102.581 56.934C102.433 57.4356 102.245 57.8176 102.012 58.0855C101.778 58.3534 101.425 58.4902 100.941 58.4902C100.457 58.4902 100.109 58.3306 99.83 58.0171C99.5509 57.7035 99.4769 57.276 99.6079 56.7402C99.9041 55.3721 100.508 54.3005 101.414 53.531C102.319 52.7614 103.43 52.3795 104.746 52.3795C105.817 52.3795 106.774 52.6018 107.617 53.0464C108.46 53.4911 109.12 54.1409 109.599 54.9902C110.077 55.8396 110.299 56.8884 110.265 58.1311C110.248 59.0032 110.043 59.8069 109.656 60.548C109.268 61.289 108.756 62.0072 108.118 62.7027C107.48 63.3981 106.751 64.1334 105.942 64.9087C105.093 65.7409 104.336 66.5389 103.681 67.2971C103.026 68.0552 102.638 68.7107 102.53 69.2693H108.3C109.394 69.2693 109.935 69.7254 109.935 70.6317C109.935 71.538 109.388 71.9941 108.3 71.9941H101.003V71.9884Z" fill="white"/>
<path d="M116.656 72.1595C114.896 72.1595 113.393 71.5495 112.134 70.324C111.729 69.9364 111.553 69.5431 111.604 69.144C111.661 68.745 111.889 68.4258 112.299 68.1864C112.726 67.9299 113.102 67.8387 113.438 67.9242C113.769 68.0097 114.139 68.2092 114.549 68.5227C114.845 68.7621 115.17 68.9559 115.523 69.1041C115.876 69.2523 116.252 69.3264 116.662 69.3264C117.699 69.3264 118.479 69.0186 119.009 68.3973C119.539 67.776 119.801 66.9095 119.801 65.798C119.801 64.5952 119.573 63.7174 119.123 63.1702C118.667 62.623 118.035 62.3493 117.22 62.3493C116.941 62.3493 116.679 62.3892 116.429 62.4747C116.178 62.5603 115.95 62.6629 115.751 62.794C115.381 62.9992 115.056 63.1987 114.777 63.3925C114.498 63.5863 114.15 63.6832 113.723 63.6832C112.703 63.6832 112.196 63.136 112.196 62.0472V54.1866C112.196 53.0921 112.749 52.5449 113.86 52.5449H120.439C121.532 52.5449 122.073 53.0009 122.073 53.9073C122.073 54.8136 121.527 55.2696 120.439 55.2696H115.164V60.3828C115.477 60.1605 115.819 59.978 116.189 59.8412C116.56 59.7044 116.93 59.6303 117.3 59.6303C118.337 59.6303 119.265 59.864 120.091 60.3258C120.911 60.7875 121.572 61.4715 122.062 62.3835C122.552 63.2899 122.797 64.4299 122.797 65.798C122.797 67.8159 122.233 69.3835 121.105 70.4893C119.977 71.6008 118.496 72.1538 116.662 72.1538L116.656 72.1595Z" fill="white"/>
<path d="M96.1561 58.3876H95.9738C95.1821 58.3876 95.0966 57.9259 95.0966 57.7263C95.0966 57.5268 95.1821 57.3615 95.2789 57.1962C95.5409 56.7288 95.7403 56.2329 95.8143 55.9764C95.0625 55.7541 94.6011 55.1612 94.6011 54.4202C94.6011 53.3714 95.353 52.6417 96.4352 52.6417C97.2555 52.6417 98.1384 53.2346 98.1384 54.5399C98.1384 55.794 97.5061 57.2361 97.3124 57.6465C97.0504 58.1995 96.7599 58.3876 96.1561 58.3876Z" fill="white"/>
</g>
<defs>
<clipPath id="clip0_75_675">
<rect width="163" height="116" fill="white"/>
</clipPath>
</defs>
</svg>
