<svg width="133" height="99" viewBox="0 0 133 99" fill="none" xmlns="http://www.w3.org/2000/svg">
<g clip-path="url(#clip0_52_1484)">
<path d="M98.5413 62.6642C100.485 62.6642 102.138 61.1278 102.162 59.1842C102.162 59.1697 102.162 59.1551 102.162 59.1406V22.4258C102.162 20.9718 101.386 19.6292 100.126 18.9022L68.331 0.547222C67.0708 -0.179803 65.5198 -0.179803 64.2596 0.547222L32.4644 18.9022C31.2042 19.6292 30.4287 20.9718 30.4287 22.4258V59.1358C30.4287 59.1358 30.4287 59.1648 30.4287 59.1794C30.4481 61.123 32.1009 62.6594 34.0493 62.6594H98.5413V62.6642Z" fill="#6FBA2C"/>
<path d="M82.7934 61.2102C81.8628 61.2102 81.4023 60.9485 81.4023 60.4299C81.4023 59.2957 81.698 58.1955 82.2893 57.1243C82.8806 56.0532 83.8694 54.856 85.2507 53.5328C85.7403 53.0627 86.2056 52.5829 86.6418 52.103C87.0828 51.6232 87.4463 51.1482 87.7275 50.6877C88.0086 50.2224 88.1588 49.7765 88.1782 49.3549C88.1928 48.5357 88.0086 47.9299 87.6208 47.5373C87.2331 47.1447 86.6902 46.946 85.9778 46.946C85.0181 46.946 84.4025 47.4355 84.136 48.4097C84.0099 48.8363 83.85 49.161 83.6513 49.3888C83.4526 49.6166 83.1521 49.7329 82.7401 49.7329C82.3281 49.7329 82.0324 49.5972 81.7949 49.3306C81.5574 49.0641 81.4944 48.7005 81.6059 48.2449C81.8579 47.0817 82.3717 46.1705 83.1424 45.5162C83.913 44.8618 84.8581 44.5371 85.9778 44.5371C86.889 44.5371 87.7032 44.7261 88.4206 45.1042C89.1379 45.4822 89.7001 46.0348 90.1073 46.757C90.5144 47.4791 90.7034 48.371 90.6743 49.4276C90.6598 50.1691 90.4853 50.8525 90.1557 51.4826C89.8261 52.1127 89.3899 52.7234 88.8471 53.3147C88.3042 53.906 87.6838 54.5313 86.9956 55.1905C86.2734 55.8981 85.6288 56.5766 85.0714 57.2213C84.514 57.8659 84.1844 58.4233 84.0923 58.8983H89.0022C89.9328 58.8983 90.3932 59.286 90.3932 60.0567C90.3932 60.8273 89.9279 61.2151 89.0022 61.2151H82.7934V61.2102Z" fill="white"/>
<path d="M96.1083 61.3557C94.6106 61.3557 93.331 60.8371 92.2599 59.795C91.9158 59.4654 91.7655 59.131 91.8091 58.7917C91.8576 58.4524 92.0515 58.181 92.4004 57.9774C92.7639 57.7593 93.0838 57.6818 93.3698 57.7545C93.6509 57.8272 93.966 57.9968 94.3149 58.2634C94.567 58.467 94.8432 58.6318 95.1437 58.7578C95.4442 58.8838 95.7641 58.9468 96.1131 58.9468C96.9952 58.9468 97.6592 58.6851 98.11 58.1568C98.5608 57.6285 98.7837 56.8918 98.7837 55.9466C98.7837 54.9239 98.5898 54.1775 98.2069 53.7122C97.8192 53.2469 97.2812 53.0143 96.5881 53.0143C96.3506 53.0143 96.1276 53.0482 95.9144 53.1209C95.7011 53.1936 95.5073 53.2809 95.3376 53.3923C95.0226 53.5668 94.7463 53.7365 94.5088 53.9013C94.2713 54.0661 93.9757 54.1484 93.6121 54.1484C92.7446 54.1484 92.3132 53.6832 92.3132 52.7574V46.0736C92.3132 45.143 92.7833 44.6777 93.7285 44.6777H99.3266C100.257 44.6777 100.718 45.0655 100.718 45.8361C100.718 46.6068 100.252 46.9945 99.3266 46.9945H94.8384V51.3421C95.105 51.1531 95.3958 50.998 95.7108 50.8817C96.0259 50.7654 96.3409 50.7023 96.656 50.7023C97.5381 50.7023 98.3281 50.9011 99.0309 51.2937C99.7289 51.6863 100.291 52.2679 100.708 53.0434C101.125 53.814 101.333 54.7834 101.333 55.9466C101.333 57.6624 100.853 58.9953 99.8936 59.9356C98.934 60.8807 97.6738 61.3508 96.1131 61.3508L96.1083 61.3557Z" fill="white"/>
<path d="M78.664 49.6464H78.5089C77.8352 49.6464 77.7625 49.2538 77.7625 49.0841C77.7625 48.9145 77.8352 48.7739 77.9176 48.6334C78.1405 48.2359 78.3102 47.8142 78.3732 47.5961C77.7334 47.4071 77.3408 46.903 77.3408 46.273C77.3408 45.3811 77.9806 44.7607 78.9015 44.7607C79.5994 44.7607 80.3507 45.2648 80.3507 46.3747C80.3507 47.441 79.8127 48.6673 79.6479 49.0163C79.425 49.4864 79.1778 49.6464 78.664 49.6464Z" fill="white"/>
<path d="M50.4749 38.7842L44.1837 32.493C43.1562 31.4655 43.1562 29.7982 44.1837 28.7706C45.2113 27.7431 46.8786 27.7431 47.9061 28.7706L50.4798 31.3443L53.0534 28.7706C54.081 27.7431 55.7483 27.7431 56.7758 28.7706C57.8033 29.7982 57.8033 31.4655 56.7758 32.493L50.4846 38.7842H50.4749Z" fill="white"/>
<path d="M40.1074 47.9009C39.4337 47.9009 38.76 47.6441 38.2462 47.1303C37.2187 46.1028 37.2187 44.4355 38.2462 43.4079L40.8199 40.8343L38.2462 38.2606C37.2187 37.2331 37.2187 35.5658 38.2462 34.5382C39.2738 33.5107 40.9411 33.5107 41.9686 34.5382L48.2598 40.8294L41.9686 47.1206C41.4548 47.6344 40.7811 47.8913 40.1074 47.8913V47.9009Z" fill="white"/>
<path d="M54.9097 53.5332C54.236 53.5332 53.5623 53.2763 53.0486 52.7626L50.4749 50.1889L47.9012 52.7626C46.8737 53.7901 45.2064 53.7901 44.1788 52.7626C43.1513 51.7351 43.1513 50.0677 44.1788 49.0402L50.47 42.749L56.7612 49.0402C57.7888 50.0677 57.7888 51.7351 56.7612 52.7626C56.2475 53.2763 55.5738 53.5332 54.9 53.5332H54.9097Z" fill="white"/>
<path d="M60.92 47.8961C60.2462 47.8961 59.5725 47.6393 59.0588 47.1255L52.7676 40.8343L59.0588 34.5431C60.0863 33.5156 61.7536 33.5156 62.7811 34.5431C63.8087 35.5706 63.8087 37.2379 62.7811 38.2655L60.2075 40.8391L62.7811 43.4128C63.8087 44.4403 63.8087 46.1077 62.7811 47.1352C62.2674 47.6489 61.5937 47.9058 60.92 47.9058V47.8961Z" fill="white"/>
<path d="M5.11341 86.8354C4.82745 86.8354 4.58995 86.7579 4.40577 86.6076C4.22159 86.4574 4.11496 86.2247 4.09073 85.9194C4.08103 85.6237 4.17797 85.3959 4.38639 85.2311C4.5948 85.0663 4.81775 84.9839 5.0504 84.9742C5.60779 84.9549 6.05854 84.8531 6.39297 84.6689C6.72741 84.4847 6.97459 84.189 7.13454 83.7819C7.29449 83.3748 7.37203 82.8222 7.37203 82.1194C7.37203 81.5718 7.2654 81.0289 7.05214 80.5006H0.838502C0.605854 80.5006 0.407134 80.4182 0.242342 80.2486C0.0775493 80.0789 0 79.8802 0 79.6476C0 79.4149 0.0823962 79.2162 0.242342 79.0514C0.407134 78.8866 0.601007 78.8091 0.838502 78.8091H6.08762C5.82105 78.4649 5.506 78.1596 5.14249 77.893C4.93892 77.7282 4.8226 77.5198 4.79837 77.2678C4.77413 77.0157 4.84199 76.8073 5.00193 76.6425C5.2055 76.439 5.42361 76.3372 5.65626 76.3372C5.8889 76.3372 6.1167 76.4196 6.34451 76.5795C6.39782 76.6183 6.44144 76.6571 6.48991 76.6861C6.53353 76.7152 6.57715 76.7492 6.62078 76.7782C6.86312 76.6571 7.13454 76.5165 7.4302 76.3663C7.72585 76.216 7.99243 76.0754 8.23962 75.9446C8.48681 75.8137 8.6516 75.7265 8.74369 75.678C8.97634 75.5374 9.07812 75.3872 9.03935 75.2369C9.00542 75.0867 8.85517 75.0091 8.58859 75.0091H2.42826C2.20531 75.0091 2.01144 74.9267 1.84664 74.7571C1.68185 74.5875 1.6043 74.3936 1.6043 74.1706C1.6043 73.9477 1.6867 73.7393 1.84664 73.5842C2.01144 73.4242 2.20046 73.3467 2.42826 73.3467H9.27684C9.87785 73.3467 10.3528 73.4727 10.7018 73.7296C11.0508 73.9865 11.2737 74.3015 11.3561 74.6844C11.4434 75.0673 11.3901 75.4454 11.201 75.8283C11.012 76.2112 10.6727 76.5262 10.188 76.7831C9.85361 76.9673 9.47556 77.1611 9.04904 77.3696C8.62736 77.578 8.20569 77.7767 7.78886 77.9706C7.99243 78.2468 8.17661 78.5231 8.33656 78.8091H13.5227C13.7553 78.8091 13.954 78.8915 14.1188 79.0514C14.2836 79.2162 14.3612 79.4101 14.3612 79.6476C14.3612 79.8851 14.2788 80.0838 14.1188 80.2486C13.954 80.4182 13.7553 80.5006 13.5227 80.5006H9.00542C9.06843 80.7672 9.11689 81.0435 9.15082 81.3391C9.18475 81.6348 9.20414 81.9353 9.20414 82.2406C9.20414 83.8498 8.85517 85.013 8.15722 85.7449C7.45928 86.4719 6.44144 86.8354 5.09887 86.8354H5.11341Z" fill="#333333"/>
<path d="M28.2086 78.9013C28.0438 78.7607 27.8645 78.6008 27.6658 78.4263C27.4671 78.2518 27.249 78.0725 27.0163 77.8786C26.4783 77.9174 25.8725 77.961 25.1988 78.0095C24.525 78.0531 23.8271 78.1016 23.0952 78.1452C22.3634 78.1888 21.6315 78.2324 20.9045 78.2761C20.1774 78.3148 19.4892 78.3488 18.8349 78.3778C18.1854 78.4021 17.6086 78.4263 17.1094 78.4457C16.867 78.4554 16.6586 78.3827 16.4841 78.2324C16.3097 78.0822 16.2176 77.8835 16.2079 77.6363C16.1982 77.3891 16.2709 77.1952 16.4211 77.0401C16.5714 76.8899 16.7895 76.8123 17.0609 76.8123C17.405 76.8026 17.7783 76.7929 18.1757 76.7832C18.5731 76.7735 18.9851 76.7638 19.4116 76.7541C19.5425 76.57 19.6831 76.3712 19.8236 76.1531C19.9642 75.935 20.1047 75.7266 20.2356 75.5376H16.5278C16.3048 75.5376 16.1255 75.4649 15.9946 75.3146C15.8638 75.1692 15.7959 74.9947 15.7959 74.8057C15.7959 74.6022 15.8638 74.4325 15.9946 74.2968C16.1255 74.1611 16.3048 74.0932 16.5278 74.0932H21.8835V73.3759C21.8835 73.0802 21.9756 72.8524 22.1646 72.6877C22.3537 72.5229 22.5718 72.4453 22.8287 72.4453C23.0855 72.4453 23.3133 72.5277 23.4927 72.6877C23.672 72.8524 23.7592 73.0802 23.7592 73.3759V74.0932H29.2071C29.4397 74.0932 29.6239 74.1611 29.7499 74.2968C29.876 74.4325 29.939 74.6022 29.939 74.8057C29.939 75.0093 29.876 75.1692 29.7499 75.3146C29.6239 75.46 29.4446 75.5376 29.2071 75.5376H26.6286C26.963 75.7509 27.3071 75.9835 27.6513 76.2307C27.9954 76.4779 28.325 76.7202 28.6352 76.9577C28.9454 77.1904 29.2022 77.3988 29.4058 77.583C29.59 77.7478 29.6918 77.9416 29.7112 78.1646C29.7305 78.3875 29.653 78.6008 29.4834 78.8044C29.3186 78.9982 29.1102 79.1049 28.8581 79.1242C28.6061 79.1436 28.3831 79.0758 28.2038 78.911L28.2086 78.9013ZM19.2226 87.2136C18.9657 87.2136 18.7525 87.1312 18.5731 86.9616C18.3938 86.7919 18.3066 86.5738 18.3066 86.2976V81.3538C18.3066 80.7043 18.3938 80.1954 18.5731 79.8367C18.7525 79.4781 19.0481 79.2212 19.4601 79.0758C19.8721 78.9304 20.4343 78.8528 21.1468 78.8528H24.5929C25.3054 78.8528 25.8676 78.9255 26.2796 79.0758C26.6916 79.2212 26.9872 79.4781 27.1666 79.8367C27.3459 80.2002 27.4331 80.7043 27.4331 81.3538V84.8484C27.4331 85.4397 27.3556 85.9001 27.2053 86.2346C27.0551 86.569 26.8079 86.8065 26.4638 86.9422C26.1245 87.0779 25.6592 87.1458 25.0679 87.1458C24.7722 87.1458 24.5347 87.0682 24.3603 86.9083C24.1809 86.7483 24.084 86.5399 24.0646 86.2733C24.0549 86.0504 24.1228 85.8468 24.2633 85.6626C24.4039 85.4785 24.5881 85.3767 24.811 85.3573C25.1648 85.3282 25.3926 85.2749 25.4847 85.207C25.5768 85.1343 25.6204 84.9695 25.6204 84.703V84.3976H20.1435V86.2879C20.1435 86.5641 20.0563 86.7822 19.8769 86.9519C19.6976 87.1215 19.4843 87.2039 19.2275 87.2039L19.2226 87.2136ZM20.1338 83.0502H25.6107V82.3619H20.1338V83.0502ZM20.1532 81.0194H25.601C25.572 80.7334 25.475 80.5444 25.3102 80.4474C25.1454 80.3505 24.8643 80.302 24.4572 80.302H21.2971C20.8899 80.302 20.604 80.3505 20.444 80.4474C20.2792 80.5444 20.1823 80.7334 20.1532 81.0194ZM21.646 76.6718C22.2761 76.6524 22.9014 76.6281 23.5169 76.5942C24.1325 76.5603 24.7044 76.5312 25.2327 76.5021C25.1939 76.4827 25.1551 76.4585 25.1261 76.4343C25.097 76.41 25.063 76.3906 25.034 76.3809C24.8692 76.2695 24.7674 76.1386 24.7189 75.9835C24.6705 75.8284 24.6801 75.6782 24.7432 75.5279H22.4409C22.3391 75.6782 22.218 75.8575 22.0725 76.061C21.932 76.2646 21.7866 76.4682 21.646 76.6718Z" fill="#333333"/>
<path d="M42.676 86.1181C41.474 85.9436 40.4853 85.5947 39.7001 85.0712C38.9149 84.5477 38.3333 83.9128 37.9552 83.1712C37.5723 82.4297 37.3833 81.6542 37.3833 80.8544C37.3833 80.0547 37.5432 79.2792 37.8631 78.5716C38.183 77.8639 38.6435 77.2532 39.2445 76.7346C38.6338 76.8267 37.9843 76.9285 37.2912 77.0497C36.5981 77.166 35.9292 77.2823 35.2749 77.3987C34.6254 77.515 34.0535 77.6216 33.564 77.7137C33.3216 77.7525 33.0938 77.6992 32.8903 77.5441C32.6867 77.3938 32.5655 77.1951 32.5219 76.9479C32.4831 76.6959 32.5365 76.4681 32.6916 76.2693C32.8418 76.0706 33.0454 75.9494 33.3023 75.9107C33.627 75.8622 34.0438 75.7895 34.5527 75.7071C35.0617 75.6199 35.6287 75.5278 36.2637 75.426C36.8938 75.3242 37.5384 75.2176 38.2024 75.1061C38.8616 74.9946 39.5111 74.8831 40.146 74.7765C40.7809 74.6699 41.3625 74.5729 41.8909 74.4809C42.4192 74.3888 42.8505 74.3112 43.1898 74.2531C43.4225 74.2143 43.6406 74.2628 43.8441 74.4082C44.0477 74.5487 44.1737 74.7377 44.227 74.9704C44.2755 75.2127 44.2367 75.4454 44.0962 75.6586C43.9605 75.8719 43.7666 75.9979 43.5242 76.0415C42.7827 76.1433 42.138 76.3566 41.5952 76.6765C41.0523 76.9964 40.6016 77.3841 40.2429 77.8349C39.8891 78.2856 39.6225 78.7703 39.448 79.2792C39.2736 79.7881 39.1863 80.2825 39.1863 80.7575C39.1863 81.7463 39.5208 82.5411 40.1945 83.147C40.8682 83.7529 41.7745 84.1406 42.9281 84.3151C43.1801 84.3539 43.3837 84.4799 43.5388 84.6834C43.689 84.887 43.7472 85.11 43.7084 85.3572C43.6696 85.614 43.5485 85.8128 43.3498 85.9679C43.151 86.1181 42.9232 86.1763 42.6712 86.1375L42.676 86.1181Z" fill="#333333"/>
<path d="M50.0586 86.1622C49.8259 86.264 49.5836 86.2688 49.3412 86.1767C49.0989 86.0846 48.9244 85.915 48.8226 85.6726C48.7208 85.44 48.716 85.1977 48.8129 84.9553C48.9099 84.713 49.0747 84.5385 49.3073 84.4367C50.9843 83.7048 52.4432 82.7888 53.6792 81.6885C54.9151 80.5883 55.8893 79.333 56.6018 77.9177C56.9265 77.2682 56.6939 76.9435 55.899 76.9435H53.8827C53.3932 77.593 52.8455 78.2279 52.2445 78.8435C51.6386 79.459 51.0182 79.997 50.3736 80.4526C50.1604 80.6029 49.9229 80.6562 49.666 80.6126C49.4091 80.5689 49.2055 80.4381 49.065 80.2248C48.9147 80.0115 48.8614 79.7741 48.905 79.5172C48.9486 79.2603 49.0795 79.0567 49.2928 78.9162C49.8647 78.5187 50.4172 78.0534 50.9552 77.5203C51.4932 76.9871 51.9876 76.42 52.4287 75.8287C52.8697 75.2326 53.2187 74.651 53.4756 74.0839C53.5871 73.8415 53.7616 73.6719 54.0039 73.5798C54.2414 73.4877 54.4837 73.4926 54.7309 73.5943C54.9636 73.6961 55.1284 73.8706 55.2253 74.1226C55.3222 74.3698 55.3125 74.6122 55.2011 74.8497C55.1817 74.8884 55.1574 74.9369 55.1235 74.9854C55.0944 75.0339 55.0654 75.0872 55.046 75.1356H56.0832C57.3046 75.1356 58.114 75.4507 58.5115 76.0759C58.9089 76.7012 58.8507 77.5445 58.3418 78.6011C57.8232 79.682 57.1446 80.6998 56.311 81.6595C55.4773 82.6191 54.5274 83.4867 53.4659 84.2525C52.4044 85.0183 51.2654 85.6581 50.0537 86.167L50.0586 86.1622ZM60.4647 76.231C60.3339 76.3619 60.1739 76.4249 59.9897 76.42C59.8056 76.4152 59.6505 76.3425 59.5147 76.1971C59.3936 76.0565 59.2336 75.8869 59.0398 75.6882C58.8459 75.4895 58.6714 75.315 58.5211 75.1599C58.4194 75.0581 58.3612 74.9272 58.3515 74.7721C58.3418 74.617 58.3951 74.4716 58.5211 74.3359C58.6326 74.2147 58.7683 74.1517 58.9331 74.1469C59.0979 74.142 59.2433 74.1857 59.3742 74.2777C59.539 74.3892 59.728 74.5443 59.9461 74.7333C60.1642 74.9272 60.3436 75.1114 60.489 75.281C60.6101 75.4119 60.6683 75.567 60.6634 75.7463C60.6586 75.9257 60.5907 76.0856 60.4599 76.2262L60.4647 76.231ZM60.8622 74.84C60.7313 74.7091 60.5617 74.5492 60.3581 74.3601C60.1545 74.1711 59.9655 74.0112 59.7959 73.8803C59.6941 73.7882 59.6311 73.6574 59.6117 73.4926C59.5923 73.3229 59.6359 73.1727 59.7474 73.0418C59.8492 72.9206 59.98 72.8528 60.1351 72.8382C60.2951 72.8237 60.4405 72.8576 60.5859 72.94C60.7604 73.0418 60.9591 73.1824 61.1869 73.3617C61.4147 73.541 61.6134 73.7058 61.7734 73.8561C61.9042 73.9869 61.9721 74.142 61.9769 74.3214C61.9818 74.5007 61.9236 74.6606 61.8025 74.8012C61.691 74.9321 61.5407 75.0048 61.3517 75.0242C61.1627 75.0387 60.9979 74.9805 60.8573 74.8497L60.8622 74.84Z" fill="#333333"/>
<path d="M65.9802 81.2331C65.7282 81.2137 65.5198 81.107 65.3647 80.9132C65.2047 80.7193 65.132 80.4866 65.1417 80.2104C65.1611 79.9438 65.1659 79.5948 65.1562 79.1489C65.1465 78.7079 65.132 78.2377 65.1126 77.7433C65.0932 77.249 65.0642 76.7788 65.0302 76.3232C64.9963 75.8725 64.9575 75.5041 64.9139 75.2181C64.8751 74.9419 64.9333 74.7044 65.0981 74.5008C65.2629 74.2972 65.4713 74.1809 65.7233 74.1518C65.9899 74.1228 66.2225 74.1809 66.4261 74.3263C66.6297 74.4717 66.746 74.6801 66.7751 74.9419C66.8042 75.2278 66.8381 75.6107 66.872 76.0954C66.906 76.5801 66.9399 77.089 66.9641 77.627C66.9883 78.165 67.0077 78.6836 67.0271 79.178C67.0465 79.6724 67.0417 80.0698 67.0174 80.3752C67.0077 80.6514 66.8963 80.8647 66.6878 81.0149C66.4794 81.1652 66.2419 81.2379 65.9802 81.2282V81.2331ZM67.507 86.2835C67.284 86.4143 67.0417 86.4434 66.7799 86.361C66.5182 86.2786 66.3292 86.1284 66.208 85.9054C66.0868 85.6728 66.0578 85.4304 66.1256 85.1881C66.1935 84.9457 66.3389 84.7567 66.5618 84.6258C67.1919 84.2817 67.7202 83.894 68.1467 83.4723C68.5733 83.0506 68.9174 82.5611 69.1791 81.9989C69.4408 81.4415 69.625 80.7775 69.7413 80.0165C69.8577 79.2555 69.9158 78.354 69.9158 77.3168C69.9158 76.8903 69.9013 76.4298 69.8771 75.9452C69.8528 75.4556 69.814 75.0533 69.7607 74.7383C69.7317 74.4717 69.7995 74.2391 69.9643 74.0355C70.1291 73.8319 70.3424 73.7156 70.5992 73.6865C70.8658 73.6575 71.0936 73.7205 71.2923 73.8853C71.4911 74.0501 71.6074 74.2633 71.6365 74.525C71.6752 74.7674 71.7043 75.063 71.7189 75.4023C71.7334 75.7416 71.7431 76.0809 71.7479 76.4153C71.7528 76.7497 71.7576 77.0502 71.7576 77.3168C71.7576 78.7806 71.6365 80.0698 71.3893 81.1846C71.1469 82.2994 70.7156 83.2687 70.1 84.0975C69.4845 84.9263 68.6169 85.6582 67.4973 86.2883L67.507 86.2835Z" fill="#333333"/>
<path d="M76.5223 80.8356C76.2703 80.8356 76.0473 80.7435 75.8583 80.5545C75.6692 80.3654 75.5771 80.1473 75.5771 79.8904C75.5771 79.6336 75.6692 79.4009 75.8583 79.2216C76.0473 79.0374 76.2654 78.9453 76.5223 78.9453H86.0269C86.2935 78.9453 86.5165 79.0374 86.7006 79.2216C86.8848 79.4058 86.9769 79.6287 86.9769 79.8904C86.9769 80.1522 86.8848 80.3654 86.7006 80.5545C86.5165 80.7435 86.2935 80.8356 86.0269 80.8356H76.5223Z" fill="#333333"/>
<path d="M92.5792 79.0232C92.1914 78.6985 91.7601 78.3592 91.2802 78.0102C90.8004 77.6612 90.369 77.3704 89.9813 77.1475C89.7583 77.0069 89.6129 76.8082 89.5547 76.561C89.4966 76.3138 89.5305 76.0763 89.6614 75.8534C89.8019 75.6304 90.0006 75.485 90.2478 75.4172C90.495 75.3493 90.7325 75.3881 90.9555 75.5335C91.2317 75.708 91.5419 75.9164 91.8958 76.1684C92.2447 76.4204 92.5889 76.6628 92.9184 76.91C93.248 77.1523 93.5195 77.3607 93.7327 77.5352C93.9363 77.7 94.0575 77.9084 94.0914 78.1702C94.1253 78.427 94.0623 78.6597 93.9024 78.8633C93.7376 79.0668 93.5291 79.188 93.2674 79.2219C93.0057 79.2558 92.7779 79.1928 92.5743 79.0329L92.5792 79.0232ZM91.2657 85.0333C91.0233 85.1254 90.781 85.1157 90.5387 85.0042C90.3012 84.8927 90.1364 84.7134 90.0443 84.471C89.9522 84.2287 89.9619 83.9864 90.0734 83.744C90.1848 83.5065 90.3642 83.3417 90.6065 83.2496C91.4208 82.9637 92.2399 82.6147 93.0687 82.1979C93.8975 81.781 94.6924 81.3254 95.4485 80.8311C96.2046 80.3367 96.8977 79.8278 97.5229 79.3043C98.1482 78.7808 98.6619 78.2719 99.0545 77.7873C99.229 77.5837 99.4423 77.4674 99.704 77.4383C99.9609 77.4092 100.189 77.4771 100.383 77.6515C100.586 77.8163 100.702 78.0247 100.732 78.2865C100.761 78.5434 100.693 78.776 100.518 78.9796C100.101 79.4885 99.5489 80.0313 98.8558 80.6033C98.1627 81.18 97.3921 81.7471 96.5342 82.3045C95.6811 82.8619 94.799 83.3805 93.8927 83.8603C92.9863 84.3402 92.109 84.7279 91.2511 85.0333H91.2657Z" fill="#333333"/>
<path d="M105.933 87.0153C105.7 87.0153 105.497 86.9377 105.332 86.7778C105.162 86.6179 105.08 86.4143 105.08 86.1623V79.2022C104.905 79.4785 104.736 79.7257 104.561 79.9486C104.421 80.1522 104.222 80.2734 103.965 80.317C103.708 80.3558 103.48 80.3121 103.277 80.1813C103.083 80.0504 102.966 79.8565 102.928 79.6093C102.889 79.3622 102.933 79.144 103.063 78.9599C103.34 78.5721 103.616 78.1407 103.902 77.6609C104.188 77.1811 104.459 76.6867 104.726 76.1729C104.992 75.6592 105.23 75.1599 105.453 74.6704C105.671 74.1809 105.845 73.7398 105.981 73.3424C106.073 73.0758 106.228 72.9013 106.456 72.8092C106.679 72.7171 106.907 72.7123 107.144 72.7947C107.377 72.8771 107.547 73.0225 107.653 73.2309C107.76 73.4393 107.775 73.6623 107.692 73.8949C107.561 74.2536 107.416 74.6171 107.266 74.9855C107.115 75.3587 106.951 75.7319 106.776 76.1051V86.1623C106.776 86.4143 106.694 86.6227 106.534 86.7778C106.369 86.9377 106.175 87.0153 105.938 87.0153H105.933ZM108.007 86.3464C107.784 86.3464 107.585 86.264 107.421 86.1041C107.251 85.9393 107.169 85.7406 107.169 85.5079C107.169 85.2753 107.251 85.0766 107.421 84.9118C107.59 84.747 107.784 84.6694 108.007 84.6694H111.24V81.7856H108.846C108.613 81.7856 108.409 81.6983 108.235 81.5287C108.06 81.3542 107.973 81.1506 107.973 80.918C107.973 80.6853 108.06 80.4818 108.235 80.3073C108.409 80.1328 108.613 80.0456 108.846 80.0456H111.24V77.6028H108.22C107.997 77.6028 107.804 77.5204 107.649 77.3604C107.489 77.1956 107.411 77.0066 107.411 76.7788C107.411 76.551 107.489 76.3474 107.649 76.1923C107.808 76.0372 107.997 75.9548 108.22 75.9548H111.822C111.822 75.9548 111.802 75.9403 111.797 75.9403C111.793 75.9403 111.783 75.9354 111.773 75.9257C111.662 75.8046 111.507 75.6495 111.308 75.4701C111.109 75.286 110.91 75.0969 110.707 74.9079C110.503 74.714 110.329 74.5541 110.188 74.4184C110.014 74.2536 109.922 74.05 109.907 73.8077C109.893 73.5653 109.965 73.3521 110.13 73.1679C110.305 72.9837 110.513 72.8722 110.755 72.8335C110.998 72.7947 111.225 72.8577 111.429 73.0322C111.579 73.1534 111.768 73.3133 111.986 73.512C112.205 73.7107 112.418 73.9095 112.621 74.113C112.825 74.3166 112.98 74.4814 113.096 74.6026C113.29 74.7867 113.392 75.0048 113.402 75.2666C113.411 75.5283 113.319 75.7464 113.125 75.9306C113.106 75.95 113.091 75.9597 113.082 75.9597H116.116C116.339 75.9597 116.528 76.0372 116.688 76.1972C116.848 76.3571 116.925 76.551 116.925 76.7836C116.925 77.0163 116.848 77.2005 116.688 77.3653C116.528 77.53 116.339 77.6076 116.116 77.6076H113.155V80.0504H115.491C115.723 80.0504 115.927 80.1376 116.092 80.3121C116.261 80.4866 116.344 80.6902 116.344 80.9228C116.344 81.1555 116.261 81.359 116.092 81.5335C115.922 81.708 115.723 81.7904 115.491 81.7904H113.155V84.6743H116.436C116.668 84.6743 116.867 84.7567 117.032 84.9166C117.197 85.0814 117.274 85.2801 117.274 85.5128C117.274 85.7454 117.192 85.9442 117.032 86.1089C116.867 86.2737 116.668 86.3513 116.436 86.3513H108.012L108.007 86.3464Z" fill="#333333"/>
<path d="M128.189 86.8168C127.132 86.8168 126.318 86.7392 125.746 86.5793C125.174 86.4193 124.781 86.1382 124.563 85.7311C124.345 85.324 124.234 84.7569 124.234 84.0202V82.6L119.275 82.9684C119.019 82.9878 118.81 82.9199 118.64 82.7648C118.471 82.6097 118.379 82.4159 118.359 82.1929C118.35 81.9603 118.413 81.7567 118.548 81.5822C118.684 81.4077 118.883 81.3156 119.135 81.3059L124.229 80.923V79.5805C123.812 79.6435 123.395 79.6968 122.978 79.7501C122.562 79.7986 122.145 79.847 121.728 79.8858C121.137 79.9391 120.802 79.6919 120.72 79.1539C120.691 78.9116 120.739 78.6983 120.875 78.519C121.006 78.3397 121.214 78.2476 121.5 78.2379C122.019 78.1991 122.581 78.1361 123.192 78.0537C123.802 77.9713 124.418 77.8744 125.038 77.7629C125.659 77.6514 126.25 77.5254 126.817 77.3897C127.379 77.254 127.879 77.1134 128.305 76.968C128.591 76.8662 128.843 76.8614 129.061 76.9438C129.279 77.031 129.425 77.1861 129.497 77.4091C129.589 77.6611 129.589 77.8889 129.497 78.0876C129.405 78.2864 129.241 78.4269 129.008 78.5093C128.572 78.6402 128.111 78.7662 127.627 78.8922C127.142 79.0134 126.647 79.1297 126.139 79.2412V80.7825L131.678 80.3705C131.931 80.3511 132.144 80.419 132.313 80.5692C132.483 80.7243 132.57 80.9133 132.58 81.1508C132.599 81.3932 132.541 81.6016 132.405 81.7664C132.27 81.9312 132.071 82.0281 131.819 82.0475L126.143 82.4595V83.8651C126.143 84.1995 126.192 84.4515 126.289 84.6212C126.386 84.7908 126.584 84.9023 126.885 84.9653C127.185 85.0283 127.646 85.0574 128.266 85.0574C128.766 85.0574 129.148 85.0283 129.42 84.9653C129.691 84.9023 129.89 84.786 130.021 84.6066C130.152 84.4273 130.268 84.1656 130.37 83.8214C130.452 83.5355 130.612 83.3464 130.859 83.2495C131.102 83.1526 131.354 83.1477 131.606 83.2253C131.882 83.3077 132.066 83.4579 132.168 83.6809C132.27 83.9038 132.284 84.1559 132.212 84.4273C132.057 85.0283 131.843 85.4984 131.562 85.8474C131.281 86.1915 130.879 86.4387 130.35 86.589C129.822 86.7344 129.1 86.8119 128.184 86.8119L128.189 86.8168ZM119.799 78.5772C119.547 78.5772 119.324 78.4948 119.145 78.3348C118.96 78.17 118.868 77.9471 118.868 77.6611V77.0068C118.868 76.1634 119.067 75.5673 119.469 75.2135C119.872 74.8645 120.565 74.6852 121.553 74.6852H124.466V73.6189C124.466 73.3135 124.563 73.076 124.762 72.9112C124.961 72.7464 125.203 72.6592 125.489 72.6592C125.775 72.6592 126.017 72.7416 126.216 72.9112C126.415 73.0808 126.512 73.3135 126.512 73.6189V74.6852H129.531C130.52 74.6852 131.213 74.8596 131.615 75.2135C132.018 75.5624 132.216 76.1634 132.216 77.0068V77.6611C132.216 77.9471 132.129 78.17 131.95 78.3348C131.771 78.4996 131.552 78.5772 131.286 78.5772C131.019 78.5772 130.811 78.4996 130.622 78.3494C130.433 78.1991 130.341 77.9762 130.341 77.695V77.1328C130.341 76.8371 130.268 76.6287 130.118 76.4979C129.972 76.3719 129.696 76.3088 129.304 76.3088H121.767C121.379 76.3088 121.112 76.3719 120.967 76.4979C120.822 76.6239 120.744 76.8371 120.744 77.1328V77.695C120.744 77.981 120.652 78.1991 120.468 78.3494C120.284 78.5045 120.061 78.5772 119.794 78.5772H119.799Z" fill="#333333"/>
<path d="M49.5682 98.5072C49.3695 98.5557 49.2095 98.5508 49.0883 98.4927C48.9672 98.4345 48.8799 98.3376 48.8218 98.1922C48.7685 98.0371 48.7781 97.8917 48.8508 97.7559C48.9235 97.6202 49.0593 97.533 49.2628 97.4942C49.8105 97.3682 50.3194 97.2179 50.7799 97.0386C51.2403 96.8593 51.6669 96.6557 52.0546 96.4279C51.7686 96.1419 51.5069 95.8269 51.2743 95.4828C51.0416 95.1387 50.838 94.7606 50.6636 94.3486H49.9995C49.8493 94.3486 49.7281 94.3001 49.636 94.2032C49.5439 94.1063 49.4955 93.99 49.4955 93.8542C49.4955 93.7185 49.5439 93.5974 49.636 93.5004C49.7281 93.4035 49.8493 93.355 49.9995 93.355H52.3018V92.4777H49.2289C49.0835 92.4777 48.972 92.4293 48.8848 92.3372C48.7975 92.2451 48.7539 92.1336 48.7539 92.0028C48.7539 91.8719 48.7975 91.7507 48.8848 91.6635C48.972 91.5762 49.0883 91.5278 49.2289 91.5278H52.3018V90.6844C52.3018 90.5196 52.3551 90.3839 52.4617 90.287C52.5684 90.19 52.6992 90.1367 52.8543 90.1367C53.0094 90.1367 53.1403 90.1852 53.2469 90.287C53.3536 90.3839 53.4069 90.5196 53.4069 90.6844V91.5278H56.4701C56.6155 91.5278 56.727 91.5714 56.8142 91.6635C56.9014 91.7507 56.9451 91.867 56.9451 92.0028C56.9451 92.1385 56.9014 92.2451 56.8142 92.3372C56.727 92.4293 56.6106 92.4777 56.4701 92.4777H53.4069V93.355H53.9061C54.352 93.355 54.6961 93.4423 54.9288 93.6216C55.1614 93.8009 55.2826 94.0336 55.2874 94.3244C55.2923 94.6152 55.1711 94.9205 54.9191 95.2404C54.5798 95.6863 54.2017 96.0935 53.7801 96.457C54.1678 96.6848 54.5895 96.8787 55.0403 97.0435C55.491 97.2082 55.9708 97.3294 56.4798 97.4167C56.6591 97.4457 56.7948 97.5233 56.882 97.6445C56.9693 97.7656 56.9935 97.9159 56.9548 98.0855C56.9111 98.26 56.8239 98.3812 56.6833 98.449C56.5428 98.5169 56.378 98.5363 56.1841 98.4975C55.5686 98.3715 54.9821 98.197 54.4296 97.9692C53.8722 97.7414 53.3584 97.4651 52.8883 97.1355C51.9674 97.7366 50.8574 98.1922 49.5585 98.4975L49.5682 98.5072ZM52.927 95.8366C53.2857 95.5506 53.6007 95.2356 53.877 94.8963C54.0273 94.717 54.0757 94.5813 54.0273 94.4892C53.9788 94.3971 53.8189 94.3486 53.5426 94.3486H51.7589C52.0401 94.906 52.4278 95.4004 52.9222 95.8366H52.927Z" fill="#333333"/>
<path d="M58.4727 98.4733C58.0801 98.4733 57.8717 98.3134 57.8523 97.9887C57.8474 97.8287 57.8862 97.6979 57.9783 97.6058C58.0655 97.5088 58.1964 97.4555 58.3612 97.4458C58.5357 97.4264 58.6472 97.3925 58.7005 97.344C58.7538 97.2956 58.7829 97.1986 58.7829 97.0532V95.4877C58.7005 95.5216 58.6181 95.5556 58.5454 95.5846C58.4727 95.6137 58.4048 95.6428 58.3418 95.667C58.1916 95.7252 58.051 95.73 57.9201 95.6816C57.7893 95.6331 57.6923 95.5265 57.6342 95.3714C57.5857 95.2357 57.5905 95.1048 57.6536 94.9788C57.7117 94.8528 57.8183 94.7655 57.9686 94.717C58.0752 94.6831 58.2012 94.6346 58.3467 94.5813C58.4921 94.528 58.6375 94.4699 58.7877 94.4117V92.7541H58.0898C57.9589 92.7541 57.8474 92.7105 57.7602 92.6184C57.6681 92.5311 57.6245 92.4196 57.6245 92.2888C57.6245 92.1579 57.6681 92.0464 57.7602 91.9544C57.8474 91.8623 57.9589 91.8138 58.0898 91.8138H58.7877V90.6409C58.7877 90.4906 58.8362 90.3743 58.938 90.2822C59.0397 90.1901 59.1512 90.1465 59.2821 90.1465C59.413 90.1465 59.5341 90.1901 59.6311 90.2822C59.728 90.3694 59.7765 90.4906 59.7765 90.6409V91.8138H60.2418C60.3726 91.8138 60.4841 91.8623 60.5762 91.9544C60.6683 92.0464 60.7168 92.1579 60.7168 92.2888C60.7168 92.4196 60.6683 92.5311 60.5762 92.6184C60.4841 92.7056 60.3726 92.7541 60.2418 92.7541H59.7765V94.024C59.8298 93.9997 59.8831 93.9803 59.9267 93.9609C59.9703 93.9416 60.0188 93.927 60.0624 93.9076C60.1933 93.8495 60.3145 93.8398 60.4211 93.8882C60.5277 93.9367 60.6053 94.0094 60.6537 94.1015C60.6974 94.0676 60.741 94.0336 60.7943 94.0094C60.8476 93.9852 60.9009 93.9755 60.9591 93.9755H61.9091C61.9188 93.9076 61.9333 93.8446 61.943 93.7719C61.9527 93.7041 61.9624 93.6314 61.9721 93.5635H61.1821C61.0706 93.5635 60.9688 93.5199 60.8864 93.4375C60.804 93.3551 60.7604 93.2533 60.7604 93.1418C60.7604 93.0207 60.804 92.9237 60.8864 92.8413C60.9688 92.7589 61.0706 92.7202 61.1821 92.7202H61.4583C61.4244 92.6765 61.3953 92.6378 61.3759 92.5941C61.342 92.5166 61.2935 92.4196 61.2354 92.3033C61.1772 92.187 61.1239 92.0804 61.0803 91.9834C61.0318 91.8816 61.027 91.7799 61.056 91.6829C61.09 91.586 61.153 91.5084 61.2499 91.4551H61.1239C60.9882 91.46 60.8719 91.426 60.7846 91.3582C60.6974 91.2903 60.6489 91.174 60.6392 91.0286C60.6344 90.8832 60.678 90.7766 60.7701 90.7039C60.8622 90.6312 60.9785 90.5924 61.1239 90.5924C61.3808 90.5875 61.6764 90.573 62.0157 90.5536C62.355 90.5342 62.6991 90.5051 63.0578 90.4712C63.4164 90.4373 63.7606 90.4034 64.0901 90.3646C64.4197 90.3258 64.7057 90.287 64.9432 90.2434C65.1177 90.2143 65.2485 90.2289 65.3455 90.287C65.4424 90.3452 65.5006 90.4373 65.5248 90.5536C65.5781 90.859 65.4473 91.0383 65.1322 91.0916C64.856 91.1352 64.5506 91.1789 64.2065 91.2225C63.8623 91.2661 63.5134 91.3049 63.1547 91.334C63.242 91.3824 63.3098 91.4551 63.3534 91.5569C63.3874 91.6442 63.4358 91.7605 63.494 91.901C63.5522 92.0416 63.5909 92.1482 63.6152 92.2209C63.6588 92.3227 63.6636 92.4196 63.6297 92.5117C63.5958 92.6038 63.5328 92.6765 63.4358 92.7202H63.9835C64.032 92.6135 64.0853 92.4778 64.1483 92.3082C64.2113 92.1434 64.2695 91.9786 64.3276 91.8235C64.3858 91.6684 64.4246 91.5569 64.4488 91.4842C64.4973 91.3485 64.5797 91.2564 64.7009 91.2079C64.822 91.1595 64.9529 91.1595 65.0934 91.2079C65.2001 91.2419 65.2776 91.3194 65.3309 91.4309C65.3794 91.5424 65.3843 91.6587 65.3309 91.7799C65.297 91.8768 65.234 92.0174 65.1468 92.2064C65.0595 92.3954 64.982 92.5651 64.9093 92.7202H65.1952C65.3164 92.7202 65.4133 92.7589 65.4957 92.8413C65.5781 92.9237 65.6169 93.0207 65.6169 93.1418C65.6169 93.263 65.5781 93.3551 65.4957 93.4375C65.4133 93.5199 65.3164 93.5635 65.1952 93.5635H62.9754C62.9705 93.6362 62.9608 93.7041 62.9511 93.7719C62.9366 93.8398 62.9269 93.9076 62.9172 93.9755H65.5054C65.6266 93.9755 65.7284 94.0143 65.8108 94.0967C65.8932 94.179 65.9368 94.276 65.9368 94.3972C65.9368 94.5183 65.8932 94.6104 65.8108 94.6977C65.7284 94.7849 65.6266 94.8285 65.5054 94.8285H62.7282C62.7088 94.8867 62.6943 94.9497 62.6749 95.0079C62.6555 95.066 62.6409 95.129 62.6216 95.1969H63.8914C64.2453 95.1969 64.5118 95.2599 64.7009 95.3859C64.8899 95.5119 64.9868 95.6767 65.0014 95.89C65.0159 96.1032 64.9287 96.331 64.7493 96.5782C64.6912 96.6703 64.6233 96.7527 64.5506 96.8351C64.4779 96.9175 64.4003 96.9999 64.3179 97.0823C64.5021 97.1599 64.696 97.2326 64.8899 97.2907C65.0886 97.3537 65.2922 97.4022 65.5006 97.441C65.6848 97.4749 65.8108 97.5573 65.8738 97.6833C65.9368 97.8093 65.9416 97.9402 65.898 98.0759C65.8496 98.2262 65.7575 98.3231 65.6217 98.3619C65.486 98.4055 65.3358 98.4055 65.1807 98.3619C64.5797 98.2068 64.0368 97.9838 63.5618 97.6882C63.3244 97.8384 63.0675 97.9693 62.796 98.0856C62.5246 98.2019 62.2387 98.3037 61.943 98.3861C61.8073 98.42 61.6716 98.4249 61.5456 98.3958C61.4147 98.3667 61.3275 98.2795 61.2741 98.1341C61.2257 97.9984 61.2354 97.8723 61.3032 97.7512C61.3711 97.63 61.4874 97.5573 61.657 97.5137C61.8655 97.4555 62.0642 97.3876 62.2532 97.3198C62.4422 97.2519 62.6167 97.1744 62.7863 97.092C62.5392 96.8642 62.3259 96.6122 62.132 96.331C61.9479 96.6703 61.7249 96.9951 61.4729 97.3004C61.2208 97.6058 60.93 97.8869 60.6004 98.1438C60.489 98.231 60.3581 98.2746 60.2175 98.2698C60.0721 98.2649 59.9606 98.2068 59.8783 98.1001C59.7813 97.979 59.7474 97.8529 59.7765 97.7221C59.8055 97.5912 59.8783 97.4797 59.9946 97.3925C60.4308 97.0532 60.7895 96.6655 61.0754 96.239C61.3565 95.8076 61.5746 95.3423 61.7249 94.8334H60.9639C60.8137 94.8334 60.6974 94.7655 60.6053 94.6346C60.5617 94.6831 60.4986 94.7316 60.4163 94.7801C60.3387 94.814 60.2466 94.8576 60.1351 94.9109C60.0237 94.9642 59.9073 95.0127 59.7813 95.066V97.2326C59.7813 97.6688 59.6698 97.9838 59.4517 98.1825C59.2288 98.3813 58.9089 98.4782 58.4824 98.4782L58.4727 98.4733ZM62.0981 92.7202H62.9754C62.893 92.6717 62.83 92.6038 62.796 92.5166C62.7718 92.4439 62.733 92.3421 62.6749 92.2015C62.6167 92.0658 62.5682 91.9495 62.5246 91.8526C62.481 91.7653 62.4762 91.6732 62.4955 91.586C62.5198 91.4988 62.5682 91.4309 62.6458 91.3776C62.4858 91.3824 62.3259 91.3921 62.166 91.4067C62.006 91.4212 61.8509 91.4309 61.6958 91.4406C61.7782 91.4745 61.8461 91.5472 61.8945 91.6442C61.943 91.7314 61.9963 91.838 62.0496 91.964C62.103 92.0901 62.1466 92.1822 62.1708 92.2549C62.2532 92.439 62.229 92.5941 62.0884 92.7202H62.0981ZM63.5425 96.6073C63.5909 96.5588 63.6345 96.5152 63.683 96.4716C63.7266 96.428 63.7703 96.3892 63.8139 96.3456C63.9205 96.2244 63.9593 96.1323 63.9254 96.0693C63.8914 96.0015 63.7993 95.9724 63.6539 95.9724H62.893C62.9948 96.0935 63.1014 96.205 63.2129 96.3068C63.3243 96.4134 63.4358 96.5104 63.5473 96.6073H63.5425Z" fill="#333333"/>
<path d="M69.8087 98.6523C69.4258 98.6523 69.2174 98.4875 69.1835 98.1579C69.1641 98.0028 69.2077 97.8719 69.3095 97.7653C69.4113 97.6587 69.5518 97.5957 69.7409 97.586C69.9687 97.5666 70.1092 97.5327 70.1722 97.4842C70.2352 97.4357 70.2643 97.3194 70.2643 97.1498V97.0237H67.6228C67.5162 97.0237 67.4241 96.985 67.3514 96.9123C67.2787 96.8396 67.2399 96.7475 67.2399 96.6408C67.2399 96.5342 67.2787 96.4421 67.3514 96.3694C67.4241 96.2967 67.5162 96.2579 67.6228 96.2579H70.2643V95.8993H66.9055C66.8085 95.8993 66.7261 95.8654 66.6486 95.7926C66.5759 95.7199 66.5371 95.6327 66.5371 95.5309C66.5371 95.4291 66.5759 95.3419 66.6486 95.2692C66.7213 95.1965 66.8085 95.1626 66.9055 95.1626H70.2643V94.8136H67.647C67.5356 94.8136 67.4386 94.7797 67.3611 94.7118C67.2835 94.644 67.2448 94.5567 67.2448 94.4501C67.2448 94.3386 67.2835 94.2465 67.3611 94.1787C67.4386 94.1108 67.5356 94.0769 67.647 94.0769H70.2643V93.7618H69.1544C68.6988 93.7618 68.3886 93.694 68.2141 93.5631C68.0396 93.4322 67.9524 93.2044 67.9524 92.8749C67.9524 92.5453 68.0396 92.3175 68.2141 92.1915C68.3886 92.0654 68.6988 91.9976 69.1544 91.9976H70.2643V91.6922H67.1817C67.0751 91.6922 66.983 91.6535 66.9103 91.5759C66.8376 91.4984 66.7988 91.4063 66.7988 91.2996C66.7988 91.193 66.8376 91.1009 66.9103 91.0234C66.983 90.9458 67.0751 90.907 67.1817 90.907H70.2643V90.6308C70.2643 90.466 70.3176 90.3303 70.4194 90.2382C70.5212 90.1412 70.6521 90.0928 70.8023 90.0928C70.9526 90.0928 71.0786 90.1412 71.1852 90.2382C71.287 90.3351 71.3403 90.466 71.3403 90.6308V90.907H74.4035C74.5101 90.907 74.6022 90.9458 74.6749 91.0234C74.7477 91.1009 74.7864 91.193 74.7864 91.2996C74.7864 91.4063 74.7477 91.4984 74.6749 91.5759C74.6022 91.6535 74.5101 91.6922 74.4035 91.6922H71.3403V91.9976H72.426C72.8865 91.9976 73.2015 92.0606 73.376 92.1915C73.5505 92.3175 73.6377 92.5501 73.6377 92.8749C73.6377 93.1996 73.5505 93.4322 73.376 93.5631C73.2015 93.694 72.8865 93.7618 72.426 93.7618H71.3403V94.0769H72.4066C72.8283 94.0769 73.1627 94.1108 73.4051 94.1738C73.6474 94.2417 73.8219 94.3531 73.9237 94.5082C74.0255 94.6633 74.0885 94.8863 74.1079 95.1674H74.6653C74.767 95.1674 74.8543 95.2013 74.927 95.274C74.9997 95.3467 75.0336 95.434 75.0336 95.5358C75.0336 95.6375 74.9997 95.7248 74.927 95.7975C74.8543 95.8702 74.767 95.9041 74.6653 95.9041H74.1079C74.0885 96.1852 74.0303 96.4082 73.9237 96.5778C73.8171 96.7426 73.6474 96.8638 73.4099 96.9317C73.1724 96.9995 72.838 97.0334 72.4066 97.0334H71.3403V97.2855C71.3403 97.775 71.2192 98.1288 70.9817 98.3421C70.7442 98.5553 70.3564 98.6668 69.8184 98.6668L69.8087 98.6523ZM69.1447 93.0445H70.2546V92.6955H69.1447C69.0623 92.6955 69.0042 92.7052 68.9702 92.7295C68.9363 92.7537 68.9218 92.8021 68.9218 92.8749C68.9218 92.9427 68.9363 92.9863 68.9702 93.0106C69.0042 93.0348 69.0623 93.0445 69.1447 93.0445ZM71.3306 93.0445H72.4163C72.4987 93.0445 72.5569 93.0348 72.5908 93.0106C72.6247 92.9863 72.6393 92.9427 72.6393 92.8749C72.6393 92.8021 72.6247 92.7537 72.5908 92.7295C72.5569 92.7052 72.4987 92.6955 72.4163 92.6955H71.3306V93.0445ZM71.3306 95.1577H73.061C73.0367 95.0026 72.9786 94.9057 72.8865 94.8669C72.7944 94.8281 72.6296 94.8087 72.3969 94.8087H71.3306V95.1577ZM71.3306 96.2483H72.3969C72.6296 96.2483 72.7944 96.224 72.8913 96.1804C72.9882 96.1368 73.0416 96.0398 73.061 95.8896H71.3306V96.2483Z" fill="#333333"/>
<path d="M79.7352 98.6138C79.6043 98.6138 79.488 98.5654 79.3911 98.4733C79.2941 98.3812 79.2408 98.26 79.2408 98.1098V96.6945C78.9936 96.8932 78.7222 97.0919 78.4168 97.3003C78.1115 97.5039 77.8013 97.6978 77.4814 97.8674C77.1615 98.0419 76.861 98.1825 76.5799 98.2988C76.449 98.3569 76.3133 98.3763 76.1776 98.3473C76.0419 98.323 75.9401 98.2406 75.8723 98.1098C75.8141 97.9886 75.8044 97.8626 75.8432 97.7269C75.882 97.5912 75.974 97.4991 76.1098 97.4457C76.3472 97.3488 76.609 97.2325 76.8949 97.0919C77.1809 96.9514 77.462 96.8011 77.7431 96.6363C78.0243 96.4715 78.2763 96.3116 78.5041 96.1565H76.0516C75.9401 96.1565 75.8432 96.1177 75.7608 96.0353C75.6784 95.9529 75.6396 95.856 75.6396 95.7445C75.6396 95.633 75.6784 95.5361 75.7608 95.4537C75.8432 95.3713 75.9401 95.3325 76.0516 95.3325H79.2408V94.9399H76.9676C76.8562 94.9399 76.7592 94.9012 76.6817 94.8285C76.6041 94.7557 76.5654 94.6588 76.5654 94.5473C76.5654 94.4359 76.6041 94.3389 76.6817 94.2662C76.7592 94.1935 76.8562 94.1547 76.9676 94.1547H79.2408V93.7767H76.5702C76.4587 93.7767 76.3618 93.7379 76.2842 93.6555C76.2067 93.5731 76.1679 93.4762 76.1679 93.3647C76.1679 93.2532 76.2067 93.1563 76.2842 93.0787C76.3618 93.0012 76.4587 92.9624 76.5702 92.9624H77.8934C77.8498 92.8606 77.8061 92.7589 77.7577 92.6571C77.7092 92.5553 77.6704 92.4729 77.6414 92.405H76.0467C75.9353 92.405 75.8383 92.3663 75.7559 92.2839C75.6735 92.2015 75.6348 92.1045 75.6348 91.9931C75.6348 91.8816 75.6735 91.7846 75.7559 91.7022C75.8383 91.6198 75.9353 91.5811 76.0467 91.5811H77.1034C77.1034 91.5811 77.0791 91.552 77.0694 91.5278C77.0258 91.4454 76.9725 91.3387 76.9095 91.2127C76.8416 91.0867 76.7883 90.9849 76.7495 90.9074C76.6914 90.7862 76.6865 90.6699 76.735 90.5487C76.7835 90.4275 76.8756 90.3451 76.9967 90.287C77.1179 90.2385 77.2391 90.2337 77.3651 90.2627C77.4911 90.2967 77.5832 90.3694 77.6414 90.4905C77.6656 90.5342 77.6995 90.5972 77.7383 90.6844C77.7771 90.7717 77.8255 90.8589 77.8692 90.951C77.9128 91.0431 77.9467 91.1158 77.9709 91.1691C78.0388 91.3193 78.0243 91.4551 77.937 91.5714H78.412V90.6311C78.412 90.476 78.4605 90.3548 78.5574 90.2676C78.6543 90.1803 78.7707 90.1367 78.9015 90.1367C79.0324 90.1367 79.1536 90.1803 79.2457 90.2676C79.3377 90.3548 79.3862 90.476 79.3862 90.6311V91.5714H80.0018V90.6311C80.0018 90.476 80.0502 90.3548 80.152 90.2676C80.2489 90.1803 80.3653 90.1367 80.4961 90.1367C80.627 90.1367 80.7482 90.1803 80.8451 90.2676C80.942 90.3548 80.9905 90.476 80.9905 90.6311V91.5714H81.4461C81.3637 91.4502 81.3589 91.3145 81.4364 91.1594C81.4849 91.077 81.5431 90.9607 81.6158 90.8201C81.6885 90.6747 81.7418 90.5681 81.7757 90.4954C81.8436 90.3839 81.9356 90.3064 82.0617 90.2676C82.1877 90.2288 82.3089 90.2385 82.4203 90.2918C82.5512 90.35 82.6433 90.4421 82.6918 90.5584C82.7402 90.6796 82.7354 90.7959 82.6675 90.9171C82.6239 90.9946 82.5657 91.0964 82.4882 91.2176C82.4106 91.3387 82.3428 91.4454 82.2895 91.5375C82.2846 91.5423 82.2798 91.5471 82.2749 91.5568C82.2749 91.5617 82.2652 91.5665 82.2604 91.5762H83.3994C83.5109 91.5762 83.6078 91.615 83.6902 91.6974C83.7726 91.7798 83.8114 91.8767 83.8114 91.9882C83.8114 92.0997 83.7726 92.1966 83.6902 92.279C83.6078 92.3614 83.5109 92.4002 83.3994 92.4002H81.7951C81.766 92.468 81.7272 92.5504 81.6836 92.6522C81.64 92.754 81.5915 92.8558 81.5431 92.9576H82.7887C82.9002 92.9576 82.9971 92.9963 83.0795 93.0739C83.1619 93.1514 83.2007 93.2484 83.2007 93.3599C83.2007 93.4713 83.1619 93.5683 83.0795 93.6507C82.9971 93.7331 82.9002 93.7718 82.7887 93.7718H80.2199V94.1499H82.4397C82.5512 94.1499 82.6481 94.1887 82.7257 94.2614C82.8032 94.3341 82.842 94.431 82.842 94.5425C82.842 94.654 82.8032 94.7509 82.7257 94.8236C82.6481 94.8963 82.5512 94.9351 82.4397 94.9351H80.2199V95.3277H83.3994C83.5109 95.3277 83.6078 95.3664 83.6902 95.4488C83.7726 95.5312 83.8114 95.6282 83.8114 95.7397C83.8114 95.8511 83.7726 95.9481 83.6902 96.0305C83.6078 96.1129 83.5109 96.1516 83.3994 96.1516H80.9081C81.1359 96.3067 81.388 96.4667 81.6642 96.6266C81.9405 96.7866 82.2265 96.9417 82.5124 97.0822C82.7984 97.2276 83.065 97.344 83.3073 97.4409C83.443 97.4942 83.5351 97.5911 83.5739 97.722C83.6175 97.8577 83.603 97.9837 83.54 98.1049C83.4721 98.2358 83.3752 98.3133 83.2443 98.3424C83.1134 98.3715 82.9777 98.357 82.842 98.3036C82.5803 98.197 82.2895 98.0564 81.9744 97.882C81.6594 97.7075 81.3492 97.5184 81.0438 97.3149C80.7385 97.1113 80.4622 96.9126 80.2199 96.7187V98.1049C80.2199 98.2552 80.1714 98.3763 80.0696 98.4684C79.9727 98.5605 79.8515 98.609 79.7158 98.609L79.7352 98.6138ZM78.9985 92.9624H80.4671C80.4913 92.8946 80.5252 92.8122 80.5688 92.7152C80.6125 92.6183 80.6561 92.5117 80.6997 92.405H78.7561C78.8046 92.5117 78.8482 92.6134 78.8967 92.7152C78.9403 92.8122 78.9742 92.8946 78.9985 92.9624Z" fill="#333333"/>
</g>
<defs>
<clipPath id="clip0_52_1484">
<rect width="132.59" height="98.6525" fill="white"/>
</clipPath>
</defs>
</svg>
