<svg width="156" height="116" viewBox="0 0 156 116" fill="none" xmlns="http://www.w3.org/2000/svg">
<g clip-path="url(#clip0_75_650)">
<path d="M115.721 73.5539C118.023 73.5539 119.98 71.7504 120.009 69.4691C120.009 69.452 120.009 69.435 120.009 69.4179V26.3233C120.009 24.6165 119.09 23.0407 117.598 22.1873L79.9424 0.642827C78.45 -0.210532 76.6132 -0.210532 75.1207 0.642827L37.471 22.1873C35.9785 23.0407 35.0601 24.6165 35.0601 26.3233V69.4122C35.0601 69.4122 35.0601 69.4464 35.0601 69.4634C35.0831 71.7447 37.0405 73.5482 39.348 73.5482H115.727L115.721 73.5539Z" fill="#F18E38"/>
<path d="M36.4205 102.323C36.1565 102.323 35.9326 102.238 35.7547 102.073C35.5767 101.908 35.4849 101.681 35.4849 101.39V94.7285C35.1118 94.774 34.7559 94.8196 34.4115 94.8651C34.0671 94.9049 33.7686 94.939 33.516 94.9618C33.2519 94.9845 33.0223 94.922 32.8272 94.774C32.632 94.6261 32.5287 94.4213 32.5 94.1539C32.4885 93.9036 32.5631 93.6817 32.7239 93.494C32.8846 93.3006 33.0855 93.2039 33.3266 93.1925C33.4242 93.1925 33.5275 93.1925 33.6308 93.1811C33.7399 93.1754 33.8547 93.164 33.9752 93.1527C34.0958 92.9763 34.268 92.7146 34.4918 92.3733C34.7157 92.0319 34.9568 91.6621 35.2266 91.2525C35.0314 91.1217 34.7903 90.9567 34.4918 90.7519C34.1991 90.5471 33.9063 90.3536 33.6251 90.1716C33.3438 89.9895 33.1257 89.8473 32.9822 89.7506C32.787 89.6198 32.6607 89.4377 32.6033 89.2101C32.5402 88.9826 32.5746 88.7664 32.6952 88.5673C32.8272 88.3511 33.0281 88.2202 33.2921 88.1634C33.5562 88.1122 33.7915 88.1463 33.9982 88.2828L34.1417 88.3909C34.2622 88.1861 34.4 87.9415 34.555 87.657C34.71 87.3726 34.8649 87.0881 35.0142 86.815C35.1634 86.542 35.2782 86.3315 35.3471 86.1892C35.4562 85.9503 35.6284 85.7967 35.8637 85.7227C36.0991 85.6488 36.3287 85.6715 36.5583 85.7739C36.7879 85.8764 36.9429 86.047 37.0175 86.2746C37.0979 86.5021 37.0749 86.724 36.9544 86.9345C36.8568 87.1279 36.7247 87.3669 36.5583 87.6513C36.3918 87.9358 36.2196 88.2316 36.0417 88.5275C35.8695 88.8233 35.7087 89.0907 35.5652 89.3182L36.2139 89.7506C36.5009 89.2955 36.7534 88.9029 36.9716 88.5673C37.1897 88.2316 37.3217 88.0268 37.3676 87.9415C37.4997 87.7253 37.6834 87.5888 37.9187 87.5205C38.154 87.4522 38.3837 87.4807 38.6133 87.6001C38.8543 87.7196 39.0036 87.9017 39.0553 88.1463C39.1069 88.3909 39.0725 88.6128 38.9405 88.8176C38.8773 88.9143 38.751 89.1077 38.5501 89.4093C38.3492 89.7108 38.1139 90.0578 37.8383 90.4674C37.5628 90.8714 37.2701 91.298 36.9716 91.7361C36.6673 92.1798 36.3861 92.5894 36.122 92.9706C36.3976 92.9479 36.6788 92.9194 36.9544 92.891C37.2299 92.8625 37.4882 92.8398 37.7293 92.8284C37.6948 92.7317 37.6547 92.6463 37.6202 92.5667C37.5858 92.487 37.5513 92.4188 37.5284 92.3619C37.4308 92.1571 37.4308 91.9523 37.5169 91.7361C37.6087 91.5199 37.758 91.372 37.9761 91.2867C38.1827 91.2013 38.3951 91.2013 38.6247 91.2753C38.8543 91.3549 39.0208 91.4915 39.1299 91.6963C39.1528 91.7418 39.1815 91.7987 39.2102 91.8669C39.2389 91.9352 39.2734 92.0035 39.3078 92.0717C39.3308 91.8669 39.4169 91.6849 39.5604 91.5142C39.9335 91.1103 40.3238 90.6381 40.7256 90.0976C41.1275 89.5629 41.5178 89.0224 41.8909 88.4763C42.264 87.9358 42.5797 87.4522 42.8323 87.0369C43.2169 86.4054 43.699 86.0869 44.2673 86.0869C44.8356 86.0869 45.3465 86.4054 45.7942 87.0369C46.1214 87.492 46.4888 87.9756 46.9078 88.499C47.3211 89.0167 47.7459 89.5174 48.1706 89.9952C48.5954 90.4731 48.9915 90.8884 49.3531 91.2468C49.5598 91.4403 49.6746 91.6678 49.6975 91.9352C49.7205 92.2026 49.6459 92.4415 49.4622 92.6406C49.2555 92.8682 49.0087 92.9934 48.7217 93.0275C48.4347 93.056 48.1821 92.9649 47.964 92.7487C47.7114 92.487 47.4302 92.1741 47.1259 91.8157C46.816 91.4573 46.5117 91.0818 46.2018 90.6893C45.8918 90.2968 45.6048 89.9156 45.335 89.5515C45.0652 89.1874 44.8356 88.8745 44.6577 88.6128C44.5371 88.4307 44.4166 88.3454 44.2845 88.3454C44.1525 88.3454 44.0435 88.4421 43.9344 88.6299C43.7392 88.9769 43.4752 89.4093 43.1365 89.9213C42.7978 90.4333 42.4362 90.951 42.0516 91.463C41.667 91.975 41.3054 92.4131 40.9667 92.7715C40.8003 92.9479 40.5936 93.0503 40.364 93.0787C40.1287 93.1015 39.9105 93.0559 39.7039 92.9365C39.8015 93.1527 39.8991 93.3575 39.9909 93.5566C40.0885 93.7557 40.1574 93.915 40.209 94.0515C40.3066 94.2905 40.3066 94.5294 40.2205 94.7684C40.1287 95.0073 39.9565 95.1723 39.7039 95.269C39.4743 95.3543 39.2447 95.3543 39.0151 95.269C38.7855 95.1837 38.6305 95.0301 38.5444 94.8025C38.5214 94.6944 38.464 94.5465 38.3837 94.3531C38.2287 94.3644 38.0622 94.3872 37.8843 94.4156C37.7063 94.4441 37.5284 94.4725 37.3332 94.4953V101.39C37.3332 101.675 37.2414 101.902 37.0634 102.073C36.8855 102.238 36.6616 102.323 36.3976 102.323H36.4205ZM33.1544 100.213C32.9362 100.156 32.7755 100.019 32.6779 99.8202C32.5746 99.6154 32.5631 99.4163 32.632 99.2115C32.7296 98.9726 32.8387 98.6654 32.9649 98.2899C33.0912 97.9144 33.2118 97.5332 33.3266 97.1464C33.4414 96.7595 33.5275 96.4352 33.5906 96.1679C33.6365 95.9517 33.7628 95.7867 33.9695 95.6729C34.1761 95.5591 34.3828 95.5307 34.6009 95.5933C34.8305 95.6388 34.997 95.7526 35.1003 95.9232C35.2036 96.0996 35.2323 96.2987 35.1806 96.5206C35.1232 96.7937 35.0371 97.135 34.9281 97.5332C34.819 97.9315 34.7042 98.3297 34.5837 98.7166C34.4631 99.1034 34.3541 99.422 34.2565 99.6723C34.1704 99.8999 34.0269 100.065 33.8202 100.167C33.6136 100.27 33.3897 100.281 33.1544 100.213ZM39.5833 99.587C39.3537 99.6723 39.1299 99.661 38.906 99.5585C38.6821 99.4561 38.5444 99.2912 38.4812 99.0636C38.4066 98.836 38.3205 98.5573 38.2172 98.2216C38.1139 97.886 38.0105 97.5503 37.9072 97.209C37.8039 96.8676 37.7235 96.5832 37.6661 96.3613C37.6202 96.1337 37.6547 95.9289 37.7752 95.7412C37.8957 95.5534 38.0679 95.4397 38.2976 95.3941C38.5157 95.3373 38.7223 95.36 38.9232 95.4681C39.1241 95.5762 39.2504 95.7355 39.3136 95.9517C39.371 96.1679 39.4571 96.4296 39.5546 96.7481C39.658 97.0667 39.7613 97.3853 39.8704 97.7039C39.9794 98.0282 40.0713 98.2899 40.1401 98.489C40.2262 98.7166 40.2148 98.9328 40.1114 99.1319C40.0081 99.3367 39.8302 99.4846 39.5776 99.5813L39.5833 99.587ZM44.5716 101.698C43.6302 101.698 42.9012 101.607 42.3731 101.419C41.8507 101.231 41.4833 100.907 41.271 100.44C41.0586 99.9739 40.9552 99.3139 40.9552 98.4549C40.9552 97.5958 41.0586 96.9302 41.271 96.4694C41.4833 96.0086 41.8507 95.6786 42.3731 95.5022C42.8954 95.3259 43.6302 95.2349 44.5716 95.2349C45.5129 95.2349 46.2419 95.3259 46.7586 95.5022C47.2752 95.6786 47.6425 96.0029 47.8492 96.4694C48.0616 96.9359 48.1649 97.5958 48.1649 98.4549C48.1649 99.3139 48.0616 99.9795 47.8492 100.44C47.6368 100.907 47.2752 101.231 46.7586 101.419C46.2419 101.601 45.5129 101.698 44.5716 101.698ZM42.2583 93.75C41.9827 93.75 41.7589 93.6647 41.5981 93.4883C41.4374 93.3176 41.3571 93.1072 41.3571 92.8682C41.3571 92.6179 41.4374 92.4074 41.5981 92.231C41.7589 92.0547 41.9827 91.9693 42.2583 91.9693H46.615C46.8906 91.9693 47.1087 92.0547 47.2637 92.231C47.4187 92.4017 47.499 92.6179 47.499 92.8682C47.499 93.1185 47.4187 93.312 47.2637 93.4883C47.1087 93.659 46.8906 93.75 46.615 93.75H42.2583ZM44.5716 99.9283C45.2087 99.9283 45.6335 99.8316 45.8344 99.6439C46.0353 99.4561 46.1444 99.0579 46.1444 98.4606C46.1444 97.8632 46.041 97.4707 45.8344 97.2772C45.6277 97.0838 45.2087 96.9928 44.5716 96.9928C43.9344 96.9928 43.5268 97.0838 43.3145 97.2715C43.1021 97.4593 42.9987 97.8461 42.9987 98.4435C42.9987 99.0408 43.1021 99.4391 43.3145 99.6325C43.5268 99.8259 43.9459 99.9283 44.5716 99.9283Z" fill="#333333"/>
<path d="M51.764 101.521C51.4999 101.413 51.322 101.231 51.2416 100.964C51.1555 100.702 51.1899 100.44 51.3335 100.179C51.5516 99.7975 51.7869 99.3367 52.0452 98.8019C52.3035 98.2671 52.5561 97.721 52.7972 97.1748C53.0383 96.623 53.222 96.1451 53.3597 95.7412C53.4573 95.4681 53.6295 95.2747 53.8763 95.1666C54.1232 95.0585 54.393 95.0585 54.68 95.1666C54.9325 95.2633 55.1162 95.4226 55.2195 95.6502C55.3286 95.8777 55.3286 96.1451 55.2195 96.458C55.1105 96.7425 54.9727 97.0895 54.8062 97.4991C54.6398 97.9031 54.4561 98.3297 54.2667 98.7792C54.0715 99.2286 53.8821 99.6553 53.6984 100.059C53.509 100.463 53.354 100.804 53.222 101.078C53.1014 101.339 52.9005 101.51 52.6192 101.59C52.338 101.669 52.0567 101.646 51.7812 101.527L51.764 101.521ZM53.6238 93.2835C53.5032 93.1868 53.3253 93.0673 53.0899 92.9137C52.8546 92.7658 52.6192 92.6179 52.3839 92.4643C52.1486 92.3164 51.9649 92.2026 51.8328 92.1343C51.6032 92.0035 51.4597 91.8101 51.3966 91.554C51.3335 91.298 51.3736 91.0534 51.5057 90.8315C51.6492 90.5812 51.8558 90.4219 52.1199 90.348C52.3839 90.274 52.6365 90.3081 52.8776 90.439C53.0211 90.513 53.2105 90.621 53.4458 90.769C53.6812 90.9169 53.9165 91.0705 54.1576 91.2184C54.3987 91.3663 54.5824 91.4915 54.7201 91.5882C54.9612 91.7418 55.1162 91.9637 55.1794 92.2481C55.2482 92.5326 55.1966 92.8 55.0244 93.0389C54.8694 93.2665 54.6513 93.403 54.3757 93.4485C54.1002 93.494 53.8476 93.4485 53.618 93.2892L53.6238 93.2835ZM54.7259 89.2329C54.6053 89.1362 54.4331 89.011 54.2035 88.8574C53.9739 88.7038 53.7443 88.5502 53.5147 88.4023C53.2851 88.2544 53.1072 88.1406 52.9751 88.0723C52.7455 87.9415 52.6135 87.7481 52.5676 87.4978C52.5274 87.2474 52.5676 87.0085 52.7054 86.7809C52.8489 86.542 53.0555 86.3941 53.3195 86.3315C53.5836 86.2746 53.8362 86.3144 54.0772 86.4567C54.2208 86.5306 54.4102 86.6387 54.6455 86.7866C54.8809 86.9345 55.1162 87.0881 55.3573 87.2361C55.5984 87.384 55.7763 87.5091 55.8969 87.6002C56.138 87.7538 56.2815 87.9756 56.3217 88.2544C56.3618 88.5332 56.2987 88.7949 56.1322 89.0338C55.9772 89.25 55.7591 89.3751 55.4836 89.4093C55.2081 89.4434 54.9555 89.3865 54.7259 89.2329ZM63.5256 102.147C63.2385 102.147 62.9917 102.079 62.7908 101.942C62.5899 101.806 62.4751 101.584 62.4407 101.288C62.4177 101.015 62.4866 100.776 62.6588 100.571C62.8253 100.366 63.0434 100.258 63.3074 100.247C63.715 100.224 63.9962 100.173 64.1455 100.105C64.2947 100.031 64.4153 99.8544 64.4956 99.5699C64.5703 99.3424 64.6391 99.0579 64.7138 98.7109C64.7884 98.3639 64.8458 98.0054 64.8975 97.6357C64.9434 97.2886 64.9204 97.044 64.8228 96.9018C64.7253 96.7595 64.5416 96.6742 64.2603 96.6515C63.824 97.7153 63.2443 98.6938 62.5153 99.5984C61.7863 100.497 60.9195 101.316 59.9207 102.045C59.7026 102.198 59.4615 102.272 59.186 102.267C58.9162 102.261 58.6923 102.141 58.5259 101.92C58.3824 101.743 58.325 101.533 58.3537 101.299C58.3824 101.066 58.5029 100.878 58.7038 100.736C59.5476 100.173 60.2881 99.5472 60.9253 98.8474C61.5624 98.1477 62.0963 97.4195 62.5153 96.6515H61.6141C61.2525 97.2488 60.8047 97.8405 60.2651 98.4264C59.7313 99.0124 59.1458 99.5472 58.5144 100.036C57.883 100.526 57.2343 100.935 56.5742 101.271C56.3446 101.39 56.1093 101.425 55.8682 101.368C55.6271 101.316 55.4377 101.169 55.3056 100.93C55.1966 100.725 55.1736 100.52 55.2425 100.304C55.3114 100.088 55.4549 99.934 55.6845 99.8373C56.4652 99.4562 57.2286 98.9726 57.9633 98.398C58.6981 97.8177 59.3065 97.2374 59.7887 96.6515H58.7957C58.3996 97.044 57.9806 97.4138 57.55 97.7608C57.1195 98.1079 56.6775 98.4151 56.2298 98.6938C56.0117 98.8247 55.7706 98.8759 55.5065 98.8474C55.2425 98.819 55.0416 98.6881 54.9096 98.4606C54.789 98.2558 54.7603 98.0396 54.8177 97.8063C54.8751 97.5731 55.0244 97.3967 55.254 97.2773C55.6501 97.0611 56.0576 96.7937 56.4709 96.4694C56.8842 96.1451 57.2803 95.8038 57.6534 95.4397C58.0265 95.0756 58.3594 94.7229 58.6464 94.3758H56.0633C55.8337 94.3758 55.6501 94.2962 55.5123 94.1369C55.3745 93.9776 55.3056 93.7899 55.3056 93.5737C55.3056 93.3689 55.3745 93.1868 55.5123 93.0161C55.6501 92.8512 55.8337 92.7658 56.0633 92.7658H67.05C67.2911 92.7658 67.4805 92.8512 67.6183 93.0161C67.7561 93.1811 67.8249 93.3689 67.8249 93.5737C67.8249 93.7899 67.7561 93.9776 67.6183 94.1369C67.4805 94.2962 67.2911 94.3758 67.05 94.3758H60.6153C60.5292 94.4953 60.4488 94.6148 60.3627 94.7456C60.2766 94.8708 60.1905 95.0016 60.0929 95.1325H64.4669C65.3222 95.1325 65.9479 95.3202 66.344 95.69C66.74 96.0598 66.8893 96.6799 66.7974 97.5503C66.7515 98.0623 66.6884 98.5516 66.608 99.0181C66.5277 99.4846 66.4358 99.9284 66.3268 100.344C66.1488 101.038 65.8274 101.51 65.3796 101.766C64.9262 102.022 64.3062 102.153 63.5083 102.153L63.5256 102.147ZM60.6383 92.1343C59.8289 92.1343 59.1975 92.049 58.7383 91.8726C58.279 91.702 57.9576 91.3948 57.7739 90.9567C57.5845 90.5186 57.4926 89.9099 57.4926 89.1191C57.4926 88.3284 57.5845 87.7026 57.7739 87.2759C57.9633 86.8435 58.2848 86.542 58.7383 86.3713C59.1975 86.2006 59.8289 86.1096 60.6383 86.1096H62.5899C63.3993 86.1096 64.0307 86.195 64.4899 86.3713C64.9491 86.542 65.2706 86.8435 65.4657 87.2759C65.6609 87.7082 65.7527 88.3227 65.7527 89.1191C65.7527 89.9156 65.6552 90.5186 65.4657 90.9567C65.2706 91.3948 64.9491 91.6963 64.4899 91.8726C64.0307 92.0433 63.3993 92.1343 62.5899 92.1343H60.6383ZM60.8908 90.5926H62.3718C62.854 90.5926 63.1926 90.5471 63.3821 90.4504C63.5772 90.3537 63.6978 90.1261 63.7437 89.7677H59.496C59.5419 90.1261 59.6682 90.3537 59.8691 90.4504C60.07 90.5471 60.4086 90.5926 60.8908 90.5926ZM59.5189 88.4308H63.7322C63.6863 88.0837 63.5657 87.8675 63.3706 87.7765C63.1754 87.6855 62.8482 87.64 62.3775 87.64H60.8966C60.4144 87.64 60.0757 87.6855 59.8863 87.7765C59.6911 87.8675 59.5706 88.0837 59.5247 88.4308H59.5189Z" fill="#333333"/>
<path d="M76.9174 102.238C75.9875 102.238 75.2527 102.147 74.7132 101.959C74.1736 101.772 73.7833 101.459 73.5594 101.021C73.3298 100.577 73.215 99.9853 73.215 99.2457V96.111C73.215 95.6787 73.2494 95.3032 73.324 94.9846C72.928 95.1041 72.5262 95.2178 72.1244 95.3316C71.7225 95.4454 71.315 95.5478 70.9017 95.6445C70.4941 95.7412 70.1612 95.7299 69.9144 95.6161C69.6676 95.5023 69.4954 95.3032 69.3978 95.0187C69.3117 94.6945 69.3519 94.4157 69.5126 94.1654C69.6733 93.9207 69.9373 93.7614 70.299 93.6932C71.3207 93.4884 72.308 93.2437 73.2552 92.9479C74.2023 92.6521 75.0978 92.3164 75.9358 91.9353C75.6603 91.9125 75.4307 91.8158 75.247 91.6508C75.0691 91.4858 74.9657 91.2583 74.9428 90.9681C74.9313 90.6723 75.0174 90.4106 75.1953 90.2001C75.379 89.9839 75.6373 89.8644 75.9703 89.8417C76.3434 89.8189 76.573 89.7563 76.6648 89.6539C76.7567 89.5515 76.8026 89.3354 76.8026 88.9997V86.6729C76.8026 86.3258 76.9116 86.0584 77.1355 85.865C77.3594 85.6716 77.6177 85.5806 77.9219 85.5806C78.2261 85.5806 78.4845 85.6773 78.6968 85.865C78.9092 86.0528 79.024 86.3258 79.024 86.6729V89.1647C79.024 89.597 78.9838 89.9555 78.8977 90.2399C79.3684 89.9043 79.8047 89.5402 80.218 89.1476C80.4476 88.9314 80.7002 88.812 80.9757 88.7892C81.2512 88.7665 81.5038 88.8745 81.7334 89.1135C81.9285 89.2955 82.0261 89.5231 82.0434 89.8132C82.0606 90.1034 81.94 90.3423 81.6989 90.5471C81.1708 91.025 80.5854 91.4744 79.9539 91.8897C79.3225 92.3107 78.6567 92.709 77.9564 93.0901H79.7645C80.7059 93.0901 81.4406 93.1869 81.9802 93.3746C82.514 93.568 82.8986 93.8809 83.1282 94.3247C83.3578 94.7684 83.4727 95.3658 83.4727 96.1167V99.2514C83.4727 99.991 83.3578 100.583 83.1282 101.026C82.8986 101.47 82.514 101.783 81.9802 101.965C81.4464 102.153 80.7059 102.244 79.7645 102.244H76.9116L76.9174 102.238ZM71.8775 91.116C71.625 91.3095 71.3494 91.3948 71.0452 91.3834C70.741 91.372 70.4884 91.2469 70.2875 91.0079C70.0923 90.7918 70.012 90.5414 70.0349 90.257C70.0579 89.9725 70.1842 89.745 70.4138 89.5743C70.6893 89.3695 70.9993 89.1192 71.3437 88.812C71.6881 88.5047 72.0268 88.1919 72.3654 87.8733C72.7041 87.549 72.9796 87.2588 73.1978 86.9971C73.4044 86.7582 73.657 86.6387 73.9555 86.6274C74.254 86.616 74.5008 86.707 74.6959 86.8891C74.9141 87.0825 75.0346 87.31 75.0691 87.5774C75.1035 87.8448 75.0174 88.0951 74.828 88.3227C74.5984 88.6072 74.3114 88.92 73.9669 89.2614C73.6225 89.6027 73.2724 89.9384 72.9108 90.2627C72.5491 90.5926 72.2047 90.8771 71.8833 91.116H71.8775ZM75.4709 98.1534H81.2168V97.1863H75.4709V98.1534ZM75.4881 95.7185H81.1995C81.1881 95.3146 81.079 95.0472 80.8724 94.922C80.6657 94.7969 80.2983 94.7343 79.7702 94.7343H76.9174C76.4008 94.7343 76.0391 94.7969 75.8325 94.922C75.6259 95.0472 75.511 95.3146 75.4881 95.7185ZM76.9174 100.588H79.7702C80.2869 100.588 80.6485 100.526 80.8551 100.401C81.0618 100.275 81.1766 100.008 81.1995 99.6041H75.4881C75.511 100.008 75.6259 100.275 75.8325 100.401C76.0391 100.526 76.4008 100.588 76.9174 100.588ZM84.0352 90.5585C83.7826 90.3196 83.4727 90.0522 83.111 89.7507C82.7494 89.4548 82.382 89.159 82.0089 88.8745C81.6358 88.5901 81.2914 88.3455 80.9814 88.1406C80.7748 88.0098 80.637 87.8107 80.5681 87.5433C80.4992 87.2759 80.5452 87.0256 80.7116 86.798C80.8781 86.5705 81.0962 86.4339 81.3603 86.3884C81.6243 86.3429 81.8712 86.3941 82.1008 86.5477C82.4165 86.7411 82.7781 86.9858 83.1914 87.293C83.6047 87.5945 84.0122 87.9017 84.414 88.2089C84.8101 88.5104 85.1373 88.7721 85.3899 88.9883C85.631 89.1817 85.7687 89.4036 85.7974 89.671C85.8261 89.9384 85.7458 90.183 85.5563 90.422C85.3612 90.6609 85.1143 90.7918 84.8044 90.8145C84.4944 90.8373 84.2418 90.7576 84.0352 90.5642V90.5585Z" fill="#333333"/>
<path d="M89.2415 98.5289C88.943 98.5289 88.679 98.4208 88.4666 98.1989C88.2485 97.977 88.1394 97.721 88.1394 97.4195C88.1394 97.118 88.2485 96.8449 88.4666 96.6287C88.6847 96.4125 88.943 96.3044 89.2415 96.3044H94.8611V92.1514H91.3941C91.0784 92.1514 90.8143 92.0433 90.5962 91.8215C90.3781 91.5996 90.269 91.3436 90.269 91.0421C90.269 90.7405 90.3781 90.4675 90.5962 90.2513C90.8143 90.0351 91.0784 89.927 91.3941 89.927H100.555C100.871 89.927 101.135 90.0351 101.353 90.2513C101.571 90.4675 101.68 90.7292 101.68 91.0421C101.68 91.355 101.571 91.5996 101.353 91.8215C101.135 92.0433 100.871 92.1514 100.555 92.1514H97.1055V96.3044H102.8C103.115 96.3044 103.374 96.4125 103.586 96.6287C103.799 96.8449 103.902 97.1066 103.902 97.4195C103.902 97.7324 103.799 97.977 103.586 98.1989C103.374 98.4208 103.115 98.5289 102.8 98.5289H89.2473H89.2415Z" fill="#333333"/>
<path d="M114.556 102.113C114.251 102.113 113.993 102.005 113.781 101.789C113.563 101.572 113.454 101.316 113.454 101.021V95.8606C112.587 96.3726 111.651 96.8619 110.641 97.3284C109.636 97.7949 108.666 98.1761 107.742 98.4719C107.455 98.5686 107.174 98.5459 106.904 98.398C106.634 98.2557 106.456 98.0395 106.37 97.7551C106.284 97.4706 106.313 97.1862 106.451 96.9131C106.588 96.64 106.801 96.458 107.093 96.3783C107.708 96.1849 108.368 95.9403 109.08 95.6444C109.791 95.3486 110.497 95.0186 111.192 94.6659C111.892 94.3132 112.524 93.9662 113.098 93.6191C113.672 93.2721 114.119 92.9649 114.447 92.6861C114.688 92.4813 114.768 92.2993 114.693 92.14C114.613 91.9807 114.429 91.901 114.142 91.901H109.843C109.544 91.901 109.286 91.7986 109.074 91.5938C108.861 91.389 108.758 91.1387 108.758 90.8429C108.758 90.547 108.861 90.291 109.074 90.0919C109.286 89.8871 109.539 89.7847 109.843 89.7847H114.435C115.158 89.7847 115.738 89.9212 116.169 90.1943C116.605 90.4674 116.892 90.8201 117.047 91.2525C117.202 91.6848 117.202 92.1343 117.064 92.6122C116.926 93.09 116.634 93.5338 116.186 93.9377C116.1 94.0117 116.019 94.0799 115.933 94.1539C115.847 94.2279 115.761 94.3018 115.663 94.3872V101.015C115.663 101.311 115.554 101.572 115.336 101.783C115.118 101.999 114.86 102.107 114.561 102.107L114.556 102.113ZM115.968 88.9655C115.52 88.92 115.026 88.8574 114.475 88.7777C113.924 88.6981 113.39 88.6128 112.857 88.516C112.328 88.4193 111.846 88.3226 111.41 88.2316C111.112 88.1576 110.882 87.9983 110.721 87.748C110.566 87.4977 110.52 87.2246 110.595 86.9231C110.652 86.6273 110.813 86.3997 111.071 86.2518C111.33 86.1039 111.611 86.0584 111.909 86.1153C112.328 86.212 112.793 86.303 113.293 86.394C113.792 86.485 114.292 86.5647 114.785 86.633C115.279 86.7069 115.732 86.7638 116.14 86.815C116.456 86.8492 116.708 86.98 116.898 87.2019C117.093 87.4237 117.173 87.6911 117.15 87.9983C117.127 88.2942 116.995 88.5388 116.76 88.7322C116.524 88.9257 116.255 88.9996 115.956 88.9655H115.968ZM120.864 98.2955C120.589 98.1533 120.238 97.977 119.814 97.7665C119.389 97.556 118.964 97.3512 118.534 97.1407C118.097 96.9302 117.713 96.7595 117.374 96.6287C117.099 96.5092 116.903 96.3101 116.789 96.0313C116.674 95.7525 116.679 95.4738 116.8 95.2007C116.921 94.9276 117.121 94.7342 117.403 94.6204C117.684 94.5066 117.965 94.5123 118.241 94.6318C118.579 94.7626 118.976 94.9276 119.435 95.1324C119.894 95.3372 120.342 95.542 120.789 95.7525C121.237 95.963 121.61 96.1565 121.909 96.3328C122.173 96.4864 122.351 96.7083 122.443 96.9871C122.534 97.2658 122.506 97.5446 122.362 97.8177C122.23 98.0794 122.018 98.2614 121.719 98.3638C121.421 98.4662 121.14 98.4435 120.858 98.3012L120.864 98.2955Z" fill="#333333"/>
<path d="M56.2528 115.539C55.7764 115.539 55.5353 115.408 55.5353 115.141C55.5353 114.561 55.6845 113.997 55.9945 113.451C56.2987 112.905 56.8096 112.291 57.5214 111.619C57.7739 111.38 58.015 111.136 58.2389 110.891C58.4685 110.647 58.6522 110.408 58.8014 110.169C58.9449 109.93 59.0253 109.702 59.031 109.486C59.0368 109.071 58.9449 108.758 58.744 108.559C58.5431 108.36 58.2619 108.257 57.9002 108.257C57.4066 108.257 57.0909 108.507 56.9531 109.002C56.89 109.219 56.8039 109.389 56.7063 109.503C56.6029 109.622 56.448 109.679 56.2356 109.679C56.0232 109.679 55.8682 109.611 55.7477 109.475C55.6271 109.338 55.5927 109.15 55.6501 108.917C55.7821 108.32 56.0462 107.859 56.4422 107.523C56.8383 107.188 57.3262 107.023 57.9002 107.023C58.3709 107.023 58.7899 107.119 59.1573 107.313C59.5247 107.506 59.8174 107.785 60.0298 108.155C60.2422 108.524 60.3398 108.98 60.3226 109.52C60.3168 109.896 60.225 110.248 60.0528 110.567C59.8806 110.891 59.6567 111.198 59.3754 111.5C59.0942 111.801 58.7785 112.12 58.4226 112.456C58.0495 112.82 57.7165 113.161 57.4295 113.491C57.1425 113.821 56.9761 114.105 56.9244 114.35H59.4558C59.9322 114.35 60.1733 114.549 60.1733 114.942C60.1733 115.334 59.9322 115.533 59.4558 115.533H56.2528V115.539Z" fill="#333333"/>
<path d="M63.7265 115.659C63.0778 115.659 62.5727 115.499 62.2053 115.175C61.838 114.851 61.5854 114.373 61.4304 113.73C61.2812 113.087 61.2065 112.285 61.2065 111.318C61.2065 110.351 61.2812 109.549 61.4304 108.9C61.5797 108.252 61.838 107.768 62.2053 107.444C62.5727 107.119 63.0778 106.96 63.7265 106.96C64.3751 106.96 64.8802 107.119 65.2419 107.444C65.6035 107.768 65.8561 108.252 66.0111 108.9C66.166 109.549 66.2349 110.351 66.2349 111.318C66.2349 112.285 66.1603 113.087 66.0111 113.73C65.8618 114.373 65.6035 114.857 65.2419 115.175C64.8802 115.499 64.3751 115.659 63.7265 115.659ZM63.7265 114.43C64.025 114.43 64.266 114.333 64.4383 114.145C64.6105 113.958 64.7425 113.639 64.8228 113.184C64.9032 112.729 64.9434 112.109 64.9434 111.312C64.9434 110.516 64.9032 109.879 64.8228 109.429C64.7425 108.98 64.6162 108.661 64.4383 108.468C64.266 108.28 64.025 108.183 63.7265 108.183C63.428 108.183 63.1869 108.28 63.009 108.468C62.831 108.655 62.7047 108.974 62.6244 109.429C62.5497 109.879 62.5096 110.504 62.5096 111.312C62.5096 112.12 62.5497 112.729 62.6244 113.184C62.699 113.633 62.831 113.952 63.009 114.145C63.1869 114.339 63.428 114.43 63.7265 114.43Z" fill="#333333"/>
<path d="M67.8249 115.539C67.3485 115.539 67.1074 115.408 67.1074 115.141C67.1074 114.561 67.2567 113.997 67.5666 113.451C67.8709 112.905 68.3817 112.291 69.0935 111.619C69.3461 111.38 69.5872 111.136 69.811 110.891C70.0406 110.647 70.2243 110.408 70.3736 110.169C70.5171 109.93 70.5974 109.702 70.6032 109.486C70.6089 109.071 70.5171 108.758 70.3162 108.559C70.1153 108.36 69.834 108.257 69.4724 108.257C68.9787 108.257 68.663 108.507 68.5252 109.002C68.4621 109.219 68.376 109.389 68.2784 109.503C68.1751 109.622 68.0201 109.679 67.8077 109.679C67.5953 109.679 67.4404 109.611 67.3198 109.475C67.1993 109.338 67.1648 109.15 67.2222 108.917C67.3542 108.32 67.6183 107.859 68.0144 107.523C68.4104 107.188 68.8984 107.023 69.4724 107.023C69.9431 107.023 70.3621 107.119 70.7295 107.313C71.0968 107.506 71.3896 107.785 71.602 108.155C71.8144 108.524 71.9119 108.98 71.8947 109.52C71.889 109.896 71.7971 110.248 71.6249 110.567C71.4527 110.891 71.2289 111.198 70.9476 111.5C70.6663 111.801 70.3506 112.12 69.9947 112.456C69.6216 112.82 69.2887 113.161 69.0017 113.491C68.7147 113.821 68.5482 114.105 68.4965 114.35H71.028C71.5044 114.35 71.7455 114.549 71.7455 114.942C71.7455 115.334 71.5044 115.533 71.028 115.533H67.8249V115.539Z" fill="#333333"/>
<path d="M74.9312 115.613C74.1621 115.613 73.5019 115.346 72.9451 114.817C72.7672 114.646 72.6868 114.475 72.7155 114.305C72.7385 114.134 72.8418 113.992 73.0198 113.889C73.2034 113.776 73.3699 113.741 73.5192 113.776C73.6627 113.81 73.8291 113.895 74.0071 114.037C74.1391 114.14 74.2769 114.225 74.4318 114.293C74.5868 114.356 74.7533 114.39 74.9312 114.39C75.3847 114.39 75.7291 114.253 75.9587 113.986C76.1883 113.719 76.3031 113.343 76.3031 112.86C76.3031 112.336 76.2056 111.955 76.0046 111.722C75.8037 111.483 75.5282 111.363 75.1723 111.363C75.0518 111.363 74.937 111.381 74.8279 111.42C74.7188 111.454 74.6213 111.506 74.5294 111.557C74.3687 111.648 74.2252 111.733 74.1047 111.819C73.9841 111.904 73.8291 111.944 73.6397 111.944C73.192 111.944 72.9681 111.705 72.9681 111.233V107.819C72.9681 107.347 73.2092 107.108 73.6971 107.108H76.5787C77.0551 107.108 77.2962 107.307 77.2962 107.7C77.2962 108.092 77.0551 108.291 76.5787 108.291H74.2654V110.51C74.4031 110.413 74.5524 110.334 74.7131 110.277C74.8738 110.214 75.0403 110.186 75.201 110.186C75.6545 110.186 76.062 110.288 76.4237 110.487C76.7853 110.686 77.0723 110.988 77.2904 111.381C77.5028 111.773 77.6119 112.268 77.6119 112.865C77.6119 113.741 77.3651 114.418 76.8714 114.902C76.3778 115.386 75.7291 115.625 74.9255 115.625L74.9312 115.613Z" fill="#333333"/>
<path d="M82.8125 116C82.359 116 82.1122 115.807 82.072 115.42C82.049 115.238 82.1007 115.084 82.2212 114.959C82.3418 114.834 82.5083 114.76 82.7321 114.748C83.0019 114.726 83.1684 114.686 83.243 114.629C83.3119 114.572 83.3463 114.436 83.3463 114.236V114.088H80.2179C80.0916 114.088 79.9826 114.043 79.8965 113.958C79.8104 113.872 79.7645 113.764 79.7645 113.639C79.7645 113.514 79.8104 113.406 79.8965 113.32C79.9826 113.235 80.0916 113.19 80.2179 113.19H83.3463V112.769H79.3684C79.2536 112.769 79.156 112.729 79.0642 112.643C78.9781 112.558 78.9321 112.456 78.9321 112.336C78.9321 112.217 78.9781 112.114 79.0642 112.029C79.1503 111.944 79.2536 111.904 79.3684 111.904H83.3463V111.494H80.2466C80.1146 111.494 79.9998 111.454 79.908 111.375C79.8161 111.295 79.7702 111.193 79.7702 111.068C79.7702 110.937 79.8161 110.829 79.908 110.749C79.9998 110.669 80.1146 110.63 80.2466 110.63H83.3463V110.26H82.0318C81.4922 110.26 81.1249 110.18 80.9182 110.026C80.7116 109.873 80.6083 109.605 80.6083 109.219C80.6083 108.832 80.7116 108.564 80.9182 108.416C81.1249 108.269 81.4922 108.189 82.0318 108.189H83.3463V107.831H79.6956C79.5693 107.831 79.4602 107.785 79.3741 107.694C79.288 107.603 79.2421 107.495 79.2421 107.37C79.2421 107.245 79.288 107.136 79.3741 107.045C79.4602 106.954 79.5693 106.909 79.6956 106.909H83.3463V106.585C83.3463 106.391 83.4095 106.232 83.53 106.124C83.6563 106.01 83.8055 105.953 83.9835 105.953C84.1614 105.953 84.3107 106.01 84.4369 106.124C84.5632 106.238 84.6206 106.391 84.6206 106.585V106.909H88.2484C88.3747 106.909 88.4838 106.954 88.5699 107.045C88.656 107.136 88.7019 107.245 88.7019 107.37C88.7019 107.495 88.656 107.603 88.5699 107.694C88.4838 107.785 88.3747 107.831 88.2484 107.831H84.6206V108.189H85.9064C86.4517 108.189 86.8249 108.263 87.0315 108.416C87.2381 108.564 87.3415 108.837 87.3415 109.219C87.3415 109.6 87.2381 109.873 87.0315 110.026C86.8249 110.18 86.4517 110.26 85.9064 110.26H84.6206V110.63H85.8835C86.3829 110.63 86.7789 110.669 87.0659 110.743C87.3529 110.823 87.5596 110.954 87.6801 111.136C87.8064 111.324 87.8753 111.58 87.8983 111.91H88.5584C88.6789 111.91 88.7822 111.949 88.8683 112.035C88.9545 112.12 88.9946 112.222 88.9946 112.342C88.9946 112.461 88.9545 112.564 88.8683 112.649C88.7822 112.734 88.6789 112.774 88.5584 112.774H87.8983C87.8753 113.104 87.8064 113.366 87.6801 113.565C87.5539 113.759 87.3529 113.901 87.0717 113.98C86.7904 114.06 86.3943 114.1 85.8835 114.1H84.6206V114.396C84.6206 114.97 84.4771 115.386 84.1959 115.636C83.9146 115.886 83.4554 116.017 82.8182 116.017L82.8125 116ZM82.0261 109.418H83.3406V109.008H82.0261C81.9285 109.008 81.8596 109.02 81.8194 109.048C81.7792 109.076 81.762 109.133 81.762 109.219C81.762 109.298 81.7792 109.349 81.8194 109.378C81.8596 109.406 81.9285 109.418 82.0261 109.418ZM84.6149 109.418H85.9007C85.9983 109.418 86.0672 109.406 86.1073 109.378C86.1475 109.349 86.1647 109.298 86.1647 109.219C86.1647 109.133 86.1475 109.076 86.1073 109.048C86.0672 109.02 85.9983 109.008 85.9007 109.008H84.6149V109.418ZM84.6149 111.904H86.6641C86.6354 111.722 86.5665 111.608 86.4575 111.563C86.3484 111.517 86.1533 111.494 85.8777 111.494H84.6149V111.904ZM84.6149 113.184H85.8777C86.1533 113.184 86.3484 113.155 86.4632 113.104C86.578 113.053 86.6412 112.939 86.6641 112.763H84.6149V113.184Z" fill="#333333"/>
<path d="M94.5685 115.96C94.4135 115.96 94.2757 115.903 94.1609 115.795C94.0461 115.687 93.9887 115.545 93.9887 115.369V113.707C93.696 113.941 93.3745 114.174 93.0129 114.418C92.6512 114.657 92.2839 114.885 91.905 115.084C91.5262 115.289 91.1703 115.454 90.8373 115.59C90.6824 115.659 90.5216 115.681 90.3609 115.647C90.2002 115.619 90.0796 115.522 89.9993 115.369C89.9304 115.226 89.9189 115.078 89.9648 114.919C90.0165 114.76 90.1198 114.652 90.2806 114.589C90.5618 114.475 90.8718 114.339 91.2105 114.174C91.5434 114.009 91.8821 113.832 92.215 113.639C92.5479 113.446 92.8464 113.258 93.1162 113.076H90.2117C90.0796 113.076 89.9648 113.03 89.8673 112.934C89.7697 112.837 89.7238 112.723 89.7238 112.592C89.7238 112.461 89.7697 112.348 89.8673 112.251C89.9648 112.154 90.0796 112.109 90.2117 112.109H93.9887V111.648H91.2966C91.1645 111.648 91.0497 111.602 90.9579 111.517C90.866 111.432 90.8201 111.318 90.8201 111.187C90.8201 111.056 90.866 110.942 90.9579 110.857C91.0497 110.772 91.1645 110.726 91.2966 110.726H93.9887V110.283H90.8259C90.6938 110.283 90.579 110.237 90.4872 110.14C90.3954 110.044 90.3494 109.93 90.3494 109.799C90.3494 109.668 90.3954 109.554 90.4872 109.463C90.579 109.372 90.6938 109.327 90.8259 109.327H92.3929C92.3413 109.207 92.2896 109.088 92.2322 108.968C92.1748 108.849 92.1289 108.752 92.0944 108.672H90.2059C90.0739 108.672 89.9591 108.627 89.8615 108.53C89.7639 108.434 89.718 108.32 89.718 108.189C89.718 108.058 89.7639 107.944 89.8615 107.848C89.9591 107.751 90.0739 107.705 90.2059 107.705H91.4573C91.4573 107.705 91.4286 107.671 91.4171 107.643C91.3654 107.546 91.3023 107.421 91.2277 107.273C91.1473 107.125 91.0842 107.006 91.0383 106.915C90.9694 106.772 90.9636 106.636 91.021 106.494C91.0784 106.351 91.1875 106.255 91.3367 106.186C91.4802 106.129 91.6238 106.124 91.773 106.158C91.9222 106.192 92.0313 106.283 92.1002 106.425C92.1289 106.477 92.1691 106.55 92.215 106.653C92.2609 106.755 92.3183 106.858 92.37 106.966C92.4216 107.074 92.4618 107.159 92.4905 107.222C92.5709 107.398 92.5537 107.557 92.4503 107.694H93.0129V106.59C93.0129 106.408 93.0703 106.266 93.1851 106.164C93.2999 106.061 93.4376 106.01 93.5926 106.01C93.7476 106.01 93.8911 106.061 94.0002 106.164C94.1092 106.266 94.1666 106.408 94.1666 106.59V107.694H94.8956V106.59C94.8956 106.408 94.953 106.266 95.0736 106.164C95.1884 106.061 95.3262 106.01 95.4811 106.01C95.6361 106.01 95.7796 106.061 95.8944 106.164C96.0092 106.266 96.0666 106.408 96.0666 106.59V107.694H96.6062C96.5086 107.552 96.5029 107.392 96.5947 107.21C96.6521 107.114 96.721 106.977 96.8071 106.812L96.9965 106.431C97.0769 106.3 97.186 106.209 97.3352 106.164C97.4845 106.118 97.628 106.129 97.76 106.192C97.915 106.26 98.024 106.368 98.0814 106.505C98.1388 106.647 98.1331 106.784 98.0527 106.926C98.0011 107.017 97.9322 107.136 97.8403 107.279C97.7485 107.421 97.6681 107.546 97.605 107.654C97.5993 107.66 97.5935 107.666 97.5878 107.677C97.582 107.688 97.5763 107.688 97.5706 107.7H98.9195C99.0515 107.7 99.1663 107.745 99.2639 107.842C99.3615 107.939 99.4074 108.052 99.4074 108.183C99.4074 108.314 99.3615 108.428 99.2639 108.525C99.1663 108.621 99.0515 108.667 98.9195 108.667H97.0195C96.9851 108.746 96.9391 108.843 96.8875 108.963C96.8358 109.082 96.7784 109.202 96.721 109.321H98.1962C98.3283 109.321 98.4431 109.367 98.5406 109.458C98.6382 109.549 98.6842 109.662 98.6842 109.793C98.6842 109.924 98.6382 110.038 98.5406 110.135C98.4431 110.231 98.3283 110.277 98.1962 110.277H95.154V110.721H97.7829C97.915 110.721 98.0298 110.766 98.1216 110.851C98.2135 110.937 98.2594 111.051 98.2594 111.181C98.2594 111.312 98.2135 111.426 98.1216 111.511C98.0298 111.597 97.915 111.642 97.7829 111.642H95.154V112.103H98.9195C99.0515 112.103 99.1663 112.149 99.2639 112.245C99.3615 112.342 99.4074 112.456 99.4074 112.587C99.4074 112.717 99.3615 112.831 99.2639 112.928C99.1663 113.025 99.0515 113.07 98.9195 113.07H95.9691C96.2388 113.252 96.5373 113.44 96.8645 113.628C97.1917 113.815 97.5246 113.997 97.869 114.162C98.2077 114.333 98.5234 114.47 98.8104 114.583C98.9712 114.646 99.0802 114.76 99.1261 114.913C99.1778 115.073 99.1606 115.221 99.086 115.363C99.0056 115.516 98.8908 115.607 98.7358 115.642C98.5808 115.676 98.4201 115.659 98.2594 115.596C97.9494 115.471 97.605 115.306 97.2319 115.101C96.8588 114.896 96.4914 114.674 96.1298 114.436C95.7681 114.197 95.441 113.963 95.154 113.736V115.363C95.154 115.539 95.0965 115.681 94.976 115.79C94.8612 115.898 94.7177 115.954 94.557 115.954L94.5685 115.96ZM93.696 109.327H95.4352C95.4639 109.247 95.5041 109.15 95.5558 109.037C95.6074 108.923 95.6591 108.798 95.7107 108.672H93.4089C93.4663 108.798 93.518 108.917 93.5754 109.037C93.6328 109.156 93.6672 109.247 93.696 109.327Z" fill="#333333"/>
<path d="M97.071 71.8472C95.9689 71.8472 95.4236 71.54 95.4236 70.9313C95.4236 69.6001 95.7737 68.3086 96.474 67.0514C97.1743 65.7941 98.3453 64.3889 99.9813 62.8358C100.561 62.2839 101.112 61.7207 101.629 61.1575C102.151 60.5943 102.582 60.0367 102.914 59.4963C103.247 58.9501 103.425 58.4267 103.448 57.9318C103.466 56.9703 103.247 56.2592 102.788 55.7984C102.329 55.3376 101.686 55.1043 100.842 55.1043C99.7057 55.1043 98.9767 55.6789 98.661 56.8224C98.5118 57.3231 98.3224 57.7042 98.087 57.9716C97.8517 58.239 97.4958 58.3755 97.0079 58.3755C96.52 58.3755 96.1698 58.2162 95.8885 57.9033C95.6073 57.5904 95.5326 57.1638 95.6647 56.629C95.9632 55.2636 96.5716 54.1941 97.4843 53.426C98.397 52.658 99.5163 52.2769 100.842 52.2769C101.921 52.2769 102.886 52.4987 103.735 52.9425C104.585 53.3862 105.251 54.0348 105.733 54.8824C106.215 55.7301 106.439 56.7769 106.405 58.0171C106.387 58.8875 106.181 59.6897 105.79 60.4293C105.4 61.1689 104.883 61.8857 104.24 62.5797C103.598 63.2738 102.863 64.0077 102.048 64.7814C101.192 65.612 100.429 66.4085 99.7689 67.1651C99.1088 67.9218 98.7184 68.576 98.6094 69.1335H104.424C105.526 69.1335 106.072 69.5887 106.072 70.4932C106.072 71.3978 105.521 71.8529 104.424 71.8529H97.071V71.8472Z" fill="white"/>
<path d="M112.845 72.0178C111.071 72.0178 109.556 71.4091 108.287 70.186C107.88 69.7991 107.702 69.4066 107.754 69.0083C107.811 68.6101 108.041 68.2915 108.454 68.0526C108.884 67.7966 109.263 67.7055 109.602 67.7909C109.935 67.8762 110.308 68.0753 110.721 68.3882C111.02 68.6272 111.347 68.8206 111.703 68.9685C112.059 69.1164 112.438 69.1904 112.851 69.1904C113.896 69.1904 114.682 68.8832 115.216 68.2631C115.75 67.6429 116.014 66.7782 116.014 65.6688C116.014 64.4685 115.784 63.5923 115.331 63.0462C114.871 62.5 114.234 62.227 113.413 62.227C113.132 62.227 112.868 62.2668 112.616 62.3521C112.363 62.4375 112.133 62.5399 111.932 62.6707C111.559 62.8755 111.232 63.0746 110.951 63.2681C110.67 63.4615 110.319 63.5582 109.889 63.5582C108.861 63.5582 108.351 63.0121 108.351 61.9254V54.0802C108.351 52.9879 108.907 52.4418 110.027 52.4418H116.657C117.759 52.4418 118.304 52.8969 118.304 53.8015C118.304 54.706 117.753 55.1611 116.657 55.1611H111.341V60.2642C111.657 60.0424 112.001 59.8603 112.374 59.7238C112.748 59.5872 113.121 59.5133 113.494 59.5133C114.538 59.5133 115.474 59.7465 116.306 60.2073C117.133 60.6682 117.799 61.3508 118.293 62.2611C118.786 63.1657 119.033 64.3035 119.033 65.6688C119.033 67.6828 118.465 69.2473 117.328 70.3509C116.192 71.4603 114.699 72.0122 112.851 72.0122L112.845 72.0178Z" fill="white"/>
<path d="M92.1805 58.273H91.9968C91.1989 58.273 91.1128 57.8122 91.1128 57.6131C91.1128 57.414 91.1989 57.249 91.2965 57.084C91.5605 56.6175 91.7614 56.1226 91.8361 55.8666C91.0784 55.6447 90.6134 55.053 90.6134 54.3134C90.6134 53.2667 91.3711 52.5385 92.4617 52.5385C93.2883 52.5385 94.178 53.1301 94.178 54.4329C94.178 55.6845 93.5409 57.1238 93.3457 57.5334C93.0817 58.0853 92.7889 58.273 92.1805 58.273Z" fill="white"/>
<path d="M44.5658 40.8191C44.5658 45.0802 47.2522 48.5391 50.5643 48.5391V33.099C47.2522 33.099 44.5658 36.5579 44.5658 40.8191Z" fill="white"/>
<path d="M50.5643 48.1465V63.5866C53.8764 63.5866 56.5628 60.1277 56.5628 55.8665C56.5628 51.6054 53.8764 48.1465 50.5643 48.1465Z" fill="white"/>
<path d="M54.106 40.8191C54.106 45.0802 56.7924 48.5391 60.1044 48.5391V33.099C56.7924 33.099 54.106 36.5579 54.106 40.8191Z" fill="white"/>
<path d="M63.6519 40.8191C63.6519 45.0802 66.3383 48.5391 69.6503 48.5391V33.099C66.3383 33.099 63.6519 36.5579 63.6519 40.8191Z" fill="white"/>
<path d="M69.6503 48.1465V63.5866C72.9623 63.5866 75.6487 60.1277 75.6487 55.8665C75.6487 51.6054 72.9623 48.1465 69.6503 48.1465Z" fill="white"/>
<path d="M60.1101 48.1465V63.5866C63.4222 63.5866 66.1086 60.1277 66.1086 55.8665C66.1086 51.6054 63.4222 48.1465 60.1101 48.1465Z" fill="white"/>
</g>
<defs>
<clipPath id="clip0_75_650">
<rect width="156" height="116" fill="white"/>
</clipPath>
</defs>
</svg>
