<?xml version="1.0" encoding="UTF-8"?><svg id="_レイヤー_2" xmlns="http://www.w3.org/2000/svg" viewBox="0 0 130.27 163.68"><defs><style>.cls-1{fill:#4d4d4d;}.cls-1,.cls-2{stroke-width:0px;}.cls-2{fill:#0086cd;}</style></defs><g id="_レイヤ_1"><polygon class="cls-2" points="2.57 0 87.6 0 2.57 85.03 2.57 0"/><path class="cls-1" d="m98.63,96.07c-25.77,25.77-55,38.33-65.28,28.06-1.58-1.58-2.62-3.61-3.15-6-2.39-.54-4.42-1.58-6-3.16-10.28-10.28,2.28-39.51,28.06-65.28,25.77-25.77,55-38.33,65.28-28.05,1.58,1.58,2.62,3.61,3.16,6,2.39.53,4.43,1.57,6,3.15,10.28,10.28-2.28,39.5-28.05,65.28Zm-32.07-32.07c-14.72,14.72-25.91,35.18-27.56,45.32,12.72-2.07,30.16-12.42,45.31-27.57,15.14-15.13,25.5-32.6,27.57-45.31-12.37,2.01-28.81,11.04-45.33,27.56Zm-36.18,44.12c2.67-13.59,13.95-32.19,31.03-49.28,17.08-17.08,35.68-28.36,49.27-31.03-10.72-5.44-34.39,8.13-53.28,27.02-18.89,18.89-32.46,42.56-27.02,53.28Zm59.09-21.22c-17.08,17.09-35.68,28.36-49.28,31.03,10.28,5,34.39-8.13,53.29-27.02,18.89-18.89,32.12-42.9,27.02-53.29-2.67,13.6-13.95,32.19-31.03,49.28Z"/><path class="cls-1" d="m7.65,152.4l1.46-4.08h9.09l1.15-3.2H6.48l-6.48,18.08h3.78l2.73-7.61h9.09l1.15-3.2H7.65Z"/><path class="cls-1" d="m31.63,156.88c-1.71,4.76-5.31,6.8-9.87,6.8-1.66,0-3.99-.4-4.96-2.19-.59-1.11-.44-2.57.16-4.38l4.3-11.99h3.85l-4.2,11.74c-.9,2.52.16,3.63,1.92,3.63,2.59,0,4.1-1.26,4.89-3.45l4.27-11.91h3.85l-4.21,11.76Z"/><path class="cls-1" d="m44.72,157.97c-1.37,3.83-4.03,5.69-7.66,5.69-6.02,0-4.65-3.83-3.41-7.28h3.53c-1.02,2.85-1.31,4.23.7,4.23s2.57-1.26,3.06-2.64l4.6-12.85h3.78l-4.6,12.85Z"/><path class="cls-1" d="m62.84,157.64c-.34,1.01-.52,2.92,2.78,2.92,1.79,0,3.93-.43,4.62-2.34.51-1.41-.72-1.79-2.47-2.24l-1.78-.45c-2.68-.68-5.26-1.33-3.84-5.31.72-2.01,3.08-5.57,8.95-5.57,5.54,0,5.73,3.63,4.96,5.84h-3.63c.19-.81.57-2.72-2.73-2.72-1.44,0-3.34.53-3.92,2.17-.5,1.41.55,1.71,1.24,1.89l4.02,1.08c2.25.6,4.16,1.61,2.99,4.86-1.95,5.44-7.66,5.92-9.25,5.92-6.6,0-6.37-3.8-5.57-6.05h3.63Z"/><path class="cls-1" d="m77.01,163.2h-3.98l12.93-18.08h4.36l-.11,18.08h-4.11l.18-3.73h-6.67l-2.6,3.73Zm4.72-6.85h4.61l.32-7.15h-.05l-4.88,7.15Z"/><path class="cls-1" d="m96.82,157.64c-.34,1.01-.52,2.92,2.78,2.92,1.79,0,3.93-.43,4.62-2.34.51-1.41-.72-1.79-2.47-2.24l-1.78-.45c-2.68-.68-5.26-1.33-3.84-5.31.72-2.01,3.08-5.57,8.95-5.57,5.54,0,5.73,3.63,4.96,5.84h-3.63c.19-.81.57-2.72-2.73-2.72-1.44,0-3.34.53-3.92,2.17-.51,1.41.54,1.71,1.24,1.89l4.02,1.08c2.25.6,4.16,1.61,2.99,4.86-1.95,5.44-7.66,5.92-9.25,5.92-6.6,0-6.37-3.8-5.57-6.05h3.63Z"/><path class="cls-1" d="m114.98,155.09l-2.91,8.11h-3.78l6.48-18.08h3.78l-2.45,6.85h7.05l2.45-6.85h3.78l-6.48,18.08h-3.78l2.91-8.11h-7.05Z"/><path class="cls-1" d="m50.5,163.2h-3.78l6.48-18.08h3.78l-6.48,18.08Z"/></g></svg>