<svg width="33" height="33" viewBox="0 0 33 33" fill="none" xmlns="http://www.w3.org/2000/svg">
<path d="M1.43481 33.0004C0.641846 33.0004 0 32.3573 0 31.5658V5.73982C0 4.94696 0.641846 4.30389 1.43481 4.30389H12.9131C13.7046 4.30389 14.3479 4.94696 14.3479 5.73982C14.3479 6.53138 13.7046 7.17445 12.9131 7.17445H2.86938V30.1298H25.8259V20.0874C25.8259 19.2946 26.4678 18.6528 27.2607 18.6528C28.052 18.6528 28.6953 19.2946 28.6953 20.0874V31.5658C28.6953 32.3573 28.052 33.0004 27.2607 33.0004H1.43481ZM13.3328 19.6665C12.7722 19.1073 12.7722 18.197 13.3328 17.6378L28.1025 2.86926H18.6514C17.8601 2.86926 17.217 2.22749 17.217 1.43463C17.217 0.643066 17.8601 0 18.6514 0H31.5657C32.3574 0 33.0005 0.643066 33.0005 1.43463V14.3476C33.0005 15.1418 32.3574 15.7835 31.5657 15.7835C30.7732 15.7835 30.1311 15.1418 30.1311 14.3476V4.89918L15.3611 19.6665C15.0811 19.9467 14.7156 20.0874 14.3479 20.0874C13.981 20.0874 13.6128 19.9467 13.3328 19.6665Z" fill="#7695EC"/>
</svg>
