<?xml version="1.0" encoding="UTF-8"?><svg id="_レイヤー_2" xmlns="http://www.w3.org/2000/svg" viewBox="0 0 1200 281"><defs><style>.cls-1{fill:none;stroke:#38a56e;stroke-width:2px;}.cls-2{isolation:isolate;}.cls-3{fill:#38a56e;}.cls-3,.cls-4,.cls-5{stroke-width:0px;}.cls-4{fill:#fff;}.cls-5{fill:#040000;}</style></defs><g id="_レイヤ_1"><g id="_長方形_492"><rect class="cls-4" width="220" height="281" rx="12" ry="12"/><rect class="cls-1" x="1" y="1" width="218" height="279" rx="11" ry="11"/></g><g id="_長方形_490"><rect class="cls-4" x="490" y="0" width="220" height="281" rx="12" ry="12"/><rect class="cls-1" x="491" y="1" width="218" height="279" rx="11" ry="11"/></g><g id="_長方形_491"><rect class="cls-4" x="980" y="0" width="220" height="281" rx="12" ry="12"/><rect class="cls-1" x="981" y="1" width="218" height="279" rx="11" ry="11"/></g><g id="_グループ_217"><g id="_事業者_申請者_" class="cls-2"><g class="cls-2"><path class="cls-3" d="m521.04,115.98c-.04-.43-.12-.91-.25-1.43-.13-.52-.27-.95-.43-1.3h2.29c.36,0,.62-.06.78-.17.16-.11.23-.34.23-.69v-.81h-8.42v-2.24h8.42v-1.09h-10.48v-2.03h10.48v-1.04h-8.45v-2h8.45v-1.01h-6.73v-5.07h6.73v-.94h-9.72v-2.24h9.72v-1.72h3.12v1.72h9.7v2.24h-9.7v.94h6.66v5.07h-6.66v1.01h8.06v3.04h2.37v2.03h-2.37v3.33h-8.06v1.66c0,.95-.27,1.65-.82,2.08-.55.43-1.37.65-2.48.65h-2.44Zm-1.25-15.78h3.87v-1.12h-3.87v1.12Zm6.99,0h3.8v-1.12h-3.8v1.12Zm0,6.03h5.04v-1.04h-5.04v1.04Zm0,3.12h5.04v-1.09h-5.04v1.09Z"/><path class="cls-3" d="m549.74,116.16v-5.17c-.78.69-1.66,1.35-2.64,1.98-.98.62-1.98,1.19-3.02,1.69-1.03.5-2.03.92-3,1.25-.09-.21-.22-.46-.39-.77-.17-.3-.36-.61-.57-.91-.21-.3-.41-.54-.6-.71.85-.26,1.76-.61,2.73-1.05.97-.44,1.93-.94,2.87-1.48.94-.55,1.79-1.1,2.54-1.65h-8.09v-2.37h10.17v-1.17h-7.46v-2.26h7.46v-1.14h-8.63v-2.31h4.73c-.12-.29-.24-.59-.36-.87-.12-.29-.25-.54-.39-.77h-5.51v-2.37h3.69c-.17-.45-.38-.94-.61-1.48-.23-.54-.47-.97-.71-1.3l2.63-1.07c.17.26.36.59.56,1,.2.41.39.81.56,1.2.17.39.31.71.42.97l-1.64.68h2.89v-3.82h2.83v3.82h1.79v-3.82h2.86v3.82h3.07l-2.11-.73c.17-.24.37-.56.58-.95.22-.39.42-.79.62-1.2.2-.41.34-.73.43-.97l2.86.83c-.16.29-.35.64-.57,1.04-.23.4-.45.78-.66,1.13-.22.36-.39.64-.53.84h4.21v2.37h-5.54c-.23.59-.45,1.14-.68,1.64h4.45v2.31h-8.35v1.14h7.31v2.26h-7.31v1.17h10.14v2.37h-8.11c.75.55,1.59,1.1,2.52,1.65.94.55,1.89,1.04,2.86,1.47.97.43,1.88.78,2.73,1.04-.17.17-.36.41-.57.71-.21.3-.4.61-.57.92-.17.31-.3.57-.39.78-.95-.33-1.94-.74-2.96-1.24-1.02-.49-2.02-1.05-2.99-1.68s-1.86-1.28-2.65-1.98v5.15h-2.89Zm-.65-16.09h4.13c.12-.24.24-.51.36-.79.12-.29.24-.57.36-.85h-5.56c.14.28.27.56.39.86.12.29.23.55.31.78Z"/><path class="cls-3" d="m570.72,115.9v-7.75c-1.47.66-3.08,1.32-4.81,1.98-.07-.24-.19-.55-.36-.91-.17-.36-.36-.71-.56-1.05s-.38-.6-.53-.79c2.04-.59,3.99-1.28,5.82-2.08,1.84-.8,3.54-1.71,5.12-2.73h-10.14v-2.68h9.26v-2.18h-6.55v-2.68h6.55v-2.83h3.12v2.83h3.74v2.24c1.13-1.35,2.09-2.83,2.89-4.45l2.76,1.43c-1.39,2.18-2.8,4.06-4.24,5.64h6.24v2.68h-9.02c-.54.45-1.09.88-1.65,1.3-.56.42-1.15.81-1.75,1.2h8.48v10.84h-14.35Zm3.07-6.55h8.27v-1.77h-8.27v1.77Zm0,4.06h8.27v-1.79h-8.27v1.79Zm3.85-13.52h1.25c.38-.35.75-.7,1.11-1.07.36-.36.7-.74,1.03-1.12h-3.38v2.18Z"/><path class="cls-3" d="m596.57,118.19c-1.37-1.92-2.43-3.96-3.19-6.1s-1.13-4.35-1.13-6.62.38-4.54,1.13-6.71c.75-2.17,1.82-4.17,3.19-6.01l2.37,1.22c-1.21,1.73-2.18,3.54-2.9,5.41-.72,1.87-1.08,3.9-1.08,6.08s.36,4.15,1.08,5.99c.72,1.85,1.69,3.67,2.92,5.47l-2.39,1.25Z"/><path class="cls-3" d="m611.34,116.03v-6.73h-8.35v-13.55h8.35v-3.51h3.28v3.51h8.4v13.55h-8.4v6.73h-3.28Zm-5.02-14.9h5.02v-2.5h-5.02v2.5Zm0,5.28h5.02v-2.55h-5.02v2.55Zm8.29-5.28h5.07v-2.5h-5.07v2.5Zm0,5.28h5.07v-2.55h-5.07v2.55Z"/><path class="cls-3" d="m627.07,99.18v-2.37h9.59v2.37h-9.59Zm1.01,16.15v-7.49h7.8v7.49h-7.8Zm.36-12.48v-2.39h7.07v2.39h-7.07Zm0,3.67v-2.39h7.07v2.39h-7.07Zm.03-10.97v-2.44h7.05v2.44h-7.05Zm2.21,17.39h2.6v-2.7h-2.6v2.7Zm5.54-10.56v-2.16h5.64v-1.12h-4.16v-2h4.16v-1.01h-5.07v-2.16h5.07v-1.79h2.91v1.79h5.3v2.16h-5.3v1.01h4.63v2h-4.63v1.12h6.01v2.16h-14.56Zm8.09,13.49c-.04-.4-.09-.87-.17-1.4s-.18-.98-.3-1.33h1.69c.35,0,.56-.05.65-.16.09-.1.13-.32.13-.65v-.91h-5.64v4.39h-2.76v-12.43h11.21v9.93c0,.9-.24,1.55-.73,1.95-.49.4-1.24.6-2.26.6h-1.82Zm-3.64-9.28h5.64v-1.07h-5.64v1.07Zm0,2.96h5.64v-1.09h-5.64v1.09Z"/><path class="cls-3" d="m658.55,115.9v-7.75c-1.47.66-3.08,1.32-4.81,1.98-.07-.24-.19-.55-.36-.91-.17-.36-.36-.71-.56-1.05s-.38-.6-.53-.79c2.04-.59,3.99-1.28,5.82-2.08,1.84-.8,3.54-1.71,5.12-2.73h-10.14v-2.68h9.26v-2.18h-6.55v-2.68h6.55v-2.83h3.12v2.83h3.74v2.24c1.13-1.35,2.09-2.83,2.89-4.45l2.76,1.43c-1.39,2.18-2.8,4.06-4.24,5.64h6.24v2.68h-9.02c-.54.45-1.09.88-1.65,1.3s-1.15.81-1.75,1.2h8.48v10.84h-14.35Zm3.07-6.55h8.27v-1.77h-8.27v1.77Zm0,4.06h8.27v-1.79h-8.27v1.79Zm3.85-13.52h1.25c.38-.35.75-.7,1.1-1.07.36-.36.7-.74,1.03-1.12h-3.38v2.18Z"/><path class="cls-3" d="m681.43,118.19l-2.39-1.25c1.23-1.8,2.21-3.63,2.92-5.47.72-1.85,1.08-3.84,1.08-5.99s-.36-4.21-1.08-6.08c-.72-1.87-1.69-3.67-2.9-5.41l2.37-1.22c1.35,1.84,2.41,3.84,3.17,6.01.76,2.17,1.14,4.4,1.14,6.71s-.38,4.48-1.13,6.62c-.75,2.14-1.82,4.17-3.19,6.1Z"/></g></g><g id="_工事施工業者_住宅販売事業者" class="cls-2"><g class="cls-2"><path class="cls-3" d="m547.01,151.75v-1.6h7.11v-9.47h-6.08v-1.6h13.93v1.6h-6.07v9.47h7.11v1.6h-16Z"/><path class="cls-3" d="m570.16,153.35c-.02-.23-.07-.48-.14-.76s-.15-.52-.23-.71h1.73c.25,0,.43-.04.54-.13.11-.08.16-.25.16-.49v-1.04h-6.07v-1.22h6.07v-1.04h-7.47v-1.13h7.47v-.99h-6.08v-1.13h6.08v-.95h-4.73v-3.26h4.73v-.86h-6.95v-1.22h6.95v-1.4h1.66v1.4h6.95v1.22h-6.95v.86h4.7v3.26h-4.7v.95h5.51v2.12h1.93v1.13h-1.93v2.27h-5.51v1.44c0,.59-.16,1.02-.49,1.29-.32.27-.82.4-1.49.4h-1.73Zm-1.15-10.73h3.2v-1.03h-3.2v1.03Zm4.86,0h3.17v-1.03h-3.17v1.03Zm0,4.19h3.91v-.99h-3.91v.99Zm0,2.18h3.91v-1.04h-3.91v1.04Z"/><path class="cls-3" d="m585.53,153.28c-.02-.2-.07-.46-.13-.77-.07-.31-.13-.55-.19-.7h.95c.31,0,.55-.08.72-.25s.31-.5.41-1.01c.06-.28.12-.64.18-1.08.06-.44.11-.92.16-1.43s.08-1,.11-1.49c.02-.48.04-.89.04-1.24h-1.44c-.1,1.01-.25,2.01-.48,3-.22.99-.51,1.91-.85,2.75-.35.85-.76,1.56-1.22,2.15-.1-.1-.23-.2-.41-.31-.18-.11-.36-.21-.54-.3-.18-.09-.33-.15-.45-.17.82-.96,1.43-2.24,1.84-3.83.41-1.6.62-3.43.62-5.49v-1.55h-2v-1.44h2.81v-3.15h1.58v3.15h2.5v1.44h-3.29v1.91c0,.12,0,.25-.02.38h2.84c0,.58,0,1.21-.03,1.89-.02.68-.05,1.37-.09,2.05-.04.68-.09,1.31-.15,1.89-.06.58-.13,1.04-.22,1.4-.19.78-.47,1.34-.85,1.68-.37.34-.91.51-1.62.51h-.79Zm7-.27c-.59,0-1.01-.1-1.27-.3s-.39-.53-.39-1v-5.15l-1.13.32-.45-1.4,1.58-.47v-2.39c-.25.38-.51.73-.77,1.04-.16-.13-.38-.28-.66-.45-.28-.17-.51-.29-.67-.36.35-.34.68-.76,1.01-1.27.32-.51.62-1.05.9-1.62.28-.57.51-1.12.7-1.67.19-.54.32-1.01.4-1.4l1.53.36c-.1.37-.2.74-.32,1.12s-.25.74-.4,1.1h6.37v1.39h-7.02c-.16.3-.32.6-.5.89s-.36.58-.55.85h1.46v1.98l1.31-.38v-2.63h1.42v2.21l2.41-.7.58.25v4.75c0,.5-.15.89-.46,1.14-.31.26-.81.43-1.52.51-.08-.24-.19-.47-.32-.69-.13-.22-.25-.38-.34-.46-.01-.04,0-.1.02-.18v-.14h.58c.22,0,.37-.04.46-.13s.14-.22.14-.41v-2.86l-1.53.45v4.88h-1.42v-4.46l-1.31.4v4.88c0,.18.05.32.14.41.1.09.28.13.54.13h3.35c.34,0,.6-.03.8-.08.2-.05.35-.22.46-.5.11-.28.19-.75.23-1.41.17.1.41.2.73.3.32.1.58.18.78.24-.08.7-.2,1.24-.34,1.64-.14.4-.32.68-.53.86-.21.18-.46.29-.75.34s-.62.07-.99.07h-4.25Z"/><path class="cls-3" d="m601.01,151.75v-1.6h7.11v-9.47h-6.08v-1.6h13.93v1.6h-6.07v9.47h7.11v1.6h-16Z"/><path class="cls-3" d="m626.23,153.43v-3.91c-.54.5-1.16.99-1.87,1.45s-1.44.88-2.21,1.25c-.76.37-1.51.68-2.24.92-.04-.1-.11-.23-.22-.4-.11-.17-.22-.34-.34-.51s-.22-.3-.31-.39c.67-.19,1.38-.46,2.12-.8s1.47-.73,2.17-1.15c.7-.43,1.31-.84,1.83-1.25h-6.07v-1.3h7.13v-1.12h-5.36v-1.24h5.36v-1.06h-6.12v-1.28h3.58c-.11-.24-.22-.49-.34-.74s-.24-.47-.36-.67h-3.91v-1.3h3.02c-.16-.31-.34-.69-.56-1.13-.22-.44-.43-.8-.63-1.06l1.4-.67c.14.23.3.5.47.81.17.31.33.62.48.91s.26.53.33.71l-1.01.43h2.03v-2.95h1.53v2.95h1.62v-2.95h1.53v2.95h2.07l-1.19-.47c.16-.2.32-.45.5-.74.18-.29.35-.58.5-.87.16-.29.28-.55.36-.77l1.53.49c-.12.23-.27.49-.45.78s-.36.58-.54.86c-.18.28-.34.52-.49.71h3.29v1.3h-3.92c-.08.23-.19.46-.31.71s-.23.48-.34.69h3.44v1.28h-5.99v1.06h5.31v1.24h-5.31v1.12h7.13v1.3h-6.1c.53.41,1.14.82,1.83,1.23.69.41,1.41.79,2.15,1.14.74.35,1.45.62,2.11.81-.08.08-.18.21-.3.39-.11.17-.22.35-.32.52s-.17.31-.22.41c-.72-.24-1.46-.55-2.22-.92-.76-.37-1.49-.79-2.19-1.25s-1.32-.94-1.87-1.43v3.89h-1.55Zm-.81-10.78h3.17c.11-.2.22-.43.34-.68s.23-.49.32-.72h-4.46c.12.24.24.49.35.74s.21.47.28.67Z"/><path class="cls-3" d="m640.79,153.3v-5.76c-.59.26-1.19.53-1.82.79s-1.27.53-1.93.79c-.04-.12-.11-.28-.21-.48-.1-.2-.21-.4-.32-.59s-.21-.34-.28-.42c1.48-.44,2.88-.97,4.2-1.57,1.33-.6,2.55-1.28,3.68-2.05h-7.31v-1.44h6.59v-1.98h-4.59v-1.44h4.59v-2.21h1.66v2.21h2.83v1.44h-2.83v1.98h.99c1.75-1.46,3.14-3.16,4.18-5.09l1.46.77c-.54.84-1.1,1.62-1.67,2.34s-1.16,1.38-1.76,1.98h4.91v1.44h-6.53c-.88.72-1.82,1.38-2.84,1.98h6.35v7.31h-9.34Zm1.62-4.3h6.1v-1.62h-6.1v1.62Zm0,2.93h6.1v-1.67h-6.1v1.67Z"/></g><g class="cls-2"><path class="cls-3" d="m600,164.91c-.48,0-.89-.17-1.23-.51-.34-.34-.51-.75-.51-1.23s.17-.91.51-1.24.75-.5,1.23-.5.91.17,1.24.5c.33.34.5.75.5,1.24s-.17.89-.5,1.23c-.34.34-.75.51-1.24.51Z"/></g><g class="cls-2"><path class="cls-3" d="m540.08,189.35v-9.77c-.24.38-.49.75-.75,1.11-.26.35-.53.69-.8,1-.17-.17-.38-.34-.62-.5-.25-.17-.47-.31-.68-.43.46-.47.9-1.04,1.34-1.71.44-.67.85-1.38,1.22-2.12s.71-1.46,1-2.16c.29-.7.5-1.31.65-1.85l1.6.43c-.19.58-.4,1.16-.64,1.75-.23.59-.49,1.16-.77,1.73v12.55h-1.57Zm2.36-.72v-1.53h4.91v-3.92h-3.82v-1.58h3.82v-3.38h-4.55v-1.51h5.53c-.23-.29-.51-.6-.84-.94s-.67-.66-1.03-.98c-.35-.32-.68-.59-.98-.82l1.17-1.13c.32.23.67.51,1.04.85s.73.68,1.09,1.03c.35.35.66.67.91.95-.13.11-.32.27-.56.49s-.43.4-.58.56h5v1.51h-4.5v3.38h3.76v1.58h-3.76v3.92h4.95v1.53h-11.57Z"/><path class="cls-3" d="m564.5,189.01c-.66,0-1.12-.11-1.39-.31-.26-.21-.4-.56-.4-1.04v-3.73l-6.8.5-.13-1.53,6.93-.52v-2.09c-.7.12-1.38.22-2.04.3s-1.3.14-1.9.19c-.02-.13-.07-.3-.13-.5-.06-.2-.12-.4-.19-.59-.07-.19-.12-.33-.17-.41.7-.04,1.48-.1,2.36-.21.88-.1,1.77-.23,2.68-.4.91-.16,1.77-.35,2.57-.56.8-.21,1.48-.43,2.02-.66l1.01,1.35c-.64.23-1.34.44-2.12.64-.77.2-1.57.38-2.38.55v2.27l7.56-.56.13,1.53-7.69.58v3.08c0,.18.04.31.13.4.09.08.27.13.55.13h3.56c.37,0,.66-.06.87-.17s.37-.34.48-.67c.11-.33.19-.82.23-1.47.18.11.45.22.8.33.35.11.65.2.87.26-.11.92-.26,1.63-.47,2.11-.2.48-.48.8-.84.96-.35.16-.82.24-1.4.24h-4.73Zm-8.23-10.08v-3.83h6.77v-2.18h1.84v2.18h6.82v3.82h-1.67v-2.38h-12.04v2.39h-1.71Z"/><path class="cls-3" d="m574.91,189.21c-.08-.06-.21-.14-.38-.25-.17-.11-.33-.21-.49-.32-.16-.1-.29-.17-.39-.21.25-.24.51-.54.77-.9.26-.36.52-.73.76-1.12s.43-.74.56-1.08l1.31.59c-.16.36-.36.74-.6,1.15s-.5.8-.77,1.17c-.27.37-.53.69-.76.95Zm8.19.14c-.11-.16-.27-.35-.5-.58-.22-.23-.4-.39-.55-.48.7-.42,1.32-.9,1.88-1.45.56-.55,1.05-1.15,1.49-1.81-.88-1.62-1.44-3.56-1.69-5.81h-.45v.58c0,1.49-.09,2.8-.26,3.92s-.45,2.14-.84,3.04c-.38.9-.9,1.76-1.55,2.57-.14-.12-.34-.25-.6-.41-.26-.15-.48-.27-.66-.35.06-.07.12-.14.18-.22.06-.07.11-.14.16-.22-.35-.31-.7-.67-1.06-1.06-.36-.4-.68-.79-.95-1.17l1.13-.83h-4.03v-11.5h5.33v11.5h-1.28c.2.31.45.63.75.95.29.32.59.62.89.89.46-.86.79-1.87,1-3.01s.32-2.51.32-4.12v-6.17h8.08v1.42h-6.61v2.79h5.38l.5.38c-.16,1.31-.4,2.54-.73,3.69-.33,1.15-.78,2.23-1.34,3.22.41.59.87,1.13,1.38,1.64s1.08.95,1.7,1.35c-.17.13-.36.32-.58.57-.22.25-.39.45-.5.6-.55-.41-1.07-.85-1.54-1.33-.47-.48-.91-1-1.3-1.55-.41.55-.87,1.07-1.4,1.57-.52.49-1.11.95-1.75,1.39Zm-6.89-12.38h2.54v-2.02h-2.54v2.02Zm0,3.31h2.54v-2.03h-2.54v2.03Zm0,3.42h2.54v-2.14h-2.54v2.14Zm10.03-.13c.65-1.34,1.07-2.8,1.26-4.36h-2.45c.2,1.63.6,3.08,1.19,4.36Z"/><path class="cls-3" d="m592.6,189.37c-.07-.2-.18-.45-.32-.74-.14-.29-.29-.53-.45-.72,1.2-.17,2.19-.46,2.96-.86.77-.41,1.35-1,1.74-1.77.38-.77.58-1.78.59-3.02l1.66.2c-.1,2.03-.63,3.59-1.61,4.7-.98,1.1-2.5,1.84-4.56,2.21Zm1.15-10.39v-1.35h5.31v-1.55h-7.04v-1.39h7.04v-1.67h1.73v1.67h7.09v1.39h-7.09v1.55h5.36v1.35h-12.4Zm-1.3,4.63v-3.46h15.01v3.42h-1.69v-2.05h-11.59v2.09h-1.73Zm10.01,5.31c-.66,0-1.12-.11-1.39-.32-.26-.21-.4-.55-.4-1.03v-5.35h1.67v4.59c0,.19.05.33.14.41.1.08.28.13.56.13h2.07c.34,0,.6-.05.8-.16.2-.11.35-.32.45-.64.1-.32.18-.78.22-1.38.18.11.43.22.75.33.32.11.59.2.82.26-.11.9-.26,1.58-.47,2.03-.2.45-.48.75-.82.9-.34.15-.79.22-1.34.22h-3.08Z"/><path class="cls-3" d="m615.16,189.35c-.02-.23-.07-.48-.14-.76s-.15-.52-.23-.71h1.73c.25,0,.43-.04.54-.13.11-.08.16-.25.16-.49v-1.04h-6.07v-1.22h6.07v-1.04h-7.47v-1.13h7.47v-.99h-6.08v-1.13h6.08v-.95h-4.73v-3.26h4.73v-.86h-6.95v-1.22h6.95v-1.4h1.66v1.4h6.95v1.22h-6.95v.86h4.7v3.26h-4.7v.95h5.51v2.12h1.93v1.13h-1.93v2.27h-5.51v1.44c0,.59-.16,1.02-.49,1.29-.32.27-.82.4-1.49.4h-1.73Zm-1.15-10.73h3.2v-1.03h-3.2v1.03Zm4.86,0h3.17v-1.03h-3.17v1.03Zm0,4.19h3.91v-.99h-3.91v.99Zm0,2.18h3.91v-1.04h-3.91v1.04Z"/><path class="cls-3" d="m635.23,189.43v-3.91c-.54.5-1.16.99-1.87,1.45s-1.44.88-2.21,1.25c-.76.37-1.51.68-2.24.92-.04-.1-.11-.23-.22-.4-.11-.17-.22-.34-.34-.51s-.22-.3-.31-.39c.67-.19,1.38-.46,2.12-.8s1.47-.73,2.17-1.15c.7-.43,1.31-.84,1.83-1.25h-6.07v-1.3h7.13v-1.12h-5.36v-1.24h5.36v-1.06h-6.12v-1.28h3.58c-.11-.24-.22-.49-.34-.74s-.24-.47-.36-.67h-3.91v-1.3h3.02c-.16-.31-.34-.69-.56-1.13-.22-.44-.43-.8-.63-1.06l1.4-.67c.14.23.3.5.47.81.17.31.33.62.48.91s.26.53.33.71l-1.01.43h2.03v-2.95h1.53v2.95h1.62v-2.95h1.53v2.95h2.07l-1.19-.47c.16-.2.32-.45.5-.74.18-.29.35-.58.5-.87.16-.29.28-.55.36-.77l1.53.49c-.12.23-.27.49-.45.78s-.36.58-.54.86c-.18.28-.34.52-.49.71h3.29v1.3h-3.92c-.08.23-.19.46-.31.71s-.23.48-.34.69h3.44v1.28h-5.99v1.06h5.31v1.24h-5.31v1.12h7.13v1.3h-6.1c.53.41,1.14.82,1.83,1.23.69.41,1.41.79,2.15,1.14.74.35,1.45.62,2.11.81-.08.08-.18.21-.3.39-.11.17-.22.35-.32.52s-.17.31-.22.41c-.72-.24-1.46-.55-2.22-.92-.76-.37-1.49-.79-2.19-1.25s-1.32-.94-1.87-1.43v3.89h-1.55Zm-.81-10.78h3.17c.11-.2.22-.43.34-.68s.23-.49.32-.72h-4.46c.12.24.24.49.35.74s.21.47.28.67Z"/><path class="cls-3" d="m649.79,189.3v-5.76c-.59.26-1.19.53-1.82.79s-1.27.53-1.93.79c-.04-.12-.11-.28-.21-.48-.1-.2-.21-.4-.32-.59s-.21-.34-.28-.42c1.48-.44,2.88-.97,4.2-1.57,1.33-.6,2.55-1.28,3.68-2.05h-7.31v-1.44h6.59v-1.98h-4.59v-1.44h4.59v-2.21h1.66v2.21h2.83v1.44h-2.83v1.98h.99c1.75-1.46,3.14-3.16,4.18-5.09l1.46.77c-.54.84-1.1,1.62-1.67,2.34s-1.16,1.38-1.76,1.98h4.91v1.44h-6.53c-.88.72-1.82,1.38-2.84,1.98h6.35v7.31h-9.34Zm1.62-4.3h6.1v-1.62h-6.1v1.62Zm0,2.93h6.1v-1.67h-6.1v1.67Z"/></g></g></g><g id="_グループ_218"><g id="_住宅取得者_住宅所有者等" class="cls-2"><g class="cls-2"><path class="cls-3" d="m49.19,127.98v-12.92c-.49.75-1,1.44-1.53,2.08-.33-.29-.73-.59-1.2-.9-.47-.3-.9-.57-1.3-.79.66-.69,1.3-1.53,1.91-2.51.62-.98,1.18-2.01,1.7-3.08.52-1.07.97-2.11,1.35-3.12.38-1.01.66-1.87.83-2.6l2.99.73c-.5,1.72-1.12,3.37-1.85,4.97v18.15h-2.91Zm3.87-.88v-2.86h6.66v-4.94h-5.28v-2.94h5.28v-4.16h-6.24v-2.81h7.2c-.52-.55-1.12-1.14-1.79-1.77-.68-.62-1.29-1.13-1.85-1.53l2.18-2.13c.47.29.98.68,1.55,1.16.56.48,1.11.96,1.64,1.46.53.49.97.94,1.34,1.34-.23.17-.49.4-.78.68s-.58.55-.86.81h6.99v2.81h-6.16v4.16h5.17v2.94h-5.17v4.94h6.73v2.86h-16.61Z"/><path class="cls-3" d="m84.7,127.69c-1.08,0-1.83-.17-2.26-.49-.43-.33-.65-.87-.65-1.61v-5.04l-9.46.68-.26-2.83,9.72-.7v-2.29c-.88.12-1.75.23-2.6.34-.85.1-1.67.18-2.47.23-.05-.26-.13-.57-.25-.94-.11-.36-.23-.72-.35-1.07-.12-.35-.23-.62-.34-.81.99-.04,2.11-.12,3.35-.26s2.51-.32,3.8-.55c1.28-.22,2.49-.48,3.61-.78,1.13-.29,2.07-.62,2.83-.96l1.9,2.47c-.9.35-1.88.66-2.95.95s-2.16.55-3.29.79v2.6l10.56-.75.26,2.83-10.82.81v3.67c0,.26.06.45.19.56.13.11.39.17.77.17h4.37c.48,0,.86-.08,1.13-.23.27-.16.47-.46.61-.91.14-.45.24-1.1.31-1.95.23.12.53.25.92.39.39.14.8.27,1.22.39.42.12.78.22,1.05.29-.19,1.37-.44,2.42-.74,3.15-.3.73-.72,1.22-1.25,1.48s-1.23.39-2.12.39h-6.81Zm-12.06-14.92v-5.72h9.54v-2.89h3.51v2.89h9.65v5.69h-3.15v-3.02h-16.35v3.04h-3.2Z"/><path class="cls-3" d="m106.13,128v-5.17c-.5.19-1.09.4-1.75.62-.67.23-1.36.45-2.08.68-.72.23-1.4.43-2.04.62-.64.19-1.19.35-1.64.47l-.88-2.86c.23-.04.53-.1.91-.2.38-.09.81-.2,1.3-.33v-14.07h-1.82v-2.73h12.71v1.82h9.93c-.23,5.03-1.37,9.33-3.43,12.9.71.95,1.5,1.82,2.38,2.6.88.78,1.82,1.47,2.85,2.08-.36.31-.75.71-1.17,1.21-.42.49-.74.93-.96,1.31-.92-.66-1.79-1.37-2.6-2.13-.81-.76-1.57-1.59-2.26-2.47-1.35,1.73-2.97,3.28-4.86,4.63-.12-.19-.33-.46-.61-.82-.29-.36-.58-.68-.87-.97v2.81h-3.09Zm-3.09-17.68h3.09v-2.55h-3.09v2.55Zm0,5.12h3.09v-2.55h-3.09v2.55Zm0,5.62c.61-.16,1.18-.31,1.72-.45.54-.15,1-.28,1.38-.4v-2.18h-3.09v3.04Zm6.19,3.35c.94-.64,1.79-1.34,2.57-2.11.78-.76,1.47-1.57,2.08-2.42-.78-1.33-1.43-2.75-1.96-4.25-.53-1.5-.91-3.08-1.16-4.75l2.78-.49c.29,2.34.98,4.54,2.05,6.6.55-1.18.99-2.39,1.31-3.63s.52-2.47.61-3.71h-7.1v-1.9h-1.2v16.64Z"/><path class="cls-3" d="m127.45,127.9v-9.93c-.31.31-.62.61-.94.88-.31.28-.63.55-.96.81-.12-.21-.31-.45-.57-.71-.26-.27-.53-.53-.82-.78-.29-.25-.55-.45-.79-.58.54-.38,1.12-.87,1.76-1.47.63-.6,1.26-1.26,1.88-1.98.62-.72,1.19-1.44,1.7-2.17.51-.73.92-1.4,1.23-2.03l2.57,1.38c-.29.54-.62,1.08-.98,1.64-.36.55-.73,1.1-1.13,1.64v13.31h-2.96Zm-1.43-16.12c-.16-.23-.36-.48-.61-.77s-.51-.57-.78-.84c-.27-.28-.52-.49-.74-.62.76-.42,1.53-.92,2.29-1.52.76-.6,1.47-1.24,2.12-1.91.65-.68,1.17-1.32,1.57-1.92l2.31,1.64c-.54.76-1.15,1.52-1.85,2.26-.69.75-1.41,1.43-2.15,2.07-.74.63-1.46,1.17-2.17,1.62Zm13.05,16.17c-.03-.43-.1-.92-.21-1.47-.1-.55-.23-1.03-.36-1.44h1.82c.36,0,.61-.04.73-.13.12-.09.18-.3.18-.65v-3.28h-9.41v-2.42h9.41v-1.3h-9.05v-2.39h15.44v2.39h-3.3v1.3h3.69v2.42h-3.69v4.19c0,.97-.26,1.68-.79,2.12-.53.44-1.36.66-2.48.66h-1.98Zm-2.5-1.85c-.24-.35-.58-.74-1-1.17-.42-.43-.85-.85-1.29-1.25-.43-.4-.81-.69-1.12-.88l1.92-1.79c.52.36,1.1.84,1.76,1.44.65.6,1.21,1.16,1.68,1.68-.33.26-.69.58-1.07.96-.38.38-.68.72-.88,1.01Zm-3.17-12.3v-8.84h12.87v8.84h-12.87Zm3.15-5.43h6.6v-1.27h-6.6v1.27Zm0,3.3h6.6v-1.27h-6.6v1.27Z"/><path class="cls-3" d="m155.55,127.9v-7.75c-1.47.66-3.08,1.32-4.81,1.98-.07-.24-.19-.55-.36-.91s-.36-.71-.56-1.05-.38-.6-.53-.79c2.04-.59,3.99-1.28,5.82-2.08,1.84-.8,3.54-1.71,5.12-2.73h-10.14v-2.68h9.26v-2.18h-6.55v-2.68h6.55v-2.83h3.12v2.83h3.74v2.24c1.13-1.35,2.09-2.83,2.89-4.45l2.76,1.43c-1.39,2.18-2.8,4.06-4.24,5.64h6.24v2.68h-9.02c-.54.45-1.09.88-1.65,1.3-.56.42-1.15.81-1.75,1.2h8.48v10.84h-14.35Zm3.07-6.55h8.27v-1.77h-8.27v1.77Zm0,4.06h8.27v-1.79h-8.27v1.79Zm3.85-13.52h1.25c.38-.35.75-.7,1.1-1.07.36-.36.7-.74,1.03-1.12h-3.38v2.18Z"/></g><g class="cls-2"><path class="cls-3" d="m110,144.98c-.8,0-1.47-.28-2.03-.83-.56-.55-.83-1.23-.83-2.03s.28-1.47.83-2.03c.55-.55,1.23-.83,2.03-.83s1.47.28,2.03.83.83,1.23.83,2.03-.28,1.47-.83,2.03-1.23.83-2.03.83Z"/></g><g class="cls-2"><path class="cls-3" d="m36.19,179.98v-12.92c-.49.75-1,1.44-1.53,2.08-.33-.29-.73-.59-1.2-.9-.47-.3-.9-.57-1.3-.79.66-.69,1.3-1.53,1.91-2.51.62-.98,1.18-2.01,1.7-3.08.52-1.07.97-2.11,1.35-3.12.38-1.01.66-1.87.83-2.6l2.99.73c-.5,1.72-1.12,3.37-1.85,4.97v18.15h-2.91Zm3.87-.88v-2.86h6.66v-4.94h-5.28v-2.94h5.28v-4.16h-6.24v-2.81h7.2c-.52-.55-1.12-1.14-1.79-1.77-.68-.62-1.29-1.13-1.85-1.53l2.18-2.13c.47.29.98.68,1.55,1.16.56.48,1.11.96,1.64,1.46.53.49.97.94,1.34,1.34-.23.17-.49.4-.78.68s-.58.55-.86.81h6.99v2.81h-6.16v4.16h5.17v2.94h-5.17v4.94h6.73v2.86h-16.61Z"/><path class="cls-3" d="m71.7,179.69c-1.08,0-1.83-.17-2.26-.49-.43-.33-.65-.87-.65-1.61v-5.04l-9.46.68-.26-2.83,9.72-.7v-2.29c-.88.12-1.75.23-2.6.34-.85.1-1.67.18-2.47.23-.05-.26-.13-.57-.25-.94-.11-.36-.23-.72-.35-1.07-.12-.35-.23-.62-.34-.81.99-.04,2.11-.12,3.35-.26s2.51-.32,3.8-.55c1.28-.22,2.49-.48,3.61-.78,1.13-.29,2.07-.62,2.83-.96l1.9,2.47c-.9.35-1.88.66-2.95.95s-2.16.55-3.29.79v2.6l10.56-.75.26,2.83-10.82.81v3.67c0,.26.06.45.19.56.13.11.39.17.77.17h4.37c.48,0,.86-.08,1.13-.23.27-.16.47-.46.61-.91.14-.45.24-1.1.31-1.95.23.12.53.25.92.39.39.14.8.27,1.22.39.42.12.78.22,1.05.29-.19,1.37-.44,2.42-.74,3.15-.3.73-.72,1.22-1.25,1.48s-1.23.39-2.12.39h-6.81Zm-12.06-14.92v-5.72h9.54v-2.89h3.51v2.89h9.65v5.69h-3.15v-3.02h-16.35v3.04h-3.2Z"/><path class="cls-3" d="m86.96,180.05c-.35-.23-.8-.46-1.36-.71-.56-.25-1.04-.43-1.44-.53.87-1.13,1.51-2.53,1.92-4.21.42-1.68.62-3.44.62-5.28v-7.46h9.39v8.87h-6.45c-.09,1.99-.36,3.75-.82,5.28-.46,1.53-1.08,2.88-1.86,4.06Zm-1.38-19.99v-2.65h11.05v2.65h-11.05Zm4.08,7.98h3.48v-3.46h-3.48v3.46Zm13.39,11.86v-12.9h-2.29c-.05,1.99-.36,3.78-.91,5.37s-1.28,2.98-2.17,4.17c-.89,1.2-1.88,2.22-2.98,3.07-.16-.19-.38-.42-.68-.69-.29-.27-.61-.53-.94-.79-.33-.26-.62-.46-.88-.6,1.04-.73,1.97-1.58,2.8-2.56.82-.98,1.47-2.17,1.94-3.57.47-1.4.7-3.11.7-5.12v-8.37c1.06-.05,2.17-.17,3.34-.35,1.17-.18,2.3-.41,3.39-.68,1.09-.27,2.02-.57,2.78-.9l1.61,2.57c-.71.28-1.53.54-2.47.79-.94.25-1.89.47-2.85.65s-1.85.32-2.67.4v3.74h8.03v2.86h-2.76v12.9h-3.02Z"/><path class="cls-3" d="m117.12,179.87v-11.23c-1.39,1.39-2.94,2.55-4.65,3.48-.21-.4-.49-.81-.86-1.25-.36-.43-.73-.78-1.09-1.04,1.8-1,3.37-2.18,4.71-3.52,1.33-1.34,2.42-2.86,3.25-4.54h-7.2v-2.78h8.29c.14-.5.26-1,.35-1.51s.18-1.02.25-1.56l3.35.42c-.09.45-.18.9-.29,1.34-.1.44-.23.88-.36,1.31h11.88v2.78h-12.92c-.17.35-.34.69-.51,1.03-.17.34-.34.68-.53,1.03h10.11v13.26c0,1.85-1.12,2.78-3.35,2.78h-2.29c-.04-.43-.12-.96-.26-1.57s-.29-1.1-.44-1.44h2.13c.36,0,.62-.06.78-.18.16-.12.23-.35.23-.7v-1.53h-7.38v5.43h-3.2Zm3.2-11.8h7.38v-1.56h-7.38v1.56Zm0,3.98h7.38v-1.56h-7.38v1.56Z"/><path class="cls-3" d="m142.55,179.9v-7.75c-1.47.66-3.08,1.32-4.81,1.98-.07-.24-.19-.55-.36-.91s-.36-.71-.56-1.05-.38-.6-.53-.79c2.04-.59,3.99-1.28,5.82-2.08,1.84-.8,3.54-1.71,5.12-2.73h-10.14v-2.68h9.26v-2.18h-6.55v-2.68h6.55v-2.83h3.12v2.83h3.74v2.24c1.13-1.35,2.09-2.83,2.89-4.45l2.76,1.43c-1.39,2.18-2.8,4.06-4.24,5.64h6.24v2.68h-9.02c-.54.45-1.09.88-1.65,1.3-.56.42-1.15.81-1.75,1.2h8.48v10.84h-14.35Zm3.07-6.55h8.27v-1.77h-8.27v1.77Zm0,4.06h8.27v-1.79h-8.27v1.79Zm3.85-13.52h1.25c.38-.35.75-.7,1.1-1.07.36-.36.7-.74,1.03-1.12h-3.38v2.18Z"/><path class="cls-3" d="m165.17,163.34c-.16-.12-.4-.27-.74-.44-.34-.17-.69-.34-1.04-.51-.36-.16-.64-.27-.85-.33.54-.5,1.06-1.1,1.57-1.81.51-.7.97-1.43,1.38-2.18.41-.75.71-1.44.92-2.07l2.91.57c-.09.26-.19.52-.31.79-.12.27-.25.54-.39.82h6.01v2.39h-3.17c.14.33.27.66.4.99.13.33.24.62.32.86-.23.04-.53.1-.91.2-.38.1-.75.19-1.12.29-.36.1-.65.18-.86.25-.07-.33-.19-.74-.35-1.22-.17-.48-.33-.94-.51-1.35h-1.17c-.73,1.14-1.43,2.06-2.11,2.76Zm10.74,16.72c-.04-.43-.11-.94-.23-1.51s-.24-1.07-.36-1.51h2.11c.36,0,.61-.04.74-.13.13-.09.19-.31.19-.68v-2.47h-7.38c.5.45,1.03.97,1.59,1.56.55.59,1.01,1.12,1.38,1.59-.38.23-.82.55-1.33.96-.5.42-.9.78-1.2,1.09-.26-.38-.59-.81-1-1.29-.41-.48-.83-.94-1.27-1.4-.44-.46-.85-.84-1.24-1.13l1.82-1.38h-5.64v-2.55h14.27v-1.46h-15.16v-2.42h10.24v-1.35h-7.31v-2.37h7.31v-1.59h.26c.47-.55.91-1.2,1.31-1.94.41-.74.77-1.48,1.08-2.22s.54-1.4.68-1.95l3.02.55c-.09.28-.19.56-.3.86s-.23.58-.35.86h7.23v2.39h-4.21c.14.33.27.66.4.99.13.33.23.62.3.86-.28.04-.62.1-1.03.2-.41.1-.79.19-1.16.27-.36.09-.65.17-.86.23-.07-.35-.18-.76-.34-1.25-.16-.49-.31-.92-.47-1.3h-.99c-.24.43-.49.85-.74,1.25-.25.4-.51.77-.77,1.12v.68h7.59v2.37h-7.59v1.35h10.27v2.42h-5.3v1.46h4.47v2.55h-4.47v3.54c0,.95-.28,1.65-.83,2.09-.56.44-1.4.66-2.52.66h-2.21Z"/></g></g></g><g id="_事務局" class="cls-2"><g class="cls-2"><path class="cls-3" d="m1059.87,151.98c-.04-.43-.12-.91-.25-1.43-.13-.52-.27-.95-.43-1.3h2.29c.36,0,.62-.06.78-.17.16-.11.23-.34.23-.69v-.81h-8.42v-2.24h8.42v-1.09h-10.48v-2.03h10.48v-1.04h-8.45v-2h8.45v-1.01h-6.73v-5.07h6.73v-.94h-9.72v-2.24h9.72v-1.72h3.12v1.72h9.7v2.24h-9.7v.94h6.66v5.07h-6.66v1.01h8.06v3.04h2.37v2.03h-2.37v3.33h-8.06v1.66c0,.95-.27,1.65-.82,2.08-.55.43-1.37.65-2.48.65h-2.44Zm-1.25-15.78h3.87v-1.12h-3.87v1.12Zm6.99,0h3.8v-1.12h-3.8v1.12Zm0,6.03h5.04v-1.04h-5.04v1.04Zm0,3.12h5.04v-1.09h-5.04v1.09Z"/><path class="cls-3" d="m1080.41,152.01c-.04-.4-.11-.89-.23-1.47-.12-.58-.25-1.04-.39-1.37h1.69c.33,0,.57-.05.71-.16.15-.1.22-.32.22-.65v-4.5c-.49.69-.98,1.34-1.48,1.95-.5.61-1,1.13-1.51,1.59-.26-.33-.59-.67-1-1.03s-.78-.62-1.13-.79c.61-.52,1.23-1.16,1.86-1.92.63-.76,1.23-1.56,1.78-2.41s1.01-1.61,1.35-2.3h-4.11v-2.55h5.59c-.64-.47-1.33-.94-2.05-1.4-.73-.47-1.38-.85-1.95-1.14l1.59-1.98c.31.16.65.34,1.03.55s.76.43,1.16.68c.26-.29.54-.63.83-1.01.29-.38.51-.67.65-.86h-6.21v-2.31h9.49l1.17.91c-.28.4-.64.88-1.09,1.43-.45.55-.92,1.12-1.4,1.69-.49.57-.94,1.08-1.35,1.53.22.14.43.28.62.42.19.14.37.28.55.42-.09.12-.21.28-.36.47s-.32.4-.49.62h2.94l1.12.81c-.07.19-.16.45-.27.77-.11.32-.25.67-.4,1.05,1.53-.42,2.87-1.06,4.03-1.92-.38-.42-.73-.86-1.04-1.33-.31-.47-.62-.97-.91-1.51-.28.35-.56.68-.86.99-.29.31-.59.61-.88.88-.28-.29-.62-.58-1.01-.87-.4-.29-.77-.52-1.12-.69.62-.55,1.24-1.23,1.85-2.03.61-.8,1.15-1.61,1.62-2.43.48-.82.8-1.54.97-2.15l2.73.68c-.21.57-.47,1.14-.78,1.72h7.7v2.42h-1.85c-.31.78-.66,1.51-1.04,2.2s-.82,1.33-1.33,1.94c.73.47,1.51.86,2.35,1.18.84.32,1.71.58,2.61.79-.28.29-.55.7-.81,1.21-.26.51-.46.96-.6,1.34-1.06-.24-2.05-.57-2.99-.99-.94-.42-1.81-.92-2.63-1.51-.52.42-1.09.81-1.72,1.17l2.16.16c-.02.36-.05.72-.1,1.08-.05.36-.1.71-.16,1.05h5.36c-.02.76-.06,1.55-.12,2.37-.06.81-.14,1.59-.23,2.33-.1.74-.2,1.37-.33,1.91-.24,1.16-.68,1.94-1.3,2.34-.62.4-1.5.6-2.63.6h-1.59c-.02-.26-.06-.58-.12-.95-.06-.37-.13-.74-.22-1.09-.09-.36-.17-.64-.26-.84h1.59c.62,0,1.04-.08,1.26-.25.22-.17.38-.51.51-1.03.09-.4.16-.85.23-1.37.07-.51.11-.98.13-1.42h-2.86c-.49,1.61-1.25,3-2.3,4.16-1.05,1.16-2.57,2.1-4.56,2.81-.16-.35-.4-.77-.73-1.27-.33-.5-.64-.89-.94-1.17,1.44-.4,2.61-.98,3.51-1.73s1.58-1.69,2.03-2.79h-3.69v-2.6h4.37c.09-.57.14-1.2.16-1.87-.43.23-.89.43-1.38.62s-1.01.37-1.56.55c-.12-.28-.26-.57-.4-.88-.15-.31-.31-.62-.48-.94-.28.71-.57,1.41-.87,2.09-.3.69-.55,1.18-.74,1.5-.26-.16-.59-.32-.99-.49-.4-.17-.77-.3-1.12-.39v6.89c0,1.68-1.01,2.52-3.02,2.52h-1.82Zm4.84-9.98c.17-.35.35-.73.53-1.14.18-.42.35-.81.51-1.17s.26-.62.31-.75h-1.35v3.07Zm10.01-6.81c.57-.75,1.03-1.55,1.38-2.42h-3.12c.5.94,1.08,1.74,1.74,2.42Z"/><path class="cls-3" d="m1119.51,152.03c-.02-.24-.06-.57-.13-.99s-.15-.82-.23-1.22c-.09-.4-.17-.69-.26-.88h2.13c.75,0,1.26-.11,1.53-.34.28-.22.49-.63.62-1.22.16-.66.29-1.44.4-2.34.11-.9.2-1.8.25-2.7s.08-1.66.08-2.26h-14.25c-.17,2.63-.56,4.88-1.16,6.75-.6,1.86-1.44,3.55-2.54,5.06-.43-.29-.9-.57-1.39-.82s-.97-.44-1.42-.56c.57-.8,1.07-1.63,1.51-2.51s.79-1.85,1.08-2.94c.29-1.08.5-2.33.64-3.76.14-1.42.21-3.08.21-4.97v-7.57h18.93v7.07h-15.73v1.64h17.37c0,.9-.02,1.89-.05,2.96-.04,1.08-.09,2.15-.17,3.24-.08,1.08-.18,2.1-.31,3.04-.13.95-.29,1.74-.48,2.38-.31,1.06-.82,1.81-1.51,2.26-.69.45-1.63.68-2.81.68h-2.31Zm-9.72-18.72h12.4v-2.11h-12.4v2.11Zm1.51,15.24v-6.97h9.59v6.97h-9.59Zm2.91-2.37h3.74v-2.24h-3.74v2.24Z"/></g></g><g id="_グループ_212"><g id="_工事請負契約_売買契約" class="cls-2"><g class="cls-2"><path class="cls-5" d="m262.17,40.75v-1.6h7.11v-9.47h-6.08v-1.6h13.93v1.6h-6.07v9.47h7.11v1.6h-16Z"/><path class="cls-5" d="m285.31,42.35c-.02-.23-.07-.48-.14-.76-.07-.28-.15-.52-.23-.71h1.73c.25,0,.43-.04.54-.13s.16-.25.16-.49v-1.04h-6.07v-1.22h6.07v-1.04h-7.47v-1.13h7.47v-.99h-6.08v-1.13h6.08v-.95h-4.73v-3.26h4.73v-.86h-6.95v-1.22h6.95v-1.4h1.66v1.4h6.95v1.22h-6.95v.86h4.7v3.26h-4.7v.95h5.51v2.12h1.93v1.13h-1.93v2.27h-5.51v1.44c0,.59-.16,1.02-.49,1.29-.32.27-.82.4-1.49.4h-1.73Zm-1.15-10.73h3.2v-1.03h-3.2v1.03Zm4.86,0h3.17v-1.03h-3.17v1.03Zm0,4.19h3.91v-.99h-3.91v.99Zm0,2.18h3.91v-1.04h-3.91v1.04Z"/><path class="cls-5" d="m297.95,30.58v-1.31h6.57v1.31h-6.57Zm.81,11.23v-5.06h5.15v5.06h-5.15Zm.11-8.73v-1.33h4.84v1.33h-4.84Zm0,2.48v-1.31h4.84v1.31h-4.84Zm.02-7.47v-1.35h4.82v1.35h-4.82Zm1.28,12.4h2.32v-2.41h-2.32v2.41Zm4.12-7.67v-1.22h4.09v-1.03h-3.06v-1.13h3.06v-.99h-3.65v-1.21h3.65v-1.33h1.55v1.33h3.87v1.21h-3.87v.99h3.35v1.13h-3.35v1.03h4.32v1.22h-9.95Zm5.53,9.47c-.01-.2-.04-.46-.1-.77-.05-.31-.12-.55-.19-.72h1.28c.24,0,.4-.04.49-.12.08-.08.13-.23.13-.46v-1.08h-4.36v3.13h-1.48v-8.53h7.34v6.95c0,.55-.15.96-.44,1.21-.29.26-.76.39-1.4.39h-1.28Zm-2.75-6.39h4.36v-.95h-4.36v.95Zm0,2.11h4.36v-.97h-4.36v.97Z"/><path class="cls-5" d="m317.28,42.49c-.02-.13-.08-.3-.16-.5s-.18-.39-.28-.58c-.1-.19-.2-.34-.28-.45.53-.08,1.12-.23,1.79-.45.67-.22,1.32-.46,1.97-.74.65-.28,1.19-.55,1.64-.81h-3.19v-8.15c-.3.21-.61.4-.93.58-.32.18-.64.35-.96.52-.11-.19-.25-.41-.43-.67-.18-.25-.35-.44-.5-.58.85-.38,1.66-.85,2.43-1.41.77-.56,1.45-1.15,2.04-1.78.59-.63,1.05-1.24,1.36-1.83l1.57.52c-.3.49-.62.95-.95,1.37h5.42l.45.41c-.26.37-.56.77-.88,1.2-.32.43-.63.81-.92,1.16h3.28v8.66h-3.4c.34.19.73.39,1.19.6.46.21.93.41,1.43.59.5.19.99.35,1.48.5.49.14.92.25,1.31.31-.07.11-.16.26-.26.45-.1.19-.2.39-.28.58-.08.2-.14.36-.18.5-.59-.16-1.23-.36-1.93-.62-.7-.26-1.38-.55-2.05-.87s-1.27-.67-1.78-1.03l.81-1.01h-3.83l.81,1.01c-.52.36-1.11.7-1.78,1.03-.67.32-1.35.62-2.04.87-.69.26-1.33.46-1.94.62Zm2.21-12.19h4.88c.17-.23.36-.48.58-.76s.4-.52.53-.71h-4.27c-.26.26-.54.52-.83.76-.29.25-.59.48-.9.71Zm.95,2.54h7.6v-1.22h-7.6v1.22Zm0,2.41h7.6v-1.24h-7.6v1.24Zm0,2.39h7.6v-1.24h-7.6v1.24Z"/><path class="cls-5" d="m334.76,42.35c-.05-.17-.14-.41-.26-.74-.13-.32-.24-.57-.35-.74,1.78-.2,3.18-.55,4.21-1.05,1.03-.5,1.79-1.26,2.27-2.28h-6.35v-1.46h6.82c.11-.49.18-1.03.22-1.62h.18c-.1-.13-.2-.26-.31-.38-.11-.12-.22-.22-.31-.29-.6.12-1.29.25-2.06.39-.77.14-1.54.26-2.3.38-.76.11-1.43.21-2.01.28l-.38-1.48c.41-.04.91-.09,1.49-.17.59-.08,1.2-.16,1.84-.24v-1.58h-2.61v-1.37h2.61v-1.24h-3.08v-1.37h3.08v-1.49h1.67v1.49h2.66v1.37h-2.66v1.24h2.16v1.37h-2.16v1.35c.53-.08,1.02-.16,1.48-.24.46-.08.85-.15,1.17-.21,0,.08,0,.24,0,.47,0,.23,0,.43,0,.61.88-.47,1.51-1.09,1.91-1.86.4-.77.64-1.77.72-2.98h-2.07v-1.44h7.27c0,.44-.01.93-.04,1.47s-.05,1.07-.09,1.62-.08,1.06-.14,1.53c-.05.47-.11.87-.17,1.18-.16.8-.44,1.35-.84,1.63-.4.28-.99.42-1.77.42h-.97c-.01-.22-.05-.49-.13-.83-.07-.34-.15-.59-.23-.77h1.08c.32,0,.57-.03.73-.08.16-.05.28-.16.36-.31.08-.15.15-.38.21-.67.05-.24.1-.59.15-1.04.05-.46.1-.93.14-1.43s.05-.92.05-1.27h-1.98c-.08,1.4-.37,2.6-.86,3.58s-1.28,1.79-2.38,2.43h.27c-.02.29-.05.56-.09.82-.04.26-.08.51-.13.75h7.34v1.46h-6.53c.77.91,1.75,1.64,2.94,2.2,1.19.55,2.48.92,3.86,1.1-.06.08-.14.22-.23.41-.1.19-.19.38-.27.58-.08.2-.15.36-.2.5-3.38-.48-5.89-1.91-7.51-4.3-.58,1.28-1.46,2.26-2.65,2.92-1.19.66-2.78,1.13-4.74,1.42Z"/><path class="cls-5" d="m353.25,40.5c-.1-.05-.23-.1-.41-.16-.18-.06-.36-.12-.53-.17-.17-.05-.31-.09-.42-.1.2-.34.41-.76.61-1.27.2-.51.38-1.04.54-1.58.16-.55.27-1.04.34-1.47l1.33.27c-.07.47-.18.98-.33,1.54-.15.56-.32,1.1-.52,1.61-.2.52-.4.96-.6,1.33Zm2.05,1.82v-7.49c-.58.06-1.13.11-1.66.16s-.97.08-1.33.11l-.27-1.48c.19-.01.41-.02.66-.04.25-.01.51-.02.8-.04.22-.23.46-.51.72-.84.26-.33.53-.68.79-1.05-.26-.23-.57-.48-.92-.75-.35-.27-.7-.54-1.06-.8-.36-.26-.7-.49-1.01-.68l.85-1.17c.13.08.28.18.43.28.16.1.31.21.47.33.19-.29.39-.62.6-.99s.41-.73.59-1.09c.19-.35.33-.64.42-.87l1.33.56c-.26.49-.57,1.03-.92,1.61-.35.58-.68,1.1-.99,1.54.19.14.38.29.55.42.17.14.33.27.48.39.37-.54.71-1.06,1.01-1.57.3-.5.53-.91.68-1.21l1.3.72c-.26.47-.59,1-.98,1.59-.39.59-.8,1.19-1.23,1.79-.43.6-.85,1.16-1.26,1.67.46-.04.89-.07,1.31-.11s.8-.07,1.13-.11c-.11-.19-.22-.38-.32-.55s-.21-.33-.31-.48l1.21-.61c.14.19.29.41.43.65.41-.54.79-1.18,1.14-1.91.35-.73.66-1.48.92-2.23.26-.76.44-1.43.55-2.03l1.58.32c-.11.44-.24.9-.39,1.38-.15.47-.31.95-.48,1.43h5.58v3.06c0,1.09,0,2.03-.03,2.81-.02.78-.05,1.46-.09,2.03-.04.57-.09,1.09-.15,1.56-.11.86-.3,1.54-.58,2.03-.28.49-.64.84-1.08,1.04s-.97.31-1.58.31h-1.53c-.01-.24-.06-.52-.14-.84-.08-.32-.16-.57-.24-.77h1.89c.47,0,.83-.13,1.08-.4s.45-.77.59-1.53c.11-.54.19-1.3.23-2.28.05-.98.07-2.3.07-3.97v-1.6h-4.64c-.19.43-.41.85-.64,1.26s-.48.79-.73,1.13c-.14-.11-.35-.24-.63-.4-.28-.16-.5-.26-.67-.32.26.4.52.82.76,1.27.24.45.44.86.59,1.21-.16.06-.38.16-.67.31-.29.14-.5.26-.65.36-.06-.16-.13-.32-.21-.5-.08-.18-.17-.37-.26-.56-.23.04-.48.07-.75.11-.27.04-.56.08-.85.13v7.67h-1.53Zm3.4-2.65c-.13-.31-.28-.7-.45-1.16s-.32-.93-.46-1.39c-.14-.47-.25-.85-.33-1.15l1.33-.34c.08.32.2.71.35,1.14.15.44.31.87.49,1.29.17.42.33.77.48,1.06-.1.01-.24.05-.43.13-.19.07-.38.15-.56.23s-.32.15-.41.2Zm4.5-2.54c-.16-.4-.35-.81-.57-1.25-.22-.44-.46-.86-.71-1.28s-.5-.77-.74-1.07l1.26-.7c.38.5.76,1.07,1.13,1.71s.69,1.25.95,1.85c-.17.06-.4.17-.69.33-.29.16-.51.3-.64.41Z"/><path class="cls-5" d="m378.16,35.91c-.48,0-.89-.17-1.23-.51-.34-.34-.51-.75-.51-1.23s.17-.91.51-1.24c.34-.34.75-.5,1.23-.5s.91.17,1.24.5c.34.34.5.75.5,1.24s-.17.89-.5,1.23c-.34.34-.75.51-1.24.51Z"/><path class="cls-5" d="m388.76,42.37c-.07-.2-.18-.45-.32-.74s-.29-.53-.45-.72c1.2-.17,2.19-.46,2.96-.86.77-.41,1.35-1,1.74-1.77.38-.77.58-1.78.59-3.02l1.66.2c-.1,2.03-.63,3.59-1.61,4.7-.98,1.1-2.5,1.84-4.56,2.21Zm1.15-10.39v-1.35h5.31v-1.55h-7.04v-1.39h7.04v-1.67h1.73v1.67h7.09v1.39h-7.09v1.55h5.36v1.35h-12.4Zm-1.3,4.63v-3.46h15.01v3.42h-1.69v-2.05h-11.59v2.09h-1.73Zm10.01,5.31c-.66,0-1.12-.11-1.39-.32-.26-.21-.4-.55-.4-1.03v-5.35h1.67v4.59c0,.19.05.33.14.41.1.08.28.13.56.13h2.07c.34,0,.6-.05.8-.16.2-.11.35-.32.45-.64.1-.32.18-.78.23-1.38.18.11.43.22.75.33.32.11.59.2.82.26-.11.9-.26,1.58-.47,2.03-.2.45-.48.75-.82.9-.34.15-.79.22-1.34.22h-3.08Z"/><path class="cls-5" d="m421.09,42.46c-.5-.13-1.08-.32-1.72-.56-.64-.24-1.27-.51-1.87-.81s-1.12-.59-1.56-.88l.72-.85h-5.02l.72.83c-.42.28-.93.56-1.54.85-.61.29-1.23.56-1.87.81-.64.25-1.24.44-1.79.58-.05-.11-.12-.25-.23-.42s-.21-.34-.33-.51c-.12-.17-.22-.29-.31-.38.46-.1.97-.24,1.54-.42.57-.19,1.13-.4,1.69-.63.56-.23,1.04-.47,1.45-.71h-2.27v-7.63h10.93v7.63h-2.36c.42.24.91.48,1.48.71.56.23,1.13.44,1.71.63.58.19,1.08.33,1.51.42-.08.08-.19.21-.31.38s-.23.34-.34.51-.19.32-.23.44Zm-14.17-11.68v-4.21h14.47v4.21h-14.47Zm1.62-1.22h2.72v-1.75h-2.72v1.75Zm1.82,4.36h7.61v-.97h-7.61v.97Zm0,2.11h7.61v-1.03h-7.61v1.03Zm0,2.12h7.61v-1.04h-7.61v1.04Zm2.52-8.59h2.59v-1.75h-2.59v1.75Zm4.21,0h2.72v-1.75h-2.72v1.75Z"/><path class="cls-5" d="m424.76,42.35c-.05-.17-.14-.41-.26-.74-.13-.32-.24-.57-.35-.74,1.78-.2,3.18-.55,4.21-1.05,1.03-.5,1.79-1.26,2.27-2.28h-6.35v-1.46h6.82c.11-.49.18-1.03.22-1.62h.18c-.1-.13-.2-.26-.31-.38-.11-.12-.22-.22-.31-.29-.6.12-1.29.25-2.06.39-.77.14-1.54.26-2.3.38-.76.11-1.43.21-2.01.28l-.38-1.48c.41-.04.91-.09,1.49-.17.59-.08,1.2-.16,1.84-.24v-1.58h-2.61v-1.37h2.61v-1.24h-3.08v-1.37h3.08v-1.49h1.67v1.49h2.66v1.37h-2.66v1.24h2.16v1.37h-2.16v1.35c.53-.08,1.02-.16,1.48-.24.46-.08.85-.15,1.17-.21,0,.08,0,.24,0,.47,0,.23,0,.43,0,.61.88-.47,1.51-1.09,1.91-1.86.4-.77.64-1.77.72-2.98h-2.07v-1.44h7.27c0,.44-.01.93-.04,1.47s-.05,1.07-.09,1.62-.08,1.06-.14,1.53c-.05.47-.11.87-.17,1.18-.16.8-.44,1.35-.84,1.63-.4.28-.99.42-1.77.42h-.97c-.01-.22-.05-.49-.13-.83-.07-.34-.15-.59-.23-.77h1.08c.32,0,.57-.03.73-.08.16-.05.28-.16.36-.31.08-.15.15-.38.21-.67.05-.24.1-.59.15-1.04.05-.46.1-.93.14-1.43s.05-.92.05-1.27h-1.98c-.08,1.4-.37,2.6-.86,3.58s-1.28,1.79-2.38,2.43h.27c-.02.29-.05.56-.09.82-.04.26-.08.51-.13.75h7.34v1.46h-6.53c.77.91,1.75,1.64,2.94,2.2,1.19.55,2.48.92,3.86,1.1-.06.08-.14.22-.23.41-.1.19-.19.38-.27.58-.08.2-.15.36-.2.5-3.38-.48-5.89-1.91-7.51-4.3-.58,1.28-1.46,2.26-2.65,2.92-1.19.66-2.78,1.13-4.74,1.42Z"/><path class="cls-5" d="m443.25,40.5c-.1-.05-.23-.1-.41-.16-.18-.06-.36-.12-.53-.17-.17-.05-.31-.09-.42-.1.2-.34.41-.76.61-1.27.2-.51.38-1.04.54-1.58.16-.55.27-1.04.34-1.47l1.33.27c-.07.47-.18.98-.33,1.54-.15.56-.32,1.1-.52,1.61-.2.52-.4.96-.6,1.33Zm2.05,1.82v-7.49c-.58.06-1.13.11-1.66.16s-.97.08-1.33.11l-.27-1.48c.19-.01.41-.02.66-.04.25-.01.51-.02.8-.04.22-.23.46-.51.72-.84.26-.33.53-.68.79-1.05-.26-.23-.57-.48-.92-.75-.35-.27-.7-.54-1.06-.8-.36-.26-.7-.49-1.01-.68l.85-1.17c.13.08.28.18.43.28.16.1.31.21.47.33.19-.29.39-.62.6-.99s.41-.73.59-1.09c.19-.35.33-.64.42-.87l1.33.56c-.26.49-.57,1.03-.92,1.61-.35.58-.68,1.1-.99,1.54.19.14.38.29.55.42.17.14.33.27.48.39.37-.54.71-1.06,1.01-1.57.3-.5.53-.91.68-1.21l1.3.72c-.26.47-.59,1-.98,1.59-.39.59-.8,1.19-1.23,1.79-.43.6-.85,1.16-1.26,1.67.46-.04.89-.07,1.31-.11s.8-.07,1.13-.11c-.11-.19-.22-.38-.32-.55s-.21-.33-.31-.48l1.21-.61c.14.19.29.41.43.65.41-.54.79-1.18,1.14-1.91.35-.73.66-1.48.92-2.23.26-.76.44-1.43.55-2.03l1.58.32c-.11.44-.24.9-.39,1.38-.15.47-.31.95-.48,1.43h5.58v3.06c0,1.09,0,2.03-.03,2.81-.02.78-.05,1.46-.09,2.03-.04.57-.09,1.09-.15,1.56-.11.86-.3,1.54-.58,2.03-.28.49-.64.84-1.08,1.04s-.97.31-1.58.31h-1.53c-.01-.24-.06-.52-.14-.84-.08-.32-.16-.57-.24-.77h1.89c.47,0,.83-.13,1.08-.4s.45-.77.59-1.53c.11-.54.19-1.3.23-2.28.05-.98.07-2.3.07-3.97v-1.6h-4.64c-.19.43-.41.85-.64,1.26s-.48.79-.73,1.13c-.14-.11-.35-.24-.63-.4-.28-.16-.5-.26-.67-.32.26.4.52.82.76,1.27.24.45.44.86.59,1.21-.16.06-.38.16-.67.31-.29.14-.5.26-.65.36-.06-.16-.13-.32-.21-.5-.08-.18-.17-.37-.26-.56-.23.04-.48.07-.75.11-.27.04-.56.08-.85.13v7.67h-1.53Zm3.4-2.65c-.13-.31-.28-.7-.45-1.16s-.32-.93-.46-1.39c-.14-.47-.25-.85-.33-1.15l1.33-.34c.08.32.2.71.35,1.14.15.44.31.87.49,1.29.17.42.33.77.48,1.06-.1.01-.24.05-.43.13-.19.07-.38.15-.56.23s-.32.15-.41.2Zm4.5-2.54c-.16-.4-.35-.81-.57-1.25-.22-.44-.46-.86-.71-1.28s-.5-.77-.74-1.07l1.26-.7c.38.5.76,1.07,1.13,1.71s.69,1.25.95,1.85c-.17.06-.4.17-.69.33-.29.16-.51.3-.64.41Z"/></g></g><path id="_パス_149" class="cls-1" d="m243.64,38.38l-12.64,12.64h44.16"/><path id="_パス_242" class="cls-1" d="m467.52,63.66l12.64-12.64h-44.16"/><path id="_パス_241" class="cls-1" d="m231,51.02h249.16"/></g><g id="_グループ_215"><g id="_事業者登録" class="cls-2"><g class="cls-2"><path class="cls-5" d="m806.31,42.35c-.02-.23-.07-.48-.14-.76s-.15-.52-.23-.71h1.73c.25,0,.43-.04.54-.13.11-.08.16-.25.16-.49v-1.04h-6.07v-1.22h6.07v-1.04h-7.47v-1.13h7.47v-.99h-6.08v-1.13h6.08v-.95h-4.73v-3.26h4.73v-.86h-6.95v-1.22h6.95v-1.4h1.66v1.4h6.95v1.22h-6.95v.86h4.7v3.26h-4.7v.95h5.51v2.12h1.93v1.13h-1.93v2.27h-5.51v1.44c0,.59-.16,1.02-.49,1.29-.32.27-.82.4-1.49.4h-1.73Zm-1.15-10.73h3.2v-1.03h-3.2v1.03Zm4.86,0h3.17v-1.03h-3.17v1.03Zm0,4.19h3.91v-.99h-3.91v.99Zm0,2.18h3.91v-1.04h-3.91v1.04Z"/><path class="cls-5" d="m826.38,42.42v-3.91c-.54.5-1.16.99-1.87,1.45s-1.44.88-2.21,1.25c-.76.37-1.51.68-2.24.92-.04-.1-.11-.23-.22-.4-.11-.17-.22-.34-.34-.51s-.22-.3-.31-.39c.67-.19,1.38-.46,2.12-.8s1.47-.73,2.17-1.15c.7-.43,1.31-.84,1.83-1.25h-6.07v-1.3h7.13v-1.12h-5.36v-1.24h5.36v-1.06h-6.12v-1.28h3.58c-.11-.24-.22-.49-.34-.74s-.24-.47-.36-.67h-3.91v-1.3h3.02c-.16-.31-.34-.69-.56-1.13-.22-.44-.43-.8-.63-1.06l1.4-.67c.14.23.3.5.47.81.17.31.33.62.48.91s.26.53.33.71l-1.01.43h2.03v-2.95h1.53v2.95h1.62v-2.95h1.53v2.95h2.07l-1.19-.47c.16-.2.32-.45.5-.74.18-.29.35-.58.5-.87.16-.29.28-.55.36-.77l1.53.49c-.12.23-.27.49-.45.78s-.36.58-.54.86c-.18.28-.34.52-.49.71h3.29v1.3h-3.92c-.08.23-.19.46-.31.71s-.23.48-.34.69h3.44v1.28h-5.99v1.06h5.31v1.24h-5.31v1.12h7.13v1.3h-6.1c.53.41,1.14.82,1.83,1.23.69.41,1.41.79,2.15,1.14.74.35,1.45.62,2.11.81-.08.08-.18.21-.3.39-.11.17-.22.35-.32.52s-.17.31-.22.41c-.72-.24-1.46-.55-2.22-.92-.76-.37-1.49-.79-2.19-1.25s-1.32-.94-1.87-1.43v3.89h-1.55Zm-.81-10.78h3.17c.11-.2.22-.43.34-.68s.23-.49.32-.72h-4.46c.12.24.24.49.35.74s.21.47.28.67Z"/><path class="cls-5" d="m840.95,42.3v-5.76c-.59.26-1.19.53-1.82.79s-1.27.53-1.93.79c-.04-.12-.11-.28-.21-.48-.1-.2-.21-.4-.32-.59s-.21-.34-.28-.42c1.48-.44,2.88-.97,4.2-1.57,1.33-.6,2.55-1.28,3.68-2.05h-7.31v-1.44h6.59v-1.98h-4.59v-1.44h4.59v-2.21h1.66v2.21h2.83v1.44h-2.83v1.98h.99c1.75-1.46,3.14-3.16,4.18-5.09l1.46.77c-.54.84-1.1,1.62-1.67,2.34s-1.16,1.38-1.76,1.98h4.91v1.44h-6.53c-.88.72-1.82,1.38-2.84,1.98h6.35v7.31h-9.34Zm1.62-4.3h6.1v-1.62h-6.1v1.62Zm0,2.93h6.1v-1.67h-6.1v1.67Z"/><path class="cls-5" d="m855.31,34.74c-.08-.17-.22-.38-.41-.65-.19-.26-.35-.46-.49-.58.67-.29,1.31-.63,1.93-1.04.61-.4,1.19-.84,1.73-1.3-.31-.31-.67-.63-1.06-.96-.4-.33-.75-.59-1.06-.78l.95-.99c.32.21.69.47,1.11.8s.78.64,1.11.93c.35-.37.66-.75.94-1.13s.51-.76.7-1.13h-4.05v-1.35h5.51l.65.5c-.3.71-.67,1.39-1.11,2.05-.44.66-.93,1.29-1.47,1.89h5.63c-1.2-1.3-2.12-2.77-2.75-4.43l1.33-.49c.29.77.68,1.52,1.19,2.25.25-.18.52-.39.81-.62s.56-.47.83-.71c.26-.24.47-.44.61-.61l1.03.95c-.2.2-.45.44-.74.69s-.58.51-.89.76c-.31.25-.58.45-.82.62.16.18.32.36.49.53s.34.34.52.51c.25-.18.54-.4.86-.66.32-.26.62-.52.9-.77.28-.26.5-.47.66-.64l1.03.94c-.19.19-.43.41-.7.67-.28.25-.56.5-.86.75s-.56.46-.8.64c.49.37,1.01.71,1.55,1.01s1.1.56,1.69.79c-.11.08-.23.22-.36.4-.13.18-.25.36-.37.54-.11.18-.2.32-.26.43-1.69-.78-3.15-1.76-4.37-2.95v.86h-6.62v-.99c-.66.66-1.37,1.27-2.13,1.83-.76.56-1.56,1.04-2.4,1.45Zm.18,7.02v-1.4h4.79c-.11-.31-.23-.62-.37-.94-.14-.31-.26-.56-.37-.76l1.19-.34h-2.65v-4.55h10.1v4.55h-2.36l.97.29c-.08.25-.2.53-.33.85s-.27.61-.41.9h4.79v1.4h-15.35Zm4.21-4.79h6.86v-1.87h-6.86v1.87Zm2.32,3.38h2.29c.14-.3.3-.64.47-1.03.17-.38.3-.72.4-1.01h-4.03c.14.26.3.59.47.98.17.39.31.74.41,1.05Z"/><path class="cls-5" d="m873.44,41.97l-.45-1.46c.35-.04.8-.1,1.35-.18s1.14-.18,1.76-.29v-4.86h-2.63v-1.31h2.63v-1.75h-1.8v-1.08c-.14.14-.29.28-.43.41-.14.13-.29.26-.43.38-.11-.14-.28-.33-.52-.56-.24-.23-.44-.4-.59-.5.37-.25.76-.58,1.16-.99.4-.41.79-.85,1.16-1.31.37-.47.7-.92.98-1.37.28-.44.48-.83.6-1.17l1.4.23c.13.24.33.52.58.85.26.32.55.65.86.98.32.33.64.64.96.94.32.29.63.53.92.71-.08.07-.2.18-.34.32s-.28.29-.41.45c-.13.16-.23.28-.31.38-.5-.38-1.03-.85-1.58-1.41-.55-.56-1.02-1.13-1.41-1.72-.26.47-.61.98-1.03,1.54-.42.56-.86,1.08-1.31,1.58h5.02v1.35h-1.96v1.75h2.34v1.31h-2.34v4.57c.98-.18,1.78-.36,2.38-.54v1.4c-.34.1-.79.21-1.35.33-.56.13-1.17.25-1.81.39-.64.13-1.27.25-1.87.37-.61.11-1.12.2-1.54.26Zm1.1-2.57c-.08-.29-.2-.62-.33-1-.14-.38-.28-.75-.43-1.12-.15-.37-.29-.67-.42-.91l1.28-.45c.13.25.27.56.41.93.14.37.28.73.41,1.1.13.37.23.68.31.94-.17.05-.38.13-.65.24-.26.11-.46.2-.58.26Zm4.46-.4c-.12-.06-.31-.14-.58-.24-.26-.1-.47-.18-.61-.22.13-.23.28-.52.43-.87.16-.35.31-.71.45-1.08.14-.37.25-.67.31-.91l1.31.47c-.07.22-.19.5-.34.86s-.32.72-.5,1.09c-.17.37-.33.67-.48.91Zm3.49,3.29c-.02-.2-.07-.46-.14-.77-.07-.31-.14-.55-.22-.72h1.22c.24,0,.41-.04.5-.12.1-.08.14-.23.14-.46v-1.51c-.3.17-.65.35-1.06.56-.41.2-.81.4-1.21.58-.4.18-.74.34-1.04.47l-.54-1.46c.35-.11.76-.26,1.23-.45.47-.19.95-.4,1.42-.61.47-.22.87-.41,1.2-.59v-3.78h-3.82v-1.4h5.67v-1.42h-4.45v-1.35h4.45v-1.35h-4.59v-1.39h6.14v5.51h1.94v1.4h-3.83v1.66c.07.16.16.32.25.49.1.17.2.34.31.5.24-.19.5-.41.77-.67s.53-.5.77-.75.43-.45.56-.62l1.01.97c-.26.32-.63.69-1.09,1.09-.46.4-.88.75-1.27,1.04.43.54.91,1.05,1.43,1.54.52.49,1.04.92,1.56,1.29-.08.07-.2.19-.35.34-.15.16-.29.31-.43.47-.14.16-.24.28-.3.38-.55-.43-1.11-.96-1.68-1.58-.57-.62-1.08-1.3-1.54-2.03v3.19c0,.55-.15.95-.45,1.21-.3.25-.76.38-1.37.38h-1.21Zm-.09-5.08c-.23-.36-.5-.75-.82-1.16-.32-.41-.62-.76-.89-1.03l1.15-.85c.3.3.61.65.93,1.04.32.4.59.77.82,1.12-.07.04-.19.12-.35.24s-.32.25-.49.37-.28.21-.35.27Z"/></g></g><path id="_パス_242-2" class="cls-1" d="m956.67,38.86l12.64,12.64h-44.16"/><path id="_パス_241-2" class="cls-1" d="m720.66,51.51h249.16"/></g><g id="_グループ_209"><g id="_交付申請" class="cls-2"><g class="cls-2"><path class="cls-5" d="m811.01,108.35c-.05-.11-.13-.26-.24-.46-.11-.2-.23-.4-.36-.59s-.23-.34-.32-.44c1.34-.29,2.59-.68,3.74-1.18s2.2-1.14,3.15-1.92c-1.02-1.13-1.86-2.47-2.52-4.03l1.42-.67c.31.71.66,1.36,1.04,1.95.38.59.79,1.14,1.23,1.63.46-.49.88-1.03,1.27-1.63.39-.59.74-1.24,1.05-1.95l1.49.67c-.74,1.55-1.64,2.89-2.68,4.01,1,.83,2.08,1.48,3.26,1.96,1.18.48,2.41.83,3.71,1.06-.1.11-.21.27-.34.48s-.25.42-.37.62-.2.37-.24.49c-1.44-.36-2.76-.82-3.95-1.39-1.19-.56-2.27-1.27-3.23-2.11-.91.78-1.95,1.46-3.12,2.02-1.17.57-2.5,1.06-3.99,1.47Zm.52-7.29c-.08-.17-.23-.39-.45-.67-.22-.28-.41-.48-.58-.61.55-.26,1.14-.61,1.76-1.04.62-.43,1.22-.9,1.78-1.4.56-.5,1.02-.99,1.37-1.46h-5.09v-1.48h6.95v-2.41h1.78v2.41h6.91v1.48h-5.33c.42.46.92.91,1.51,1.37.59.46,1.19.87,1.82,1.24s1.2.67,1.73.9c-.08.08-.19.22-.32.4-.13.18-.24.37-.35.56-.11.19-.19.35-.23.47-.61-.29-1.25-.65-1.93-1.1-.67-.44-1.31-.92-1.91-1.41s-1.1-.96-1.49-1.39l1.12-1.03h-5.17l1.22.97c-.35.48-.81.99-1.39,1.52s-1.19,1.04-1.84,1.52c-.65.48-1.28.87-1.88,1.17Z"/><path class="cls-5" d="m830.83,108.3v-9.77c-.36.48-.73.94-1.1,1.37-.37.43-.73.82-1.08,1.15-.11-.13-.29-.31-.56-.53-.26-.22-.48-.38-.65-.48.37-.32.77-.74,1.19-1.24s.84-1.06,1.26-1.67c.42-.61.81-1.22,1.18-1.85.37-.63.68-1.23.94-1.8.26-.57.46-1.07.58-1.5l1.53.54c-.19.55-.43,1.13-.71,1.73-.28.6-.6,1.2-.95,1.8v12.26h-1.64Zm6.91-.05c-.01-.23-.06-.52-.14-.86s-.17-.61-.25-.79h2.03c.25,0,.43-.04.54-.13s.16-.25.16-.5v-8.19h-6.73v-1.57h6.73v-4.03h1.67v4.03h2.66v1.57h-2.66v8.78c0,.59-.16,1.02-.48,1.29-.32.27-.81.41-1.49.41h-2.05Zm-.65-4.41c-.17-.34-.41-.74-.73-1.21-.32-.47-.65-.93-1-1.38-.35-.45-.66-.81-.94-1.09l1.37-.94c.29.29.6.65.95,1.07s.67.86,1,1.31c.32.45.59.87.79,1.25-.11.05-.26.13-.46.26s-.39.26-.58.4c-.19.14-.32.24-.41.32Z"/><path class="cls-5" d="m853.28,108.37v-4.82h-5.83v-8.96h5.83v-2.61h1.73v2.61h5.87v8.96h-5.87v4.82h-1.73Zm-4.09-10.06h4.09v-2.18h-4.09v2.18Zm0,3.69h4.09v-2.23h-4.09v2.23Zm5.81-3.69h4.12v-2.18h-4.12v2.18Zm0,3.69h4.12v-2.23h-4.12v2.23Z"/><path class="cls-5" d="m863.95,96.58v-1.31h6.57v1.31h-6.57Zm.81,11.23v-5.06h5.15v5.06h-5.15Zm.11-8.73v-1.33h4.84v1.33h-4.84Zm0,2.48v-1.31h4.84v1.31h-4.84Zm.02-7.47v-1.35h4.82v1.35h-4.82Zm1.28,12.4h2.32v-2.41h-2.32v2.41Zm4.12-7.67v-1.22h4.09v-1.03h-3.06v-1.13h3.06v-.99h-3.65v-1.21h3.65v-1.33h1.55v1.33h3.87v1.21h-3.87v.99h3.35v1.13h-3.35v1.03h4.32v1.22h-9.95Zm5.53,9.47c-.01-.2-.04-.46-.1-.77-.05-.31-.12-.55-.19-.72h1.28c.24,0,.4-.04.49-.12.08-.08.13-.23.13-.46v-1.08h-4.36v3.13h-1.48v-8.53h7.34v6.95c0,.55-.15.96-.44,1.21-.29.26-.76.39-1.4.39h-1.28Zm-2.75-6.39h4.36v-.95h-4.36v.95Zm0,2.11h4.36v-.97h-4.36v.97Z"/></g></g><path id="_パス_242-3" class="cls-1" d="m956.67,104.86l12.64,12.64h-44.16"/><path id="_パス_241-3" class="cls-1" d="m720.66,117.5h249.16"/></g><g id="_グループ_210"><g id="_完了報告_新築のみ_" class="cls-2"><g class="cls-2"><path class="cls-5" d="m756.74,241.39c-.02-.11-.08-.26-.17-.45-.09-.19-.19-.38-.29-.57-.1-.19-.2-.33-.28-.44,1.78-.25,3.11-.85,4.01-1.78.9-.94,1.39-2.09,1.46-3.47h-5.24v-1.48h15.86v1.48h-5.31v4.32c0,.18.05.31.14.4s.28.13.54.13h2.05c.34,0,.6-.05.8-.16.2-.11.35-.31.47-.62.11-.31.2-.76.24-1.36.18.11.43.22.74.32.31.11.58.19.79.25-.11.89-.26,1.55-.47,2-.2.44-.48.74-.83.88-.35.14-.79.22-1.33.22h-3.02c-.66,0-1.12-.1-1.38-.3-.26-.2-.39-.54-.39-1.02v-5.06h-2.03c-.07,1.79-.65,3.27-1.72,4.44-1.07,1.17-2.62,1.93-4.65,2.28Zm-.31-10.4v-4.16h6.77v-1.89h1.84v1.89h6.82v4.09h-1.64v-2.59h-12.13v2.66h-1.66Zm2.77.5v-1.48h9.95v1.48h-9.95Z"/><path class="cls-5" d="m778.72,241.15c-.02-.24-.07-.54-.14-.9s-.15-.64-.23-.83h2.45c.26,0,.45-.04.56-.13.11-.09.16-.25.16-.5v-8.86h.97c.28-.18.62-.42,1.03-.73s.81-.62,1.21-.95c.4-.32.73-.6.98-.83h-11.12v-1.58h14.13l.5.68c-.38.4-.83.82-1.35,1.26-.52.44-1.05.89-1.61,1.33-.56.44-1.1.86-1.63,1.25-.53.39-1,.72-1.42,1v8.03c0,.6-.17,1.04-.5,1.32-.33.28-.84.42-1.54.42h-2.45Z"/><path class="cls-5" d="m791.88,231.11v-1.39h3.51v-1.51h-2.77v-1.33h2.77v-1.94h1.53v1.94h2.74v1.33h-2.74v1.51h3.44v1.39h-8.48Zm3.51,10.19v-3.35h-3.01v-1.39h3.01v-1.6h-3.29v-1.39h1.96c-.11-.32-.23-.66-.38-1.02-.14-.35-.28-.64-.4-.85l1.37-.4c.14.3.3.68.47,1.12.17.45.29.83.38,1.14h1.26c.14-.35.29-.75.45-1.2.16-.45.26-.81.32-1.09l1.4.34c-.08.28-.19.59-.33.95-.14.35-.28.69-.42,1h1.98v1.39h-3.24v1.6h2.93v1.39h-2.93v3.35h-1.53Zm5.38,0v-15.84h6.57v3.42c0,.66-.16,1.15-.47,1.46s-.79.47-1.42.47h-1.42c-.02-.24-.07-.51-.14-.82-.07-.31-.13-.54-.21-.71h1.42c.24,0,.41-.04.52-.13s.16-.24.16-.47v-1.76h-3.47v4.64h5.35c-.07,2.22-.59,4.19-1.55,5.9.35.44.74.86,1.17,1.25.43.39.89.75,1.37,1.07-.12.11-.29.29-.51.56-.22.26-.39.48-.5.65-.91-.62-1.7-1.36-2.38-2.2-.3.4-.63.77-.98,1.12-.35.35-.74.68-1.16.98-.08-.1-.2-.23-.36-.39-.16-.16-.31-.3-.45-.42v1.21h-1.55Zm1.55-1.69c.79-.59,1.47-1.29,2.03-2.11-.79-1.36-1.33-2.86-1.6-4.52h-.43v6.62Zm2.88-3.56c.44-.97.73-1.99.85-3.06h-1.89c.1.55.23,1.08.4,1.59s.39,1,.64,1.47Z"/><path class="cls-5" d="m809.93,233.48v-1.53h7.33v-2.7h-3.73c-.25.37-.52.74-.8,1.09-.28.35-.58.68-.89.98-.13-.14-.33-.33-.6-.56-.27-.23-.52-.4-.75-.52.49-.43.95-.94,1.38-1.51.43-.58.79-1.16,1.1-1.76.31-.59.53-1.14.67-1.63l1.6.54c-.11.3-.23.61-.37.93-.14.32-.29.64-.46.96h2.84v-2.84h1.75v2.84h5.51v1.48h-5.51v2.7h7.36v1.53h-16.43Zm2.99,7.67v-6.14h10.51v6.14h-10.51Zm1.69-1.49h7.13v-3.15h-7.13v3.15Z"/><path class="cls-5" d="m843.21,241.78c-1.16-1.08-2.09-2.35-2.79-3.81s-1.04-3.06-1.04-4.81.35-3.36,1.04-4.82,1.63-2.73,2.79-3.81l.74.72c-1.09,1.08-1.94,2.27-2.56,3.57-.61,1.3-.92,2.75-.92,4.33s.31,3.03.92,4.33c.61,1.3,1.46,2.49,2.56,3.57l-.74.72Z"/><path class="cls-5" d="m849.57,241.28v-4.73c-.41.59-.87,1.17-1.38,1.75-.51.58-.99,1.06-1.43,1.43-.06-.08-.17-.19-.31-.32-.15-.13-.3-.25-.46-.36-.16-.11-.29-.19-.4-.22.36-.25.75-.6,1.18-1.04s.84-.92,1.23-1.42c.4-.5.71-.96.95-1.37h-2.43v-1.42h3.04v-1.51h-3.37v-1.35h2.14c-.11-.35-.24-.71-.39-1.1-.15-.38-.29-.68-.41-.9l1.26-.43c.17.3.34.68.52,1.15.18.47.32.89.43,1.28h1.1c.12-.26.24-.55.36-.87.12-.32.23-.62.34-.91.11-.29.18-.52.22-.68l1.37.38c-.1.3-.22.64-.38,1.02-.16.38-.31.74-.47,1.07h2.12v1.35h-3.31v1.51h2.95v1.42h-2.95v.22l.05-.05c.2.25.47.53.81.85.34.31.69.61,1.06.89.37.28.72.52,1.04.71-.07.06-.18.17-.32.31-.14.15-.27.3-.39.45s-.21.27-.27.37c-.28-.2-.6-.48-.96-.82-.37-.34-.71-.68-1.04-1.02v4.37h-1.55Zm-2.99-13.16v-1.31h2.93v-1.82h1.62v1.82h2.99v1.31h-7.54Zm7.27,13.27c-.1-.08-.23-.19-.41-.31-.18-.12-.36-.23-.54-.34-.18-.11-.33-.18-.45-.22,1-.89,1.68-2.04,2.06-3.47s.57-3.15.57-5.19v-5.31c.59,0,1.24-.05,1.96-.16.72-.11,1.42-.26,2.12-.47.69-.2,1.28-.44,1.77-.72l1.04,1.39c-.43.18-.96.36-1.59.55-.63.19-1.27.35-1.93.48-.65.13-1.25.22-1.77.25v2.92h5.58v1.51h-2.05v9.05h-1.6v-9.05h-1.93c-.01,2.06-.25,3.85-.7,5.35-.46,1.5-1.16,2.75-2.12,3.74Z"/><path class="cls-5" d="m865.05,229.47c-.07-.06-.2-.14-.38-.24-.18-.1-.36-.2-.54-.31-.18-.1-.32-.17-.41-.19.38-.32.76-.71,1.12-1.16s.69-.92.99-1.41c.3-.49.54-.95.72-1.39l1.49.34c-.08.19-.18.4-.3.61-.11.22-.24.44-.37.67h4.57v1.3h-2.52c.1.24.19.48.29.73s.17.46.23.66c-.11.01-.27.04-.48.1s-.42.11-.62.15-.35.09-.45.13c-.06-.24-.15-.52-.26-.85-.11-.32-.23-.63-.35-.92h-1.24c-.24.34-.49.66-.75.97s-.51.58-.75.81Zm6.34,11.9v-3.58c-.56.43-1.2.85-1.91,1.26-.71.41-1.45.78-2.21,1.12s-1.53.62-2.29.86c-.08-.17-.21-.4-.37-.68-.16-.29-.32-.51-.46-.67.68-.17,1.39-.4,2.12-.69.73-.29,1.45-.62,2.15-.98s1.34-.73,1.92-1.1h-5.99v-1.31h7.04v-.5c-.1-.17-.21-.34-.35-.51-.14-.17-.27-.32-.39-.44.53-.23.92-.48,1.19-.76s.44-.62.54-1.04c.1-.42.14-.94.14-1.57v-1.21h5.2v3.38c0,.13.03.22.1.28.07.05.19.08.39.08.34,0,.58-.04.73-.12.15-.08.25-.23.3-.47.05-.23.08-.58.09-1.04.17.08.39.17.66.26.27.09.5.16.69.21-.04.71-.13,1.24-.27,1.6-.14.36-.36.6-.65.73s-.68.19-1.17.19h-.85c-.48,0-.83-.07-1.06-.22-.23-.14-.34-.41-.34-.79v-.25c-.13.08-.3.21-.5.37s-.35.29-.45.39c-.22-.31-.46-.64-.73-1-.27-.35-.54-.66-.82-.93-.16,1.01-.58,1.8-1.26,2.38h.38v.97h7.04v1.31h-5.89c.58.37,1.21.74,1.91,1.1s1.41.68,2.14.97c.73.29,1.43.52,2.11.68-.14.16-.3.38-.47.66-.17.28-.29.51-.36.69-.77-.24-1.54-.53-2.33-.88s-1.53-.73-2.24-1.14c-.71-.41-1.34-.84-1.91-1.27v3.65h-1.57Zm-6.62-6.66l-.32-1.44c.28-.02.69-.07,1.25-.13.56-.06,1.16-.13,1.79-.22v-1.85h-2.7v-1.3h6.61v1.3h-2.52v1.67c.55-.08,1.06-.16,1.51-.23.46-.07.8-.13,1.04-.18v1.3c-.3.08-.73.17-1.3.27-.56.1-1.18.19-1.84.3-.67.1-1.31.2-1.94.29-.62.09-1.15.17-1.58.22Zm7.58-5.2c-.06-.05-.18-.12-.37-.22-.19-.1-.38-.19-.58-.29-.2-.1-.35-.16-.46-.18.37-.34.73-.74,1.07-1.21s.65-.95.93-1.46c.28-.5.49-.98.65-1.44l1.53.38c-.08.19-.18.4-.28.62-.1.22-.21.45-.33.67h5.44v1.3h-3.19c.1.24.19.49.3.74.1.25.18.47.22.65-.13.01-.31.04-.52.1s-.43.11-.64.15c-.21.05-.36.09-.46.13-.06-.25-.14-.54-.25-.87-.11-.33-.22-.63-.32-.89h-1.33c-.46.72-.92,1.33-1.4,1.82Zm4,3.82v-2.47h-2.41c0,.42-.02.81-.05,1.17l.86-.65c.28.25.56.57.86.95s.55.71.74.99Z"/><path class="cls-5" d="m891.45,239.93c-.06-.22-.19-.49-.39-.82-.2-.33-.39-.58-.58-.75,1.08-.17,2-.48,2.75-.94.76-.46,1.34-1.01,1.75-1.67s.64-1.37.67-2.14c.04-.72-.06-1.38-.3-1.99-.23-.61-.57-1.14-1-1.59-.43-.46-.93-.82-1.5-1.09-.57-.27-1.18-.42-1.83-.46-.08,1.16-.26,2.34-.52,3.53-.26,1.19-.62,2.29-1.07,3.31-.45,1.02-.99,1.87-1.61,2.56-.42.46-.84.73-1.27.81-.43.08-.87.03-1.34-.16-.46-.19-.86-.51-1.22-.95s-.64-.96-.83-1.58-.27-1.27-.23-1.98c.06-1.06.31-2.03.75-2.92.44-.89,1.03-1.65,1.77-2.29.74-.64,1.6-1.13,2.56-1.46s1.99-.47,3.08-.41c.86.05,1.68.25,2.45.59.77.35,1.45.82,2.03,1.42.59.6,1.04,1.3,1.36,2.11.32.8.45,1.69.41,2.66-.08,1.56-.64,2.88-1.67,3.96s-2.44,1.82-4.21,2.23Zm-5.76-3.08c.13.08.29.12.47.12.18,0,.35-.1.52-.28.47-.49.89-1.16,1.27-2.02.38-.85.69-1.81.95-2.86.25-1.06.41-2.13.49-3.22-.91.17-1.72.52-2.43,1.04-.71.53-1.27,1.18-1.69,1.94s-.65,1.61-.7,2.52c-.04.66.06,1.23.29,1.72.23.49.51.83.85,1.03Z"/><path class="cls-5" d="m907.78,240.86c-.14-.16-.35-.33-.63-.51-.28-.19-.53-.33-.76-.42.92-.56,1.76-1.3,2.52-2.21s1.37-1.91,1.84-2.99c-.61-.18-1.21-.32-1.81-.43-.59-.11-1.17-.19-1.74-.23-.31.56-.63,1.08-.95,1.55-.32.47-.64.86-.95,1.17-.48.48-1,.81-1.55,1-.55.19-1.07.24-1.56.16-.49-.08-.88-.28-1.19-.6s-.46-.76-.46-1.31c0-.64.23-1.22.68-1.74.46-.52,1.11-.94,1.95-1.25.85-.31,1.86-.47,3.05-.49.38-.76.75-1.57,1.1-2.44.35-.87.65-1.73.92-2.57-.46.12-.95.24-1.49.36s-1.05.23-1.52.32c-.47.1-.86.16-1.14.2l-.45-1.6c.31-.02.71-.07,1.2-.13.49-.06,1-.14,1.55-.23.55-.1,1.06-.19,1.54-.3.48-.1.86-.21,1.15-.32l1.17.63c-.23.9-.55,1.9-.96,2.99-.41,1.09-.87,2.15-1.36,3.19.52.05,1.05.13,1.61.24.56.11,1.13.25,1.72.4.26-.86.4-1.72.41-2.56l1.66.4c-.06.88-.22,1.75-.49,2.61,1.02.32,1.99.7,2.92,1.12-.13.16-.28.4-.44.73-.16.33-.28.6-.35.82-.41-.23-.84-.44-1.29-.64-.45-.2-.91-.38-1.38-.55-.48,1.13-1.11,2.19-1.89,3.18-.78.99-1.66,1.81-2.63,2.46Zm-5.76-5c.02.19.14.34.34.45.2.11.46.12.78.05.32-.08.66-.28,1.02-.6.38-.38.8-.95,1.24-1.71-1.08.08-1.92.3-2.52.66-.6.35-.89.74-.86,1.16Z"/><path class="cls-5" d="m919.1,241.78l-.74-.72c1.1-1.08,1.96-2.27,2.56-3.57.61-1.3.91-2.75.91-4.33s-.3-3.03-.91-4.33c-.61-1.3-1.46-2.49-2.56-3.57l.74-.72c1.16,1.08,2.09,2.35,2.79,3.81.7,1.46,1.04,3.06,1.04,4.82s-.35,3.36-1.04,4.81c-.7,1.46-1.63,2.73-2.79,3.81Z"/></g></g><path id="_パス_242-4" class="cls-1" d="m956.67,237.86l12.64,12.64h-44.16"/><path id="_パス_241-4" class="cls-1" d="m720.66,250.5h249.16"/></g><g id="_グループ_213"><g id="_補助金分還元_全額_" class="cls-2"><g class="cls-2"><path class="cls-5" d="m273.34,142.31v-6.97c-.29.32-.58.63-.89.93s-.63.58-.96.85c-.12-.14-.29-.33-.52-.57-.23-.23-.41-.41-.56-.51.65-.49,1.27-1.06,1.85-1.7.59-.64,1.12-1.3,1.58-1.96.47-.67.83-1.29,1.1-1.86h-3.96v-1.39h2.3v-3.19h1.49v3.19h1.66l.59.56c-.29.64-.61,1.27-.97,1.89-.36.62-.75,1.23-1.17,1.82.29.22.61.45.96.69.35.25.69.48,1.02.69.32.22.59.39.81.52-.14.12-.31.3-.5.53-.19.23-.33.43-.42.58-.56-.37-1.2-.83-1.91-1.39v7.27h-1.51Zm4.63,0v-9.81c-.22.28-.46.58-.74.9-.28.32-.5.58-.68.77-.1-.1-.26-.23-.48-.4-.22-.17-.38-.29-.48-.35.26-.24.54-.55.84-.93s.54-.72.75-1.04l.79.54v-.79h3.62v-1.39h-4.14v-1.39h4.14v-2.52h1.51v2.52h2.3c-.24-.25-.53-.52-.86-.8-.34-.28-.63-.5-.88-.66l.86-.9c.19.12.42.29.68.5.26.21.51.43.77.65.25.22.45.41.59.57-.06.05-.16.14-.29.27-.13.13-.26.26-.38.38h1.39v1.39h-4.18v1.39h3.62v9.61c0,1-.58,1.49-1.73,1.49h-1.03c-.01-.21-.05-.47-.12-.79-.07-.32-.13-.56-.21-.72h1.01c.23,0,.39-.04.49-.12.1-.08.14-.22.14-.44v-1.94h-2.18v3.62h-1.51v-3.62h-2.16v4.01h-1.46Zm1.46-8.14h2.16v-1.62h-2.16v1.62Zm0,2.9h2.16v-1.66h-2.16v1.66Zm3.67-2.9h2.18v-1.62h-2.18v1.62Zm0,2.9h2.18v-1.66h-2.18v1.66Z"/><path class="cls-5" d="m288.99,140.77l-.36-1.76c.17-.02.36-.05.59-.08.22-.03.46-.07.71-.12v-11.84h6.17v10.53c.28-.07.52-.14.75-.2.22-.06.42-.11.58-.16v1.51c-.37.12-.83.26-1.37.41-.54.16-1.13.32-1.76.48-.64.16-1.28.32-1.93.48-.65.16-1.26.3-1.84.43-.58.13-1.1.24-1.54.32Zm2.54-10.04h2.95v-2.25h-2.95v2.25Zm0,3.69h2.95v-2.27h-2.95v2.27Zm0,4.09c1-.19,1.98-.4,2.95-.61v-2.05h-2.95v2.66Zm3.89,3.89c-.12-.24-.27-.48-.46-.72s-.36-.44-.53-.59c.92-.44,1.7-.92,2.34-1.41.64-.5,1.15-1.1,1.54-1.81.39-.71.67-1.58.85-2.62s.27-2.32.27-3.84h-2.48v-1.6h2.48v-3.55h1.62v3.55h3.65c0,.37,0,.76,0,1.18,0,.41,0,.84,0,1.29,0,1.38-.02,2.64-.06,3.77-.04,1.13-.11,2.07-.21,2.8-.11.83-.29,1.48-.53,1.95-.25.47-.57.81-.96,1-.4.19-.88.29-1.46.29h-1.19c-.04-.26-.09-.55-.16-.86-.07-.31-.14-.54-.2-.68h1.3c.29,0,.53-.04.73-.13.2-.09.36-.27.5-.55.13-.28.24-.68.32-1.21.1-.6.17-1.46.23-2.58s.1-2.34.11-3.66v-.99h-2.05c-.01,1.6-.13,2.98-.35,4.14-.22,1.16-.56,2.17-1.03,3.01-.46.84-1.04,1.57-1.75,2.18-.7.61-1.54,1.17-2.51,1.67Z"/><path class="cls-5" d="m307.35,133.44c-.08-.17-.21-.39-.39-.68-.17-.28-.36-.52-.57-.71.74-.26,1.52-.63,2.32-1.11.8-.47,1.58-1,2.33-1.59.75-.59,1.42-1.19,2.02-1.8.6-.61,1.07-1.19,1.4-1.75l1.57.25c.44.64.98,1.25,1.59,1.83.62.58,1.28,1.12,2,1.62.71.5,1.44.94,2.18,1.32.74.38,1.44.7,2.1.95-.12.12-.25.28-.4.49-.14.21-.28.41-.41.6-.13.2-.22.36-.28.48-.61-.28-1.27-.61-1.97-1.02-.7-.4-1.4-.86-2.1-1.36-.7-.5-1.35-1.04-1.97-1.62-.62-.58-1.14-1.18-1.57-1.8-.37.5-.86,1.04-1.47,1.59-.61.56-1.27,1.11-2.01,1.66-.73.55-1.48,1.05-2.23,1.5-.76.46-1.48.83-2.16,1.13Zm.22,8.3v-1.44h6.73v-4.07h-5.53v-1.49h5.53v-1.85h-3.22v-1.48h8.17v1.48h-3.2v1.85h5.47v1.49h-5.47v4.07h6.62v1.44h-15.1Zm3.98-1.55c-.11-.26-.27-.58-.49-.95s-.44-.73-.68-1.08c-.24-.35-.47-.63-.68-.84l1.35-.81c.35.41.68.86,1.01,1.35.32.49.62.98.88,1.48l-1.39.85Zm7.2,0l-1.37-.7c.28-.42.57-.92.87-1.49s.54-1.1.71-1.57l1.48.63c-.12.29-.28.62-.47,1-.19.38-.4.75-.61,1.12-.22.37-.42.71-.61,1.01Z"/><path class="cls-5" d="m325.6,134.86c-.06-.11-.16-.25-.31-.41-.14-.17-.29-.34-.45-.5-.16-.17-.3-.3-.43-.4.71-.37,1.41-.86,2.12-1.48.7-.61,1.35-1.29,1.93-2.03s1.04-1.49,1.37-2.25l1.58.76c-.4.86-.91,1.69-1.53,2.47-.62.79-1.31,1.51-2.05,2.16-.74.65-1.49,1.21-2.23,1.68Zm1.15,7.38c-.04-.11-.1-.25-.21-.43-.1-.18-.21-.36-.33-.55-.12-.19-.23-.33-.34-.42,1.64-.5,2.9-1.3,3.78-2.39.88-1.09,1.37-2.36,1.49-3.82h-2.97v-1.62h9.92c0,.55-.02,1.16-.04,1.81-.03.65-.08,1.3-.14,1.95-.07.65-.14,1.26-.23,1.83-.09.57-.19,1.05-.3,1.45-.23.79-.58,1.33-1.05,1.63-.47.29-1.12.44-1.95.44h-1.48c-.01-.24-.06-.53-.13-.88-.08-.35-.16-.62-.24-.81h1.64c.49,0,.85-.07,1.08-.22s.41-.45.54-.89c.12-.36.22-.82.3-1.39.08-.57.14-1.16.19-1.75.05-.6.07-1.11.07-1.53h-3.51c-.08,1.14-.36,2.21-.82,3.2s-1.12,1.87-1.99,2.63c-.86.76-1.95,1.35-3.26,1.78Zm13.97-7.6c-.88-.47-1.72-1.03-2.53-1.68-.81-.65-1.51-1.39-2.11-2.22-.59-.83-1.02-1.73-1.27-2.7h-3.22v-1.57h4.57c.16,1,.5,1.91,1.04,2.73.53.82,1.21,1.56,2.02,2.21s1.71,1.22,2.71,1.7c-.12.1-.26.24-.42.44-.16.2-.31.4-.46.59-.14.2-.25.36-.32.5Z"/><path class="cls-5" d="m353.12,142.01c-1.24,0-2.29-.07-3.17-.2-.88-.13-1.62-.33-2.23-.6-.61-.27-1.15-.62-1.6-1.05-.2.16-.47.34-.79.56-.32.22-.65.43-.98.66-.33.22-.61.41-.84.57l-.7-1.58c.2-.08.46-.21.78-.37.32-.16.64-.33.95-.51.32-.18.57-.34.77-.47v-4.63h-2.21v-1.48h3.74v6.03c.3.42.71.75,1.22,1,.52.25,1.19.42,2.02.52s1.84.15,3.04.15c1.45,0,2.7-.02,3.73-.07s1.91-.11,2.62-.2c-.04.08-.08.23-.14.44s-.11.43-.16.65-.08.4-.09.53c-.3.01-.69.02-1.16.03-.47,0-.99.01-1.54.02-.55,0-1.11,0-1.67,0h-1.58Zm-6.97-11.93c-.19-.25-.44-.54-.74-.86-.3-.32-.62-.63-.96-.94-.34-.31-.67-.57-1-.78l1.1-1.1c.31.22.64.47.99.77.35.3.68.61,1,.92.32.31.58.6.8.86-.08.07-.21.18-.38.32-.17.14-.33.29-.48.43-.15.14-.26.26-.33.36Zm1.08,1.8v-1.13h11.81v1.13h-11.81Zm4.88,8.24v-2.9c-.6.42-1.25.82-1.96,1.19-.71.37-1.37.68-1.98.92-.06-.16-.17-.37-.32-.63s-.29-.46-.42-.59c.53-.16,1.06-.36,1.61-.61s1.07-.52,1.58-.81c.51-.29.96-.57,1.36-.85h-3.08v-3.17h8.46v3.17l.9.63c-.17.16-.4.35-.68.58-.29.23-.58.45-.86.67.35.16.7.31,1.05.45.35.14.7.26,1.03.36-.11.12-.24.32-.39.58-.15.27-.26.48-.31.62-.7-.24-1.46-.58-2.28-1.03-.82-.44-1.57-.91-2.24-1.39v2.81h-1.48Zm-3.83-10.17v-3.51h9.83v3.51h-9.83Zm1.44-1.04h1.53v-1.39h-1.53v1.39Zm.74,5.9h5.36v-1.12h-5.36v1.12Zm1.98-5.9h1.53v-1.39h-1.53v1.39Zm3.1,8.19c.24-.17.49-.37.75-.61.26-.24.48-.46.67-.65h-3.37v.07c.25.18.55.37.88.58s.69.41,1.06.61Zm-.38-8.19h1.51v-1.39h-1.51v1.39Z"/><path class="cls-5" d="m361.78,142.24c-.08-.22-.21-.46-.37-.74s-.35-.5-.55-.68c1.16-.24,2.14-.64,2.92-1.2.78-.56,1.37-1.33,1.77-2.32.4-.99.62-2.26.66-3.81h-4.79v-1.6h15.46v1.6h-5.04v6.12c0,.23.05.39.15.5.1.1.3.15.58.15h1.78c.34,0,.61-.05.81-.14.2-.1.37-.32.49-.67.12-.35.22-.89.29-1.62.16.12.4.25.74.38s.61.23.83.29c-.13.95-.31,1.67-.54,2.15-.23.49-.51.81-.85.98s-.74.25-1.2.25h-3.04c-.59,0-1.03-.11-1.32-.34-.29-.23-.44-.62-.44-1.17v-6.88h-2.18c-.04,1.69-.29,3.12-.76,4.28-.47,1.16-1.16,2.11-2.06,2.83-.9.73-2.01,1.27-3.33,1.63Zm1.42-13.79v-1.55h11.92v1.55h-11.92Z"/><path class="cls-5" d="m394.21,142.78c-1.16-1.08-2.09-2.35-2.79-3.81-.7-1.46-1.04-3.06-1.04-4.81s.35-3.36,1.04-4.82c.7-1.46,1.63-2.73,2.79-3.81l.74.72c-1.09,1.08-1.94,2.27-2.56,3.57-.61,1.3-.92,2.75-.92,4.33s.31,3.03.92,4.33c.61,1.3,1.46,2.49,2.56,3.57l-.74.72Z"/><path class="cls-5" d="m397.87,141.74v-1.51h6.44v-2.52h-4.46v-1.53h4.46v-2.12h-4.41v-1.26c-.4.26-.8.52-1.22.76-.41.25-.83.47-1.25.68-.06-.12-.15-.27-.28-.45-.13-.18-.26-.36-.4-.53-.14-.17-.25-.3-.35-.39.77-.31,1.54-.72,2.33-1.22.79-.5,1.54-1.07,2.27-1.69s1.38-1.28,1.97-1.96c.59-.68,1.07-1.37,1.44-2.05l1.53.22c.54.86,1.23,1.71,2.08,2.54.85.83,1.77,1.57,2.78,2.24,1.01.67,2.03,1.2,3.08,1.61-.16.16-.34.39-.55.7-.21.31-.37.58-.48.81-.84-.4-1.67-.86-2.5-1.39v1.39h-4.32v2.12h4.37v1.53h-4.37v2.52h6.43v1.51h-14.6Zm2.45-9.23h9.79c-.98-.65-1.91-1.38-2.77-2.21-.86-.82-1.59-1.69-2.18-2.6-.55.86-1.25,1.71-2.1,2.53-.85.82-1.76,1.58-2.74,2.28Z"/><path class="cls-5" d="m416.57,141.76v-4.66c-.2.11-.41.21-.61.31-.2.1-.41.19-.63.29-.04-.08-.1-.21-.21-.37s-.21-.32-.32-.48c-.11-.16-.21-.26-.28-.32.67-.24,1.34-.56,2-.96.66-.4,1.27-.84,1.84-1.3-.41-.42-.77-.86-1.1-1.33-.48.52-.97.95-1.48,1.31-.1-.13-.25-.3-.47-.51-.22-.21-.4-.36-.54-.44.44-.26.89-.62,1.34-1.07.45-.45.85-.94,1.21-1.46s.62-1.02.79-1.5l1.33.47c-.07.17-.16.34-.25.52-.1.18-.2.37-.31.56h3.1l.43.4c-.5,1.09-1.2,2.11-2.09,3.04,1.13.84,2.3,1.43,3.51,1.78v-6.55h2c.08-.24.17-.5.25-.77.08-.28.16-.54.23-.79h-3.13v-1.35h8.08v1.35h-3.29c-.08.24-.17.5-.25.78-.08.28-.17.54-.27.78h3.01v9.13h-6.62v-2.52c-.11.13-.24.33-.4.59-.16.26-.26.46-.32.59-.19-.06-.38-.13-.58-.21-.19-.08-.39-.16-.59-.24v4.95h-5.38Zm-1.31-11.12v-2.97h3.15v-1.71h1.57v1.71h3.13v2.95h-1.35v-1.69h-5.17v1.71h-1.33Zm1.91,6.14h4.72c-.91-.42-1.76-.95-2.54-1.58-.68.59-1.41,1.12-2.18,1.58Zm.81,3.74h2.57v-2.5h-2.57v2.5Zm1.33-7.16c.24-.24.45-.48.64-.71.19-.23.34-.46.46-.69h-2.25c.31.52.7.98,1.15,1.4Zm3.76,9.05c-.08-.14-.23-.34-.45-.58-.22-.25-.39-.42-.52-.53.37-.17.77-.41,1.21-.71s.84-.63,1.23-.98c.39-.35.71-.67.94-.95l1.12.83c-.44.55-.99,1.1-1.65,1.63-.65.53-1.28.97-1.88,1.31Zm2.27-10.26h3.64v-1.39h-3.64v1.39Zm0,2.54h3.64v-1.4h-3.64v1.4Zm0,2.61h3.64v-1.48h-3.64v1.48Zm5.65,5.09c-.59-.34-1.21-.77-1.85-1.3-.65-.53-1.2-1.07-1.66-1.62l1.1-.83c.25.3.57.62.96.96.39.34.8.66,1.22.96.43.3.82.54,1.2.72-.08.06-.19.16-.32.3-.13.14-.26.28-.38.43-.12.15-.21.27-.27.37Z"/><path class="cls-5" d="m434.1,142.78l-.74-.72c1.1-1.08,1.96-2.27,2.56-3.57s.91-2.75.91-4.33-.3-3.03-.91-4.33-1.46-2.49-2.56-3.57l.74-.72c1.16,1.08,2.09,2.35,2.79,3.81s1.04,3.06,1.04,4.82-.35,3.36-1.04,4.81-1.63,2.73-2.79,3.81Z"/></g></g><path id="_パス_244" class="cls-1" d="m243.64,138.38l-12.64,12.64h44.16"/><path id="_パス_243" class="cls-1" d="m231,151.02h249.16"/></g><g id="_グループ_211"><g id="_交付決定_補助金交付" class="cls-2"><g class="cls-2"><path class="cls-5" d="m761.67,175.35c-.05-.11-.13-.26-.24-.46-.11-.2-.23-.4-.36-.59s-.23-.34-.32-.44c1.34-.29,2.59-.68,3.74-1.18s2.2-1.14,3.15-1.92c-1.02-1.13-1.86-2.47-2.52-4.03l1.42-.67c.31.71.66,1.36,1.04,1.95.38.59.79,1.14,1.23,1.63.46-.49.88-1.03,1.27-1.63.39-.59.74-1.24,1.05-1.95l1.49.67c-.74,1.55-1.64,2.89-2.68,4.01,1,.83,2.08,1.48,3.26,1.96,1.18.48,2.41.83,3.71,1.06-.1.11-.21.27-.34.48s-.25.42-.37.62-.2.37-.24.49c-1.44-.36-2.76-.82-3.95-1.39-1.19-.56-2.27-1.27-3.23-2.11-.91.78-1.95,1.46-3.12,2.02-1.17.57-2.5,1.06-3.99,1.47Zm.52-7.29c-.08-.17-.23-.39-.45-.67-.22-.28-.41-.48-.58-.61.55-.26,1.14-.61,1.76-1.04.62-.43,1.22-.9,1.78-1.4.56-.5,1.02-.99,1.37-1.46h-5.09v-1.48h6.95v-2.41h1.78v2.41h6.91v1.48h-5.33c.42.46.92.91,1.51,1.37.59.46,1.19.87,1.82,1.24s1.2.67,1.73.9c-.08.08-.19.22-.32.4-.13.18-.24.37-.35.56-.11.19-.19.35-.23.47-.61-.29-1.25-.65-1.93-1.1-.67-.44-1.31-.92-1.91-1.41s-1.1-.96-1.49-1.39l1.12-1.03h-5.17l1.22.97c-.35.48-.81.99-1.39,1.52s-1.19,1.04-1.84,1.52c-.65.48-1.28.87-1.88,1.17Z"/><path class="cls-5" d="m781.49,175.3v-9.77c-.36.48-.73.94-1.1,1.37-.37.43-.73.82-1.08,1.15-.11-.13-.29-.31-.56-.53-.26-.22-.48-.38-.65-.48.37-.32.77-.74,1.19-1.24s.84-1.06,1.26-1.67c.42-.61.81-1.22,1.18-1.85.37-.63.68-1.23.94-1.8.26-.57.46-1.07.58-1.5l1.53.54c-.19.55-.43,1.13-.71,1.73-.28.6-.6,1.2-.95,1.8v12.26h-1.64Zm6.91-.05c-.01-.23-.06-.52-.14-.86s-.17-.61-.25-.79h2.03c.25,0,.43-.04.54-.13s.16-.25.16-.5v-8.19h-6.73v-1.57h6.73v-4.03h1.67v4.03h2.66v1.57h-2.66v8.78c0,.59-.16,1.02-.48,1.29-.32.27-.81.41-1.49.41h-2.05Zm-.65-4.41c-.17-.34-.41-.74-.73-1.21-.32-.47-.65-.93-1-1.38-.35-.45-.66-.81-.94-1.09l1.37-.94c.29.29.6.65.95,1.07s.67.86,1,1.31c.32.45.59.87.79,1.25-.11.05-.26.13-.46.26s-.39.26-.58.4c-.19.14-.32.24-.41.32Z"/><path class="cls-5" d="m799.31,166.57c-.22-.2-.51-.44-.88-.69s-.75-.51-1.14-.75-.74-.42-1.04-.54l.83-1.31c.34.16.7.34,1.09.56s.77.44,1.13.68c.37.24.68.48.93.72-.06.07-.16.2-.29.38-.13.18-.26.36-.38.54-.12.18-.2.32-.25.41Zm-1.35,8.44l-1.37-1.04c.26-.34.55-.75.85-1.24.3-.49.6-1.01.89-1.56s.56-1.08.8-1.59.43-.97.56-1.35c.07.07.19.18.35.32s.33.28.5.41.32.24.42.3c-.12.37-.3.81-.54,1.32s-.51,1.04-.8,1.6c-.29.56-.58,1.09-.87,1.58s-.55.92-.79,1.25Zm2.56-12.4c-.22-.19-.51-.42-.88-.68-.37-.26-.75-.52-1.14-.76-.39-.24-.74-.42-1.04-.54l.85-1.28c.31.13.67.31,1.07.54.4.23.79.47,1.17.72s.68.49.91.7c-.06.07-.16.2-.29.37-.13.17-.26.35-.39.52s-.21.31-.26.41Zm.38,12.82c-.08-.18-.22-.41-.41-.7-.19-.29-.36-.52-.53-.68,1.43-.53,2.56-1.27,3.39-2.21.83-.95,1.39-2.13,1.68-3.55h-4.34v-1.49h4.55c.02-.2.04-.41.04-.6v-2.71h-3.47v-1.46h3.47v-3.08h1.64v3.08h4.25v4.77h1.85v1.49h-5.56c.32.83.77,1.61,1.34,2.34.57.73,1.23,1.37,1.98,1.92s1.55.97,2.4,1.29c-.11.1-.23.24-.38.44-.14.2-.27.39-.39.58-.11.19-.2.34-.24.45-1.38-.64-2.55-1.44-3.5-2.41-.95-.97-1.71-2.14-2.28-3.49-.85,2.8-2.69,4.81-5.51,6.03Zm5.98-8.64h2.65v-3.31h-2.59v2.11c0,.41-.02.81-.05,1.21Z"/><path class="cls-5" d="m815.56,175.06c-.08-.11-.21-.24-.38-.39-.17-.15-.34-.29-.51-.43-.17-.14-.33-.23-.46-.28.68-.49,1.33-1.1,1.95-1.83.62-.73,1.16-1.51,1.62-2.35s.79-1.66,1-2.47l1.67.54c-.11.37-.24.74-.4,1.12-.16.37-.34.75-.54,1.12.31.59.67,1.09,1.09,1.5s.88.75,1.41,1.02v-6.59h-4.46v-1.49h10.49v1.49h-4.32v2.45h4.82v1.51h-4.82v3.17c.4.08.82.14,1.27.18s.92.05,1.41.05c.77,0,1.58-.02,2.45-.06s1.63-.11,2.29-.19c-.04.08-.08.24-.14.48-.06.23-.11.47-.15.72-.04.25-.07.43-.08.57-.61.01-1.31.02-2.11.03s-1.54,0-2.25,0c-1.39,0-2.57-.12-3.55-.36-.97-.24-1.79-.61-2.46-1.12s-1.25-1.15-1.74-1.93c-.9,1.38-1.94,2.56-3.11,3.53Zm-.49-9.83v-3.92h6.8v-2.34h1.78v2.34h6.89v3.85h-1.66v-2.45h-12.19v2.52h-1.64Z"/><path class="cls-5" d="m840.82,168.91c-.48,0-.89-.17-1.23-.51-.34-.34-.51-.75-.51-1.23s.17-.91.51-1.24.75-.5,1.23-.5.91.17,1.24.5c.33.34.5.75.5,1.24s-.17.89-.5,1.23c-.34.34-.75.51-1.24.51Z"/><path class="cls-5" d="m853,175.31v-6.97c-.29.32-.58.63-.89.93-.31.29-.63.58-.96.85-.12-.14-.29-.33-.52-.57-.23-.23-.41-.41-.56-.51.65-.49,1.27-1.06,1.85-1.7.59-.64,1.12-1.3,1.58-1.96.47-.67.83-1.29,1.1-1.86h-3.96v-1.39h2.3v-3.19h1.49v3.19h1.66l.59.56c-.29.64-.61,1.27-.97,1.89-.36.62-.75,1.23-1.17,1.82.29.22.61.45.96.69.35.25.69.48,1.02.69s.59.39.81.52c-.14.12-.31.3-.5.53-.19.23-.33.43-.42.58-.56-.37-1.2-.83-1.91-1.39v7.27h-1.51Zm4.63,0v-9.81c-.22.28-.46.58-.74.9-.28.32-.5.58-.68.77-.1-.1-.25-.23-.48-.4-.22-.17-.38-.29-.48-.35.26-.24.54-.55.84-.93s.54-.72.75-1.04l.79.54v-.79h3.62v-1.39h-4.14v-1.39h4.14v-2.52h1.51v2.52h2.3c-.24-.25-.53-.52-.86-.8-.34-.28-.63-.5-.88-.66l.86-.9c.19.12.42.29.68.5.26.21.51.43.76.65.25.22.45.41.59.57-.06.05-.16.14-.29.27-.13.13-.26.26-.38.38h1.39v1.39h-4.18v1.39h3.62v9.61c0,1-.58,1.49-1.73,1.49h-1.03c-.01-.21-.05-.47-.12-.79-.07-.32-.13-.56-.21-.72h1.01c.23,0,.39-.04.49-.12.1-.08.14-.22.14-.44v-1.94h-2.18v3.62h-1.51v-3.62h-2.16v4.01h-1.46Zm1.46-8.14h2.16v-1.62h-2.16v1.62Zm0,2.9h2.16v-1.66h-2.16v1.66Zm3.67-2.9h2.18v-1.62h-2.18v1.62Zm0,2.9h2.18v-1.66h-2.18v1.66Z"/><path class="cls-5" d="m868.64,173.77l-.36-1.76c.17-.02.36-.05.58-.08.22-.03.46-.07.71-.12v-11.84h6.17v10.53c.28-.07.53-.14.75-.2.22-.06.42-.11.58-.16v1.51c-.37.12-.83.26-1.37.41-.54.16-1.13.32-1.76.48s-1.28.32-1.93.48c-.65.16-1.26.3-1.84.43-.58.13-1.1.24-1.54.32Zm2.54-10.04h2.95v-2.25h-2.95v2.25Zm0,3.69h2.95v-2.27h-2.95v2.27Zm0,4.09c1-.19,1.98-.4,2.95-.61v-2.05h-2.95v2.66Zm3.89,3.89c-.12-.24-.27-.48-.46-.72-.19-.24-.36-.44-.53-.59.92-.44,1.7-.92,2.34-1.41s1.15-1.1,1.54-1.81c.39-.71.67-1.58.86-2.62.18-1.04.27-2.32.27-3.84h-2.48v-1.6h2.48v-3.55h1.62v3.55h3.65c0,.37,0,.76,0,1.18,0,.41,0,.84,0,1.29,0,1.38-.02,2.64-.06,3.77-.04,1.13-.11,2.07-.21,2.8-.11.83-.29,1.48-.53,1.95-.25.47-.57.81-.96,1-.4.19-.88.29-1.46.29h-1.19c-.04-.26-.09-.55-.16-.86-.07-.31-.14-.54-.2-.68h1.3c.29,0,.53-.04.73-.13.2-.09.36-.27.5-.55s.24-.68.32-1.21c.1-.6.17-1.46.23-2.58.06-1.12.1-2.34.11-3.66v-.99h-2.05c-.01,1.6-.13,2.98-.35,4.14-.22,1.16-.56,2.17-1.03,3.01s-1.04,1.57-1.75,2.18-1.54,1.17-2.51,1.67Z"/><path class="cls-5" d="m887,166.44c-.08-.17-.21-.39-.39-.68-.17-.28-.36-.52-.57-.71.74-.26,1.52-.63,2.32-1.11.8-.47,1.58-1,2.33-1.59.75-.59,1.42-1.19,2.03-1.8.6-.61,1.07-1.19,1.4-1.75l1.57.25c.44.64.97,1.25,1.59,1.83s1.28,1.12,2,1.62,1.44.94,2.18,1.32c.74.38,1.44.7,2.1.95-.12.12-.25.28-.4.49-.14.21-.28.41-.41.6-.13.2-.22.36-.28.48-.61-.28-1.27-.61-1.97-1.02-.7-.4-1.4-.86-2.1-1.36s-1.35-1.04-1.97-1.62c-.62-.58-1.14-1.18-1.58-1.8-.37.5-.86,1.04-1.47,1.59-.61.56-1.28,1.11-2.01,1.66-.73.55-1.48,1.05-2.23,1.5s-1.48.83-2.16,1.13Zm.22,8.3v-1.44h6.73v-4.07h-5.53v-1.49h5.53v-1.85h-3.22v-1.48h8.17v1.48h-3.2v1.85h5.47v1.49h-5.47v4.07h6.62v1.44h-15.1Zm3.98-1.55c-.11-.26-.27-.58-.49-.95s-.44-.73-.68-1.08c-.24-.35-.47-.63-.68-.84l1.35-.81c.35.41.68.86,1.01,1.35s.62.98.88,1.48l-1.39.85Zm7.2,0l-1.37-.7c.28-.42.57-.92.87-1.49.31-.58.54-1.1.71-1.57l1.48.63c-.12.29-.28.62-.47,1s-.4.75-.61,1.12c-.22.37-.42.71-.61,1.01Z"/><path class="cls-5" d="m905.67,175.35c-.05-.11-.13-.26-.24-.46-.11-.2-.23-.4-.36-.59s-.23-.34-.32-.44c1.34-.29,2.59-.68,3.74-1.18s2.2-1.14,3.15-1.92c-1.02-1.13-1.86-2.47-2.52-4.03l1.42-.67c.31.71.66,1.36,1.04,1.95.38.59.79,1.14,1.23,1.63.46-.49.88-1.03,1.27-1.63.39-.59.74-1.24,1.05-1.95l1.49.67c-.74,1.55-1.64,2.89-2.68,4.01,1,.83,2.08,1.48,3.26,1.96,1.18.48,2.41.83,3.71,1.06-.1.11-.21.27-.34.48s-.25.42-.37.62-.2.37-.24.49c-1.44-.36-2.76-.82-3.95-1.39-1.19-.56-2.27-1.27-3.23-2.11-.91.78-1.95,1.46-3.12,2.02-1.17.57-2.5,1.06-3.99,1.47Zm.52-7.29c-.08-.17-.23-.39-.45-.67-.22-.28-.41-.48-.58-.61.55-.26,1.14-.61,1.76-1.04.62-.43,1.22-.9,1.78-1.4.56-.5,1.02-.99,1.37-1.46h-5.09v-1.48h6.95v-2.41h1.78v2.41h6.91v1.48h-5.33c.42.46.92.91,1.51,1.37.59.46,1.19.87,1.82,1.24s1.2.67,1.73.9c-.08.08-.19.22-.32.4-.13.18-.24.37-.35.56-.11.19-.19.35-.23.47-.61-.29-1.25-.65-1.93-1.1-.67-.44-1.31-.92-1.91-1.41s-1.1-.96-1.49-1.39l1.12-1.03h-5.17l1.22.97c-.35.48-.81.99-1.39,1.52s-1.19,1.04-1.84,1.52c-.65.48-1.28.87-1.88,1.17Z"/><path class="cls-5" d="m925.49,175.3v-9.77c-.36.48-.73.94-1.1,1.37-.37.43-.73.82-1.08,1.15-.11-.13-.29-.31-.56-.53-.26-.22-.48-.38-.65-.48.37-.32.77-.74,1.19-1.24s.84-1.06,1.26-1.67c.42-.61.81-1.22,1.18-1.85.37-.63.68-1.23.94-1.8.26-.57.46-1.07.58-1.5l1.53.54c-.19.55-.43,1.13-.71,1.73-.28.6-.6,1.2-.95,1.8v12.26h-1.64Zm6.91-.05c-.01-.23-.06-.52-.14-.86s-.17-.61-.25-.79h2.03c.25,0,.43-.04.54-.13s.16-.25.16-.5v-8.19h-6.73v-1.57h6.73v-4.03h1.67v4.03h2.66v1.57h-2.66v8.78c0,.59-.16,1.02-.48,1.29-.32.27-.81.41-1.49.41h-2.05Zm-.65-4.41c-.17-.34-.41-.74-.73-1.21-.32-.47-.65-.93-1-1.38-.35-.45-.66-.81-.94-1.09l1.37-.94c.29.29.6.65.95,1.07s.67.86,1,1.31c.32.45.59.87.79,1.25-.11.05-.26.13-.46.26s-.39.26-.58.4c-.19.14-.32.24-.41.32Z"/></g></g><path id="_パス_244-2" class="cls-1" d="m733.3,171.38l-12.64,12.64h44.16"/><path id="_パス_243-2" class="cls-1" d="m720.66,184.02h249.16"/></g><g id="_グループ_214"><g id="_完成_引渡し" class="cls-2"><g class="cls-2"><path class="cls-5" d="m307.74,241.38c-.02-.11-.08-.26-.17-.45-.09-.19-.19-.38-.29-.57-.1-.19-.2-.33-.28-.44,1.78-.25,3.11-.85,4.01-1.78.9-.94,1.39-2.09,1.46-3.47h-5.24v-1.48h15.86v1.48h-5.31v4.32c0,.18.05.31.14.4.1.08.28.13.54.13h2.05c.34,0,.6-.05.8-.16.2-.11.35-.31.47-.62.11-.31.2-.76.24-1.36.18.11.43.22.74.32.31.11.58.19.79.25-.11.89-.26,1.55-.47,2-.2.44-.48.74-.83.88-.35.14-.79.22-1.33.22h-3.02c-.66,0-1.12-.1-1.38-.3-.26-.2-.39-.54-.39-1.02v-5.06h-2.03c-.07,1.79-.65,3.27-1.72,4.44-1.07,1.17-2.62,1.93-4.65,2.28Zm-.31-10.4v-4.16h6.77v-1.89h1.84v1.89h6.82v4.09h-1.64v-2.59h-12.13v2.66h-1.66Zm2.77.5v-1.48h9.95v1.48h-9.95Z"/><path class="cls-5" d="m331.66,241.06c-.08-.17-.23-.39-.42-.67-.2-.28-.37-.48-.51-.61.85-.4,1.64-.87,2.37-1.43.73-.56,1.38-1.17,1.97-1.84-.38-.85-.72-1.84-1.02-2.96-.29-1.12-.52-2.42-.68-3.88h-5.27v2.05h4.23c0,.95-.03,1.88-.08,2.8-.05.92-.15,1.7-.28,2.33-.16.8-.44,1.36-.84,1.66-.4.3-.99.45-1.77.45h-1.04c-.02-.22-.07-.49-.14-.83-.07-.34-.14-.59-.22-.77h1.15c.49,0,.81-.07.95-.22.14-.15.26-.43.34-.84.08-.37.15-.84.19-1.4.04-.56.06-1.13.06-1.69h-2.59c-.05,1.3-.16,2.42-.33,3.36-.17.94-.41,1.76-.72,2.47-.31.7-.69,1.34-1.14,1.92-.1-.07-.25-.16-.46-.27s-.41-.21-.6-.31c-.19-.1-.32-.16-.4-.18.48-.6.86-1.29,1.15-2.06.29-.77.5-1.7.63-2.76.13-1.07.2-2.35.2-3.85v-3.38h6.84c-.02-.49-.04-1-.06-1.54-.02-.53-.03-1.08-.03-1.65h1.64c0,1.13.04,2.19.11,3.19h3.4c-.32-.36-.68-.72-1.08-1.07-.4-.35-.76-.64-1.08-.85l1.01-1.08c.28.18.58.41.92.68.34.28.66.56.96.84.31.28.54.53.71.73-.08.06-.21.17-.38.31-.17.15-.32.3-.47.44h1.89v1.55h-5.74c.12,1.07.28,2.04.5,2.92.21.88.45,1.67.71,2.38.4-.61.74-1.25,1.04-1.93.3-.67.55-1.36.74-2.07l1.57.52c-.6,1.92-1.45,3.62-2.56,5.11.36.61.75,1.13,1.17,1.56.42.43.85.78,1.3,1.05.14-.38.28-.81.41-1.29.13-.47.21-.88.26-1.21.08.06.22.13.41.22.19.09.39.17.6.25.21.08.37.14.48.17-.07.36-.17.75-.28,1.15-.11.41-.23.8-.36,1.17s-.25.68-.39.94c-.16.29-.37.47-.64.54-.27.07-.57.02-.89-.16-.55-.29-1.1-.67-1.66-1.16-.55-.49-1.07-1.1-1.57-1.84-1.22,1.3-2.63,2.32-4.21,3.08Z"/><path class="cls-5" d="m351.16,234.91c-.48,0-.89-.17-1.23-.51-.34-.34-.51-.75-.51-1.23s.17-.91.51-1.24c.34-.34.75-.5,1.23-.5s.91.17,1.24.5c.34.34.5.75.5,1.24s-.17.89-.5,1.23c-.34.34-.75.51-1.24.51Z"/><path class="cls-5" d="m363.94,241.13c-.02-.24-.07-.54-.15-.91-.08-.37-.17-.65-.26-.85h2.32c.59,0,1.02-.1,1.31-.31.28-.2.48-.58.6-1.13.1-.46.18-.98.25-1.57.07-.59.11-1.16.13-1.68h-6.48c.06-.26.13-.64.22-1.12.08-.48.17-.99.26-1.53.09-.54.17-1.04.23-1.51.07-.47.11-.82.13-1.04h5.63v-2.32h-6.07v-1.49h7.79v5.29h-5.89c-.02.13-.06.34-.11.62-.05.28-.1.57-.14.86-.05.29-.09.53-.13.71h6.41c-.04.86-.09,1.76-.17,2.69s-.18,1.75-.31,2.46c-.14.74-.37,1.32-.67,1.74s-.68.7-1.15.86-1.03.24-1.67.24h-2.09Zm10.03.05v-16.09h1.75v16.09h-1.75Z"/><path class="cls-5" d="m381.88,232.67c-.22-.2-.51-.44-.88-.7-.37-.26-.75-.52-1.14-.76-.39-.24-.74-.42-1.04-.54l.83-1.3c.34.16.7.34,1.09.56.39.22.77.44,1.13.68s.68.48.93.72c-.06.07-.16.2-.29.38-.13.18-.26.36-.38.54-.12.18-.2.32-.25.41Zm-1.57,8.26l-1.44-.97c.25-.35.52-.77.79-1.28.28-.5.55-1.03.82-1.59.27-.56.51-1.1.73-1.63.22-.53.38-.99.5-1.39.07.07.19.17.36.31.17.13.35.26.53.39.19.13.33.22.44.28-.11.37-.27.82-.49,1.35-.22.53-.46,1.07-.72,1.64-.26.56-.53,1.1-.8,1.61-.27.51-.51.94-.73,1.29Zm2.2-12.33c-.22-.19-.51-.42-.88-.68-.37-.26-.75-.52-1.14-.76-.39-.24-.74-.42-1.04-.54l.85-1.28c.31.13.67.31,1.08.54.41.23.8.47,1.18.72s.68.49.91.7c-.06.07-.16.2-.3.37-.14.17-.27.35-.4.52s-.21.31-.26.41Zm1.08,12.65c-.08-.07-.22-.16-.4-.26-.18-.1-.36-.2-.55-.31-.19-.1-.34-.17-.46-.21.46-.66.83-1.36,1.12-2.11.29-.74.51-1.62.65-2.62.14-1,.21-2.22.21-3.64v-5.31h4.63v-1.85h1.66v1.85h4.79v1.4h-2.63v1.6h2.5v1.33h-2.5v2.39h-4.99v-2.39h-1.96v.97c0,1.18-.04,2.21-.12,3.1-.08.89-.2,1.68-.37,2.38-.17.7-.38,1.34-.64,1.93s-.57,1.17-.94,1.75Zm2.18.13c-.02-.1-.08-.24-.18-.42-.1-.19-.2-.37-.3-.55-.1-.18-.2-.32-.28-.41,1.42-.28,2.74-.8,3.98-1.57-.73-.78-1.33-1.7-1.78-2.75h-1.28v-1.31h7.56l.56.61c-.36.68-.77,1.32-1.22,1.9s-.95,1.11-1.48,1.59c.56.36,1.19.66,1.88.91.69.25,1.45.43,2.28.55-.07.1-.16.23-.26.41-.1.18-.2.36-.29.55-.09.19-.15.33-.19.44-1.78-.29-3.32-.91-4.64-1.87-1.32.9-2.77,1.54-4.36,1.93Zm-.11-11.57h1.96v-1.6h-1.96v1.6Zm4.52,7.74c.32-.28.62-.57.89-.88.27-.31.51-.64.73-.99h-3.08c.41.72.89,1.34,1.46,1.87Zm-1.12-7.74h2.09v-1.6h-2.09v1.6Zm0,2.52h2.09v-1.19h-2.09v1.19Z"/><path class="cls-5" d="m404.62,240.43c-.89,0-1.61-.09-2.17-.26s-.97-.48-1.22-.91c-.26-.43-.39-1.02-.39-1.76v-11.86l1.82.13c-.01.19-.03.53-.05,1.01-.02.48-.04,1.01-.05,1.58-.01.44-.02.93-.03,1.47,0,.53,0,1.1,0,1.7v5.69c0,.59.17,1,.5,1.22.33.23.9.34,1.7.34.76,0,1.5-.11,2.23-.32.73-.21,1.42-.49,2.07-.84.65-.35,1.21-.73,1.69-1.15.01.16.03.36.06.61s.07.5.11.73c.04.23.08.4.1.49-.86.62-1.85,1.13-2.97,1.53-1.12.4-2.24.59-3.38.59Z"/></g></g><path id="_パス_246" class="cls-1" d="m243.64,237.37l-12.64,12.64h44.16"/><path id="_パス_245" class="cls-1" d="m231,250.02h249.16"/></g></g></svg>