<svg xmlns="http://www.w3.org/2000/svg" width="24" height="24" viewBox="0 0 24 24"><path d="M-2170.956,25A1.044,1.044,0,0,1-2172,23.956V5.174a1.044,1.044,0,0,1,1.043-1.044h8.348a1.045,1.045,0,0,1,1.043,1.044,1.044,1.044,0,0,1-1.043,1.043h-7.3V22.912h16.7v-7.3a1.043,1.043,0,0,1,1.043-1.043,1.043,1.043,0,0,1,1.043,1.043v8.348A1.044,1.044,0,0,1-2152.174,25Zm8.653-9.7a1.043,1.043,0,0,1,0-1.475l10.741-10.741h-6.873a1.043,1.043,0,0,1-1.043-1.043A1.044,1.044,0,0,1-2158.435,1h9.392A1.044,1.044,0,0,1-2148,2.043v9.391a1.044,1.044,0,0,1-1.043,1.044,1.043,1.043,0,0,1-1.043-1.044V4.563l-10.742,10.74a1.038,1.038,0,0,1-.737.306A1.041,1.041,0,0,1-2162.3,15.3Z" transform="translate(2172 -1)" fill="#3B7B5B"/></svg>