<?xml version="1.0" encoding="UTF-8"?><svg id="_レイヤー_2" xmlns="http://www.w3.org/2000/svg" viewBox="0 0 358 459"><defs><style>.cls-1{fill:none;stroke:#38a56e;stroke-width:2px;}.cls-2{isolation:isolate;}.cls-3{fill:#38a56e;}.cls-3,.cls-4,.cls-5{stroke-width:0px;}.cls-4{fill:#fff;}.cls-5{fill:#040000;}</style></defs><g id="_レイヤ_1"><g id="_グループ_505"><g id="_グループ_352"><path id="_パス_149" class="cls-1" d="m88.52,112.26l-9.26-9.26v32.35"/><path id="_パス_242" class="cls-1" d="m70,162.09l9.26,9.26v-32.35"/><path id="_パス_241" class="cls-1" d="m79.26,103v68"/></g><g id="_長方形_513"><rect class="cls-4" width="358" height="91" rx="12" ry="12"/><rect class="cls-1" x="1" y="1" width="356" height="89" rx="11" ry="11"/></g><g id="_長方形_571"><rect class="cls-4" y="368" width="358" height="91" rx="12" ry="12"/><rect class="cls-1" x="1" y="369" width="356" height="89" rx="11" ry="11"/></g><g id="_長方形_570"><rect class="cls-4" y="184" width="358" height="91" rx="12" ry="12"/><rect class="cls-1" x="1" y="185" width="356" height="89" rx="11" ry="11"/></g><g id="_グループ_277"><g id="_住宅取得者_住宅所有者等" class="cls-2"><g class="cls-2"><path class="cls-3" d="m73.9,55.37v-8.95c-.34.52-.69,1-1.06,1.44-.23-.2-.5-.41-.83-.62-.32-.21-.62-.39-.9-.55.46-.48.9-1.06,1.32-1.74.43-.68.82-1.39,1.18-2.13s.67-1.46.94-2.16.46-1.3.58-1.8l2.07.5c-.35,1.19-.77,2.33-1.28,3.44v12.56h-2.02Zm2.68-.61v-1.98h4.61v-3.42h-3.65v-2.03h3.65v-2.88h-4.32v-1.94h4.99c-.36-.38-.77-.79-1.24-1.22-.47-.43-.89-.79-1.28-1.06l1.51-1.48c.32.2.68.47,1.07.8s.77.67,1.13,1.01.68.65.93.93c-.16.12-.34.28-.54.47-.2.19-.4.38-.59.56h4.84v1.94h-4.27v2.88h3.58v2.03h-3.58v3.42h4.66v1.98h-11.5Z"/><path class="cls-3" d="m98.49,55.17c-.74,0-1.27-.11-1.57-.34-.3-.23-.45-.6-.45-1.12v-3.49l-6.55.47-.18-1.96,6.73-.49v-1.58c-.61.08-1.21.16-1.8.23-.59.07-1.16.13-1.71.16-.04-.18-.09-.4-.17-.65s-.16-.5-.24-.74-.16-.43-.23-.56c.68-.02,1.46-.08,2.32-.18.86-.1,1.74-.22,2.63-.38.89-.16,1.72-.34,2.5-.54.78-.2,1.43-.43,1.96-.67l1.31,1.71c-.62.24-1.3.46-2.04.66s-1.5.38-2.28.55v1.8l7.31-.52.18,1.96-7.49.56v2.54c0,.18.04.31.13.39s.27.12.53.12h3.02c.34,0,.6-.05.78-.16.19-.11.33-.32.42-.63.1-.31.17-.76.22-1.35.16.08.37.17.64.27.27.1.55.19.85.27s.54.15.73.2c-.13.95-.3,1.67-.51,2.18s-.5.85-.86,1.03c-.37.18-.85.27-1.47.27h-4.72Zm-8.35-10.33v-3.96h6.61v-2h2.43v2h6.68v3.94h-2.18v-2.09h-11.32v2.11h-2.21Z"/><path class="cls-3" d="m113.32,55.39v-3.58c-.35.13-.75.28-1.21.43s-.94.31-1.44.47-.97.3-1.41.43c-.44.13-.82.24-1.13.32l-.61-1.98c.16-.02.37-.07.63-.14.26-.07.56-.14.9-.22v-9.74h-1.26v-1.89h8.8v1.26h6.88c-.16,3.48-.95,6.46-2.38,8.93.49.66,1.04,1.26,1.65,1.8.61.54,1.26,1.02,1.97,1.44-.25.22-.52.5-.81.84-.29.34-.51.65-.67.91-.64-.46-1.24-.95-1.8-1.48-.56-.53-1.09-1.1-1.57-1.71-.94,1.2-2.06,2.27-3.37,3.2-.08-.13-.22-.32-.42-.57s-.4-.47-.6-.67v1.94h-2.14Zm-2.14-12.24h2.14v-1.76h-2.14v1.76Zm0,3.55h2.14v-1.76h-2.14v1.76Zm0,3.89c.42-.11.82-.21,1.19-.32.37-.1.69-.19.95-.28v-1.51h-2.14v2.11Zm4.28,2.32c.65-.44,1.24-.93,1.78-1.46s1.02-1.09,1.44-1.67c-.54-.92-.99-1.9-1.36-2.94s-.63-2.13-.8-3.29l1.93-.34c.2,1.62.68,3.14,1.42,4.57.38-.82.69-1.65.91-2.51.22-.86.36-1.71.42-2.56h-4.91v-1.31h-.83v11.52Z"/><path class="cls-3" d="m128.08,55.31v-6.88c-.22.22-.43.42-.65.61-.22.19-.44.38-.67.56-.08-.14-.22-.31-.4-.5-.18-.19-.37-.37-.57-.54-.2-.17-.38-.31-.55-.41.37-.26.78-.6,1.21-1.02.44-.41.87-.87,1.31-1.37.43-.5.82-1,1.18-1.5.35-.5.64-.97.86-1.4l1.78.95c-.2.37-.43.75-.67,1.13-.25.38-.51.76-.78,1.13v9.22h-2.05Zm-.99-11.16c-.11-.16-.25-.33-.42-.53s-.35-.39-.54-.58c-.19-.19-.36-.34-.51-.43.53-.29,1.06-.64,1.58-1.05s1.02-.85,1.47-1.32c.45-.47.81-.91,1.09-1.33l1.6,1.13c-.37.53-.8,1.05-1.28,1.57-.48.52-.97.99-1.49,1.43-.51.44-1.01.81-1.5,1.12Zm9.04,11.2c-.02-.3-.07-.64-.14-1.02-.07-.38-.16-.71-.25-1h1.26c.25,0,.42-.03.5-.09s.13-.21.13-.45v-2.27h-6.52v-1.67h6.52v-.9h-6.26v-1.66h10.69v1.66h-2.29v.9h2.56v1.67h-2.56v2.9c0,.67-.18,1.16-.55,1.47-.37.31-.94.46-1.72.46h-1.37Zm-1.73-1.28c-.17-.24-.4-.51-.69-.81-.29-.3-.59-.59-.89-.86-.3-.28-.56-.48-.77-.61l1.33-1.24c.36.25.76.58,1.21,1s.84.8,1.16,1.16c-.23.18-.47.4-.74.67-.26.26-.47.5-.61.7Zm-2.2-8.51v-6.12h8.91v6.12h-8.91Zm2.18-3.76h4.57v-.88h-4.57v.88Zm0,2.29h4.57v-.88h-4.57v.88Z"/><path class="cls-3" d="m147.54,55.31v-5.36c-1.02.46-2.13.91-3.33,1.37-.05-.17-.13-.38-.25-.63-.12-.25-.25-.5-.39-.73-.14-.23-.26-.42-.37-.55,1.42-.41,2.76-.89,4.03-1.44,1.27-.55,2.45-1.18,3.55-1.89h-7.02v-1.85h6.41v-1.51h-4.54v-1.85h4.54v-1.96h2.16v1.96h2.59v1.55c.78-.94,1.45-1.96,2-3.08l1.91.99c-.96,1.51-1.94,2.81-2.93,3.91h4.32v1.85h-6.25c-.37.31-.75.61-1.14.9-.39.29-.79.56-1.21.83h5.87v7.51h-9.94Zm2.12-4.54h5.72v-1.22h-5.72v1.22Zm0,2.81h5.72v-1.24h-5.72v1.24Zm2.66-9.36h.86c.26-.24.52-.49.76-.74s.48-.51.71-.77h-2.34v1.51Z"/><path class="cls-3" d="m170,49.14c-.55,0-1.02-.19-1.4-.58s-.58-.85-.58-1.4.19-1.02.58-1.4.85-.58,1.4-.58,1.02.19,1.4.58c.38.38.58.85.58,1.4s-.19,1.02-.58,1.4c-.38.38-.85.58-1.4.58Z"/><path class="cls-3" d="m181.9,55.37v-8.95c-.34.52-.69,1-1.06,1.44-.23-.2-.5-.41-.83-.62-.32-.21-.62-.39-.9-.55.46-.48.9-1.06,1.32-1.74.43-.68.82-1.39,1.18-2.13s.67-1.46.94-2.16.46-1.3.58-1.8l2.07.5c-.35,1.19-.77,2.33-1.28,3.44v12.56h-2.02Zm2.68-.61v-1.98h4.61v-3.42h-3.65v-2.03h3.65v-2.88h-4.32v-1.94h4.99c-.36-.38-.77-.79-1.24-1.22-.47-.43-.89-.79-1.28-1.06l1.51-1.48c.32.2.68.47,1.07.8s.77.67,1.13,1.01.68.65.93.93c-.16.12-.34.28-.54.47-.2.19-.4.38-.59.56h4.84v1.94h-4.27v2.88h3.58v2.03h-3.58v3.42h4.66v1.98h-11.5Z"/><path class="cls-3" d="m206.49,55.17c-.74,0-1.27-.11-1.57-.34-.3-.23-.45-.6-.45-1.12v-3.49l-6.55.47-.18-1.96,6.73-.49v-1.58c-.61.08-1.21.16-1.8.23-.59.07-1.16.13-1.71.16-.04-.18-.09-.4-.17-.65s-.16-.5-.24-.74-.16-.43-.23-.56c.68-.02,1.46-.08,2.32-.18.86-.1,1.74-.22,2.63-.38.89-.16,1.72-.34,2.5-.54.78-.2,1.43-.43,1.96-.67l1.31,1.71c-.62.24-1.3.46-2.04.66s-1.5.38-2.28.55v1.8l7.31-.52.18,1.96-7.49.56v2.54c0,.18.04.31.13.39s.27.12.53.12h3.02c.34,0,.6-.05.78-.16.19-.11.33-.32.42-.63.1-.31.17-.76.22-1.35.16.08.37.17.64.27.27.1.55.19.85.27s.54.15.73.2c-.13.95-.3,1.67-.51,2.18s-.5.85-.86,1.03c-.37.18-.85.27-1.47.27h-4.72Zm-8.35-10.33v-3.96h6.61v-2h2.43v2h6.68v3.94h-2.18v-2.09h-11.32v2.11h-2.21Z"/><path class="cls-3" d="m217.05,55.42c-.24-.16-.55-.32-.94-.5-.39-.17-.72-.3-1-.37.6-.78,1.04-1.75,1.33-2.92.29-1.16.43-2.38.43-3.65v-5.17h6.5v6.14h-4.46c-.06,1.38-.25,2.6-.57,3.65-.32,1.06-.75,1.99-1.29,2.81Zm-.95-13.84v-1.84h7.65v1.84h-7.65Zm2.83,5.53h2.41v-2.39h-2.41v2.39Zm9.27,8.21v-8.93h-1.58c-.04,1.38-.25,2.62-.63,3.72-.38,1.1-.89,2.06-1.5,2.89-.62.83-1.31,1.54-2.06,2.12-.11-.13-.26-.29-.47-.48-.2-.19-.42-.37-.65-.55-.23-.18-.43-.32-.61-.41.72-.5,1.36-1.09,1.93-1.77s1.02-1.5,1.34-2.48c.32-.97.49-2.15.49-3.55v-5.8c.73-.04,1.5-.12,2.31-.24.81-.13,1.59-.28,2.35-.47.76-.19,1.4-.39,1.93-.62l1.12,1.78c-.49.19-1.06.38-1.71.55-.65.17-1.3.32-1.97.45s-1.28.22-1.85.28v2.59h5.56v1.98h-1.91v8.93h-2.09Z"/><path class="cls-3" d="m237.93,55.3v-7.78c-.96.96-2.03,1.76-3.22,2.41-.14-.28-.34-.56-.59-.86s-.5-.54-.76-.72c1.25-.7,2.33-1.51,3.26-2.44s1.67-1.98,2.25-3.14h-4.99v-1.93h5.74c.1-.35.18-.7.24-1.04.07-.35.12-.71.17-1.08l2.32.29c-.06.31-.13.62-.2.93-.07.31-.16.61-.25.91h8.23v1.93h-8.95c-.12.24-.24.48-.35.71-.11.23-.24.47-.37.71h7v9.18c0,1.28-.77,1.93-2.32,1.93h-1.58c-.02-.3-.08-.66-.18-1.09-.1-.43-.2-.76-.31-1h1.48c.25,0,.43-.04.54-.13.11-.08.16-.25.16-.49v-1.06h-5.11v3.76h-2.21Zm2.21-8.17h5.11v-1.08h-5.11v1.08Zm0,2.75h5.11v-1.08h-5.11v1.08Z"/><path class="cls-3" d="m255.54,55.31v-5.36c-1.02.46-2.13.91-3.33,1.37-.05-.17-.13-.38-.25-.63-.12-.25-.25-.5-.39-.73-.14-.23-.26-.42-.37-.55,1.42-.41,2.76-.89,4.03-1.44,1.27-.55,2.45-1.18,3.55-1.89h-7.02v-1.85h6.41v-1.51h-4.54v-1.85h4.54v-1.96h2.16v1.96h2.59v1.55c.78-.94,1.45-1.96,2-3.08l1.91.99c-.96,1.51-1.94,2.81-2.93,3.91h4.32v1.85h-6.25c-.37.31-.75.61-1.14.9-.39.29-.79.56-1.21.83h5.87v7.51h-9.94Zm2.12-4.54h5.72v-1.22h-5.72v1.22Zm0,2.81h5.72v-1.24h-5.72v1.24Zm2.66-9.36h.86c.26-.24.52-.49.76-.74s.48-.51.71-.77h-2.34v1.51Z"/><path class="cls-3" d="m271.2,43.85c-.11-.08-.28-.19-.51-.31-.23-.12-.47-.24-.72-.35s-.44-.19-.58-.23c.37-.35.74-.76,1.09-1.25.35-.49.67-.99.95-1.51.28-.52.5-1,.64-1.43l2.02.4c-.06.18-.13.36-.22.55-.08.19-.17.38-.27.57h4.16v1.66h-2.2c.1.23.19.46.28.68.09.23.17.43.23.59-.16.02-.37.07-.63.13-.26.07-.52.13-.77.2-.25.07-.45.12-.59.17-.05-.23-.13-.51-.24-.85-.11-.34-.23-.65-.35-.94h-.81c-.5.79-.99,1.43-1.46,1.91Zm7.43,11.57c-.02-.3-.08-.65-.16-1.04-.08-.4-.17-.74-.25-1.04h1.46c.25,0,.42-.03.51-.09s.13-.22.13-.47v-1.71h-5.11c.35.31.71.67,1.1,1.08.38.41.7.77.95,1.1-.26.16-.57.38-.92.67-.35.29-.62.54-.83.76-.18-.26-.41-.56-.69-.89-.28-.33-.58-.65-.88-.97-.31-.32-.59-.58-.86-.78l1.26-.95h-3.91v-1.76h9.88v-1.01h-10.49v-1.67h7.09v-.94h-5.06v-1.64h5.06v-1.1h.18c.32-.38.63-.83.91-1.34.28-.51.53-1.02.75-1.54.22-.52.37-.97.47-1.35l2.09.38c-.06.19-.13.39-.21.59s-.16.4-.24.59h5v1.66h-2.92c.1.23.19.46.28.68.09.23.16.43.21.59-.19.02-.43.07-.71.13-.28.07-.55.13-.8.19-.25.06-.45.11-.59.16-.05-.24-.13-.53-.23-.86-.11-.34-.22-.64-.32-.9h-.68c-.17.3-.34.59-.51.86-.17.28-.35.53-.53.77v.47h5.26v1.64h-5.26v.94h7.11v1.67h-3.67v1.01h3.1v1.76h-3.1v2.45c0,.66-.19,1.14-.58,1.45s-.97.46-1.75.46h-1.53Z"/></g></g></g><g id="_グループ_345"><g id="_事務局" class="cls-2"><g class="cls-2"><path class="cls-3" d="m158.14,423.37c-.02-.3-.08-.63-.17-.99-.09-.36-.19-.66-.3-.9h1.58c.25,0,.43-.04.54-.12.11-.08.16-.24.16-.48v-.56h-5.83v-1.55h5.83v-.76h-7.25v-1.4h7.25v-.72h-5.85v-1.39h5.85v-.7h-4.66v-3.51h4.66v-.65h-6.73v-1.55h6.73v-1.19h2.16v1.19h6.71v1.55h-6.71v.65h4.61v3.51h-4.61v.7h5.58v2.11h1.64v1.4h-1.64v2.3h-5.58v1.15c0,.66-.19,1.14-.57,1.44s-.95.45-1.72.45h-1.69Zm-.86-10.93h2.68v-.77h-2.68v.77Zm4.84,0h2.63v-.77h-2.63v.77Zm0,4.18h3.49v-.72h-3.49v.72Zm0,2.16h3.49v-.76h-3.49v.76Z"/><path class="cls-3" d="m172.36,423.39c-.02-.28-.08-.62-.16-1.02-.08-.4-.17-.72-.27-.95h1.17c.23,0,.39-.04.49-.11.1-.07.15-.22.15-.45v-3.11c-.34.48-.68.93-1.03,1.35-.35.42-.7.79-1.04,1.1-.18-.23-.41-.46-.69-.71-.28-.25-.54-.43-.78-.55.42-.36.85-.8,1.29-1.33.44-.53.85-1.08,1.23-1.67.38-.58.7-1.11.94-1.59h-2.84v-1.76h3.87c-.44-.32-.92-.65-1.42-.97-.5-.32-.95-.59-1.35-.79l1.1-1.37c.22.11.45.23.71.38.26.14.53.3.8.47.18-.2.37-.44.58-.7.2-.26.35-.46.45-.59h-4.3v-1.6h6.57l.81.63c-.19.28-.44.61-.76.99-.31.38-.64.77-.97,1.17-.34.4-.65.75-.94,1.06.16.1.3.19.43.29.13.1.26.19.38.29-.06.08-.14.19-.25.32-.11.13-.22.28-.34.43h2.03l.77.56c-.05.13-.11.31-.19.53-.08.22-.17.47-.28.73,1.06-.29,1.99-.73,2.79-1.33-.26-.29-.5-.59-.72-.92-.22-.32-.43-.67-.63-1.04-.19.24-.39.47-.59.68s-.41.42-.61.61c-.19-.2-.43-.41-.7-.6-.28-.2-.53-.36-.77-.48.43-.38.86-.85,1.28-1.4s.79-1.11,1.12-1.68.56-1.07.68-1.49l1.89.47c-.14.4-.32.79-.54,1.19h5.33v1.67h-1.28c-.22.54-.46,1.05-.72,1.52-.26.47-.57.92-.92,1.34.5.32,1.05.6,1.63.82.58.22,1.18.41,1.81.55-.19.2-.38.48-.56.84-.18.35-.32.66-.41.93-.73-.17-1.42-.4-2.07-.68-.65-.29-1.25-.64-1.82-1.04-.36.29-.76.56-1.19.81l1.49.11c-.01.25-.04.5-.07.75-.04.25-.07.49-.11.73h3.71c-.01.53-.04,1.07-.08,1.64-.04.56-.1,1.1-.16,1.61-.07.51-.14.95-.22,1.32-.17.8-.47,1.34-.9,1.62-.43.28-1.04.41-1.82.41h-1.1c-.01-.18-.04-.4-.08-.66-.04-.26-.09-.51-.15-.76-.06-.25-.12-.44-.18-.58h1.1c.43,0,.72-.06.87-.17.15-.11.27-.35.35-.71.06-.28.11-.59.16-.94.05-.35.08-.68.09-.98h-1.98c-.34,1.12-.87,2.08-1.59,2.88-.73.8-1.78,1.45-3.16,1.94-.11-.24-.28-.53-.5-.88-.23-.35-.44-.62-.65-.81,1-.28,1.81-.67,2.43-1.2.62-.52,1.09-1.17,1.4-1.93h-2.56v-1.8h3.02c.06-.4.1-.83.11-1.3-.3.16-.62.3-.95.43-.34.13-.7.26-1.08.38-.08-.19-.18-.4-.28-.61-.1-.22-.21-.43-.33-.65-.19.49-.39.97-.6,1.45-.21.47-.38.82-.51,1.04-.18-.11-.41-.22-.68-.34-.28-.12-.53-.21-.77-.27v4.77c0,1.16-.7,1.75-2.09,1.75h-1.26Zm3.35-6.91c.12-.24.24-.5.37-.79s.24-.56.35-.81c.11-.25.18-.43.22-.52h-.94v2.12Zm6.93-4.72c.4-.52.71-1.07.95-1.67h-2.16c.35.65.75,1.21,1.21,1.67Z"/><path class="cls-3" d="m199.43,423.4c-.01-.17-.04-.4-.09-.68s-.1-.57-.16-.85c-.06-.28-.12-.48-.18-.61h1.48c.52,0,.87-.08,1.06-.23s.34-.44.43-.85c.11-.46.2-1,.28-1.62.08-.62.13-1.25.17-1.87s.05-1.15.05-1.57h-9.86c-.12,1.82-.39,3.38-.8,4.67s-1,2.46-1.76,3.5c-.3-.2-.62-.39-.96-.57-.34-.17-.67-.3-.98-.39.4-.55.74-1.13,1.04-1.74.3-.61.55-1.28.75-2.03s.34-1.62.44-2.6c.1-.98.14-2.13.14-3.44v-5.24h13.1v4.9h-10.89v1.13h12.02c0,.62-.01,1.31-.04,2.05-.02.74-.06,1.49-.12,2.24s-.13,1.45-.22,2.11c-.09.65-.2,1.2-.33,1.65-.22.73-.56,1.25-1.04,1.57-.48.31-1.13.47-1.94.47h-1.6Zm-6.73-12.96h8.59v-1.46h-8.59v1.46Zm1.04,10.55v-4.82h6.64v4.82h-6.64Zm2.02-1.64h2.59v-1.55h-2.59v1.55Z"/></g></g></g><g id="_グループ_344"><g id="_事業者_申請者_" class="cls-2"><g class="cls-2"><path class="cls-3" d="m124.33,226.37c-.02-.3-.08-.63-.17-.99-.09-.36-.19-.66-.3-.9h1.58c.25,0,.43-.04.54-.12.11-.08.16-.24.16-.48v-.56h-5.83v-1.55h5.83v-.76h-7.25v-1.4h7.25v-.72h-5.85v-1.39h5.85v-.7h-4.66v-3.51h4.66v-.65h-6.73v-1.55h6.73v-1.19h2.16v1.19h6.71v1.55h-6.71v.65h4.61v3.51h-4.61v.7h5.58v2.11h1.64v1.4h-1.64v2.3h-5.58v1.15c0,.66-.19,1.14-.57,1.44s-.95.45-1.72.45h-1.69Zm-.86-10.93h2.68v-.77h-2.68v.77Zm4.84,0h2.63v-.77h-2.63v.77Zm0,4.18h3.49v-.72h-3.49v.72Zm0,2.16h3.49v-.76h-3.49v.76Z"/><path class="cls-3" d="m144.21,226.49v-3.58c-.54.48-1.15.94-1.83,1.37-.68.43-1.38.82-2.09,1.17-.71.35-1.41.64-2.08.86-.06-.14-.15-.32-.27-.53s-.25-.42-.4-.63c-.14-.21-.28-.38-.41-.5.59-.18,1.22-.42,1.89-.73.67-.31,1.33-.65,1.99-1.03.65-.38,1.24-.76,1.75-1.14h-5.6v-1.64h7.04v-.81h-5.17v-1.57h5.17v-.79h-5.98v-1.6h3.28c-.08-.2-.17-.4-.25-.6-.08-.2-.17-.38-.27-.53h-3.82v-1.64h2.56c-.12-.31-.26-.65-.42-1.03-.16-.37-.33-.67-.5-.9l1.82-.74c.12.18.25.41.39.69.14.28.27.56.39.83.12.27.22.5.29.68l-1.13.47h2v-2.65h1.96v2.65h1.24v-2.65h1.98v2.65h2.12l-1.46-.5c.12-.17.25-.39.41-.66.15-.27.29-.55.43-.83.14-.28.24-.51.3-.67l1.98.58c-.11.2-.24.44-.4.72-.16.28-.31.54-.46.78-.15.25-.27.44-.37.58h2.92v1.64h-3.83c-.16.41-.31.79-.47,1.13h3.08v1.6h-5.78v.79h5.06v1.57h-5.06v.81h7.02v1.64h-5.62c.52.38,1.1.77,1.75,1.14s1.31.72,1.98,1.02c.67.3,1.3.54,1.89.72-.12.12-.25.29-.4.5-.14.21-.28.42-.4.64-.12.22-.21.4-.27.54-.66-.23-1.34-.51-2.05-.86s-1.4-.73-2.07-1.16c-.67-.43-1.29-.89-1.84-1.37v3.56h-2Zm-.45-11.14h2.86c.08-.17.17-.35.25-.55.08-.2.17-.39.25-.58h-3.85c.1.19.19.39.27.59.08.21.16.38.22.54Z"/><path class="cls-3" d="m158.73,226.31v-5.36c-1.02.46-2.13.91-3.33,1.37-.05-.17-.13-.38-.25-.63-.12-.25-.25-.5-.39-.73-.14-.23-.26-.42-.37-.55,1.42-.41,2.76-.89,4.03-1.44,1.27-.55,2.45-1.18,3.55-1.89h-7.02v-1.85h6.41v-1.51h-4.54v-1.85h4.54v-1.96h2.16v1.96h2.59v1.55c.78-.94,1.45-1.96,2-3.08l1.91.99c-.96,1.51-1.94,2.81-2.93,3.91h4.32v1.85h-6.25c-.37.31-.75.61-1.14.9-.39.29-.79.56-1.21.83h5.87v7.51h-9.94Zm2.12-4.54h5.72v-1.22h-5.72v1.22Zm0,2.81h5.72v-1.24h-5.72v1.24Zm2.66-9.36h.86c.26-.24.52-.49.76-.74s.48-.51.71-.77h-2.34v1.51Z"/><path class="cls-3" d="m176.62,227.9c-.95-1.33-1.68-2.74-2.21-4.22-.52-1.48-.78-3.01-.78-4.58s.26-3.14.78-4.64c.52-1.5,1.26-2.89,2.21-4.16l1.64.85c-.84,1.2-1.51,2.45-2.01,3.74-.5,1.3-.75,2.7-.75,4.21s.25,2.87.75,4.15c.5,1.28,1.17,2.54,2.02,3.79l-1.66.86Z"/><path class="cls-3" d="m186.85,226.4v-4.66h-5.78v-9.38h5.78v-2.43h2.27v2.43h5.81v9.38h-5.81v4.66h-2.27Zm-3.47-10.31h3.47v-1.73h-3.47v1.73Zm0,3.65h3.47v-1.76h-3.47v1.76Zm5.74-3.65h3.51v-1.73h-3.51v1.73Zm0,3.65h3.51v-1.76h-3.51v1.76Z"/><path class="cls-3" d="m197.74,214.74v-1.64h6.64v1.64h-6.64Zm.7,11.18v-5.18h5.4v5.18h-5.4Zm.25-8.64v-1.66h4.9v1.66h-4.9Zm0,2.54v-1.66h4.9v1.66h-4.9Zm.02-7.6v-1.69h4.88v1.69h-4.88Zm1.53,12.04h1.8v-1.87h-1.8v1.87Zm3.83-7.31v-1.49h3.91v-.77h-2.88v-1.39h2.88v-.7h-3.51v-1.49h3.51v-1.24h2.02v1.24h3.67v1.49h-3.67v.7h3.2v1.39h-3.2v.77h4.16v1.49h-10.08Zm5.6,9.34c-.02-.28-.06-.6-.12-.97-.05-.37-.12-.68-.21-.92h1.17c.24,0,.39-.04.45-.11.06-.07.09-.22.09-.45v-.63h-3.91v3.04h-1.91v-8.6h7.76v6.88c0,.62-.17,1.07-.5,1.35s-.86.41-1.57.41h-1.26Zm-2.52-6.43h3.91v-.74h-3.91v.74Zm0,2.05h3.91v-.76h-3.91v.76Z"/><path class="cls-3" d="m219.54,226.31v-5.36c-1.02.46-2.13.91-3.33,1.37-.05-.17-.13-.38-.25-.63-.12-.25-.25-.5-.39-.73-.14-.23-.26-.42-.37-.55,1.42-.41,2.76-.89,4.03-1.44,1.27-.55,2.45-1.18,3.55-1.89h-7.02v-1.85h6.41v-1.51h-4.54v-1.85h4.54v-1.96h2.16v1.96h2.59v1.55c.78-.94,1.45-1.96,2-3.08l1.91.99c-.96,1.51-1.94,2.81-2.93,3.91h4.32v1.85h-6.25c-.37.31-.75.61-1.14.9-.39.29-.79.56-1.21.83h5.87v7.51h-9.94Zm2.12-4.54h5.72v-1.22h-5.72v1.22Zm0,2.81h5.72v-1.24h-5.72v1.24Zm2.66-9.36h.86c.26-.24.52-.49.76-.74s.48-.51.71-.77h-2.34v1.51Z"/><path class="cls-3" d="m235.38,227.9l-1.66-.86c.85-1.25,1.53-2.51,2.02-3.79s.75-2.66.75-4.15-.25-2.92-.75-4.21-1.17-2.54-2.01-3.74l1.64-.85c.94,1.27,1.67,2.66,2.2,4.16s.79,3.05.79,4.64-.26,3.1-.78,4.58c-.52,1.48-1.26,2.89-2.21,4.22Z"/></g></g></g><g id="_グループ_339"><path id="_パス_244" class="cls-1" d="m188.26,112.26l-9.26-9.26v32.35"/><path id="_パス_243" class="cls-1" d="m179,103v69"/></g><g id="_グループ_340"><path id="_パス_246" class="cls-1" d="m288.26,112.26l-9.26-9.26v32.35"/><path id="_パス_245" class="cls-1" d="m279,103v69"/></g><g id="_グループ_341"><rect id="_長方形_569" class="cls-4" x="143" y="120" width="72" height="35"/><g id="_補助金分還元_全額_" class="cls-2"><g class="cls-2"><path class="cls-5" d="m145.12,134.88v-4.64c-.19.22-.39.42-.59.62-.2.2-.42.39-.64.57-.08-.1-.2-.22-.35-.38s-.28-.27-.37-.34c.43-.33.84-.71,1.24-1.13.39-.43.74-.86,1.06-1.31.31-.44.56-.86.73-1.24h-2.64v-.92h1.54v-2.12h1v2.12h1.1l.4.37c-.19.42-.41.84-.65,1.26-.24.42-.5.82-.78,1.21.19.14.41.3.64.46.24.16.46.32.68.46.22.14.4.26.54.35-.1.08-.21.2-.33.35-.12.16-.22.29-.28.39-.38-.25-.8-.56-1.27-.92v4.85h-1.01Zm3.08,0v-6.54c-.14.18-.31.38-.49.6-.18.22-.34.39-.46.52-.06-.06-.17-.15-.32-.27-.15-.12-.25-.19-.32-.23.18-.16.36-.37.56-.62.2-.25.36-.48.5-.69l.53.36v-.53h2.41v-.92h-2.76v-.92h2.76v-1.68h1.01v1.68h1.54c-.16-.17-.35-.35-.58-.53-.22-.19-.42-.33-.59-.44l.58-.6c.13.08.28.19.45.33.17.14.34.28.51.43.17.15.3.27.4.38-.04.03-.1.09-.19.18l-.25.25h.92v.92h-2.78v.92h2.41v6.41c0,.66-.38,1-1.15,1h-.68c0-.14-.03-.31-.08-.53-.04-.22-.09-.38-.14-.48h.67c.15,0,.26-.03.32-.08.06-.05.1-.15.1-.29v-1.3h-1.45v2.41h-1.01v-2.41h-1.44v2.68h-.97Zm.97-5.42h1.44v-1.08h-1.44v1.08Zm0,1.93h1.44v-1.1h-1.44v1.1Zm2.45-1.93h1.45v-1.08h-1.45v1.08Zm0,1.93h1.45v-1.1h-1.45v1.1Z"/><path class="cls-5" d="m155.55,133.84l-.24-1.18c.11-.02.24-.03.39-.05.15-.02.31-.05.47-.08v-7.9h4.12v7.02c.18-.05.35-.09.5-.13.15-.04.28-.08.39-.11v1.01c-.25.08-.55.17-.91.28-.36.1-.75.21-1.18.32-.42.11-.85.21-1.28.32-.43.1-.84.2-1.23.29s-.73.16-1.03.22Zm1.69-6.7h1.97v-1.5h-1.97v1.5Zm0,2.46h1.97v-1.51h-1.97v1.51Zm0,2.72c.66-.13,1.32-.26,1.97-.41v-1.37h-1.97v1.78Zm2.59,2.59c-.08-.16-.18-.32-.31-.48-.12-.16-.24-.29-.35-.4.62-.3,1.14-.61,1.56-.94s.77-.73,1.03-1.21c.26-.47.45-1.05.57-1.75.12-.69.18-1.55.18-2.56h-1.66v-1.07h1.66v-2.36h1.08v2.36h2.44c0,.25,0,.51,0,.79,0,.28,0,.56,0,.86,0,.92-.01,1.76-.04,2.51-.03.76-.07,1.38-.14,1.87-.07.55-.19.99-.35,1.3-.16.32-.38.54-.64.67-.26.13-.59.19-.97.19h-.79c-.02-.18-.06-.37-.11-.58-.05-.21-.09-.36-.13-.46h.86c.19,0,.35-.03.49-.09.13-.06.24-.18.33-.37.09-.18.16-.45.22-.8.06-.4.12-.97.16-1.72.04-.75.06-1.56.07-2.44v-.66h-1.37c0,1.06-.09,1.98-.23,2.76-.15.78-.38,1.44-.68,2-.31.56-.7,1.04-1.16,1.45-.47.41-1.03.78-1.67,1.12Z"/><path class="cls-5" d="m167.79,128.96c-.06-.11-.14-.26-.26-.45-.12-.19-.24-.35-.38-.47.5-.18,1.01-.42,1.55-.74.54-.32,1.05-.67,1.55-1.06.5-.39.95-.79,1.35-1.2.4-.41.71-.8.94-1.16l1.04.17c.3.42.65.83,1.06,1.22.41.39.86.75,1.33,1.08.48.33.96.63,1.45.88.49.26.96.47,1.4.64-.08.08-.17.19-.26.32-.1.14-.19.27-.27.4s-.15.24-.19.32c-.41-.18-.85-.41-1.31-.68-.47-.27-.93-.57-1.4-.91s-.9-.7-1.31-1.08c-.41-.38-.76-.78-1.05-1.2-.25.34-.57.69-.98,1.06-.4.37-.85.74-1.34,1.1-.49.36-.98.7-1.49,1s-.98.56-1.44.76Zm.14,5.53v-.96h4.49v-2.71h-3.68v-1h3.68v-1.24h-2.15v-.98h5.45v.98h-2.14v1.24h3.65v1h-3.65v2.71h4.42v.96h-10.07Zm2.65-1.03c-.07-.18-.18-.39-.32-.63-.14-.24-.3-.48-.46-.72-.16-.24-.31-.42-.46-.56l.9-.54c.23.27.46.57.67.9.22.33.41.66.59.98l-.92.56Zm4.8,0l-.91-.47c.18-.28.38-.61.58-1s.36-.73.47-1.04l.98.42c-.08.19-.18.41-.31.67s-.26.5-.41.75c-.14.25-.28.47-.41.67Z"/><path class="cls-5" d="m179.96,129.91c-.04-.07-.11-.16-.2-.28-.1-.11-.2-.22-.3-.34-.1-.11-.2-.2-.29-.26.47-.25.94-.58,1.41-.98s.9-.86,1.29-1.36.7-1,.91-1.5l1.06.5c-.26.58-.6,1.13-1.02,1.65-.42.52-.87,1-1.37,1.44-.5.44-.99.81-1.49,1.12Zm.77,4.92c-.02-.07-.07-.17-.14-.29-.07-.12-.14-.24-.22-.37s-.16-.22-.23-.28c1.1-.34,1.94-.87,2.52-1.6.58-.73.92-1.58,1-2.54h-1.98v-1.08h6.61c0,.37,0,.77-.03,1.21-.02.44-.05.87-.1,1.3-.04.43-.1.84-.16,1.22-.06.38-.13.7-.2.97-.15.53-.39.89-.7,1.09-.32.2-.75.29-1.3.29h-.98c0-.16-.04-.36-.09-.59-.05-.23-.11-.41-.16-.54h1.09c.33,0,.57-.05.72-.15.15-.1.27-.3.36-.59.08-.24.15-.55.2-.93.05-.38.09-.77.13-1.17.03-.4.05-.74.05-1.02h-2.34c-.06.76-.24,1.47-.55,2.14-.31.66-.75,1.25-1.33,1.75s-1.3.9-2.17,1.19Zm9.31-5.06c-.58-.31-1.15-.69-1.69-1.12-.54-.44-1.01-.93-1.4-1.48-.4-.55-.68-1.15-.85-1.8h-2.15v-1.04h3.05c.1.66.33,1.27.69,1.82.36.55.8,1.04,1.34,1.48.54.44,1.14.81,1.81,1.13-.08.06-.17.16-.28.29-.11.13-.21.26-.31.4-.1.13-.17.24-.22.33Z"/><path class="cls-5" d="m198.31,134.67c-.82,0-1.53-.04-2.11-.13s-1.08-.22-1.49-.4c-.41-.18-.76-.41-1.07-.7-.14.1-.31.23-.53.37-.22.14-.43.29-.65.44-.22.15-.41.27-.56.38l-.47-1.06c.14-.06.31-.14.52-.25.21-.11.42-.22.64-.34.21-.12.38-.22.51-.31v-3.08h-1.48v-.98h2.5v4.02c.2.28.47.5.82.67.34.16.79.28,1.34.35.55.07,1.23.1,2.03.1.97,0,1.8-.02,2.49-.05.69-.03,1.27-.08,1.75-.13-.02.06-.06.15-.1.29-.04.14-.08.28-.11.43-.03.15-.05.27-.06.35-.2,0-.46.01-.77.02-.32,0-.66,0-1.03.01-.37,0-.74,0-1.12,0h-1.06Zm-4.64-7.96c-.13-.17-.29-.36-.49-.57-.2-.21-.41-.42-.64-.62-.23-.2-.45-.38-.67-.52l.73-.73c.21.14.43.32.66.52.23.2.45.4.67.61s.39.4.53.58c-.06.05-.14.12-.25.22-.11.1-.22.19-.32.29-.1.1-.17.18-.22.24Zm.72,1.2v-.76h7.87v.76h-7.87Zm3.25,5.5v-1.93c-.4.28-.84.54-1.31.79s-.91.45-1.32.61c-.04-.1-.11-.24-.21-.42-.1-.18-.19-.31-.28-.4.35-.1.71-.24,1.07-.41.36-.17.72-.35,1.06-.54.34-.19.64-.38.91-.56h-2.05v-2.11h5.64v2.11l.6.42c-.11.1-.26.23-.46.38-.19.15-.38.3-.58.44.23.1.47.2.7.3.24.1.47.18.69.24-.07.08-.16.21-.26.39-.1.18-.17.32-.21.41-.46-.16-.97-.39-1.52-.68s-1.05-.6-1.49-.92v1.87h-.98Zm-2.56-6.78v-2.34h6.55v2.34h-6.55Zm.96-.7h1.02v-.92h-1.02v.92Zm.49,3.94h3.58v-.74h-3.58v.74Zm1.32-3.94h1.02v-.92h-1.02v.92Zm2.06,5.46c.16-.11.33-.25.5-.41s.32-.3.45-.43h-2.24v.05c.17.12.36.25.59.38s.46.27.71.41Zm-.25-5.46h1.01v-.92h-1.01v.92Z"/><path class="cls-5" d="m204.08,134.83c-.06-.14-.14-.31-.25-.49-.11-.18-.23-.34-.37-.46.78-.16,1.42-.43,1.94-.8.52-.37.91-.89,1.18-1.55.27-.66.41-1.51.44-2.54h-3.19v-1.07h10.31v1.07h-3.36v4.08c0,.15.03.26.1.33s.2.1.39.1h1.19c.22,0,.4-.03.54-.1.14-.06.24-.21.32-.44.08-.23.14-.59.19-1.08.1.08.27.16.49.25.22.09.41.15.55.19-.09.63-.21,1.11-.36,1.43-.15.32-.34.54-.57.65-.23.11-.49.17-.8.17h-2.03c-.39,0-.69-.08-.88-.23-.2-.15-.29-.41-.29-.78v-4.58h-1.45c-.02,1.13-.19,2.08-.51,2.86-.32.78-.77,1.41-1.37,1.89-.6.48-1.34.85-2.22,1.09Zm.95-9.19v-1.03h7.94v1.03h-7.94Z"/></g><g class="cls-2"><path class="cls-5" d="m165.7,151.19c-.78-.72-1.4-1.57-1.86-2.54-.46-.97-.7-2.04-.7-3.21s.23-2.24.7-3.21c.46-.97,1.08-1.82,1.86-2.54l.49.48c-.73.72-1.3,1.51-1.7,2.38-.41.87-.61,1.83-.61,2.89s.2,2.02.61,2.89.98,1.66,1.7,2.38l-.49.48Z"/><path class="cls-5" d="m168.14,150.49v-1.01h4.3v-1.68h-2.98v-1.02h2.98v-1.42h-2.94v-.84c-.26.18-.53.35-.81.51-.28.16-.55.31-.83.45-.04-.08-.1-.18-.19-.3-.08-.12-.17-.24-.26-.35s-.17-.2-.23-.26c.51-.21,1.03-.48,1.55-.82.52-.34,1.03-.71,1.51-1.13.48-.42.92-.85,1.31-1.31.39-.46.71-.91.96-1.37l1.02.14c.36.58.82,1.14,1.39,1.69.56.55,1.18,1.05,1.85,1.49s1.36.8,2.05,1.07c-.1.1-.23.26-.37.47s-.25.39-.32.54c-.56-.26-1.12-.57-1.67-.92v.92h-2.88v1.42h2.92v1.02h-2.92v1.68h4.28v1.01h-9.73Zm1.63-6.16h6.53c-.66-.43-1.27-.92-1.85-1.47s-1.06-1.13-1.45-1.73c-.37.58-.83,1.14-1.4,1.69-.56.55-1.17,1.05-1.83,1.52Z"/><path class="cls-5" d="m180.61,150.5v-3.11c-.14.07-.27.14-.41.2-.14.06-.28.13-.42.19-.02-.06-.07-.14-.14-.25-.07-.11-.14-.21-.22-.32-.08-.1-.14-.18-.19-.22.45-.16.89-.37,1.33-.64.44-.27.85-.56,1.22-.87-.27-.28-.52-.58-.73-.89-.32.34-.65.64-.98.88-.06-.09-.17-.2-.31-.34-.14-.14-.26-.24-.36-.29.3-.18.59-.41.89-.71.3-.3.57-.62.81-.97s.42-.68.53-1l.89.31c-.05.11-.1.23-.17.35-.06.12-.13.24-.2.37h2.06l.29.26c-.34.73-.8,1.4-1.39,2.03.75.56,1.53.96,2.34,1.19v-4.37h1.33c.06-.16.11-.33.17-.52.06-.18.11-.36.16-.53h-2.09v-.9h5.39v.9h-2.2c-.06.16-.11.33-.17.52-.06.19-.12.36-.18.52h2v6.08h-4.42v-1.68c-.07.09-.16.22-.26.4-.1.18-.18.31-.22.4-.13-.04-.26-.09-.38-.14s-.26-.11-.4-.16v3.3h-3.59Zm-.88-7.42v-1.98h2.1v-1.14h1.04v1.14h2.09v1.97h-.9v-1.13h-3.44v1.14h-.89Zm1.27,4.09h3.14c-.61-.28-1.17-.63-1.69-1.06-.46.39-.94.74-1.45,1.06Zm.54,2.5h1.72v-1.67h-1.72v1.67Zm.89-4.78c.16-.16.3-.32.43-.47s.23-.31.31-.46h-1.5c.21.34.46.66.77.94Zm2.51,6.04c-.06-.1-.16-.23-.3-.39-.14-.16-.26-.28-.35-.35.25-.11.52-.27.8-.47.29-.2.56-.42.82-.65.26-.23.47-.44.63-.64l.74.55c-.3.37-.66.73-1.1,1.09-.44.36-.85.65-1.25.87Zm1.51-6.84h2.42v-.92h-2.42v.92Zm0,1.69h2.42v-.94h-2.42v.94Zm0,1.74h2.42v-.98h-2.42v.98Zm3.77,3.4c-.39-.22-.8-.51-1.24-.86-.43-.35-.8-.71-1.1-1.08l.73-.55c.17.2.38.41.64.64.26.23.53.44.82.64s.55.36.8.48c-.06.04-.13.11-.22.2s-.17.19-.25.29c-.08.1-.14.18-.18.25Z"/><path class="cls-5" d="m192.3,151.19l-.49-.48c.74-.72,1.31-1.51,1.71-2.38.4-.87.61-1.83.61-2.89s-.2-2.02-.61-2.89c-.4-.87-.97-1.66-1.71-2.38l.49-.48c.78.72,1.4,1.57,1.86,2.54.46.97.7,2.04.7,3.21s-.23,2.24-.7,3.21c-.46.97-1.08,1.82-1.86,2.54Z"/></g></g></g><g id="_グループ_342"><rect id="_長方形_569-2" class="cls-4" x="243" y="128" width="72" height="19"/><g id="_完成_引渡し" class="cls-2"><g class="cls-2"><path class="cls-5" d="m244.06,142.92c-.02-.07-.05-.17-.11-.3-.06-.13-.12-.25-.19-.38-.07-.12-.13-.22-.19-.29,1.18-.17,2.08-.56,2.68-1.19s.92-1.4.97-2.32h-3.49v-.98h10.57v.98h-3.54v2.88c0,.12.03.21.1.26.06.06.18.08.36.08h1.37c.22,0,.4-.04.53-.11.13-.07.24-.21.31-.41s.13-.51.16-.91c.12.07.28.14.49.22s.38.13.53.17c-.07.59-.18,1.04-.31,1.33s-.32.49-.55.59c-.23.1-.53.14-.89.14h-2.02c-.44,0-.75-.07-.92-.2s-.26-.36-.26-.68v-3.37h-1.36c-.05,1.19-.43,2.18-1.15,2.96-.72.78-1.75,1.29-3.1,1.52Zm-.2-6.94v-2.77h4.51v-1.26h1.22v1.26h4.55v2.72h-1.09v-1.73h-8.09v1.78h-1.1Zm1.85.34v-.98h6.64v.98h-6.64Z"/><path class="cls-5" d="m260,142.71c-.06-.11-.15-.26-.28-.44-.13-.18-.25-.32-.34-.41.57-.26,1.09-.58,1.58-.95s.92-.78,1.31-1.23c-.26-.57-.48-1.23-.68-1.97-.2-.75-.35-1.61-.45-2.59h-3.52v1.37h2.82c0,.63-.02,1.25-.05,1.87-.04.61-.1,1.13-.19,1.55-.1.54-.29.9-.56,1.1-.27.2-.66.3-1.18.3h-.7c-.02-.14-.05-.33-.1-.55-.05-.22-.1-.4-.14-.52h.77c.33,0,.54-.05.64-.15.1-.1.17-.29.23-.56.06-.25.1-.56.13-.94s.04-.75.04-1.13h-1.73c-.03.86-.11,1.61-.22,2.24-.12.63-.28,1.18-.48,1.64-.2.47-.46.89-.76,1.28-.06-.05-.17-.11-.31-.18-.14-.07-.27-.14-.4-.2-.13-.06-.22-.1-.26-.12.32-.4.58-.86.77-1.37.19-.52.33-1.13.42-1.84s.13-1.57.13-2.57v-2.26h4.56c-.02-.33-.03-.67-.04-1.03-.01-.36-.02-.72-.02-1.1h1.09c0,.75.02,1.46.07,2.12h2.27c-.22-.24-.46-.48-.72-.71s-.5-.43-.72-.57l.67-.72c.18.12.39.27.61.46.22.18.44.37.64.56.2.19.36.35.47.49-.06.04-.14.11-.25.21-.11.1-.22.2-.31.29h1.26v1.03h-3.83c.08.71.19,1.36.33,1.94s.3,1.11.47,1.58c.26-.41.5-.84.7-1.28.2-.45.36-.91.49-1.38l1.04.35c-.4,1.28-.97,2.42-1.7,3.41.24.41.5.75.78,1.04.28.28.57.52.86.7.1-.26.19-.54.27-.86.08-.32.14-.59.17-.81.06.04.15.09.28.15.13.06.26.12.4.17.14.05.25.09.32.11-.05.24-.11.5-.19.77-.08.27-.16.53-.24.78s-.17.46-.26.62c-.1.19-.25.31-.43.36-.18.05-.38.01-.59-.11-.37-.19-.74-.45-1.1-.77-.37-.32-.72-.73-1.04-1.23-.82.86-1.75,1.55-2.81,2.05Z"/><path class="cls-5" d="m273,138.6c-.32,0-.59-.11-.82-.34-.23-.23-.34-.5-.34-.82s.11-.6.34-.83c.23-.22.5-.34.82-.34s.6.11.83.34c.22.22.34.5.34.83s-.11.59-.34.82c-.22.23-.5.34-.83.34Z"/><path class="cls-5" d="m281.52,142.76c-.02-.16-.05-.36-.1-.61-.05-.24-.11-.43-.17-.57h1.55c.39,0,.68-.07.87-.2.19-.14.32-.39.4-.76.06-.3.12-.65.17-1.05.05-.4.08-.77.08-1.12h-4.32c.04-.18.09-.42.14-.74.06-.32.11-.66.17-1.02.06-.36.11-.7.16-1.01.04-.31.07-.54.09-.7h3.76v-1.55h-4.04v-1h5.2v3.53h-3.92c-.02.09-.04.23-.07.41-.03.19-.06.38-.1.58s-.06.35-.08.47h4.27c-.02.58-.06,1.17-.11,1.79-.05.62-.12,1.17-.21,1.64-.1.5-.24.88-.44,1.16-.2.28-.46.47-.77.58-.31.11-.68.16-1.12.16h-1.39Zm6.68.04v-10.73h1.16v10.73h-1.16Z"/><path class="cls-5" d="m293.48,137.12c-.14-.14-.34-.29-.59-.47-.25-.18-.5-.34-.76-.5-.26-.16-.49-.28-.69-.36l.55-.86c.22.1.47.23.73.37.26.14.51.3.76.46s.45.32.62.48c-.04.05-.1.13-.19.25-.09.12-.17.24-.25.36s-.14.21-.17.28Zm-1.04,5.51l-.96-.65c.17-.23.34-.52.53-.85.18-.34.37-.69.55-1.06.18-.37.34-.73.49-1.09.14-.35.26-.66.34-.92.05.05.13.12.24.2s.23.17.35.26c.12.08.22.15.29.19-.07.25-.18.55-.32.9-.14.35-.3.72-.48,1.09s-.35.73-.53,1.07c-.18.34-.34.63-.49.86Zm1.46-8.22c-.14-.13-.34-.28-.59-.46s-.5-.34-.76-.5c-.26-.16-.49-.28-.69-.36l.56-.85c.21.09.45.21.72.36.27.15.53.31.79.48s.45.32.61.47c-.04.05-.11.13-.2.25-.09.12-.18.23-.26.35-.08.12-.14.21-.17.27Zm.72,8.44c-.06-.05-.14-.11-.26-.17-.12-.07-.24-.14-.37-.2s-.23-.11-.31-.14c.3-.44.55-.91.75-1.4.2-.5.34-1.08.43-1.75s.14-1.48.14-2.43v-3.54h3.08v-1.24h1.1v1.24h3.19v.94h-1.75v1.07h1.67v.89h-1.67v1.6h-3.32v-1.6h-1.31v.65c0,.78-.03,1.47-.08,2.06-.05.59-.13,1.12-.25,1.58-.11.46-.25.89-.43,1.28-.17.39-.38.78-.63,1.16Zm1.45.08c-.02-.06-.06-.16-.12-.28-.06-.12-.13-.25-.2-.37-.07-.12-.13-.21-.19-.28.94-.18,1.83-.53,2.65-1.04-.49-.52-.88-1.13-1.19-1.84h-.85v-.88h5.04l.37.41c-.24.46-.51.88-.82,1.27s-.63.74-.98,1.06c.38.24.79.44,1.25.61s.97.29,1.52.37c-.05.06-.11.16-.17.28-.07.12-.13.24-.19.37-.06.12-.1.22-.13.29-1.18-.19-2.22-.61-3.1-1.25-.88.6-1.85,1.03-2.9,1.28Zm-.07-7.72h1.31v-1.07h-1.31v1.07Zm3.01,5.16c.22-.18.41-.38.59-.59s.34-.43.49-.66h-2.05c.27.48.6.9.97,1.25Zm-.74-5.16h1.39v-1.07h-1.39v1.07Zm0,1.68h1.39v-.79h-1.39v.79Z"/><path class="cls-5" d="m308.64,142.29c-.59,0-1.07-.06-1.45-.17-.37-.12-.64-.32-.82-.61s-.26-.68-.26-1.18v-7.91l1.21.08c0,.13-.02.35-.04.67-.02.32-.03.67-.04,1.06,0,.3-.01.62-.02.98,0,.36,0,.73,0,1.13v3.79c0,.39.11.66.33.82.22.15.6.23,1.13.23.5,0,1-.07,1.49-.21.49-.14.95-.33,1.38-.56s.81-.49,1.13-.77c0,.1.02.24.04.41.02.17.04.33.07.49.03.16.05.27.07.33-.58.42-1.24.76-1.98,1.02-.74.26-1.5.4-2.26.4Z"/></g></g></g><g id="_グループ_343"><rect id="_長方形_569-3" class="cls-4" x="43" y="117" width="72" height="39"/><g id="_工事請負契約_売買契約" class="cls-2"><g class="cls-2"><path class="cls-5" d="m43.67,130.83v-1.07h4.74v-6.31h-4.06v-1.07h9.29v1.07h-4.04v6.31h4.74v1.07h-10.67Z"/><path class="cls-5" d="m59.1,131.9c-.02-.15-.05-.32-.1-.51-.05-.19-.1-.35-.16-.47h1.15c.17,0,.29-.03.36-.08s.11-.16.11-.32v-.7h-4.04v-.82h4.04v-.7h-4.98v-.76h4.98v-.66h-4.06v-.76h4.06v-.64h-3.16v-2.17h3.16v-.58h-4.63v-.82h4.63v-.94h1.1v.94h4.63v.82h-4.63v.58h3.13v2.17h-3.13v.64h3.67v1.42h1.28v.76h-1.28v1.51h-3.67v.96c0,.39-.11.68-.32.86s-.55.27-1,.27h-1.15Zm-.77-7.15h2.14v-.68h-2.14v.68Zm3.24,0h2.11v-.68h-2.11v.68Zm0,2.8h2.6v-.66h-2.6v.66Zm0,1.45h2.6v-.7h-2.6v.7Z"/><path class="cls-5" d="m67.53,124.05v-.88h4.38v.88h-4.38Zm.54,7.49v-3.37h3.43v3.37h-3.43Zm.07-5.82v-.89h3.23v.89h-3.23Zm0,1.66v-.88h3.23v.88h-3.23Zm.01-4.98v-.9h3.22v.9h-3.22Zm.85,8.27h1.55v-1.61h-1.55v1.61Zm2.75-5.11v-.82h2.72v-.68h-2.04v-.76h2.04v-.66h-2.44v-.8h2.44v-.89h1.03v.89h2.58v.8h-2.58v.66h2.23v.76h-2.23v.68h2.88v.82h-6.64Zm3.68,6.31c0-.14-.03-.31-.07-.52s-.08-.37-.13-.48h.85c.16,0,.27-.03.32-.08.06-.05.08-.15.08-.31v-.72h-2.9v2.09h-.98v-5.69h4.9v4.63c0,.37-.1.64-.29.81-.2.17-.51.26-.93.26h-.85Zm-1.84-4.26h2.9v-.64h-2.9v.64Zm0,1.4h2.9v-.65h-2.9v.65Z"/><path class="cls-5" d="m80.42,132c-.02-.09-.05-.2-.11-.33-.06-.13-.12-.26-.19-.39-.07-.13-.13-.23-.19-.3.35-.06.75-.16,1.19-.3.44-.14.88-.31,1.31-.49.43-.18.8-.36,1.09-.54h-2.12v-5.44c-.2.14-.41.26-.62.38s-.43.24-.64.35c-.07-.13-.17-.28-.29-.44s-.23-.3-.34-.38c.57-.26,1.11-.57,1.62-.94.51-.37.97-.77,1.36-1.19.4-.42.7-.83.91-1.22l1.04.35c-.2.33-.41.63-.64.91h3.61l.3.28c-.18.25-.37.51-.59.8-.22.28-.42.54-.61.77h2.18v5.77h-2.27c.22.13.49.26.79.4.3.14.62.27.95.4s.66.23.98.33c.32.1.61.16.87.2-.05.07-.11.17-.17.3-.07.13-.13.26-.19.39-.06.13-.1.24-.12.33-.39-.1-.82-.24-1.28-.41s-.92-.37-1.37-.58-.84-.44-1.19-.68l.54-.67h-2.56l.54.67c-.34.24-.74.47-1.19.68s-.9.41-1.36.58-.89.31-1.29.41Zm1.48-8.12h3.25c.11-.15.24-.32.39-.51.15-.19.27-.35.35-.47h-2.84c-.18.18-.36.35-.55.51s-.39.32-.6.47Zm.64,1.69h5.06v-.82h-5.06v.82Zm0,1.61h5.06v-.83h-5.06v.83Zm0,1.6h5.06v-.83h-5.06v.83Z"/><path class="cls-5" d="m92.07,131.9c-.03-.11-.09-.28-.17-.49s-.16-.38-.23-.49c1.18-.14,2.12-.37,2.81-.7.69-.33,1.19-.84,1.51-1.52h-4.24v-.97h4.55c.07-.33.12-.69.14-1.08h.12c-.06-.09-.13-.17-.21-.25-.08-.08-.15-.14-.21-.19-.4.08-.86.17-1.37.26-.52.09-1.03.18-1.54.25-.51.08-.95.14-1.34.19l-.25-.98c.27-.02.6-.06,1-.11.39-.05.8-.11,1.22-.16v-1.06h-1.74v-.91h1.74v-.83h-2.05v-.91h2.05v-1h1.12v1h1.78v.91h-1.78v.83h1.44v.91h-1.44v.9c.35-.06.68-.11.98-.16.3-.05.56-.1.78-.14,0,.06,0,.16,0,.31s0,.29,0,.41c.58-.31,1.01-.73,1.27-1.24.26-.52.42-1.18.48-1.99h-1.38v-.96h4.85c0,.3,0,.62-.02.98-.02.36-.04.72-.06,1.08-.02.36-.05.7-.09,1.02s-.07.58-.11.79c-.1.54-.29.9-.56,1.09-.27.19-.66.28-1.18.28h-.65c0-.14-.04-.33-.08-.55-.05-.22-.1-.4-.16-.52h.72c.22,0,.38-.02.49-.05.11-.04.19-.1.24-.2.05-.1.1-.25.14-.45.03-.16.07-.39.1-.7.04-.3.07-.62.09-.95.02-.33.04-.61.04-.85h-1.32c-.06.94-.25,1.73-.58,2.39-.33.66-.86,1.2-1.58,1.62h.18c-.02.19-.04.37-.06.55-.02.17-.05.34-.08.5h4.9v.97h-4.36c.51.61,1.17,1.1,1.96,1.46s1.65.61,2.57.73c-.04.06-.09.15-.16.27-.06.12-.12.25-.18.38-.06.13-.1.24-.13.33-2.26-.32-3.92-1.28-5-2.87-.38.86-.97,1.5-1.77,1.94-.8.44-1.85.76-3.16.95Z"/><path class="cls-5" d="m104.39,130.66c-.06-.03-.16-.07-.28-.11s-.24-.08-.35-.11c-.12-.04-.21-.06-.28-.07.14-.22.27-.51.41-.85.14-.34.26-.69.36-1.06.1-.36.18-.69.23-.98l.89.18c-.05.31-.12.65-.22,1.03-.1.37-.22.73-.35,1.07-.13.34-.27.64-.4.89Zm1.37,1.21v-4.99c-.38.04-.75.08-1.1.11-.35.03-.65.06-.89.07l-.18-.98c.13,0,.27-.02.44-.02.16,0,.34-.02.53-.02.14-.15.3-.34.48-.56.18-.22.35-.45.53-.7-.18-.15-.38-.32-.61-.5-.23-.18-.47-.36-.71-.53s-.46-.33-.67-.46l.56-.78c.09.06.18.12.29.19.1.07.21.14.31.22.13-.19.26-.41.4-.66.14-.25.27-.49.4-.73.12-.24.22-.43.28-.58l.89.37c-.18.33-.38.69-.61,1.07-.23.39-.45.73-.66,1.03.13.1.25.19.37.28.12.09.22.18.32.26.25-.36.47-.71.67-1.04s.35-.6.46-.8l.86.48c-.18.31-.39.67-.65,1.06-.26.4-.53.79-.82,1.19-.29.4-.57.77-.84,1.12.3-.02.6-.05.88-.07.28-.02.53-.05.76-.07-.07-.13-.14-.25-.22-.37-.07-.12-.14-.22-.2-.32l.8-.41c.1.13.19.27.29.43.27-.36.53-.78.76-1.27.24-.49.44-.98.61-1.49.17-.5.29-.96.37-1.36l1.06.22c-.07.3-.16.6-.26.92-.1.32-.21.63-.32.95h3.72v2.04c0,.73,0,1.35-.02,1.87-.01.52-.03.97-.06,1.35-.03.38-.06.73-.1,1.04-.07.58-.2,1.03-.38,1.36-.18.33-.42.56-.72.7-.3.14-.65.2-1.06.2h-1.02c0-.16-.04-.35-.09-.56-.05-.21-.11-.38-.16-.51h1.26c.31,0,.55-.09.72-.26.17-.18.3-.52.4-1.02.07-.36.12-.87.16-1.52.03-.65.05-1.53.05-2.65v-1.07h-3.1c-.13.29-.27.57-.43.84-.16.27-.32.52-.49.76-.1-.07-.24-.16-.42-.26-.18-.1-.33-.18-.44-.22.18.26.34.55.5.85.16.3.29.57.4.81-.1.04-.25.11-.44.2-.19.1-.34.18-.43.24-.04-.1-.09-.22-.14-.34-.05-.12-.11-.24-.17-.37-.15.02-.32.05-.5.07-.18.02-.37.05-.57.08v5.11h-1.02Zm2.27-1.76c-.09-.21-.19-.47-.3-.77-.11-.31-.21-.62-.31-.93-.09-.31-.17-.57-.22-.77l.89-.23c.06.22.13.47.23.76.1.29.21.58.32.86.12.28.22.52.32.71-.06,0-.16.04-.29.08s-.25.1-.37.16c-.12.06-.21.1-.28.13Zm3-1.69c-.1-.26-.23-.54-.38-.83-.15-.29-.31-.58-.47-.85-.17-.28-.33-.51-.49-.71l.84-.47c.26.34.51.72.76,1.14.25.42.46.84.64,1.24-.11.04-.27.11-.46.22-.2.11-.34.2-.43.27Z"/></g><g class="cls-2"><path class="cls-5" d="m79,137.6c-.32,0-.59-.11-.82-.34-.23-.23-.34-.5-.34-.82s.11-.6.34-.83c.23-.22.5-.34.82-.34s.6.11.83.34c.22.22.34.5.34.83s-.11.59-.34.82c-.22.23-.5.34-.83.34Z"/></g><g class="cls-2"><path class="cls-5" d="m56.07,151.91c-.05-.14-.12-.3-.22-.49-.1-.19-.2-.35-.3-.48.8-.11,1.46-.3,1.97-.58.52-.27.9-.67,1.16-1.18.26-.52.39-1.19.4-2.01l1.1.13c-.06,1.35-.42,2.4-1.07,3.13-.65.74-1.67,1.23-3.04,1.48Zm.77-6.92v-.9h3.54v-1.03h-4.69v-.92h4.69v-1.12h1.15v1.12h4.73v.92h-4.73v1.03h3.58v.9h-8.27Zm-.86,3.08v-2.3h10.01v2.28h-1.13v-1.37h-7.73v1.39h-1.15Zm6.67,3.54c-.44,0-.75-.07-.92-.21-.18-.14-.26-.37-.26-.69v-3.56h1.12v3.06c0,.13.03.22.1.28.06.06.19.08.37.08h1.38c.22,0,.4-.04.53-.11s.23-.21.3-.43c.07-.21.12-.52.15-.92.12.07.29.15.5.22s.39.13.55.17c-.07.6-.18,1.05-.31,1.35-.14.3-.32.5-.55.6-.23.1-.53.15-.89.15h-2.05Z"/><path class="cls-5" d="m77.62,151.97c-.34-.09-.72-.21-1.15-.37-.43-.16-.84-.34-1.25-.54-.4-.2-.75-.4-1.04-.59l.48-.56h-3.35l.48.55c-.28.18-.62.37-1.03.57-.4.2-.82.38-1.25.54-.43.16-.83.29-1.19.39-.03-.07-.08-.17-.15-.28-.07-.12-.14-.23-.22-.34s-.15-.2-.2-.25c.3-.06.65-.16,1.03-.28s.76-.26,1.13-.42.69-.31.97-.47h-1.51v-5.09h7.28v5.09h-1.57c.28.16.61.32.98.47s.76.3,1.14.42.72.22,1.01.28c-.06.06-.12.14-.2.25s-.16.23-.23.34-.12.21-.16.29Zm-9.44-7.79v-2.81h9.65v2.81h-9.65Zm1.08-.82h1.81v-1.16h-1.81v1.16Zm1.21,2.9h5.08v-.65h-5.08v.65Zm0,1.4h5.08v-.68h-5.08v.68Zm0,1.42h5.08v-.7h-5.08v.7Zm1.68-5.72h1.73v-1.16h-1.73v1.16Zm2.81,0h1.81v-1.16h-1.81v1.16Z"/><path class="cls-5" d="m80.07,151.9c-.03-.11-.09-.28-.17-.49s-.16-.38-.23-.49c1.18-.14,2.12-.37,2.81-.7.69-.33,1.19-.84,1.51-1.52h-4.24v-.97h4.55c.07-.33.12-.69.14-1.08h.12c-.06-.09-.13-.17-.21-.25-.08-.08-.15-.14-.21-.19-.4.08-.86.17-1.37.26-.52.09-1.03.18-1.54.25-.51.08-.95.14-1.34.19l-.25-.98c.27-.02.6-.06,1-.11.39-.05.8-.11,1.22-.16v-1.06h-1.74v-.91h1.74v-.83h-2.05v-.91h2.05v-1h1.12v1h1.78v.91h-1.78v.83h1.44v.91h-1.44v.9c.35-.06.68-.11.98-.16.3-.05.56-.1.78-.14,0,.06,0,.16,0,.31s0,.29,0,.41c.58-.31,1.01-.73,1.27-1.24.26-.52.42-1.18.48-1.99h-1.38v-.96h4.85c0,.3,0,.62-.02.98-.02.36-.04.72-.06,1.08-.02.36-.05.7-.09,1.02s-.07.58-.11.79c-.1.54-.29.9-.56,1.09-.27.19-.66.28-1.18.28h-.65c0-.14-.04-.33-.08-.55-.05-.22-.1-.4-.16-.52h.72c.22,0,.38-.02.49-.05.11-.04.19-.1.24-.2.05-.1.1-.25.14-.45.03-.16.07-.39.1-.7.04-.3.07-.62.09-.95.02-.33.04-.61.04-.85h-1.32c-.06.94-.25,1.73-.58,2.39-.33.66-.86,1.2-1.58,1.62h.18c-.02.19-.04.37-.06.55-.02.17-.05.34-.08.5h4.9v.97h-4.36c.51.61,1.17,1.1,1.96,1.46s1.65.61,2.57.73c-.04.06-.09.15-.16.27-.06.12-.12.25-.18.38-.06.13-.1.24-.13.33-2.26-.32-3.92-1.28-5-2.87-.38.86-.97,1.5-1.77,1.94-.8.44-1.85.76-3.16.95Z"/><path class="cls-5" d="m92.39,150.66c-.06-.03-.16-.07-.28-.11s-.24-.08-.35-.11c-.12-.04-.21-.06-.28-.07.14-.22.27-.51.41-.85.14-.34.26-.69.36-1.06.1-.36.18-.69.23-.98l.89.18c-.05.31-.12.65-.22,1.03-.1.37-.22.73-.35,1.07-.13.34-.27.64-.4.89Zm1.37,1.21v-4.99c-.38.04-.75.08-1.1.11-.35.03-.65.06-.89.07l-.18-.98c.13,0,.27-.02.44-.02.16,0,.34-.02.53-.02.14-.15.3-.34.48-.56.18-.22.35-.45.53-.7-.18-.15-.38-.32-.61-.5-.23-.18-.47-.36-.71-.53s-.46-.33-.67-.46l.56-.78c.09.06.18.12.29.19.1.07.21.14.31.22.13-.19.26-.41.4-.66.14-.25.27-.49.4-.73.12-.24.22-.43.28-.58l.89.37c-.18.33-.38.69-.61,1.07-.23.39-.45.73-.66,1.03.13.1.25.19.37.28.12.09.22.18.32.26.25-.36.47-.71.67-1.04s.35-.6.46-.8l.86.48c-.18.31-.39.67-.65,1.06-.26.4-.53.79-.82,1.19-.29.4-.57.77-.84,1.12.3-.02.6-.05.88-.07.28-.02.53-.05.76-.07-.07-.13-.14-.25-.22-.37-.07-.12-.14-.22-.2-.32l.8-.41c.1.13.19.27.29.43.27-.36.53-.78.76-1.27.24-.49.44-.98.61-1.49.17-.5.29-.96.37-1.36l1.06.22c-.07.3-.16.6-.26.92-.1.32-.21.63-.32.95h3.72v2.04c0,.73,0,1.35-.02,1.87-.01.52-.03.97-.06,1.35-.03.38-.06.73-.1,1.04-.07.58-.2,1.03-.38,1.36-.18.33-.42.56-.72.7-.3.14-.65.2-1.06.2h-1.02c0-.16-.04-.35-.09-.56-.05-.21-.11-.38-.16-.51h1.26c.31,0,.55-.09.72-.26.17-.18.3-.52.4-1.02.07-.36.12-.87.16-1.52.03-.65.05-1.53.05-2.65v-1.07h-3.1c-.13.29-.27.57-.43.84-.16.27-.32.52-.49.76-.1-.07-.24-.16-.42-.26-.18-.1-.33-.18-.44-.22.18.26.34.55.5.85.16.3.29.57.4.81-.1.04-.25.11-.44.2-.19.1-.34.18-.43.24-.04-.1-.09-.22-.14-.34-.05-.12-.11-.24-.17-.37-.15.02-.32.05-.5.07-.18.02-.37.05-.57.08v5.11h-1.02Zm2.27-1.76c-.09-.21-.19-.47-.3-.77-.11-.31-.21-.62-.31-.93-.09-.31-.17-.57-.22-.77l.89-.23c.06.22.13.47.23.76.1.29.21.58.32.86.12.28.22.52.32.71-.06,0-.16.04-.29.08s-.25.1-.37.16c-.12.06-.21.1-.28.13Zm3-1.69c-.1-.26-.23-.54-.38-.83-.15-.29-.31-.58-.47-.85-.17-.28-.33-.51-.49-.71l.84-.47c.26.34.51.72.76,1.14.25.42.46.84.64,1.24-.11.04-.27.11-.46.22-.2.11-.34.2-.43.27Z"/></g></g></g><g id="_グループ_346"><path id="_パス_246-2" class="cls-1" d="m55.74,346.59l9.26,9.26v-32.35"/><path id="_パス_245-2" class="cls-1" d="m65,287.5v69"/></g><g id="_グループ_353"><path id="_パス_246-3" class="cls-1" d="m131.74,346.59l9.26,9.26v-32.35"/><path id="_パス_245-3" class="cls-1" d="m141,287.5v69"/></g><g id="_グループ_358"><path id="_パス_246-4" class="cls-1" d="m283.74,346.59l9.26,9.26v-32.35"/><path id="_パス_245-4" class="cls-1" d="m293,287.5v69"/></g><g id="_グループ_348"><path id="_パス_149-2" class="cls-1" d="m226.26,296.26l-9.26-9.26v32.35"/><path id="_パス_241-2" class="cls-1" d="m217,287v68"/></g><g id="_グループ_359"><rect id="_長方形_569-4" class="cls-4" x="253" y="303" width="80" height="35"/><g id="_完了報告_新築のみ_" class="cls-2"><g class="cls-2"><path class="cls-5" d="m270.06,317.92c-.02-.07-.05-.17-.11-.3-.06-.13-.12-.25-.19-.38-.07-.12-.13-.22-.19-.29,1.18-.17,2.08-.56,2.68-1.19s.92-1.4.97-2.32h-3.49v-.98h10.57v.98h-3.54v2.88c0,.12.03.21.1.26.06.06.18.08.36.08h1.37c.22,0,.4-.04.53-.11.13-.07.24-.21.31-.41s.13-.51.16-.91c.12.07.28.14.49.22s.38.13.53.17c-.07.59-.18,1.04-.31,1.33s-.32.49-.55.59c-.23.1-.53.14-.89.14h-2.02c-.44,0-.75-.07-.92-.2s-.26-.36-.26-.68v-3.37h-1.36c-.05,1.19-.43,2.18-1.15,2.96-.72.78-1.75,1.29-3.1,1.52Zm-.2-6.94v-2.77h4.51v-1.26h1.22v1.26h4.55v2.72h-1.09v-1.73h-8.09v1.78h-1.1Zm1.85.34v-.98h6.64v.98h-6.64Z"/><path class="cls-5" d="m284.71,317.77c-.02-.16-.05-.36-.1-.6s-.1-.42-.16-.55h1.63c.18,0,.3-.03.37-.09.07-.06.11-.17.11-.33v-5.9h.65c.18-.12.41-.28.68-.49.27-.2.54-.41.81-.63.27-.22.49-.4.65-.55h-7.42v-1.06h9.42l.34.46c-.26.26-.56.54-.9.84-.34.3-.7.59-1.07.89s-.73.57-1.09.83c-.35.26-.67.48-.95.67v5.35c0,.4-.11.69-.33.88-.22.19-.56.28-1.03.28h-1.63Z"/><path class="cls-5" d="m293.48,311.07v-.92h2.34v-1.01h-1.85v-.89h1.85v-1.3h1.02v1.3h1.82v.89h-1.82v1.01h2.29v.92h-5.65Zm2.34,6.79v-2.23h-2v-.92h2v-1.07h-2.2v-.92h1.31c-.07-.22-.16-.44-.25-.68-.1-.24-.18-.43-.26-.57l.91-.26c.1.2.2.45.31.75.11.3.2.55.25.76h.84c.1-.23.2-.5.3-.8.1-.3.18-.54.22-.73l.94.23c-.06.18-.13.39-.22.63-.09.24-.19.46-.28.67h1.32v.92h-2.16v1.07h1.96v.92h-1.96v2.23h-1.02Zm3.59,0v-10.56h4.38v2.28c0,.44-.1.76-.31.97s-.52.31-.95.31h-.95c-.02-.16-.05-.34-.09-.55s-.09-.36-.14-.47h.95c.16,0,.28-.03.35-.08.07-.06.11-.16.11-.31v-1.18h-2.32v3.1h3.56c-.05,1.48-.39,2.79-1.03,3.94.23.3.49.57.78.83.29.26.59.5.91.71-.08.07-.19.2-.34.37-.15.18-.26.32-.33.43-.61-.42-1.14-.9-1.58-1.46-.2.26-.42.51-.65.75s-.49.45-.77.65c-.06-.06-.14-.15-.24-.26-.1-.11-.2-.2-.3-.28v.8h-1.03Zm1.03-1.13c.53-.39.98-.86,1.36-1.4-.53-.9-.88-1.91-1.07-3.01h-.29v4.42Zm1.92-2.38c.3-.65.48-1.33.56-2.04h-1.26c.06.37.15.72.27,1.06.12.34.26.67.43.98Z"/><path class="cls-5" d="m305.52,312.66v-1.02h4.88v-1.8h-2.48c-.17.25-.35.49-.53.73-.19.24-.39.46-.59.65-.09-.1-.22-.22-.4-.37-.18-.15-.35-.27-.5-.35.33-.29.63-.62.92-1.01.28-.38.53-.77.73-1.17.2-.4.35-.76.45-1.09l1.07.36c-.07.2-.15.41-.25.62-.09.21-.19.43-.31.64h1.9v-1.9h1.16v1.9h3.67v.98h-3.67v1.8h4.91v1.02h-10.96Zm1.99,5.11v-4.09h7.01v4.09h-7.01Zm1.13-1h4.75v-2.1h-4.75v2.1Z"/></g><g class="cls-2"><path class="cls-5" d="m267.7,334.19c-.78-.72-1.4-1.57-1.86-2.54-.46-.97-.7-2.04-.7-3.21s.23-2.24.7-3.21c.46-.97,1.08-1.82,1.86-2.54l.49.48c-.73.72-1.3,1.51-1.7,2.38-.41.87-.61,1.83-.61,2.89s.2,2.02.61,2.89.98,1.66,1.7,2.38l-.49.48Z"/><path class="cls-5" d="m271.94,333.85v-3.16c-.27.39-.58.78-.92,1.17-.34.39-.66.71-.95.95-.04-.06-.11-.13-.21-.21-.1-.08-.2-.16-.31-.24-.1-.08-.19-.13-.26-.15.24-.17.5-.4.79-.7s.56-.61.82-.95c.26-.34.48-.64.64-.91h-1.62v-.95h2.03v-1.01h-2.24v-.9h1.43c-.07-.23-.16-.48-.26-.73s-.19-.46-.27-.6l.84-.29c.11.2.23.46.35.77.12.31.22.6.29.85h.73c.08-.18.16-.37.24-.58.08-.21.16-.41.23-.61.07-.19.12-.34.14-.46l.91.25c-.06.2-.15.43-.25.68s-.21.49-.31.71h1.42v.9h-2.21v1.01h1.97v.95h-1.97v.14l.04-.04c.14.17.32.36.54.56.22.21.46.41.71.59.25.19.48.35.7.47-.05.04-.12.11-.21.21-.09.1-.18.2-.26.3s-.14.18-.18.25c-.18-.14-.4-.32-.64-.55-.24-.23-.47-.45-.69-.68v2.92h-1.03Zm-1.99-8.77v-.88h1.96v-1.21h1.08v1.21h1.99v.88h-5.03Zm4.85,8.84c-.06-.06-.16-.12-.28-.2s-.24-.16-.36-.23-.22-.12-.3-.14c.66-.59,1.12-1.36,1.37-2.31s.38-2.1.38-3.46v-3.54c.39,0,.83-.04,1.31-.11.48-.07.95-.18,1.41-.31s.85-.3,1.18-.48l.7.92c-.29.12-.64.24-1.06.37s-.85.23-1.28.32c-.44.09-.83.14-1.18.17v1.94h3.72v1.01h-1.37v6.04h-1.07v-6.04h-1.28c0,1.38-.16,2.56-.47,3.56-.3,1-.78,1.83-1.42,2.5Z"/><path class="cls-5" d="m282.26,325.98s-.13-.09-.25-.16c-.12-.07-.24-.14-.36-.2-.12-.07-.21-.11-.28-.13.26-.22.5-.47.74-.77s.46-.61.66-.94.36-.64.48-.92l1,.23c-.06.13-.12.26-.2.41-.08.14-.16.29-.25.44h3.05v.86h-1.68c.06.16.13.32.19.49s.12.31.16.44c-.07,0-.18.03-.32.07s-.28.07-.41.1c-.14.03-.24.06-.3.08-.04-.16-.1-.35-.17-.56s-.15-.42-.23-.61h-.83c-.16.22-.33.44-.5.65-.17.21-.34.39-.5.54Zm4.22,7.93v-2.39c-.38.29-.8.57-1.27.84-.47.27-.96.52-1.48.74-.51.22-1.02.42-1.52.58-.06-.11-.14-.26-.25-.46-.11-.19-.21-.34-.31-.44.46-.11.93-.27,1.42-.46s.97-.41,1.43-.65c.47-.24.89-.48,1.28-.73h-4v-.88h4.69v-.34c-.06-.11-.14-.23-.23-.34-.09-.12-.18-.21-.26-.29.35-.15.62-.32.79-.5.18-.18.3-.42.36-.7.06-.28.1-.63.1-1.04v-.8h3.47v2.26c0,.09.02.15.07.19.04.04.13.05.26.05.22,0,.39-.03.49-.08.1-.05.17-.16.2-.31.03-.16.05-.39.06-.69.11.06.26.11.44.17.18.06.33.11.46.14-.02.47-.08.83-.18,1.07s-.24.4-.43.49c-.19.08-.45.13-.78.13h-.56c-.32,0-.56-.05-.71-.14-.15-.1-.23-.27-.23-.53v-.17c-.09.06-.2.14-.34.25-.14.11-.24.19-.3.26-.14-.21-.31-.43-.49-.67-.18-.24-.36-.44-.55-.62-.1.67-.38,1.2-.84,1.58h.25v.65h4.69v.88h-3.92c.38.25.81.49,1.27.73s.94.46,1.43.65c.49.19.96.34,1.4.46-.1.1-.2.25-.31.44-.11.19-.19.34-.24.46-.51-.16-1.03-.36-1.55-.59-.52-.23-1.02-.49-1.49-.76-.47-.28-.9-.56-1.27-.85v2.44h-1.04Zm-4.42-4.44l-.22-.96c.18-.02.46-.04.83-.08s.77-.09,1.19-.14v-1.24h-1.8v-.86h4.4v.86h-1.68v1.12c.37-.06.7-.11,1.01-.16.3-.05.54-.09.7-.12v.86c-.2.06-.49.12-.86.18-.38.06-.79.13-1.23.2-.44.07-.87.13-1.29.19-.42.06-.77.11-1.06.15Zm5.05-3.47s-.12-.08-.25-.14c-.12-.06-.25-.13-.38-.19-.13-.06-.23-.1-.31-.12.25-.22.49-.49.71-.8.23-.31.43-.64.62-.97.18-.34.33-.66.43-.96l1.02.25c-.06.13-.12.27-.19.41-.07.15-.14.3-.22.45h3.62v.86h-2.12c.06.16.13.32.2.49.07.17.12.31.15.43-.09,0-.2.03-.35.07-.14.04-.29.07-.43.1-.14.03-.24.06-.31.08-.04-.17-.1-.36-.17-.58-.07-.22-.14-.42-.22-.59h-.89c-.3.48-.62.88-.94,1.21Zm2.66,2.54v-1.64h-1.61c0,.28-.01.54-.04.78l.58-.43c.18.17.38.38.58.64.2.26.36.48.49.66Z"/><path class="cls-5" d="m299.86,332.95c-.04-.14-.13-.33-.26-.55s-.26-.39-.39-.5c.72-.11,1.33-.32,1.84-.62.5-.3.89-.68,1.17-1.12.28-.44.43-.92.45-1.43.02-.48-.04-.92-.2-1.33-.16-.4-.38-.76-.67-1.06-.29-.3-.62-.55-1-.73-.38-.18-.79-.28-1.22-.31-.06.78-.17,1.56-.35,2.35s-.41,1.53-.71,2.21c-.3.68-.66,1.25-1.07,1.7-.28.3-.56.48-.85.54-.28.06-.58.02-.89-.11-.3-.13-.58-.34-.82-.63s-.42-.64-.55-1.05c-.13-.41-.18-.85-.16-1.32.04-.7.21-1.35.5-1.94s.69-1.1,1.18-1.53,1.06-.75,1.7-.97c.64-.22,1.32-.31,2.05-.27.58.03,1.12.16,1.63.4.51.23.96.55,1.36.95.39.4.69.87.91,1.4s.3,1.13.27,1.78c-.06,1.04-.43,1.92-1.12,2.64-.69.72-1.62,1.22-2.81,1.49Zm-3.84-2.05c.09.06.19.08.31.08.12,0,.24-.07.35-.19.31-.33.59-.78.85-1.34s.46-1.2.63-1.91.28-1.42.32-2.15c-.61.11-1.15.34-1.62.7-.47.35-.85.78-1.13,1.3-.28.51-.44,1.07-.47,1.68-.02.44.04.82.19,1.15.15.32.34.55.56.69Z"/><path class="cls-5" d="m310.75,333.58c-.1-.1-.24-.22-.42-.34s-.35-.22-.5-.28c.62-.38,1.18-.87,1.68-1.48.5-.61.91-1.27,1.22-1.99-.41-.12-.81-.22-1.21-.29-.4-.07-.78-.12-1.16-.16-.21.38-.42.72-.64,1.03-.22.31-.43.57-.64.78-.32.32-.66.54-1.03.67-.37.12-.71.16-1.04.11s-.59-.19-.79-.4c-.2-.22-.31-.51-.31-.88,0-.42.15-.81.46-1.16.3-.35.74-.63,1.3-.83.56-.21,1.24-.32,2.03-.32.26-.5.5-1.05.73-1.63s.44-1.15.61-1.71c-.3.08-.64.16-1,.24-.36.08-.7.15-1.01.22-.32.06-.57.11-.76.13l-.3-1.07c.21-.02.47-.04.8-.08s.67-.09,1.03-.16c.36-.06.71-.13,1.03-.2.32-.07.58-.14.77-.21l.78.42c-.15.6-.37,1.26-.64,1.99-.28.73-.58,1.44-.91,2.12.34.03.7.09,1.07.16.37.08.75.17,1.15.27.18-.58.27-1.14.28-1.7l1.1.26c-.04.58-.15,1.16-.32,1.74.68.22,1.33.46,1.94.74-.09.1-.19.27-.29.49-.11.22-.19.4-.23.55-.27-.15-.56-.29-.86-.43-.3-.13-.61-.25-.92-.37-.32.75-.74,1.46-1.26,2.12-.52.66-1.1,1.21-1.75,1.64Zm-3.84-3.34c.02.13.09.23.23.3.14.07.31.08.52.03.21-.05.44-.19.68-.4.26-.26.53-.64.83-1.14-.72.06-1.28.2-1.68.44-.4.24-.59.49-.58.77Z"/><path class="cls-5" d="m318.3,334.19l-.49-.48c.74-.72,1.31-1.51,1.71-2.38.4-.87.61-1.83.61-2.89s-.2-2.02-.61-2.89c-.4-.87-.97-1.66-1.71-2.38l.49-.48c.78.72,1.4,1.57,1.86,2.54.46.97.7,2.04.7,3.21s-.23,2.24-.7,3.21c-.46.97-1.08,1.82-1.86,2.54Z"/></g></g></g><g id="_グループ_356"><rect id="_長方形_569-5" class="cls-4" x="177" y="301" width="80" height="39"/><g id="_交付決定_補助金交付" class="cls-2"><g class="cls-2"><path class="cls-5" d="m194.23,315.9c-.03-.07-.09-.17-.16-.31s-.16-.26-.24-.4-.15-.23-.21-.29c.9-.19,1.73-.45,2.5-.79.77-.33,1.47-.76,2.1-1.28-.68-.75-1.24-1.65-1.68-2.69l.95-.44c.21.47.44.91.69,1.3.25.4.53.76.82,1.09.3-.33.59-.69.85-1.09.26-.4.49-.83.7-1.3l1,.44c-.5,1.03-1.09,1.92-1.79,2.68.66.55,1.39.99,2.17,1.31.78.32,1.61.56,2.47.71-.06.07-.14.18-.23.32-.09.14-.17.28-.25.41-.08.14-.13.24-.16.32-.96-.24-1.84-.55-2.63-.92s-1.51-.84-2.15-1.4c-.61.52-1.3.97-2.08,1.35-.78.38-1.67.71-2.66.98Zm.35-4.86c-.06-.11-.16-.26-.3-.44-.14-.18-.27-.32-.38-.41.37-.18.76-.41,1.18-.7s.81-.6,1.19-.94c.38-.34.68-.66.91-.97h-3.4v-.98h4.63v-1.61h1.19v1.61h4.61v.98h-3.55c.28.3.62.61,1.01.91s.8.58,1.21.83.8.45,1.15.6c-.06.06-.13.14-.21.26-.08.12-.16.24-.23.37-.07.13-.12.23-.16.31-.41-.19-.84-.44-1.28-.73-.45-.3-.87-.61-1.27-.94s-.73-.64-1-.93l.74-.68h-3.44l.82.65c-.23.32-.54.66-.92,1.01s-.79.69-1.23,1.01c-.44.32-.85.58-1.25.78Z"/><path class="cls-5" d="m207.45,315.86v-6.52c-.24.32-.48.62-.73.91s-.49.54-.72.77c-.07-.09-.2-.21-.37-.35-.18-.15-.32-.25-.43-.32.25-.22.51-.49.79-.83s.56-.71.84-1.11.54-.82.79-1.24.45-.82.63-1.2.3-.71.38-1l1.02.36c-.13.37-.29.75-.47,1.15-.19.4-.4.8-.63,1.2v8.17h-1.09Zm4.61-.04c0-.15-.04-.34-.1-.58-.06-.23-.11-.41-.17-.53h1.36c.17,0,.29-.03.36-.09.07-.06.11-.17.11-.33v-5.46h-4.49v-1.04h4.49v-2.69h1.12v2.69h1.78v1.04h-1.78v5.86c0,.39-.11.68-.32.86-.21.18-.54.27-.99.27h-1.37Zm-.43-2.94c-.11-.22-.27-.49-.49-.8-.21-.31-.43-.62-.67-.92-.23-.3-.44-.54-.62-.73l.91-.62c.19.19.4.43.63.71.23.28.45.58.67.88.22.3.39.58.53.83-.07.03-.17.09-.31.17s-.26.17-.38.26c-.12.09-.21.16-.27.21Z"/><path class="cls-5" d="m219.33,310.04c-.14-.14-.34-.29-.59-.46s-.5-.34-.76-.5c-.26-.16-.49-.28-.69-.36l.55-.88c.22.1.47.23.73.37.26.14.51.3.76.46s.45.32.62.48c-.04.05-.1.13-.19.25s-.17.24-.25.36c-.08.12-.14.21-.17.28Zm-.9,5.63l-.91-.7c.18-.22.36-.5.56-.83s.4-.67.59-1.04c.2-.36.37-.72.53-1.06s.28-.64.37-.9c.05.05.13.12.23.21.11.09.22.18.34.28s.21.16.28.2c-.08.25-.2.54-.36.88s-.34.7-.53,1.07-.39.72-.58,1.06c-.19.33-.37.61-.53.83Zm1.7-8.27c-.14-.13-.34-.28-.59-.46s-.5-.34-.76-.5-.49-.28-.69-.36l.56-.85c.21.09.45.21.71.36.27.15.53.31.78.48s.45.32.61.47c-.04.05-.1.13-.19.25s-.17.23-.26.35c-.08.12-.14.21-.17.27Zm.25,8.54c-.06-.12-.15-.28-.27-.47-.12-.19-.24-.34-.35-.46.95-.35,1.71-.84,2.26-1.48.56-.63.93-1.42,1.12-2.36h-2.89v-1h3.04c.02-.14.02-.27.02-.4v-1.81h-2.32v-.97h2.32v-2.05h1.09v2.05h2.83v3.18h1.24v1h-3.71c.22.55.51,1.07.89,1.56s.82.91,1.32,1.28c.5.36,1.03.65,1.6.86-.07.06-.16.16-.25.29s-.18.26-.26.39c-.08.13-.13.23-.16.3-.92-.42-1.7-.96-2.33-1.61-.64-.65-1.14-1.42-1.52-2.33-.57,1.86-1.79,3.2-3.67,4.02Zm3.98-5.76h1.76v-2.21h-1.73v1.4c0,.27-.01.54-.04.8Z"/><path class="cls-5" d="m230.16,315.71c-.06-.07-.14-.16-.25-.26-.11-.1-.23-.2-.34-.29s-.22-.15-.31-.19c.46-.33.89-.73,1.3-1.22.41-.48.77-1.01,1.08-1.57.31-.56.53-1.11.67-1.64l1.12.36c-.07.25-.16.5-.26.74-.1.25-.22.5-.36.74.21.39.45.73.73,1,.28.28.59.5.94.68v-4.39h-2.98v-1h7v1h-2.88v1.63h3.22v1.01h-3.22v2.11c.26.06.55.1.85.12.3.02.61.04.94.04.51,0,1.06-.01,1.63-.04.58-.03,1.08-.07,1.52-.13-.02.06-.06.16-.1.32s-.07.32-.1.48c-.03.16-.05.29-.05.38-.41,0-.88.01-1.4.02s-1.03,0-1.5,0c-.93,0-1.72-.08-2.36-.24-.65-.16-1.19-.41-1.64-.74-.44-.34-.83-.76-1.16-1.28-.6.92-1.29,1.7-2.08,2.35Zm-.32-6.55v-2.62h4.54v-1.56h1.19v1.56h4.6v2.57h-1.1v-1.63h-8.12v1.68h-1.09Z"/></g><g class="cls-2"><path class="cls-5" d="m217,321.6c-.32,0-.59-.11-.82-.34-.23-.23-.34-.5-.34-.82s.11-.6.34-.83c.23-.22.5-.34.82-.34s.6.11.83.34c.22.22.34.5.34.83s-.11.59-.34.82c-.22.23-.5.34-.83.34Z"/></g><g class="cls-2"><path class="cls-5" d="m189.12,335.88v-4.64c-.19.22-.39.42-.59.62-.2.2-.42.39-.64.57-.08-.1-.2-.22-.35-.38s-.28-.27-.37-.34c.43-.33.84-.71,1.24-1.13.39-.43.74-.86,1.06-1.31.31-.44.56-.86.73-1.24h-2.64v-.92h1.54v-2.12h1v2.12h1.1l.4.37c-.19.42-.41.84-.65,1.26-.24.42-.5.82-.78,1.21.19.14.41.3.64.46.24.16.46.32.68.46.22.14.4.26.54.35-.1.08-.21.2-.33.35-.12.16-.22.29-.28.39-.38-.25-.8-.56-1.27-.92v4.85h-1.01Zm3.08,0v-6.54c-.14.18-.31.38-.49.6-.18.22-.34.39-.46.52-.06-.06-.17-.15-.32-.27-.15-.12-.25-.19-.32-.23.18-.16.36-.37.56-.62.2-.25.36-.48.5-.69l.53.36v-.53h2.41v-.92h-2.76v-.92h2.76v-1.68h1.01v1.68h1.54c-.16-.17-.35-.35-.58-.53-.22-.19-.42-.33-.59-.44l.58-.6c.13.08.28.19.45.33.17.14.34.28.51.43.17.15.3.27.4.38-.04.03-.1.09-.19.18l-.25.25h.92v.92h-2.78v.92h2.41v6.41c0,.66-.38,1-1.15,1h-.68c0-.14-.03-.31-.08-.53-.04-.22-.09-.38-.14-.48h.67c.15,0,.26-.03.32-.08.06-.05.1-.15.1-.29v-1.3h-1.45v2.41h-1.01v-2.41h-1.44v2.68h-.97Zm.97-5.42h1.44v-1.08h-1.44v1.08Zm0,1.93h1.44v-1.1h-1.44v1.1Zm2.45-1.93h1.45v-1.08h-1.45v1.08Zm0,1.93h1.45v-1.1h-1.45v1.1Z"/><path class="cls-5" d="m199.55,334.84l-.24-1.18c.11-.02.24-.03.39-.05.15-.02.31-.05.47-.08v-7.9h4.12v7.02c.18-.05.35-.09.5-.13.15-.04.28-.08.39-.11v1.01c-.25.08-.55.17-.91.28-.36.1-.75.21-1.18.32-.42.11-.85.21-1.28.32-.43.1-.84.2-1.23.29s-.73.16-1.03.22Zm1.69-6.7h1.97v-1.5h-1.97v1.5Zm0,2.46h1.97v-1.51h-1.97v1.51Zm0,2.72c.66-.13,1.32-.26,1.97-.41v-1.37h-1.97v1.78Zm2.59,2.59c-.08-.16-.18-.32-.31-.48-.12-.16-.24-.29-.35-.4.62-.3,1.14-.61,1.56-.94s.77-.73,1.03-1.21c.26-.47.45-1.05.57-1.75.12-.69.18-1.55.18-2.56h-1.66v-1.07h1.66v-2.36h1.08v2.36h2.44c0,.25,0,.51,0,.79,0,.28,0,.56,0,.86,0,.92-.01,1.76-.04,2.51-.03.76-.07,1.38-.14,1.87-.07.55-.19.99-.35,1.3-.16.32-.38.54-.64.67-.26.13-.59.19-.97.19h-.79c-.02-.18-.06-.37-.11-.58-.05-.21-.09-.36-.13-.46h.86c.19,0,.35-.03.49-.09.13-.06.24-.18.33-.37.09-.18.16-.45.22-.8.06-.4.12-.97.16-1.72.04-.75.06-1.56.07-2.44v-.66h-1.37c0,1.06-.09,1.98-.23,2.76-.15.78-.38,1.44-.68,2-.31.56-.7,1.04-1.16,1.45-.47.41-1.03.78-1.67,1.12Z"/><path class="cls-5" d="m211.79,329.96c-.06-.11-.14-.26-.26-.45-.12-.19-.24-.35-.38-.47.5-.18,1.01-.42,1.55-.74.54-.32,1.05-.67,1.55-1.06.5-.39.95-.79,1.35-1.2.4-.41.71-.8.94-1.16l1.04.17c.3.42.65.83,1.06,1.22.41.39.86.75,1.33,1.08.48.33.96.63,1.45.88.49.26.96.47,1.4.64-.08.08-.17.19-.26.32-.1.14-.19.27-.27.4s-.15.24-.19.32c-.41-.18-.85-.41-1.31-.68-.47-.27-.93-.57-1.4-.91s-.9-.7-1.31-1.08c-.41-.38-.76-.78-1.05-1.2-.25.34-.57.69-.98,1.06-.4.37-.85.74-1.34,1.1-.49.36-.98.7-1.49,1s-.98.56-1.44.76Zm.14,5.53v-.96h4.49v-2.71h-3.68v-1h3.68v-1.24h-2.15v-.98h5.45v.98h-2.14v1.24h3.65v1h-3.65v2.71h4.42v.96h-10.07Zm2.65-1.03c-.07-.18-.18-.39-.32-.63-.14-.24-.3-.48-.46-.72-.16-.24-.31-.42-.46-.56l.9-.54c.23.27.46.57.67.9.22.33.41.66.59.98l-.92.56Zm4.8,0l-.91-.47c.18-.28.38-.61.58-1s.36-.73.47-1.04l.98.42c-.08.19-.18.41-.31.67s-.26.5-.41.75c-.14.25-.28.47-.41.67Z"/><path class="cls-5" d="m224.23,335.9c-.03-.07-.09-.17-.16-.31s-.16-.26-.24-.4-.15-.23-.21-.29c.9-.19,1.73-.45,2.5-.79.77-.33,1.47-.76,2.1-1.28-.68-.75-1.24-1.65-1.68-2.69l.95-.44c.21.47.44.91.69,1.3.25.4.53.76.82,1.09.3-.33.59-.69.85-1.09.26-.4.49-.83.7-1.3l1,.44c-.5,1.03-1.09,1.92-1.79,2.68.66.55,1.39.99,2.17,1.31.78.32,1.61.56,2.47.71-.06.07-.14.18-.23.32-.09.14-.17.28-.25.41-.08.14-.13.24-.16.32-.96-.24-1.84-.55-2.63-.92s-1.51-.84-2.15-1.4c-.61.52-1.3.97-2.08,1.35-.78.38-1.67.71-2.66.98Zm.35-4.86c-.06-.11-.16-.26-.3-.44-.14-.18-.27-.32-.38-.41.37-.18.76-.41,1.18-.7s.81-.6,1.19-.94c.38-.34.68-.66.91-.97h-3.4v-.98h4.63v-1.61h1.19v1.61h4.61v.98h-3.55c.28.3.62.61,1.01.91s.8.58,1.21.83.8.45,1.15.6c-.06.06-.13.14-.21.26-.08.12-.16.24-.23.37-.07.13-.12.23-.16.31-.41-.19-.84-.44-1.28-.73-.45-.3-.87-.61-1.27-.94s-.73-.64-1-.93l.74-.68h-3.44l.82.65c-.23.32-.54.66-.92,1.01s-.79.69-1.23,1.01c-.44.32-.85.58-1.25.78Z"/><path class="cls-5" d="m237.45,335.86v-6.52c-.24.32-.48.62-.73.91s-.49.54-.72.77c-.07-.09-.2-.21-.37-.35-.18-.15-.32-.25-.43-.32.25-.22.51-.49.79-.83s.56-.71.84-1.11.54-.82.79-1.24.45-.82.63-1.2.3-.71.38-1l1.02.36c-.13.37-.29.75-.47,1.15-.19.4-.4.8-.63,1.2v8.17h-1.09Zm4.61-.04c0-.15-.04-.34-.1-.58-.06-.23-.11-.41-.17-.53h1.36c.17,0,.29-.03.36-.09.07-.06.11-.17.11-.33v-5.46h-4.49v-1.04h4.49v-2.69h1.12v2.69h1.78v1.04h-1.78v5.86c0,.39-.11.68-.32.86-.21.18-.54.27-.99.27h-1.37Zm-.43-2.94c-.11-.22-.27-.49-.49-.8-.21-.31-.43-.62-.67-.92-.23-.3-.44-.54-.62-.73l.91-.62c.19.19.4.43.63.71.23.28.45.58.67.88.22.3.39.58.53.83-.07.03-.17.09-.31.17s-.26.17-.38.26c-.12.09-.21.16-.27.21Z"/></g></g></g><g id="_グループ_351"><rect id="_長方形_569-6" class="cls-4" x="25" y="311" width="80" height="19"/><g id="_事業者登録" class="cls-2"><g class="cls-2"><path class="cls-5" d="m39.1,325.9c-.02-.15-.05-.32-.1-.51-.05-.19-.1-.35-.16-.47h1.15c.17,0,.29-.03.36-.08s.11-.16.11-.32v-.7h-4.04v-.82h4.04v-.7h-4.98v-.76h4.98v-.66h-4.06v-.76h4.06v-.64h-3.16v-2.17h3.16v-.58h-4.63v-.82h4.63v-.94h1.1v.94h4.63v.82h-4.63v.58h3.13v2.17h-3.13v.64h3.67v1.42h1.28v.76h-1.28v1.51h-3.67v.96c0,.39-.11.68-.32.86s-.55.27-1,.27h-1.15Zm-.77-7.15h2.14v-.68h-2.14v.68Zm3.24,0h2.11v-.68h-2.11v.68Zm0,2.8h2.6v-.66h-2.6v.66Zm0,1.45h2.6v-.7h-2.6v.7Z"/><path class="cls-5" d="m52.48,325.95v-2.6c-.36.34-.78.66-1.25.97-.47.31-.96.59-1.47.83-.51.25-1.01.45-1.49.61-.02-.06-.07-.15-.14-.26-.07-.11-.15-.23-.23-.34-.08-.12-.15-.2-.2-.26.45-.13.92-.31,1.42-.53.5-.23.98-.48,1.45-.77.47-.28.87-.56,1.22-.83h-4.04v-.86h4.75v-.74h-3.58v-.83h3.58v-.71h-4.08v-.85h2.39c-.07-.16-.15-.32-.23-.49s-.16-.32-.24-.44h-2.6v-.86h2.02c-.1-.21-.23-.46-.37-.76s-.28-.53-.42-.71l.94-.44c.1.15.2.33.31.54.11.21.22.41.32.61.1.2.17.35.22.47l-.67.29h1.36v-1.97h1.02v1.97h1.08v-1.97h1.02v1.97h1.38l-.79-.31c.1-.14.22-.3.34-.49.12-.19.23-.39.34-.58.1-.2.18-.37.24-.51l1.02.32c-.08.15-.18.33-.3.52-.12.2-.24.39-.36.58-.12.19-.23.35-.32.47h2.2v.86h-2.62c-.06.15-.12.31-.2.47s-.16.32-.23.46h2.29v.85h-4v.71h3.54v.83h-3.54v.74h4.75v.86h-4.07c.35.27.76.55,1.22.82.46.28.94.53,1.43.76.5.23.96.41,1.4.54-.06.06-.12.14-.2.26-.08.12-.15.23-.21.35-.06.12-.11.21-.14.27-.48-.16-.97-.36-1.48-.61-.51-.25-.99-.53-1.46-.83-.46-.31-.88-.62-1.25-.95v2.59h-1.03Zm-.54-7.19h2.11c.07-.14.15-.29.23-.46s.15-.33.22-.48h-2.98c.08.16.16.32.23.49s.14.32.19.44Z"/><path class="cls-5" d="m62.19,325.86v-3.84c-.39.18-.8.35-1.21.53-.42.18-.84.35-1.28.53-.02-.08-.07-.19-.14-.32-.07-.13-.14-.26-.22-.4-.08-.13-.14-.23-.19-.28.98-.3,1.92-.64,2.8-1.04s1.7-.86,2.45-1.37h-4.87v-.96h4.39v-1.32h-3.06v-.96h3.06v-1.48h1.1v1.48h1.88v.96h-1.88v1.32h.66c1.17-.98,2.1-2.11,2.78-3.4l.97.52c-.36.56-.73,1.08-1.12,1.56-.38.48-.78.92-1.18,1.32h3.28v.96h-4.36c-.58.48-1.22.92-1.9,1.32h4.24v4.87h-6.23Zm1.08-2.87h4.07v-1.08h-4.07v1.08Zm0,1.96h4.07v-1.12h-4.07v1.12Z"/><path class="cls-5" d="m71.77,320.82c-.06-.11-.15-.26-.28-.43-.13-.18-.24-.3-.32-.38.45-.19.88-.42,1.28-.69.41-.27.79-.56,1.15-.87-.21-.21-.44-.42-.71-.64-.26-.22-.5-.39-.71-.52l.64-.66c.22.14.46.31.74.53.28.22.52.43.74.62.23-.25.44-.5.62-.76.18-.26.34-.51.47-.76h-2.7v-.9h3.67l.43.34c-.2.47-.45.93-.74,1.37-.29.44-.62.86-.98,1.26h3.76c-.8-.86-1.41-1.85-1.84-2.95l.89-.32c.19.51.46,1.01.79,1.5.17-.12.35-.26.54-.41.19-.16.38-.31.55-.47.18-.16.31-.3.41-.41l.68.64c-.14.14-.3.29-.49.46-.19.17-.39.34-.59.5s-.39.3-.55.41c.1.12.21.24.32.35.11.12.23.23.35.34.17-.12.36-.27.57-.44.21-.17.41-.34.6-.52.19-.17.33-.31.44-.43l.68.62c-.13.13-.28.28-.47.44-.18.17-.37.33-.57.5s-.37.31-.53.43c.33.25.67.47,1.03.67s.74.38,1.13.53c-.07.06-.15.14-.24.26s-.17.24-.25.36-.13.22-.17.29c-1.13-.52-2.1-1.18-2.92-1.97v.58h-4.42v-.66c-.44.44-.91.85-1.42,1.22s-1.04.69-1.6.97Zm.12,4.68v-.94h3.19c-.07-.21-.15-.42-.25-.62s-.17-.38-.25-.5l.79-.23h-1.76v-3.04h6.73v3.04h-1.57l.65.19c-.06.17-.13.36-.22.56s-.18.41-.27.6h3.19v.94h-10.24Zm2.81-3.19h4.57v-1.25h-4.57v1.25Zm1.55,2.26h1.52c.1-.2.2-.43.31-.68s.2-.48.26-.67h-2.69c.1.18.2.39.31.65.11.26.2.49.28.7Z"/><path class="cls-5" d="m83.85,325.65l-.3-.97c.23-.02.53-.06.9-.12.37-.06.76-.12,1.18-.19v-3.24h-1.75v-.88h1.75v-1.16h-1.2v-.72c-.1.1-.19.19-.29.28-.1.09-.19.17-.29.25-.07-.1-.19-.22-.35-.37-.16-.15-.29-.26-.4-.34.25-.17.51-.39.77-.66.27-.27.53-.56.77-.88.25-.31.47-.62.65-.91.19-.3.32-.56.4-.78l.94.16c.09.16.22.35.39.56s.36.43.58.65.43.43.64.62c.22.2.42.35.61.47-.06.05-.13.12-.23.22s-.19.2-.28.3c-.09.1-.16.19-.2.25-.34-.26-.69-.57-1.05-.94s-.68-.75-.94-1.15c-.18.31-.4.65-.68,1.03s-.57.72-.88,1.05h3.35v.9h-1.31v1.16h1.56v.88h-1.56v3.05c.66-.12,1.18-.24,1.58-.36v.94c-.22.06-.52.14-.9.22s-.78.17-1.21.26c-.43.09-.84.17-1.25.25-.4.08-.75.13-1.03.17Zm.73-1.72c-.06-.19-.13-.41-.22-.67s-.19-.5-.29-.74c-.1-.24-.19-.45-.28-.61l.85-.3c.09.17.18.37.28.62.1.24.19.49.28.73s.16.45.2.63c-.11.03-.26.09-.43.16-.18.08-.3.13-.38.17Zm2.98-.26c-.08-.04-.21-.09-.38-.16-.18-.07-.31-.12-.41-.15.09-.15.18-.35.29-.58.1-.24.2-.48.3-.72.1-.24.16-.45.2-.61l.88.31c-.05.14-.12.34-.23.58-.1.24-.21.48-.33.73-.12.24-.22.45-.32.61Zm2.33,2.2c-.02-.14-.05-.31-.1-.52s-.1-.37-.14-.48h.82c.16,0,.27-.03.34-.08.06-.05.1-.15.1-.31v-1.01c-.2.11-.44.24-.71.37-.27.14-.54.26-.8.38-.26.12-.5.22-.7.31l-.36-.97c.23-.07.51-.17.82-.3.32-.13.63-.26.95-.41.32-.14.58-.28.8-.4v-2.52h-2.54v-.94h3.78v-.95h-2.96v-.9h2.96v-.9h-3.06v-.92h4.09v3.67h1.3v.94h-2.56v1.1c.05.1.1.21.17.32.06.11.13.22.2.34.16-.13.33-.28.52-.44.18-.17.36-.33.52-.5.16-.16.28-.3.37-.41l.67.65c-.18.22-.42.46-.73.73-.31.27-.59.5-.85.69.29.36.61.7.95,1.03.35.32.69.61,1.04.86-.06.05-.13.12-.23.23-.1.1-.2.21-.29.31-.09.1-.16.19-.2.25-.37-.29-.74-.64-1.12-1.06-.38-.42-.72-.87-1.03-1.36v2.12c0,.37-.1.64-.3.8-.2.17-.5.25-.91.25h-.8Zm-.06-3.38c-.15-.24-.33-.5-.55-.77s-.41-.51-.59-.69l.77-.56c.2.2.41.43.62.7.21.26.39.51.55.74-.05.02-.13.08-.23.16-.11.08-.22.17-.32.25-.11.08-.19.14-.23.18Z"/></g></g></g><g id="_グループ_354"><rect id="_長方形_569-7" class="cls-4" x="101" y="311" width="80" height="19"/><g id="_交付申請" class="cls-2"><g class="cls-2"><path class="cls-5" d="m118.24,325.9c-.03-.07-.09-.17-.16-.31s-.16-.26-.24-.4-.15-.23-.21-.29c.9-.19,1.73-.45,2.5-.79.77-.33,1.47-.76,2.1-1.28-.68-.75-1.24-1.65-1.68-2.69l.95-.44c.21.47.44.91.69,1.3.25.4.53.76.82,1.09.3-.33.59-.69.85-1.09.26-.4.49-.83.7-1.3l1,.44c-.5,1.03-1.09,1.92-1.79,2.68.66.55,1.39.99,2.17,1.31.78.32,1.61.56,2.47.71-.06.07-.14.18-.23.32-.09.14-.17.28-.25.41-.08.14-.13.24-.16.32-.96-.24-1.84-.55-2.63-.92s-1.51-.84-2.15-1.4c-.61.52-1.3.97-2.08,1.35-.78.38-1.67.71-2.66.98Zm.35-4.86c-.06-.11-.16-.26-.3-.44-.14-.18-.27-.32-.38-.41.37-.18.76-.41,1.18-.7s.81-.6,1.19-.94c.38-.34.68-.66.91-.97h-3.4v-.98h4.63v-1.61h1.19v1.61h4.61v.98h-3.55c.28.3.62.61,1.01.91s.8.58,1.21.83.8.45,1.15.6c-.06.06-.13.14-.21.26-.08.12-.16.24-.23.37-.07.13-.12.23-.16.31-.41-.19-.84-.44-1.28-.73-.45-.3-.87-.61-1.27-.94s-.73-.64-1-.93l.74-.68h-3.44l.82.65c-.23.32-.54.66-.92,1.01s-.79.69-1.23,1.01c-.44.32-.85.58-1.25.78Z"/><path class="cls-5" d="m131.45,325.86v-6.52c-.24.32-.48.62-.73.91s-.49.54-.72.77c-.07-.09-.2-.21-.37-.35-.18-.15-.32-.25-.43-.32.25-.22.51-.49.79-.83s.56-.71.84-1.11.54-.82.79-1.24.45-.82.63-1.2.3-.71.38-1l1.02.36c-.13.37-.29.75-.47,1.15-.19.4-.4.8-.63,1.2v8.17h-1.09Zm4.61-.04c0-.15-.04-.34-.1-.58-.06-.23-.11-.41-.17-.53h1.36c.17,0,.29-.03.36-.09.07-.06.11-.17.11-.33v-5.46h-4.49v-1.04h4.49v-2.69h1.12v2.69h1.78v1.04h-1.78v5.86c0,.39-.11.68-.32.86-.21.18-.54.27-.99.27h-1.37Zm-.43-2.94c-.11-.22-.27-.49-.49-.8-.21-.31-.43-.62-.67-.92-.23-.3-.44-.54-.62-.73l.91-.62c.19.19.4.43.63.71.23.28.45.58.67.88.22.3.39.58.53.83-.07.03-.17.09-.31.17s-.26.17-.38.26c-.12.09-.21.16-.27.21Z"/><path class="cls-5" d="m146.41,325.91v-3.22h-3.89v-5.98h3.89v-1.74h1.15v1.74h3.91v5.98h-3.91v3.22h-1.15Zm-2.72-6.71h2.72v-1.45h-2.72v1.45Zm0,2.46h2.72v-1.49h-2.72v1.49Zm3.88-2.46h2.75v-1.45h-2.75v1.45Zm0,2.46h2.75v-1.49h-2.75v1.49Z"/><path class="cls-5" d="m153.53,318.05v-.88h4.38v.88h-4.38Zm.54,7.49v-3.37h3.43v3.37h-3.43Zm.07-5.82v-.89h3.23v.89h-3.23Zm0,1.66v-.88h3.23v.88h-3.23Zm.01-4.98v-.9h3.22v.9h-3.22Zm.85,8.27h1.55v-1.61h-1.55v1.61Zm2.75-5.11v-.82h2.72v-.68h-2.04v-.76h2.04v-.66h-2.44v-.8h2.44v-.89h1.03v.89h2.58v.8h-2.58v.66h2.23v.76h-2.23v.68h2.88v.82h-6.64Zm3.68,6.31c0-.14-.03-.31-.07-.52s-.08-.37-.13-.48h.85c.16,0,.27-.03.32-.08.06-.05.08-.15.08-.31v-.72h-2.9v2.09h-.98v-5.69h4.9v4.63c0,.37-.1.64-.29.81-.2.17-.51.26-.93.26h-.85Zm-1.84-4.26h2.9v-.64h-2.9v.64Zm0,1.4h2.9v-.65h-2.9v.65Z"/></g></g></g><g id="_工事施工業者_住宅販売事業者" class="cls-2"><g class="cls-2"><path class="cls-3" d="m81.78,249.8v-1.25h5.53v-7.36h-4.73v-1.25h10.84v1.25h-4.72v7.36h5.53v1.25h-12.45Z"/><path class="cls-3" d="m99.79,251.05c-.02-.18-.06-.38-.11-.59-.06-.22-.12-.4-.18-.55h1.34c.2,0,.34-.03.42-.1.08-.06.13-.19.13-.38v-.81h-4.72v-.95h4.72v-.81h-5.81v-.88h5.81v-.77h-4.73v-.88h4.73v-.74h-3.68v-2.53h3.68v-.67h-5.4v-.95h5.4v-1.09h1.29v1.09h5.4v.95h-5.4v.67h3.65v2.53h-3.65v.74h4.28v1.65h1.5v.88h-1.5v1.76h-4.28v1.12c0,.46-.13.79-.38,1s-.64.31-1.16.31h-1.34Zm-.9-8.34h2.49v-.8h-2.49v.8Zm3.78,0h2.46v-.8h-2.46v.8Zm0,3.26h3.04v-.77h-3.04v.77Zm0,1.69h3.04v-.81h-3.04v.81Z"/><path class="cls-3" d="m111.74,250.99c-.02-.16-.05-.36-.1-.6-.05-.24-.1-.42-.15-.55h.74c.24,0,.43-.06.56-.2s.24-.39.32-.78c.05-.21.09-.5.14-.84.05-.35.09-.72.13-1.11s.07-.78.08-1.16c.02-.37.03-.7.03-.97h-1.12c-.07.78-.2,1.56-.37,2.33-.17.77-.39,1.48-.67,2.14-.27.66-.59,1.22-.95,1.67-.08-.08-.18-.15-.32-.24-.14-.08-.28-.16-.42-.23-.14-.07-.26-.11-.35-.13.63-.75,1.11-1.74,1.44-2.98.32-1.24.48-2.66.48-4.27v-1.2h-1.55v-1.12h2.18v-2.45h1.23v2.45h1.95v1.12h-2.56v1.48c0,.09,0,.19-.01.29h2.21c0,.45,0,.94-.02,1.47-.01.53-.04,1.06-.07,1.6-.03.53-.07,1.02-.12,1.47-.05.45-.1.81-.17,1.09-.15.61-.37,1.04-.66,1.31-.29.27-.71.4-1.26.4h-.62Zm5.45-.21c-.46,0-.79-.08-.99-.23-.2-.15-.3-.41-.3-.78v-4l-.88.25-.35-1.09,1.23-.36v-1.86c-.2.3-.4.57-.6.81-.12-.1-.29-.22-.51-.35-.22-.13-.39-.22-.52-.28.27-.26.53-.59.78-.99s.49-.82.7-1.26c.21-.44.4-.88.55-1.29s.25-.78.31-1.09l1.19.28c-.07.29-.16.58-.25.87-.09.29-.2.57-.31.85h4.96v1.08h-5.46c-.12.23-.25.46-.39.69-.13.23-.28.45-.43.67h1.13v1.54l1.02-.29v-2.04h1.11v1.72l1.88-.55.45.2v3.7c0,.39-.12.69-.36.89-.24.2-.63.33-1.18.4-.07-.19-.15-.37-.25-.54s-.19-.29-.27-.36c0-.03,0-.07.01-.14v-.11h.45c.17,0,.29-.03.36-.1.07-.07.1-.17.1-.32v-2.23l-1.19.35v3.79h-1.11v-3.47l-1.02.31v3.79c0,.14.04.24.11.31.08.07.21.11.42.11h2.6c.26,0,.47-.02.62-.06.15-.04.27-.17.36-.39.08-.22.14-.59.18-1.1.13.08.32.15.57.23s.45.14.61.19c-.07.54-.15.97-.27,1.27-.11.31-.25.53-.41.67-.16.14-.36.23-.58.27-.22.04-.48.06-.77.06h-3.3Z"/><path class="cls-3" d="m123.78,249.8v-1.25h5.53v-7.36h-4.73v-1.25h10.84v1.25h-4.72v7.36h5.53v1.25h-12.45Z"/><path class="cls-3" d="m143.4,251.11v-3.04c-.42.39-.91.77-1.46,1.13s-1.12.68-1.71.97-1.17.53-1.74.71c-.03-.07-.08-.18-.17-.31s-.17-.26-.27-.4c-.09-.13-.17-.24-.24-.3.52-.15,1.07-.36,1.65-.62.58-.27,1.14-.56,1.69-.9.55-.33,1.02-.66,1.42-.97h-4.72v-1.01h5.54v-.87h-4.17v-.97h4.17v-.83h-4.76v-.99h2.79c-.08-.19-.17-.38-.27-.57-.09-.2-.19-.37-.28-.52h-3.04v-1.01h2.35c-.12-.24-.27-.54-.43-.88-.17-.35-.33-.62-.49-.83l1.09-.52c.11.18.23.39.36.63.13.24.25.48.37.71.12.23.2.41.26.55l-.78.34h1.58v-2.3h1.19v2.3h1.26v-2.3h1.19v2.3h1.61l-.92-.36c.12-.16.25-.35.39-.57.14-.22.27-.45.39-.68.12-.23.21-.43.28-.59l1.19.38c-.09.18-.21.38-.35.61-.14.23-.28.45-.42.67-.14.22-.27.4-.38.55h2.56v1.01h-3.05c-.07.18-.15.36-.24.55-.09.19-.18.37-.27.54h2.67v.99h-4.66v.83h4.13v.97h-4.13v.87h5.54v1.01h-4.75c.41.32.88.64,1.42.96.54.32,1.09.62,1.67.89.58.27,1.12.48,1.64.63-.07.07-.14.17-.23.3-.09.13-.17.27-.25.41-.08.13-.13.24-.17.31-.56-.19-1.14-.42-1.73-.71s-1.16-.61-1.7-.97c-.54-.36-1.03-.73-1.46-1.11v3.02h-1.2Zm-.63-8.39h2.46c.08-.16.17-.34.27-.53.09-.2.18-.38.25-.56h-3.47c.09.19.18.38.27.57.09.2.16.37.22.52Z"/><path class="cls-3" d="m154.72,251.01v-4.48c-.46.21-.93.41-1.41.62-.49.21-.99.41-1.5.62-.03-.09-.08-.22-.16-.37-.08-.15-.16-.31-.25-.46-.09-.15-.16-.26-.22-.33,1.15-.34,2.24-.75,3.27-1.22s1.99-1,2.86-1.6h-5.68v-1.12h5.12v-1.54h-3.57v-1.12h3.57v-1.72h1.29v1.72h2.2v1.12h-2.2v1.54h.77c1.36-1.14,2.45-2.46,3.25-3.96l1.13.6c-.42.65-.85,1.26-1.3,1.82-.45.56-.91,1.07-1.37,1.54h3.82v1.12h-5.08c-.68.56-1.42,1.07-2.21,1.54h4.94v5.68h-7.27Zm1.26-3.35h4.75v-1.26h-4.75v1.26Zm0,2.28h4.75v-1.3h-4.75v1.3Z"/><path class="cls-3" d="m172,246.04c-.37,0-.69-.13-.96-.4s-.4-.58-.4-.96.13-.7.4-.97c.27-.26.59-.39.96-.39s.71.13.97.39.39.58.39.97-.13.69-.39.96c-.26.27-.58.4-.97.4Z"/><path class="cls-3" d="m181.39,251.05v-7.6c-.19.3-.38.59-.58.86-.2.28-.41.54-.62.78-.13-.13-.29-.26-.48-.39s-.37-.24-.52-.34c.35-.36.7-.81,1.04-1.33.34-.52.66-1.07.95-1.65.29-.58.55-1.14.78-1.68.22-.54.39-1.02.5-1.44l1.25.34c-.15.45-.31.9-.5,1.36-.18.46-.38.91-.59,1.34v9.76h-1.22Zm1.83-.56v-1.19h3.82v-3.05h-2.97v-1.23h2.97v-2.63h-3.54v-1.18h4.3c-.18-.22-.39-.47-.65-.73-.26-.26-.52-.52-.8-.76-.28-.25-.53-.46-.76-.64l.91-.88c.25.18.52.4.81.66.29.26.57.53.85.8s.51.52.71.74c-.1.08-.25.21-.43.38-.19.17-.34.31-.45.43h3.89v1.18h-3.5v2.63h2.93v1.23h-2.93v3.05h3.85v1.19h-9Z"/><path class="cls-3" d="m200.39,250.78c-.51,0-.87-.08-1.08-.25-.21-.16-.31-.43-.31-.8v-2.9l-5.29.39-.1-1.19,5.39-.41v-1.62c-.54.09-1.07.17-1.59.23-.52.06-1.01.11-1.48.15-.02-.1-.05-.23-.1-.39-.05-.16-.1-.31-.15-.46-.05-.15-.1-.26-.13-.32.54-.03,1.15-.08,1.83-.16.68-.08,1.38-.18,2.09-.31.71-.13,1.38-.27,2-.43.62-.16,1.15-.33,1.57-.51l.78,1.05c-.49.18-1.04.34-1.64.5-.6.15-1.22.3-1.86.43v1.76l5.88-.43.1,1.19-5.98.45v2.39c0,.14.04.24.11.31s.21.1.43.1h2.77c.29,0,.52-.04.68-.13s.29-.26.37-.52c.08-.26.14-.64.18-1.14.14.08.35.17.62.26s.5.16.68.2c-.08.72-.21,1.26-.36,1.64-.16.37-.38.62-.65.75s-.64.19-1.08.19h-3.68Zm-6.4-7.84v-2.98h5.26v-1.69h1.43v1.69h5.31v2.97h-1.3v-1.85h-9.37v1.86h-1.33Z"/><path class="cls-3" d="m208.48,250.94c-.07-.05-.16-.11-.29-.2s-.26-.17-.38-.25-.23-.13-.3-.16c.2-.19.4-.42.6-.7.21-.28.4-.57.59-.87.19-.3.33-.58.43-.84l1.02.46c-.12.28-.28.58-.47.9-.19.32-.39.62-.6.91s-.41.54-.59.74Zm6.37.11c-.08-.12-.21-.27-.38-.46-.17-.18-.32-.31-.43-.37.54-.33,1.03-.7,1.46-1.13.43-.42.82-.89,1.16-1.41-.68-1.26-1.12-2.77-1.32-4.52h-.35v.45c0,1.16-.07,2.17-.2,3.05-.13.88-.35,1.67-.65,2.37-.3.7-.7,1.37-1.2,2-.11-.09-.27-.2-.47-.32-.2-.12-.37-.21-.51-.27.05-.06.09-.11.14-.17.05-.06.09-.11.13-.17-.27-.24-.55-.52-.83-.83-.28-.31-.53-.61-.74-.91l.88-.64h-3.14v-8.95h4.14v8.95h-.99c.16.24.35.49.58.73.23.25.46.48.69.69.35-.67.61-1.45.78-2.34.16-.89.25-1.96.25-3.21v-4.8h6.29v1.11h-5.14v2.17h4.19l.39.29c-.12,1.02-.31,1.97-.57,2.87-.26.9-.6,1.73-1.04,2.51.32.46.67.88,1.07,1.27.4.39.84.74,1.32,1.05-.13.1-.28.25-.46.44-.17.19-.3.35-.38.47-.43-.32-.83-.66-1.2-1.04-.37-.37-.71-.77-1.01-1.2-.32.43-.68.84-1.08,1.22-.41.38-.86.74-1.37,1.08Zm-5.36-9.63h1.97v-1.57h-1.97v1.57Zm0,2.58h1.97v-1.58h-1.97v1.58Zm0,2.66h1.97v-1.67h-1.97v1.67Zm7.8-.1c.5-1.04.83-2.17.98-3.39h-1.9c.16,1.27.47,2.4.92,3.39Z"/><path class="cls-3" d="m222.25,251.06c-.06-.16-.14-.35-.25-.57-.11-.22-.23-.41-.35-.56.93-.13,1.7-.35,2.3-.67s1.05-.78,1.35-1.38c.3-.6.45-1.38.46-2.34l1.29.15c-.07,1.58-.49,2.79-1.25,3.65s-1.94,1.43-3.55,1.72Zm.9-8.08v-1.05h4.13v-1.2h-5.47v-1.08h5.47v-1.3h1.34v1.3h5.52v1.08h-5.52v1.2h4.17v1.05h-9.65Zm-1.01,3.6v-2.69h11.68v2.66h-1.32v-1.6h-9.02v1.62h-1.34Zm7.78,4.13c-.51,0-.87-.08-1.08-.25-.21-.16-.31-.43-.31-.8v-4.16h1.3v3.57c0,.15.04.26.11.32.07.07.22.1.43.1h1.61c.26,0,.47-.04.62-.13s.27-.25.35-.5.14-.6.18-1.07c.14.08.33.17.58.26.25.09.46.16.64.2-.08.7-.21,1.23-.36,1.58-.16.35-.37.58-.64.7-.27.12-.61.17-1.04.17h-2.39Z"/><path class="cls-3" d="m239.79,251.05c-.02-.18-.06-.38-.11-.59-.06-.22-.12-.4-.18-.55h1.34c.2,0,.34-.03.42-.1.08-.06.13-.19.13-.38v-.81h-4.72v-.95h4.72v-.81h-5.81v-.88h5.81v-.77h-4.73v-.88h4.73v-.74h-3.68v-2.53h3.68v-.67h-5.4v-.95h5.4v-1.09h1.29v1.09h5.4v.95h-5.4v.67h3.65v2.53h-3.65v.74h4.28v1.65h1.5v.88h-1.5v1.76h-4.28v1.12c0,.46-.13.79-.38,1s-.64.31-1.16.31h-1.34Zm-.9-8.34h2.49v-.8h-2.49v.8Zm3.78,0h2.46v-.8h-2.46v.8Zm0,3.26h3.04v-.77h-3.04v.77Zm0,1.69h3.04v-.81h-3.04v.81Z"/><path class="cls-3" d="m255.4,251.11v-3.04c-.42.39-.91.77-1.46,1.13s-1.12.68-1.71.97-1.17.53-1.74.71c-.03-.07-.08-.18-.17-.31s-.17-.26-.27-.4c-.09-.13-.17-.24-.24-.3.52-.15,1.07-.36,1.65-.62.58-.27,1.14-.56,1.69-.9.55-.33,1.02-.66,1.42-.97h-4.72v-1.01h5.54v-.87h-4.17v-.97h4.17v-.83h-4.76v-.99h2.79c-.08-.19-.17-.38-.27-.57-.09-.2-.19-.37-.28-.52h-3.04v-1.01h2.35c-.12-.24-.27-.54-.43-.88-.17-.35-.33-.62-.49-.83l1.09-.52c.11.18.23.39.36.63.13.24.25.48.37.71.12.23.2.41.26.55l-.78.34h1.58v-2.3h1.19v2.3h1.26v-2.3h1.19v2.3h1.61l-.92-.36c.12-.16.25-.35.39-.57.14-.22.27-.45.39-.68.12-.23.21-.43.28-.59l1.19.38c-.09.18-.21.38-.35.61-.14.23-.28.45-.42.67-.14.22-.27.4-.38.55h2.56v1.01h-3.05c-.07.18-.15.36-.24.55-.09.19-.18.37-.27.54h2.67v.99h-4.66v.83h4.13v.97h-4.13v.87h5.54v1.01h-4.75c.41.32.88.64,1.42.96.54.32,1.09.62,1.67.89.58.27,1.12.48,1.64.63-.07.07-.14.17-.23.3-.09.13-.17.27-.25.41-.08.13-.13.24-.17.31-.56-.19-1.14-.42-1.73-.71s-1.16-.61-1.7-.97c-.54-.36-1.03-.73-1.46-1.11v3.02h-1.2Zm-.63-8.39h2.46c.08-.16.17-.34.27-.53.09-.2.18-.38.25-.56h-3.47c.09.19.18.38.27.57.09.2.16.37.22.52Z"/><path class="cls-3" d="m266.72,251.01v-4.48c-.46.21-.93.41-1.41.62-.49.21-.99.41-1.5.62-.03-.09-.08-.22-.16-.37-.08-.15-.16-.31-.25-.46-.09-.15-.16-.26-.22-.33,1.15-.34,2.24-.75,3.27-1.22s1.99-1,2.86-1.6h-5.68v-1.12h5.12v-1.54h-3.57v-1.12h3.57v-1.72h1.29v1.72h2.2v1.12h-2.2v1.54h.77c1.36-1.14,2.45-2.46,3.25-3.96l1.13.6c-.42.65-.85,1.26-1.3,1.82-.45.56-.91,1.07-1.37,1.54h3.82v1.12h-5.08c-.68.56-1.42,1.07-2.21,1.54h4.94v5.68h-7.27Zm1.26-3.35h4.75v-1.26h-4.75v1.26Zm0,2.28h4.75v-1.3h-4.75v1.3Z"/></g></g></g></g></svg>